<svg width="276" height="487" viewBox="0 0 276 487" fill="none" xmlns="http://www.w3.org/2000/svg">
<g clip-path="url(#clip0_2_571)">
<rect x="3" y="3" width="270" height="481" rx="20" fill="white"/>
<circle cx="138.015" cy="188" r="54" fill="#B8FF90"/>
<path d="M109.015 187.833L121.2 202.339C123.394 204.951 124.491 206.256 125.904 206.55C126.359 206.645 126.826 206.663 127.287 206.603C128.718 206.418 129.912 205.2 132.3 202.764L167.349 167" stroke="#061D19" stroke-width="8" stroke-linecap="round" stroke-linejoin="round"/>
<path d="M74.5468 296.099L70.4789 296.125L70.3265 272.005L80.1903 271.943C85.2662 271.911 89.2425 274.478 89.2789 280.238C89.3137 285.746 85.4064 288.398 80.2945 288.431L74.4986 288.467L74.5468 296.099ZM79.817 275.545L74.4171 275.58L74.4758 284.867L79.8757 284.833C82.6477 284.816 85.089 283.756 85.067 280.264C85.0433 276.52 82.589 275.528 79.817 275.545ZM95.8742 296.324C92.9942 296.343 91.256 294.734 91.2401 292.214C91.2244 289.73 92.9428 288.207 95.7797 287.073L101.632 284.552C101.477 282.789 100.677 281.606 98.2653 281.621C95.9254 281.636 94.098 283.015 93.1017 284.858L90.6715 281.993C92.0276 280.112 94.7508 278.079 98.6388 278.055C102.995 278.027 105.458 280.496 105.486 284.815L105.527 291.403C105.532 292.195 105.822 292.445 106.47 292.441L107.586 292.434L107.608 295.89L105.124 295.906C103.252 295.918 101.77 295.063 101.754 292.543L101.746 291.247C101.221 293.555 99.5461 296.301 95.8742 296.324ZM95.1242 291.577C95.1305 292.585 95.8184 293.193 97.2944 293.183C99.9583 293.167 101.748 291.571 101.733 289.195L101.721 287.323L97.2342 289.368C95.7266 290.061 95.1185 290.677 95.1242 291.577ZM113.657 301.864C111.137 301.88 109.077 300.597 108.096 299.235L109.983 295.983C110.928 297.309 112.014 298.31 113.634 298.3C115.002 298.292 115.862 297.674 116.498 295.726L116.816 294.752L114.332 294.768L108.432 278.353L112.86 278.325L116.091 288.24L117.38 292.912L118.611 288.225L121.68 278.269L126.144 278.241L119.782 297.037C118.545 300.573 116.501 301.846 113.657 301.864ZM131.984 295.736L127.952 295.762L127.842 278.23L131.873 278.205L131.904 282.992C132.534 280.216 134.247 277.83 137.559 277.809C140.763 277.788 142.503 279.649 142.704 282.96C143.298 280.184 145.011 277.761 148.359 277.74C151.707 277.719 153.484 279.76 153.507 283.396L153.584 295.6L149.552 295.625L149.483 284.645C149.467 282.233 148.452 281.016 146.076 281.031C143.7 281.046 142.704 282.96 142.722 285.84L142.784 295.668L138.752 295.693L138.683 284.714C138.667 282.302 137.652 281.084 135.276 281.099C132.9 281.114 131.904 283.028 131.922 285.908L131.984 295.736ZM165.437 295.885C160.217 295.918 156.774 292.303 156.739 286.832C156.705 281.324 160.102 277.666 165.034 277.635C170.289 277.602 173.227 281.075 173.258 285.935C173.262 286.583 173.195 287.34 173.125 287.7L160.598 287.779C160.833 290.91 162.68 292.59 165.452 292.573C168.512 292.553 169.87 290.961 170.509 289.481L173.009 292.057C171.69 294.081 169.325 295.86 165.437 295.885ZM165.054 280.875C162.57 280.891 160.923 282.341 160.617 285.187L169.617 285.13C169.311 282.36 167.718 280.858 165.054 280.875ZM180.886 295.427L176.854 295.453L176.743 277.921L180.775 277.895L180.805 282.683C181.436 279.907 183.22 277.52 186.712 277.498C190.132 277.476 192.233 279.515 192.256 283.151L192.333 295.355L188.265 295.38L188.196 284.401C188.182 282.241 187.453 280.769 184.753 280.786C181.801 280.805 180.805 282.719 180.823 285.599L180.886 295.427ZM202.352 295.687C199.04 295.708 197.119 293.632 197.099 290.537L197.038 280.925L194.302 280.942L194.283 277.81L197.019 277.793L197.005 275.669L201.021 273.087L201.051 277.767L206.414 277.733L206.434 280.865L201.07 280.899L201.125 289.539C201.137 291.447 202.04 291.909 203.228 291.902C204.596 291.893 205.597 290.771 206.094 289.76L207.377 293.352C206.628 294.472 204.908 295.671 202.352 295.687ZM64.3524 341.525C59.7445 341.554 55.5221 339.924 53.6244 335.868L56.486 332.934C57.8042 336.454 61.4488 337.799 64.4007 337.78C66.8127 337.765 68.7512 336.889 68.7373 334.693C68.7225 332.353 66.7745 331.717 63.6382 331.053L61.3671 330.563C57.9426 329.865 54.2969 328.34 54.268 323.768C54.2393 319.232 58.1478 316.759 62.6837 316.731C67.1116 316.703 70.6511 318.516 72.4 321.817L69.3585 324.753C68.0076 321.773 65.4075 320.493 62.4556 320.512C60.1516 320.527 58.5025 321.617 58.5141 323.453C58.5275 325.577 60.1882 326.323 62.8203 326.954L65.5243 327.585C69.3822 328.497 72.8476 329.987 72.8768 334.595C72.9043 338.95 69.2483 341.494 64.3524 341.525ZM81.9594 341.413C78.5755 341.435 76.4746 339.396 76.4516 335.76L76.3745 323.556L80.4064 323.531L80.4758 334.511C80.4894 336.67 81.2187 338.142 83.9187 338.125C86.8706 338.106 87.8665 336.192 87.8483 333.312L87.7862 323.484L91.8541 323.458L91.965 340.99L87.897 341.016L87.8668 336.228C87.2363 339.004 85.4514 341.391 81.9594 341.413ZM103.738 341.276C98.518 341.309 95.2188 337.657 95.1845 332.221C95.1499 326.75 98.4026 323.057 103.623 323.024C108.014 322.996 110.802 325.463 111.759 328.769L108.134 330.592C107.723 328.074 106.416 326.39 103.716 326.407C100.944 326.425 99.265 328.488 99.2884 332.196C99.3116 335.867 101.017 337.909 103.788 337.891C106.524 337.874 107.774 336.174 108.154 333.652L111.801 335.429C110.886 338.746 108.13 341.248 103.738 341.276ZM122.23 341.159C117.01 341.192 113.711 337.541 113.676 332.105C113.642 326.633 116.894 322.94 122.114 322.907C126.506 322.879 129.294 325.346 130.251 328.652L126.626 330.475C126.214 327.957 124.908 326.274 122.208 326.291C119.436 326.308 117.757 328.371 117.78 332.079C117.803 335.751 119.508 337.792 122.28 337.774C125.016 337.757 126.266 336.057 126.646 333.535L130.293 335.312C129.378 338.629 126.622 341.131 122.23 341.159ZM140.901 341.041C135.682 341.074 132.239 337.459 132.204 331.988C132.169 326.48 135.566 322.822 140.498 322.791C145.754 322.758 148.692 326.231 148.723 331.091C148.727 331.739 148.66 332.496 148.59 332.856L136.062 332.935C136.298 336.066 138.145 337.746 140.917 337.729C143.977 337.709 145.334 336.117 145.973 334.637L148.473 337.213C147.154 339.237 144.789 341.016 140.901 341.041ZM140.519 326.031C138.035 326.047 136.388 327.497 136.082 330.343L145.082 330.286C144.776 327.516 143.183 326.014 140.519 326.031ZM159.24 340.925C155.496 340.948 152.067 339.458 150.717 336.695L153.077 334.16C154.06 335.917 156.232 337.704 159.364 337.684C161.092 337.673 162.204 337.054 162.196 335.794C162.187 334.498 160.853 334.074 158.906 333.619L156.562 333.058C153.786 332.427 151.223 331.219 151.202 328.015C151.182 324.739 153.797 322.743 157.829 322.717C161.573 322.694 164.212 324.477 165.305 326.45L162.945 328.985C161.708 327.049 159.829 325.909 157.561 325.923C156.013 325.933 154.973 326.587 154.981 327.775C154.989 329.035 155.928 329.498 158.308 330.094L160.435 330.621C164.365 331.604 165.815 333.179 165.831 335.699C165.853 339.155 162.948 340.901 159.24 340.925ZM175.833 340.82C172.09 340.844 168.66 339.353 167.311 336.59L169.671 334.055C170.654 335.813 172.825 337.599 175.957 337.579C177.685 337.568 178.797 336.949 178.789 335.689C178.781 334.393 177.446 333.97 175.499 333.514L173.156 332.953C170.38 332.322 167.816 331.114 167.796 327.91C167.775 324.635 170.39 322.638 174.422 322.612C178.166 322.589 180.806 324.372 181.898 326.345L179.538 328.88C178.302 326.944 176.423 325.804 174.155 325.818C172.607 325.828 171.567 326.483 171.574 327.671C171.582 328.931 172.521 329.393 174.901 329.99L177.028 330.516C180.959 331.499 182.409 333.074 182.425 335.594C182.446 339.05 179.541 340.796 175.833 340.82ZM190.658 340.366L186.626 340.392L186.535 325.992L183.835 326.009L183.815 322.877L186.515 322.86L186.509 321.78C186.486 318.144 188.703 315.898 192.411 315.875C194.967 315.858 196.667 317.108 197.393 318.039L195.647 320.93C194.993 319.89 193.944 319.105 192.612 319.113C191.136 319.123 190.529 319.919 190.538 321.359L190.547 322.835L195.659 322.802L195.679 325.934L190.567 325.967L190.658 340.366ZM203.914 340.642C200.53 340.664 198.429 338.625 198.406 334.989L198.329 322.785L202.361 322.76L202.43 333.74C202.444 335.9 203.173 337.371 205.873 337.354C208.825 337.335 209.821 335.421 209.803 332.541L209.741 322.713L213.809 322.688L213.92 340.219L209.852 340.245L209.821 335.457C209.191 338.233 207.406 340.62 203.914 340.642ZM222.197 340.167L218.165 340.192L218.012 316.073L222.044 316.047L222.197 340.167Z" fill="#161516"/>
<path d="M95 -6H180V6C180 11.5228 175.523 16 170 16H105C99.4772 16 95 11.5228 95 6V-6Z" fill="#061D19"/>
<rect x="119" y="8" width="37" height="3" rx="1.5" fill="white" fill-opacity="0.2"/>
<circle cx="137.5" cy="12.5" r="1.5" fill="white" fill-opacity="0.2"/>
<rect x="110" y="474" width="56" height="3" rx="1.5" fill="#061D19"/>
</g>
<rect x="3" y="3" width="270" height="481" rx="20" stroke="#061D19" stroke-width="5"/>
<defs>
<clipPath id="clip0_2_571">
<rect x="3" y="3" width="270" height="481" rx="20" fill="white"/>
</clipPath>
</defs>
</svg>
