<svg width="1080" height="947" viewBox="0 0 1080 947" fill="none" xmlns="http://www.w3.org/2000/svg">
<rect width="1080" height="947" fill="white"/>
<line opacity="0.05" x1="145.5" y1="214" x2="145.5" y2="736" stroke="black"/>
<line opacity="0.05" x1="215.5" y1="214" x2="215.5" y2="736" stroke="black"/>
<line opacity="0.05" x1="285.5" y1="214" x2="285.5" y2="736" stroke="black"/>
<line opacity="0.05" x1="355.5" y1="214" x2="355.5" y2="736" stroke="black"/>
<line opacity="0.05" x1="425.5" y1="214" x2="425.5" y2="736" stroke="black"/>
<line opacity="0.05" x1="495.5" y1="214" x2="495.5" y2="736" stroke="black"/>
<line opacity="0.05" x1="565.5" y1="214" x2="565.5" y2="736" stroke="black"/>
<line opacity="0.05" x1="635.5" y1="214" x2="635.5" y2="736" stroke="black"/>
<line opacity="0.05" x1="705.5" y1="214" x2="705.5" y2="736" stroke="black"/>
<line opacity="0.05" x1="775.5" y1="214" x2="775.5" y2="736" stroke="black"/>
<line opacity="0.05" x1="845.5" y1="214" x2="845.5" y2="736" stroke="black"/>
<line opacity="0.05" x1="915.5" y1="214" x2="915.5" y2="736" stroke="black"/>
<line opacity="0.05" x1="70" y1="269.5" x2="990" y2="269.5" stroke="black"/>
<line opacity="0.05" x1="70" y1="329.5" x2="990" y2="329.5" stroke="black"/>
<line opacity="0.05" x1="70" y1="389.5" x2="990" y2="389.5" stroke="black"/>
<line opacity="0.05" x1="70" y1="449.5" x2="990" y2="449.5" stroke="black"/>
<line opacity="0.05" x1="70" y1="509.5" x2="990" y2="509.5" stroke="black"/>
<line opacity="0.05" x1="70" y1="569.5" x2="990" y2="569.5" stroke="black"/>
<line opacity="0.05" x1="70" y1="629.5" x2="990" y2="629.501" stroke="black"/>
<path d="M366.618 109.37C361.956 109.37 357.701 107.594 356.073 103.006L358.515 100.86C359.662 104.893 363.51 106.336 366.618 106.336C369.393 106.336 371.724 105.263 371.724 102.562C371.724 99.713 369.541 99.01 366.248 98.233L363.917 97.715C360.624 96.975 356.887 95.495 356.887 90.833C356.887 86.319 360.809 83.877 365.138 83.877C369.615 83.877 373.167 85.838 374.684 89.538L371.983 91.684C370.799 88.317 368.283 86.948 365.064 86.948C362.326 86.948 360.291 88.317 360.291 90.611C360.291 93.09 362.104 94.015 364.953 94.718L367.654 95.384C371.169 96.235 375.017 97.604 375.017 102.488C375.017 106.78 371.428 109.37 366.618 109.37ZM386.757 109.37C381.614 109.37 378.321 105.744 378.321 100.046C378.321 94.385 381.614 90.722 386.757 90.722C391.419 90.722 394.157 93.423 395.008 97.012L391.863 98.307C391.493 95.458 390.013 93.423 386.794 93.423C383.538 93.423 381.577 95.828 381.577 100.046C381.577 104.264 383.538 106.706 386.794 106.706C390.013 106.706 391.493 104.634 391.863 101.785L395.008 103.08C394.157 106.669 391.419 109.37 386.757 109.37ZM402.677 109.37C399.643 109.37 397.941 107.631 397.941 105.263C397.941 102.858 399.754 101.341 402.307 100.194L408.782 97.308C408.671 95.199 407.672 93.645 404.86 93.645C402.307 93.645 400.605 95.125 399.68 97.086L397.497 94.829C398.57 92.979 401.234 90.722 405.23 90.722C409.633 90.722 412.001 93.349 412.001 97.604V104.967C412.001 105.818 412.334 106.077 413 106.077H414.147V109H412.075C410.225 109 408.893 108.112 408.893 105.596V104.338C408.301 106.706 406.377 109.37 402.677 109.37ZM401.197 104.745C401.197 105.966 402.048 106.706 403.713 106.706C406.747 106.706 408.893 104.708 408.893 102.118V99.639L403.676 102.081C401.974 102.895 401.197 103.635 401.197 104.745ZM421.093 109H417.874V84.21H421.093V109ZM429.632 109.37C426.598 109.37 424.896 107.631 424.896 105.263C424.896 102.858 426.709 101.341 429.262 100.194L435.737 97.308C435.626 95.199 434.627 93.645 431.815 93.645C429.262 93.645 427.56 95.125 426.635 97.086L424.452 94.829C425.525 92.979 428.189 90.722 432.185 90.722C436.588 90.722 438.956 93.349 438.956 97.604V104.967C438.956 105.818 439.289 106.077 439.955 106.077H441.102V109H439.03C437.18 109 435.848 108.112 435.848 105.596V104.338C435.256 106.706 433.332 109.37 429.632 109.37ZM428.152 104.745C428.152 105.966 429.003 106.706 430.668 106.706C433.702 106.706 435.848 104.708 435.848 102.118V99.639L430.631 102.081C428.929 102.895 428.152 103.635 428.152 104.745ZM448.048 109H444.829V84.21H448.048V95.754C448.677 93.016 450.379 90.722 453.82 90.722C458.371 90.722 461.183 94.422 461.183 100.083C461.183 105.744 458.371 109.444 453.82 109.444C450.379 109.444 448.677 107.15 448.048 104.412V109ZM448.048 101.378C448.048 104.338 449.306 106.743 452.71 106.743C455.596 106.743 457.927 104.671 457.927 100.083C457.927 95.532 455.596 93.46 452.71 93.46C449.306 93.46 448.048 95.865 448.048 98.825V101.378ZM468.283 109H465.064V84.21H468.283V109ZM480.743 109.37C475.674 109.37 472.159 105.744 472.159 100.046C472.159 94.385 475.637 90.722 480.558 90.722C485.627 90.722 488.698 94.089 488.698 99.343C488.698 99.898 488.624 100.453 488.55 100.786H475.267C475.452 104.56 477.561 106.706 480.743 106.706C484.332 106.706 485.775 104.745 486.478 103.191L488.439 105.411C487.107 107.557 484.628 109.37 480.743 109.37ZM480.558 93.423C477.672 93.423 475.748 95.125 475.341 98.455H485.812C485.479 95.162 483.555 93.423 480.558 93.423ZM504.199 88.206H500.98V84.21H504.199V88.206ZM504.199 109H500.98V91.092H504.199V109ZM512.256 109H509.037V91.092H512.256V95.865C512.959 93.09 514.883 90.722 518.398 90.722C521.913 90.722 524.096 92.831 524.096 96.642V109H520.914V97.419C520.914 95.088 519.989 93.46 516.955 93.46C513.514 93.46 512.256 95.865 512.256 98.862V109ZM532.993 109H529.774V93.608H526.851V91.092H529.774V89.427C529.774 85.838 532.068 83.84 535.435 83.84C538.173 83.84 539.875 85.32 540.615 86.467L538.839 88.761C538.136 87.466 536.989 86.504 535.398 86.504C533.733 86.504 532.993 87.466 532.993 89.168V91.092H538.765V93.608H532.993V109ZM545.137 109H541.918V91.092H545.137V95.865C545.84 93.09 547.69 90.685 550.724 90.685C552.648 90.685 554.498 92.054 554.498 94.57C554.498 96.087 554.091 97.197 553.795 97.641H550.28C550.872 97.123 551.353 96.013 551.353 95.014C551.353 93.978 550.798 93.09 549.503 93.09C547.209 93.09 545.137 95.791 545.137 98.862V109ZM561.047 109.37C558.013 109.37 556.311 107.631 556.311 105.263C556.311 102.858 558.124 101.341 560.677 100.194L567.152 97.308C567.041 95.199 566.042 93.645 563.23 93.645C560.677 93.645 558.975 95.125 558.05 97.086L555.867 94.829C556.94 92.979 559.604 90.722 563.6 90.722C568.003 90.722 570.371 93.349 570.371 97.604V104.967C570.371 105.818 570.704 106.077 571.37 106.077H572.517V109H570.445C568.595 109 567.263 108.112 567.263 105.596V104.338C566.671 106.706 564.747 109.37 561.047 109.37ZM559.567 104.745C559.567 105.966 560.418 106.706 562.083 106.706C565.117 106.706 567.263 104.708 567.263 102.118V99.639L562.046 102.081C560.344 102.895 559.567 103.635 559.567 104.745ZM582.658 109.37C578.921 109.37 575.517 107.742 574.296 104.412L576.627 102.599C577.256 104.634 579.217 106.669 582.769 106.669C584.878 106.669 586.284 105.855 586.284 104.264C586.284 102.636 584.656 102.118 582.547 101.637L580.179 101.082C577.626 100.49 574.851 99.269 574.851 95.976C574.851 92.72 577.367 90.722 581.252 90.722C585.026 90.722 587.653 92.72 588.652 95.088L586.21 96.901C585.322 94.792 583.62 93.46 581.067 93.46C579.217 93.46 577.885 94.274 577.885 95.791C577.885 97.382 579.069 97.937 581.511 98.529L583.805 99.121C587.838 100.083 589.17 101.748 589.17 104.227C589.17 107.779 586.136 109.37 582.658 109.37ZM598.498 109.407C595.575 109.407 593.503 107.483 593.503 104.412V93.608H590.617V91.092H593.503V88.798L596.722 86.43V91.092H602.605V93.608H596.722V103.45C596.722 105.744 597.795 106.299 599.201 106.299C600.792 106.299 601.902 104.967 602.383 103.857L603.456 107.039C602.679 108.26 600.977 109.407 598.498 109.407ZM609.02 109H605.801V91.092H609.02V95.865C609.723 93.09 611.573 90.685 614.607 90.685C616.531 90.685 618.381 92.054 618.381 94.57C618.381 96.087 617.974 97.197 617.678 97.641H614.163C614.755 97.123 615.236 96.013 615.236 95.014C615.236 93.978 614.681 93.09 613.386 93.09C611.092 93.09 609.02 95.791 609.02 98.862V109ZM626.78 109.37C623.265 109.37 621.082 107.261 621.082 103.487V91.092H624.264V102.71C624.264 105.004 625.189 106.669 628.223 106.669C631.701 106.669 632.959 104.227 632.959 101.267V91.092H636.141V109H632.959V104.116C632.293 106.928 630.369 109.37 626.78 109.37ZM648.395 109.37C643.252 109.37 639.959 105.744 639.959 100.046C639.959 94.385 643.252 90.722 648.395 90.722C653.057 90.722 655.795 93.423 656.646 97.012L653.501 98.307C653.131 95.458 651.651 93.423 648.432 93.423C645.176 93.423 643.215 95.828 643.215 100.046C643.215 104.264 645.176 106.706 648.432 106.706C651.651 106.706 653.131 104.634 653.501 101.785L656.646 103.08C655.795 106.669 653.057 109.37 648.395 109.37ZM666.211 109.407C663.288 109.407 661.216 107.483 661.216 104.412V93.608H658.33V91.092H661.216V88.798L664.435 86.43V91.092H670.318V93.608H664.435V103.45C664.435 105.744 665.508 106.299 666.914 106.299C668.505 106.299 669.615 104.967 670.096 103.857L671.169 107.039C670.392 108.26 668.69 109.407 666.211 109.407ZM679.101 109.37C675.586 109.37 673.403 107.261 673.403 103.487V91.092H676.585V102.71C676.585 105.004 677.51 106.669 680.544 106.669C684.022 106.669 685.28 104.227 685.28 101.267V91.092H688.462V109H685.28V104.116C684.614 106.928 682.69 109.37 679.101 109.37ZM696.57 109H693.351V91.092H696.57V95.865C697.273 93.09 699.123 90.685 702.157 90.685C704.081 90.685 705.931 92.054 705.931 94.57C705.931 96.087 705.524 97.197 705.228 97.641H701.713C702.305 97.123 702.786 96.013 702.786 95.014C702.786 93.978 702.231 93.09 700.936 93.09C698.642 93.09 696.57 95.791 696.57 98.862V109ZM716.112 109.37C711.043 109.37 707.528 105.744 707.528 100.046C707.528 94.385 711.006 90.722 715.927 90.722C720.996 90.722 724.067 94.089 724.067 99.343C724.067 99.898 723.993 100.453 723.919 100.786H710.636C710.821 104.56 712.93 106.706 716.112 106.706C719.701 106.706 721.144 104.745 721.847 103.191L723.808 105.411C722.476 107.557 719.997 109.37 716.112 109.37ZM715.927 93.423C713.041 93.423 711.117 95.125 710.71 98.455H721.181C720.848 95.162 718.924 93.423 715.927 93.423Z" fill="#181717"/>
<g opacity="0.5">
<path d="M239.707 598.293C239.317 597.902 238.683 597.902 238.293 598.293L231.929 604.657C231.538 605.047 231.538 605.681 231.929 606.071C232.319 606.462 232.953 606.462 233.343 606.071L239 600.414L244.657 606.071C245.047 606.462 245.681 606.462 246.071 606.071C246.462 605.681 246.462 605.047 246.071 604.657L239.707 598.293ZM240 666L240 599L238 599L238 666L240 666Z" fill="url(#paint0_linear_2_808)"/>
<path d="M304.374 598.293C303.983 597.902 303.35 597.902 302.96 598.293L296.596 604.657C296.205 605.047 296.205 605.681 296.596 606.071C296.986 606.462 297.619 606.462 298.01 606.071L303.667 600.414L309.323 606.071C309.714 606.462 310.347 606.462 310.738 606.071C311.128 605.681 311.128 605.047 310.738 604.657L304.374 598.293ZM304.667 666L304.667 599L302.667 599L302.667 666L304.667 666Z" fill="url(#paint1_linear_2_808)"/>
<path d="M369.04 598.293C368.65 597.902 368.017 597.902 367.626 598.293L361.262 604.657C360.872 605.047 360.872 605.681 361.262 606.071C361.653 606.462 362.286 606.462 362.677 606.071L368.333 600.414L373.99 606.071C374.381 606.462 375.014 606.462 375.404 606.071C375.795 605.681 375.795 605.047 375.404 604.657L369.04 598.293ZM369.333 666L369.333 599L367.333 599L367.333 666L369.333 666Z" fill="url(#paint2_linear_2_808)"/>
<path d="M433.707 598.293C433.317 597.902 432.683 597.902 432.293 598.293L425.929 604.657C425.538 605.047 425.538 605.681 425.929 606.071C426.319 606.462 426.953 606.462 427.343 606.071L433 600.414L438.657 606.071C439.047 606.462 439.681 606.462 440.071 606.071C440.462 605.681 440.462 605.047 440.071 604.657L433.707 598.293ZM434 666L434 599L432 599L432 666L434 666Z" fill="url(#paint3_linear_2_808)"/>
<path d="M498.374 598.293C497.983 597.902 497.35 597.902 496.96 598.293L490.596 604.657C490.205 605.047 490.205 605.681 490.596 606.071C490.986 606.462 491.619 606.462 492.01 606.071L497.667 600.414L503.323 606.071C503.714 606.462 504.347 606.462 504.738 606.071C505.128 605.681 505.128 605.047 504.738 604.657L498.374 598.293ZM498.667 666L498.667 599L496.667 599L496.667 666L498.667 666Z" fill="url(#paint4_linear_2_808)"/>
<path d="M563.04 598.293C562.65 597.902 562.017 597.902 561.626 598.293L555.262 604.657C554.872 605.047 554.872 605.681 555.262 606.071C555.653 606.462 556.286 606.462 556.676 606.071L562.333 600.414L567.99 606.071C568.381 606.462 569.014 606.462 569.404 606.071C569.795 605.681 569.795 605.047 569.404 604.657L563.04 598.293ZM563.333 666L563.333 599L561.333 599L561.333 666L563.333 666Z" fill="url(#paint5_linear_2_808)"/>
<path d="M627.707 598.293C627.317 597.902 626.683 597.902 626.293 598.293L619.929 604.657C619.538 605.047 619.538 605.681 619.929 606.071C620.319 606.462 620.953 606.462 621.343 606.071L627 600.414L632.657 606.071C633.047 606.462 633.681 606.462 634.071 606.071C634.462 605.681 634.462 605.047 634.071 604.657L627.707 598.293ZM628 666L628 599L626 599L626 666L628 666Z" fill="url(#paint6_linear_2_808)"/>
<path d="M692.374 598.293C691.983 597.902 691.35 597.902 690.96 598.293L684.596 604.657C684.205 605.047 684.205 605.681 684.596 606.071C684.986 606.462 685.619 606.462 686.01 606.071L691.667 600.414L697.323 606.071C697.714 606.462 698.347 606.462 698.738 606.071C699.128 605.681 699.128 605.047 698.738 604.657L692.374 598.293ZM692.667 666L692.667 599L690.667 599L690.667 666L692.667 666Z" fill="url(#paint7_linear_2_808)"/>
<path d="M757.04 598.293C756.65 597.902 756.017 597.902 755.626 598.293L749.262 604.657C748.872 605.047 748.872 605.681 749.262 606.071C749.653 606.462 750.286 606.462 750.676 606.071L756.333 600.414L761.99 606.071C762.381 606.462 763.014 606.462 763.404 606.071C763.795 605.681 763.795 605.047 763.404 604.657L757.04 598.293ZM757.333 666L757.333 599L755.333 599L755.333 666L757.333 666Z" fill="url(#paint8_linear_2_808)"/>
<path d="M821.707 598.293C821.317 597.902 820.683 597.902 820.293 598.293L813.929 604.657C813.538 605.047 813.538 605.681 813.929 606.071C814.319 606.462 814.953 606.462 815.343 606.071L821 600.414L826.657 606.071C827.047 606.462 827.681 606.462 828.071 606.071C828.462 605.681 828.462 605.047 828.071 604.657L821.707 598.293ZM822 666L822 599L820 599L820 666L822 666Z" fill="url(#paint9_linear_2_808)"/>
</g>
<g opacity="0.5">
<path d="M335.707 456.293C335.317 455.902 334.683 455.902 334.293 456.293L327.929 462.657C327.538 463.047 327.538 463.681 327.929 464.071C328.319 464.462 328.953 464.462 329.343 464.071L335 458.414L340.657 464.071C341.047 464.462 341.681 464.462 342.071 464.071C342.462 463.681 342.462 463.047 342.071 462.657L335.707 456.293ZM336 524L336 457L334 457L334 524L336 524Z" fill="url(#paint10_linear_2_808)"/>
<path d="M400.707 456.293C400.317 455.902 399.683 455.902 399.293 456.293L392.929 462.657C392.538 463.047 392.538 463.681 392.929 464.071C393.319 464.462 393.953 464.462 394.343 464.071L400 458.414L405.657 464.071C406.047 464.462 406.681 464.462 407.071 464.071C407.462 463.681 407.462 463.047 407.071 462.657L400.707 456.293ZM401 524L401 457L399 457L399 524L401 524Z" fill="url(#paint11_linear_2_808)"/>
<path d="M465.707 456.293C465.317 455.902 464.683 455.902 464.293 456.293L457.929 462.657C457.538 463.047 457.538 463.681 457.929 464.071C458.319 464.462 458.953 464.462 459.343 464.071L465 458.414L470.657 464.071C471.047 464.462 471.681 464.462 472.071 464.071C472.462 463.681 472.462 463.047 472.071 462.657L465.707 456.293ZM466 524L466 457L464 457L464 524L466 524Z" fill="url(#paint12_linear_2_808)"/>
<path d="M530.707 456.293C530.317 455.902 529.683 455.902 529.293 456.293L522.929 462.657C522.538 463.047 522.538 463.681 522.929 464.071C523.319 464.462 523.953 464.462 524.343 464.071L530 458.414L535.657 464.071C536.047 464.462 536.681 464.462 537.071 464.071C537.462 463.681 537.462 463.047 537.071 462.657L530.707 456.293ZM531 524L531 457L529 457L529 524L531 524Z" fill="url(#paint13_linear_2_808)"/>
<path d="M595.707 456.293C595.317 455.902 594.683 455.902 594.293 456.293L587.929 462.657C587.538 463.047 587.538 463.681 587.929 464.071C588.319 464.462 588.953 464.462 589.343 464.071L595 458.414L600.657 464.071C601.047 464.462 601.681 464.462 602.071 464.071C602.462 463.681 602.462 463.047 602.071 462.657L595.707 456.293ZM596 524L596 457L594 457L594 524L596 524Z" fill="url(#paint14_linear_2_808)"/>
<path d="M660.707 456.293C660.317 455.902 659.683 455.902 659.293 456.293L652.929 462.657C652.538 463.047 652.538 463.681 652.929 464.071C653.319 464.462 653.953 464.462 654.343 464.071L660 458.414L665.657 464.071C666.047 464.462 666.681 464.462 667.071 464.071C667.462 463.681 667.462 463.047 667.071 462.657L660.707 456.293ZM661 524L661 457L659 457L659 524L661 524Z" fill="url(#paint15_linear_2_808)"/>
<path d="M725.707 456.293C725.317 455.902 724.683 455.902 724.293 456.293L717.929 462.657C717.538 463.047 717.538 463.681 717.929 464.071C718.319 464.462 718.953 464.462 719.343 464.071L725 458.414L730.657 464.071C731.047 464.462 731.681 464.462 732.071 464.071C732.462 463.681 732.462 463.047 732.071 462.657L725.707 456.293ZM726 524L726 457L724 457L724 524L726 524Z" fill="url(#paint16_linear_2_808)"/>
</g>
<g opacity="0.5">
<path d="M465.707 332.293C465.317 331.902 464.683 331.902 464.293 332.293L457.929 338.657C457.538 339.047 457.538 339.681 457.929 340.071C458.319 340.462 458.953 340.462 459.343 340.071L465 334.414L470.657 340.071C471.047 340.462 471.681 340.462 472.071 340.071C472.462 339.681 472.462 339.047 472.071 338.657L465.707 332.293ZM466 400L466 333L464 333L464 400L466 400Z" fill="url(#paint17_linear_2_808)"/>
<path d="M530.707 332.293C530.317 331.902 529.683 331.902 529.293 332.293L522.929 338.657C522.538 339.047 522.538 339.681 522.929 340.071C523.319 340.462 523.953 340.462 524.343 340.071L530 334.414L535.657 340.071C536.047 340.462 536.681 340.462 537.071 340.071C537.462 339.681 537.462 339.047 537.071 338.657L530.707 332.293ZM531 400L531 333L529 333L529 400L531 400Z" fill="url(#paint18_linear_2_808)"/>
<path d="M595.707 332.293C595.317 331.902 594.683 331.902 594.293 332.293L587.929 338.657C587.538 339.047 587.538 339.681 587.929 340.071C588.319 340.462 588.953 340.462 589.343 340.071L595 334.414L600.657 340.071C601.047 340.462 601.681 340.462 602.071 340.071C602.462 339.681 602.462 339.047 602.071 338.657L595.707 332.293ZM596 400L596 333L594 333L594 400L596 400Z" fill="url(#paint19_linear_2_808)"/>
</g>
<circle cx="530.5" cy="239.5" r="76.5" fill="#061D19"/>
<circle cx="161" cy="714" r="20" fill="#B8FF90"/>
<circle cx="345.5" cy="714" r="20" fill="#B8FF90"/>
<circle cx="530" cy="714" r="20" fill="#B8FF90"/>
<circle cx="714.5" cy="714" r="20" fill="#B8FF90"/>
<circle cx="899" cy="714" r="20" fill="#B8FF90"/>
<path d="M537.334 217.167L538.218 218.051M553.833 233.666L552.949 232.782M545.583 237.083V235.787M545.583 213.75V215.046M557.25 225.417L555.954 225.417M533.917 225.417H535.213M553.833 217.167L552.949 218.051M537.334 233.666L538.218 232.782M520.792 266.25C511.932 266.25 504.75 259.068 504.75 250.208C504.75 241.349 511.932 234.167 520.792 234.167C529.332 234.167 536.314 240.841 536.806 249.258C537.726 248.929 538.717 248.75 539.75 248.75C543.895 248.75 547.368 251.633 548.271 255.503C549.179 254.921 550.258 254.583 551.417 254.583C554.638 254.583 557.25 257.195 557.25 260.417C557.25 263.638 554.638 266.25 551.417 266.25H520.792ZM549.229 225.417C549.229 227.43 547.597 229.063 545.583 229.063C543.57 229.063 541.938 227.43 541.938 225.417C541.938 223.403 543.57 221.771 545.583 221.771C547.597 221.771 549.229 223.403 549.229 225.417Z" stroke="#B8FF90" stroke-width="4.375" stroke-linecap="round" stroke-linejoin="round"/>
<g filter="url(#filter0_d_2_808)">
<circle cx="118" cy="837" r="48" fill="white"/>
</g>
<path d="M101.953 840.669C101.4 841.425 100.988 842.43 100.663 843.728C99.5678 848.1 99.0204 850.286 100.12 852.392C100.438 853.001 100.996 853.716 101.509 854.172C103.285 855.75 105.99 855.75 111.402 855.75H122.599C128.01 855.75 130.715 855.75 132.491 854.172C133.004 853.716 133.563 853.001 133.88 852.392C134.98 850.286 134.432 848.1 133.338 843.728C133.012 842.43 132.6 841.425 132.047 840.669M111.583 841.167H122.417C127.104 841.167 129.448 841.167 131.09 839.973C131.621 839.587 132.088 839.121 132.473 838.59C133.667 836.947 133.667 834.604 133.667 829.917V829.5C133.667 824.813 133.667 822.469 132.473 820.826C132.088 820.296 131.621 819.829 131.09 819.444C129.448 818.25 127.104 818.25 122.417 818.25H111.583C106.896 818.25 104.553 818.25 102.91 819.444C102.379 819.829 101.912 820.296 101.527 820.826C100.333 822.469 100.333 824.813 100.333 829.5V829.917C100.333 834.604 100.333 836.947 101.527 838.59C101.912 839.121 102.379 839.587 102.91 839.973C104.553 841.167 106.896 841.167 111.583 841.167Z" stroke="#061D19" stroke-width="3.125" stroke-linecap="round" stroke-linejoin="round"/>
<path d="M108.666 851.062C108.666 851.925 107.967 852.625 107.104 852.625C106.241 852.625 105.541 851.925 105.541 851.062C105.541 850.2 106.241 849.5 107.104 849.5C107.967 849.5 108.666 850.2 108.666 851.062Z" fill="#061D19"/>
<path d="M118.562 845.854C118.562 846.717 117.863 847.417 117 847.417C116.137 847.417 115.438 846.717 115.438 845.854C115.438 844.992 116.137 844.292 117 844.292C117.863 844.292 118.562 844.992 118.562 845.854Z" fill="#061D19"/>
<path d="M113.355 851.062C113.355 851.925 114.054 852.625 114.917 852.625H119.084C119.947 852.625 120.646 851.925 120.646 851.062C120.646 850.2 119.947 849.5 119.084 849.5H114.917C114.055 849.5 113.355 850.199 113.355 851.062Z" fill="#061D19"/>
<path d="M128.459 845.854C128.459 846.717 127.759 847.417 126.896 847.417C126.033 847.417 125.334 846.717 125.334 845.854C125.334 844.991 126.033 844.292 126.896 844.292C127.759 844.292 128.459 844.991 128.459 845.854Z" fill="#061D19"/>
<path d="M128.459 851.062C128.459 851.925 127.759 852.625 126.896 852.625C126.033 852.625 125.334 851.925 125.334 851.062C125.334 850.2 126.033 849.5 126.896 849.5C127.759 849.5 128.459 850.2 128.459 851.062Z" fill="#061D19"/>
<path d="M107.105 852.625C107.968 852.625 108.667 851.925 108.667 851.062C108.667 850.2 107.968 849.5 107.105 849.5C106.242 849.5 105.543 850.199 105.542 851.062C105.542 851.925 106.242 852.625 107.105 852.625Z" fill="#061D19"/>
<path d="M117 847.417C117.863 847.417 118.562 846.717 118.562 845.854C118.562 844.992 117.863 844.292 117 844.292C116.137 844.292 115.438 844.991 115.438 845.854C115.437 846.717 116.137 847.417 117 847.417Z" fill="#061D19"/>
<path d="M126.896 847.417C127.759 847.417 128.458 846.717 128.458 845.854C128.458 844.991 127.759 844.292 126.896 844.292C126.033 844.292 125.334 844.991 125.334 845.854C125.334 846.717 126.033 847.417 126.896 847.417Z" fill="#061D19"/>
<path d="M126.896 852.625C127.759 852.625 128.458 851.925 128.458 851.062C128.458 850.2 127.759 849.5 126.896 849.5C126.033 849.5 125.334 850.199 125.334 851.062C125.334 851.925 126.033 852.625 126.896 852.625Z" fill="#061D19"/>
<path d="M107.105 844.292C107.968 844.292 108.667 844.991 108.667 845.854C108.667 846.717 107.968 847.417 107.105 847.417C106.242 847.417 105.542 846.717 105.542 845.854C105.543 844.991 106.242 844.292 107.105 844.292Z" fill="#061D19"/>
<g filter="url(#filter1_d_2_808)">
<circle cx="530" cy="837" r="48" fill="white"/>
</g>
<path d="M543.583 824.5C543.583 827.952 537.054 830.75 529 830.75C520.945 830.75 514.416 827.952 514.416 824.5M543.583 824.5C543.583 821.048 537.054 818.25 529 818.25C520.945 818.25 514.416 821.048 514.416 824.5M543.583 824.5V849.5C543.583 852.952 537.054 855.75 529 855.75C520.945 855.75 514.416 852.952 514.416 849.5V824.5M543.583 832.833C543.583 836.285 537.054 839.083 529 839.083C520.945 839.083 514.416 836.285 514.416 832.833M543.583 841.167C543.583 844.619 537.054 847.417 529 847.417C520.945 847.417 514.416 844.619 514.416 841.167" stroke="#061D19" stroke-width="3.125" stroke-linejoin="round"/>
<g filter="url(#filter2_d_2_808)">
<circle cx="942" cy="837" r="48" fill="white"/>
</g>
<path d="M941 855.75C951.355 855.75 959.75 847.355 959.75 837C959.75 834.414 959.226 831.95 958.279 829.708M941 855.75C930.645 855.75 922.25 847.355 922.25 837C922.25 834.414 922.774 831.95 923.721 829.708M941 855.75C946.025 852.386 949.333 843.501 949.333 837C949.333 830.499 946.025 821.614 941 818.25M941 855.75C935.975 852.386 932.667 843.501 932.667 837C932.667 830.499 935.975 821.614 941 818.25M958.279 829.708C955.435 822.975 948.769 818.25 941 818.25M958.279 829.708C955.435 836.441 948.769 841.167 941 841.167C933.231 841.167 926.565 836.441 923.721 829.708M923.721 829.708C926.565 822.975 933.231 818.25 941 818.25" stroke="#061D19" stroke-width="3.125" stroke-linejoin="round"/>
<defs>
<filter id="filter0_d_2_808" x="58" y="777" width="120" height="120" filterUnits="userSpaceOnUse" color-interpolation-filters="sRGB">
<feFlood flood-opacity="0" result="BackgroundImageFix"/>
<feColorMatrix in="SourceAlpha" type="matrix" values="0 0 0 0 0 0 0 0 0 0 0 0 0 0 0 0 0 0 127 0" result="hardAlpha"/>
<feOffset/>
<feGaussianBlur stdDeviation="6"/>
<feComposite in2="hardAlpha" operator="out"/>
<feColorMatrix type="matrix" values="0 0 0 0 0 0 0 0 0 0 0 0 0 0 0 0 0 0 0.1 0"/>
<feBlend mode="normal" in2="BackgroundImageFix" result="effect1_dropShadow_2_808"/>
<feBlend mode="normal" in="SourceGraphic" in2="effect1_dropShadow_2_808" result="shape"/>
</filter>
<filter id="filter1_d_2_808" x="470" y="777" width="120" height="120" filterUnits="userSpaceOnUse" color-interpolation-filters="sRGB">
<feFlood flood-opacity="0" result="BackgroundImageFix"/>
<feColorMatrix in="SourceAlpha" type="matrix" values="0 0 0 0 0 0 0 0 0 0 0 0 0 0 0 0 0 0 127 0" result="hardAlpha"/>
<feOffset/>
<feGaussianBlur stdDeviation="6"/>
<feComposite in2="hardAlpha" operator="out"/>
<feColorMatrix type="matrix" values="0 0 0 0 0 0 0 0 0 0 0 0 0 0 0 0 0 0 0.1 0"/>
<feBlend mode="normal" in2="BackgroundImageFix" result="effect1_dropShadow_2_808"/>
<feBlend mode="normal" in="SourceGraphic" in2="effect1_dropShadow_2_808" result="shape"/>
</filter>
<filter id="filter2_d_2_808" x="882" y="777" width="120" height="120" filterUnits="userSpaceOnUse" color-interpolation-filters="sRGB">
<feFlood flood-opacity="0" result="BackgroundImageFix"/>
<feColorMatrix in="SourceAlpha" type="matrix" values="0 0 0 0 0 0 0 0 0 0 0 0 0 0 0 0 0 0 127 0" result="hardAlpha"/>
<feOffset/>
<feGaussianBlur stdDeviation="6"/>
<feComposite in2="hardAlpha" operator="out"/>
<feColorMatrix type="matrix" values="0 0 0 0 0 0 0 0 0 0 0 0 0 0 0 0 0 0 0.1 0"/>
<feBlend mode="normal" in2="BackgroundImageFix" result="effect1_dropShadow_2_808"/>
<feBlend mode="normal" in="SourceGraphic" in2="effect1_dropShadow_2_808" result="shape"/>
</filter>
<linearGradient id="paint0_linear_2_808" x1="239" y1="599" x2="239" y2="617" gradientUnits="userSpaceOnUse">
<stop stop-color="#B8FF90"/>
<stop offset="1" stop-color="#061D19"/>
</linearGradient>
<linearGradient id="paint1_linear_2_808" x1="303.667" y1="599" x2="303.667" y2="617" gradientUnits="userSpaceOnUse">
<stop stop-color="#B8FF90"/>
<stop offset="1" stop-color="#061D19"/>
</linearGradient>
<linearGradient id="paint2_linear_2_808" x1="368.333" y1="599" x2="368.333" y2="617" gradientUnits="userSpaceOnUse">
<stop stop-color="#B8FF90"/>
<stop offset="1" stop-color="#061D19"/>
</linearGradient>
<linearGradient id="paint3_linear_2_808" x1="433" y1="599" x2="433" y2="617" gradientUnits="userSpaceOnUse">
<stop stop-color="#B8FF90"/>
<stop offset="1" stop-color="#061D19"/>
</linearGradient>
<linearGradient id="paint4_linear_2_808" x1="497.667" y1="599" x2="497.667" y2="617" gradientUnits="userSpaceOnUse">
<stop stop-color="#B8FF90"/>
<stop offset="1" stop-color="#061D19"/>
</linearGradient>
<linearGradient id="paint5_linear_2_808" x1="562.333" y1="599" x2="562.333" y2="617" gradientUnits="userSpaceOnUse">
<stop stop-color="#B8FF90"/>
<stop offset="1" stop-color="#061D19"/>
</linearGradient>
<linearGradient id="paint6_linear_2_808" x1="627" y1="599" x2="627" y2="617" gradientUnits="userSpaceOnUse">
<stop stop-color="#B8FF90"/>
<stop offset="1" stop-color="#061D19"/>
</linearGradient>
<linearGradient id="paint7_linear_2_808" x1="691.667" y1="599" x2="691.667" y2="617" gradientUnits="userSpaceOnUse">
<stop stop-color="#B8FF90"/>
<stop offset="1" stop-color="#061D19"/>
</linearGradient>
<linearGradient id="paint8_linear_2_808" x1="756.333" y1="599" x2="756.333" y2="617" gradientUnits="userSpaceOnUse">
<stop stop-color="#B8FF90"/>
<stop offset="1" stop-color="#061D19"/>
</linearGradient>
<linearGradient id="paint9_linear_2_808" x1="821" y1="599" x2="821" y2="617" gradientUnits="userSpaceOnUse">
<stop stop-color="#B8FF90"/>
<stop offset="1" stop-color="#061D19"/>
</linearGradient>
<linearGradient id="paint10_linear_2_808" x1="335" y1="457" x2="335" y2="475" gradientUnits="userSpaceOnUse">
<stop stop-color="#B8FF90"/>
<stop offset="1" stop-color="#061D19"/>
</linearGradient>
<linearGradient id="paint11_linear_2_808" x1="400" y1="457" x2="400" y2="475" gradientUnits="userSpaceOnUse">
<stop stop-color="#B8FF90"/>
<stop offset="1" stop-color="#061D19"/>
</linearGradient>
<linearGradient id="paint12_linear_2_808" x1="465" y1="457" x2="465" y2="475" gradientUnits="userSpaceOnUse">
<stop stop-color="#B8FF90"/>
<stop offset="1" stop-color="#061D19"/>
</linearGradient>
<linearGradient id="paint13_linear_2_808" x1="530" y1="457" x2="530" y2="475" gradientUnits="userSpaceOnUse">
<stop stop-color="#B8FF90"/>
<stop offset="1" stop-color="#061D19"/>
</linearGradient>
<linearGradient id="paint14_linear_2_808" x1="595" y1="457" x2="595" y2="475" gradientUnits="userSpaceOnUse">
<stop stop-color="#B8FF90"/>
<stop offset="1" stop-color="#061D19"/>
</linearGradient>
<linearGradient id="paint15_linear_2_808" x1="660" y1="457" x2="660" y2="475" gradientUnits="userSpaceOnUse">
<stop stop-color="#B8FF90"/>
<stop offset="1" stop-color="#061D19"/>
</linearGradient>
<linearGradient id="paint16_linear_2_808" x1="725" y1="457" x2="725" y2="475" gradientUnits="userSpaceOnUse">
<stop stop-color="#B8FF90"/>
<stop offset="1" stop-color="#061D19"/>
</linearGradient>
<linearGradient id="paint17_linear_2_808" x1="465" y1="333" x2="465" y2="351" gradientUnits="userSpaceOnUse">
<stop stop-color="#B8FF90"/>
<stop offset="1" stop-color="#061D19"/>
</linearGradient>
<linearGradient id="paint18_linear_2_808" x1="530" y1="333" x2="530" y2="351" gradientUnits="userSpaceOnUse">
<stop stop-color="#B8FF90"/>
<stop offset="1" stop-color="#061D19"/>
</linearGradient>
<linearGradient id="paint19_linear_2_808" x1="595" y1="333" x2="595" y2="351" gradientUnits="userSpaceOnUse">
<stop stop-color="#B8FF90"/>
<stop offset="1" stop-color="#061D19"/>
</linearGradient>
</defs>
</svg>
