<svg width="1080" height="947" viewBox="0 0 1080 947" fill="none" xmlns="http://www.w3.org/2000/svg">
<rect width="1080" height="947" fill="white"/>
<line opacity="0.05" x1="155.5" y1="334" x2="155.5" y2="856" stroke="black"/>
<line opacity="0.05" x1="225.5" y1="334" x2="225.5" y2="856" stroke="black"/>
<line opacity="0.05" x1="295.5" y1="334" x2="295.5" y2="856" stroke="black"/>
<line opacity="0.05" x1="365.5" y1="334" x2="365.5" y2="856" stroke="black"/>
<line opacity="0.05" x1="435.5" y1="334" x2="435.5" y2="856" stroke="black"/>
<line opacity="0.05" x1="505.5" y1="334" x2="505.5" y2="856" stroke="black"/>
<line opacity="0.05" x1="575.5" y1="334" x2="575.5" y2="856" stroke="black"/>
<line opacity="0.05" x1="645.5" y1="334" x2="645.5" y2="856" stroke="black"/>
<line opacity="0.05" x1="715.5" y1="334" x2="715.5" y2="856" stroke="black"/>
<line opacity="0.05" x1="785.5" y1="334" x2="785.5" y2="856" stroke="black"/>
<line opacity="0.05" x1="855.5" y1="334" x2="855.5" y2="856" stroke="black"/>
<line opacity="0.05" x1="925.5" y1="334" x2="925.5" y2="856" stroke="black"/>
<line opacity="0.05" x1="80" y1="389.5" x2="1000" y2="389.5" stroke="black"/>
<line opacity="0.05" x1="80" y1="449.5" x2="1000" y2="449.5" stroke="black"/>
<line opacity="0.05" x1="80" y1="509.5" x2="1000" y2="509.5" stroke="black"/>
<line opacity="0.05" x1="80" y1="569.5" x2="1000" y2="569.5" stroke="black"/>
<line opacity="0.05" x1="80" y1="629.5" x2="1000" y2="629.5" stroke="black"/>
<line opacity="0.05" x1="80" y1="689.5" x2="1000" y2="689.5" stroke="black"/>
<line opacity="0.05" x1="80" y1="749.5" x2="1000" y2="749.501" stroke="black"/>
<circle cx="120" cy="120" r="40" fill="#061D19"/>
<path fill-rule="evenodd" clip-rule="evenodd" d="M138.957 109.257C139.118 109.566 139.266 109.883 139.401 110.207C139.889 111.387 140.105 112.662 140.21 114.194C140.312 115.7 140.312 117.564 140.312 119.942V120V120.058C140.312 122.436 140.312 124.3 140.21 125.806C140.105 127.338 139.889 128.613 139.401 129.792C138.185 132.728 135.853 135.06 132.917 136.276C131.738 136.764 130.463 136.98 128.931 137.085C127.425 137.188 125.561 137.188 123.183 137.188H123.125H116.875H116.817C114.439 137.188 112.575 137.188 111.069 137.085C109.537 136.98 108.262 136.764 107.082 136.276C104.147 135.06 101.815 132.728 100.599 129.792C100.111 128.613 99.8948 127.338 99.7902 125.806C99.6875 124.3 99.6875 122.436 99.6875 120.058V120V119.942C99.6875 117.564 99.6875 115.7 99.7902 114.194C99.8948 112.662 100.111 111.387 100.599 110.207C101.815 107.272 104.147 104.94 107.082 103.724C108.262 103.236 109.537 103.02 111.069 102.915C112.575 102.812 114.439 102.813 116.817 102.813H116.875H123.125H123.183C124.385 102.813 125.455 102.813 126.415 102.826C126.307 103.325 126.25 103.843 126.25 104.375C126.25 104.916 126.309 105.444 126.421 105.951C125.478 105.938 124.394 105.938 123.125 105.938H116.875C114.427 105.938 112.669 105.938 111.282 106.033C109.909 106.127 109.013 106.307 108.278 106.611C106.109 107.51 104.385 109.234 103.486 111.403C103.182 112.138 103.002 113.034 102.908 114.407C102.813 115.794 102.812 117.552 102.812 120C102.812 122.448 102.813 124.206 102.908 125.593C103.002 126.966 103.182 127.862 103.486 128.597C104.385 130.766 106.109 132.49 108.278 133.389C109.013 133.693 109.909 133.873 111.282 133.967C112.669 134.062 114.427 134.062 116.875 134.062H123.125C125.573 134.062 127.331 134.062 128.718 133.967C130.091 133.873 130.987 133.693 131.722 133.389C133.891 132.49 135.615 130.766 136.514 128.597C136.818 127.862 136.998 126.966 137.092 125.593C137.187 124.206 137.188 122.448 137.188 120C137.188 117.552 137.187 115.794 137.092 114.407C136.998 113.034 136.818 112.138 136.514 111.403C136.47 111.299 136.425 111.196 136.379 111.094C137.369 110.676 138.248 110.044 138.957 109.257Z" fill="#B8FF90"/>
<path d="M101.25 111.667L108.489 117.297C113.384 121.104 115.832 123.007 118.628 123.379C119.539 123.5 120.462 123.5 121.374 123.379C124.17 123.007 126.617 121.104 131.512 117.296L138.75 111.667" stroke="#B8FF90" stroke-width="3.125" stroke-linejoin="round"/>
<path d="M137.708 104.375C137.708 106.676 135.843 108.542 133.542 108.542C131.24 108.542 129.375 106.676 129.375 104.375C129.375 102.074 131.24 100.208 133.542 100.208C135.843 100.208 137.708 102.074 137.708 104.375Z" fill="#B8FF90"/>
<path d="M200.349 132.32C192.229 132.32 187.789 126.28 187.789 118.56C187.789 110.84 192.229 104.8 200.349 104.8C206.349 104.8 210.389 108 212.109 113.52L208.989 115.56C208.109 111.08 205.469 108.08 200.389 108.08C194.269 108.08 191.469 112.44 191.469 118.56C191.469 124.68 194.269 129.04 200.389 129.04C205.469 129.04 208.109 126.04 208.989 121.56L212.109 123.6C210.389 129.12 206.349 132.32 200.349 132.32ZM222.438 132.4C218.638 132.4 216.278 130.12 216.278 126.04V112.64H219.718V125.2C219.718 127.68 220.718 129.48 223.998 129.48C227.758 129.48 229.118 126.84 229.118 123.64V112.64H232.558V132H229.118V126.72C228.398 129.76 226.318 132.4 222.438 132.4ZM244.777 132.4C240.737 132.4 237.057 130.64 235.737 127.04L238.257 125.08C238.937 127.28 241.057 129.48 244.897 129.48C247.177 129.48 248.697 128.6 248.697 126.88C248.697 125.12 246.937 124.56 244.657 124.04L242.097 123.44C239.337 122.8 236.337 121.48 236.337 117.92C236.337 114.4 239.057 112.24 243.257 112.24C247.337 112.24 250.177 114.4 251.257 116.96L248.617 118.92C247.657 116.64 245.817 115.2 243.057 115.2C241.057 115.2 239.617 116.08 239.617 117.72C239.617 119.44 240.897 120.04 243.537 120.68L246.017 121.32C250.377 122.36 251.817 124.16 251.817 126.84C251.817 130.68 248.537 132.4 244.777 132.4ZM261.901 132.44C258.741 132.44 256.501 130.36 256.501 127.04V115.36H253.381V112.64H256.501V110.16L259.981 107.6V112.64H266.341V115.36H259.981V126C259.981 128.48 261.141 129.08 262.661 129.08C264.381 129.08 265.581 127.64 266.101 126.44L267.261 129.88C266.421 131.2 264.581 132.44 261.901 132.44ZM277.088 132.4C271.728 132.4 267.968 128.44 267.968 122.32C267.968 116.2 271.728 112.24 277.088 112.24C282.448 112.24 286.248 116.2 286.248 122.32C286.248 128.44 282.448 132.4 277.088 132.4ZM277.088 129.48C280.408 129.48 282.728 127.2 282.728 122.32C282.728 117.4 280.408 115.16 277.088 115.16C273.808 115.16 271.528 117.4 271.528 122.32C271.528 127.2 273.808 129.48 277.088 129.48ZM294.097 132H290.617V112.64H294.097V117.76C294.857 114.8 296.857 112.24 300.337 112.24C303.897 112.24 305.857 114.28 306.057 117.92C306.817 114.84 308.817 112.24 312.337 112.24C316.137 112.24 318.097 114.52 318.097 118.6V132H314.657V119.44C314.657 116.6 313.297 115.2 310.417 115.2C307.457 115.2 306.097 117.8 306.097 121.04V132H302.617V119.44C302.617 116.6 301.297 115.2 298.377 115.2C295.457 115.2 294.097 117.8 294.097 121.04V132ZM326.753 109.52H323.273V105.2H326.753V109.52ZM326.753 132H323.273V112.64H326.753V132ZM347.344 132H330.744V129.16L341.064 117.52L342.984 115.6L339.384 115.76H331.544V112.64H346.944V115.52L336.704 126.92L334.704 129.08L338.784 128.92H347.344V132ZM354.851 132.4C351.571 132.4 349.731 130.52 349.731 127.96C349.731 125.36 351.691 123.72 354.451 122.48L361.451 119.36C361.331 117.08 360.251 115.4 357.211 115.4C354.451 115.4 352.611 117 351.611 119.12L349.251 116.68C350.411 114.68 353.291 112.24 357.611 112.24C362.371 112.24 364.931 115.08 364.931 119.68V127.64C364.931 128.56 365.291 128.84 366.011 128.84H367.251V132H365.011C363.011 132 361.571 131.04 361.571 128.32V126.96C360.931 129.52 358.851 132.4 354.851 132.4ZM353.251 127.4C353.251 128.72 354.171 129.52 355.971 129.52C359.251 129.52 361.571 127.36 361.571 124.56V121.88L355.931 124.52C354.091 125.4 353.251 126.2 353.251 127.4ZM374.761 132H371.281V105.2H374.761V117.68C375.441 114.72 377.281 112.24 381.001 112.24C385.921 112.24 388.961 116.24 388.961 122.36C388.961 128.48 385.921 132.48 381.001 132.48C377.281 132.48 375.441 130 374.761 127.04V132ZM374.761 123.76C374.761 126.96 376.121 129.56 379.801 129.56C382.921 129.56 385.441 127.32 385.441 122.36C385.441 117.44 382.921 115.2 379.801 115.2C376.121 115.2 374.761 117.8 374.761 121V123.76ZM396.636 132H393.156V105.2H396.636V132ZM410.107 132.4C404.627 132.4 400.827 128.48 400.827 122.32C400.827 116.2 404.587 112.24 409.907 112.24C415.387 112.24 418.707 115.88 418.707 121.56C418.707 122.16 418.627 122.76 418.547 123.12H404.187C404.387 127.2 406.667 129.52 410.107 129.52C413.987 129.52 415.547 127.4 416.307 125.72L418.427 128.12C416.987 130.44 414.307 132.4 410.107 132.4ZM409.907 115.16C406.787 115.16 404.707 117 404.267 120.6H415.587C415.227 117.04 413.147 115.16 409.907 115.16ZM440.224 132.4C434.744 132.4 430.944 128.48 430.944 122.32C430.944 116.2 434.704 112.24 440.024 112.24C445.504 112.24 448.824 115.88 448.824 121.56C448.824 122.16 448.744 122.76 448.664 123.12H434.304C434.504 127.2 436.784 129.52 440.224 129.52C444.104 129.52 445.664 127.4 446.424 125.72L448.544 128.12C447.104 130.44 444.424 132.4 440.224 132.4ZM440.024 115.16C436.904 115.16 434.824 117 434.384 120.6H445.704C445.344 117.04 443.264 115.16 440.024 115.16ZM456.714 132H453.234V112.64H456.714V117.76C457.474 114.8 459.474 112.24 462.954 112.24C466.514 112.24 468.474 114.28 468.674 117.92C469.434 114.84 471.434 112.24 474.954 112.24C478.754 112.24 480.714 114.52 480.714 118.6V132H477.274V119.44C477.274 116.6 475.914 115.2 473.034 115.2C470.074 115.2 468.714 117.8 468.714 121.04V132H465.234V119.44C465.234 116.6 463.914 115.2 460.994 115.2C458.074 115.2 456.714 117.8 456.714 121.04V132ZM489.968 132.4C486.688 132.4 484.848 130.52 484.848 127.96C484.848 125.36 486.808 123.72 489.568 122.48L496.568 119.36C496.448 117.08 495.368 115.4 492.328 115.4C489.568 115.4 487.728 117 486.728 119.12L484.368 116.68C485.528 114.68 488.408 112.24 492.728 112.24C497.488 112.24 500.048 115.08 500.048 119.68V127.64C500.048 128.56 500.408 128.84 501.128 128.84H502.368V132H500.128C498.128 132 496.688 131.04 496.688 128.32V126.96C496.048 129.52 493.968 132.4 489.968 132.4ZM488.368 127.4C488.368 128.72 489.288 129.52 491.088 129.52C494.368 129.52 496.688 127.36 496.688 124.56V121.88L491.048 124.52C489.208 125.4 488.368 126.2 488.368 127.4ZM509.878 109.52H506.398V105.2H509.878V109.52ZM509.878 132H506.398V112.64H509.878V132ZM518.589 132H515.109V105.2H518.589V132ZM539.089 132.44C535.929 132.44 533.689 130.36 533.689 127.04V115.36H530.569V112.64H533.689V110.16L537.169 107.6V112.64H543.529V115.36H537.169V126C537.169 128.48 538.329 129.08 539.849 129.08C541.569 129.08 542.769 127.64 543.289 126.44L544.449 129.88C543.609 131.2 541.769 132.44 539.089 132.44ZM554.755 132.4C549.275 132.4 545.475 128.48 545.475 122.32C545.475 116.2 549.235 112.24 554.555 112.24C560.035 112.24 563.355 115.88 563.355 121.56C563.355 122.16 563.275 122.76 563.195 123.12H548.835C549.035 127.2 551.315 129.52 554.755 129.52C558.635 129.52 560.195 127.4 560.955 125.72L563.075 128.12C561.635 130.44 558.955 132.4 554.755 132.4ZM554.555 115.16C551.435 115.16 549.355 117 548.915 120.6H560.235C559.875 117.04 557.795 115.16 554.555 115.16ZM571.245 132H567.765V112.64H571.245V117.76C572.005 114.8 574.005 112.24 577.485 112.24C581.045 112.24 583.005 114.28 583.205 117.92C583.965 114.84 585.965 112.24 589.485 112.24C593.285 112.24 595.245 114.52 595.245 118.6V132H591.805V119.44C591.805 116.6 590.445 115.2 587.565 115.2C584.605 115.2 583.245 117.8 583.245 121.04V132H579.765V119.44C579.765 116.6 578.445 115.2 575.525 115.2C572.605 115.2 571.245 117.8 571.245 121.04V132ZM603.901 139.44H600.421V112.64H603.901V117.6C604.581 114.68 606.421 112.2 610.141 112.2C615.021 112.2 618.061 116.16 618.061 122.28C618.061 128.4 615.021 132.4 610.141 132.4C606.421 132.4 604.581 129.92 603.901 127V139.44ZM603.901 123.68C603.901 126.88 605.261 129.48 608.941 129.48C612.021 129.48 614.541 127.24 614.541 122.28C614.541 117.36 612.021 115.12 608.941 115.12C605.261 115.12 603.901 117.72 603.901 120.92V123.68ZM625.737 132H622.257V105.2H625.737V132ZM634.968 132.4C631.688 132.4 629.848 130.52 629.848 127.96C629.848 125.36 631.808 123.72 634.568 122.48L641.568 119.36C641.448 117.08 640.368 115.4 637.328 115.4C634.568 115.4 632.728 117 631.728 119.12L629.368 116.68C630.528 114.68 633.408 112.24 637.728 112.24C642.488 112.24 645.048 115.08 645.048 119.68V127.64C645.048 128.56 645.408 128.84 646.128 128.84H647.368V132H645.128C643.128 132 641.688 131.04 641.688 128.32V126.96C641.048 129.52 638.968 132.4 634.968 132.4ZM633.368 127.4C633.368 128.72 634.288 129.52 636.088 129.52C639.368 129.52 641.688 127.36 641.688 124.56V121.88L636.048 124.52C634.208 125.4 633.368 126.2 633.368 127.4ZM657.331 132.44C654.171 132.44 651.931 130.36 651.931 127.04V115.36H648.811V112.64H651.931V110.16L655.411 107.6V112.64H661.771V115.36H655.411V126C655.411 128.48 656.571 129.08 658.091 129.08C659.811 129.08 661.011 127.64 661.531 126.44L662.691 129.88C661.851 131.2 660.011 132.44 657.331 132.44ZM672.997 132.4C667.517 132.4 663.717 128.48 663.717 122.32C663.717 116.2 667.477 112.24 672.797 112.24C678.277 112.24 681.597 115.88 681.597 121.56C681.597 122.16 681.517 122.76 681.437 123.12H667.077C667.277 127.2 669.557 129.52 672.997 129.52C676.877 129.52 678.437 127.4 679.197 125.72L681.317 128.12C679.877 130.44 677.197 132.4 672.997 132.4ZM672.797 115.16C669.677 115.16 667.597 117 667.157 120.6H678.477C678.117 117.04 676.037 115.16 672.797 115.16ZM693.215 132.4C689.175 132.4 685.495 130.64 684.175 127.04L686.695 125.08C687.375 127.28 689.495 129.48 693.335 129.48C695.615 129.48 697.135 128.6 697.135 126.88C697.135 125.12 695.375 124.56 693.095 124.04L690.535 123.44C687.775 122.8 684.775 121.48 684.775 117.92C684.775 114.4 687.495 112.24 691.695 112.24C695.775 112.24 698.615 114.4 699.695 116.96L697.055 118.92C696.095 116.64 694.255 115.2 691.495 115.2C689.495 115.2 688.055 116.08 688.055 117.72C688.055 119.44 689.335 120.04 691.975 120.68L694.455 121.32C698.815 122.36 700.255 124.16 700.255 126.84C700.255 130.68 696.975 132.4 693.215 132.4Z" fill="#181717"/>
<g filter="url(#filter0_d_2_886)">
<circle cx="465" cy="273" r="30" fill="white"/>
</g>
<path d="M460.023 271.463C459.506 271.463 459.086 271.883 459.086 272.4C459.086 272.918 459.506 273.338 460.023 273.338V271.463ZM468.773 273.338C469.291 273.338 469.711 272.918 469.711 272.4C469.711 271.883 469.291 271.463 468.773 271.463V273.338ZM460.023 276.463C459.506 276.463 459.086 276.883 459.086 277.4C459.086 277.918 459.506 278.338 460.023 278.338V276.463ZM468.773 278.338C469.291 278.338 469.711 277.918 469.711 277.4C469.711 276.883 469.291 276.463 468.773 276.463V278.338ZM462.398 262.088H466.398V260.213H462.398V262.088ZM472.211 267.9V276.9H474.086V267.9H472.211ZM466.398 282.713H462.398V284.588H466.398V282.713ZM456.586 276.9V267.9H454.711V276.9H456.586ZM460.023 273.338H468.773V271.463H460.023V273.338ZM460.023 278.338H468.773V276.463H460.023V278.338ZM467.211 261.15V262.4H469.086V261.15H467.211ZM461.586 262.4V261.15H459.711V262.4H461.586ZM464.398 265.213C463.649 265.213 463.154 265.212 462.778 265.175C462.416 265.14 462.263 265.079 462.171 265.021L461.173 266.609C461.614 266.886 462.094 266.993 462.597 267.042C463.085 267.089 463.686 267.088 464.398 267.088V265.213ZM459.711 262.4C459.711 263.113 459.71 263.714 459.757 264.202C459.806 264.704 459.913 265.184 460.19 265.625L461.778 264.628C461.719 264.535 461.659 264.383 461.623 264.021C461.587 263.645 461.586 263.15 461.586 262.4H459.711ZM462.171 265.021C462.012 264.921 461.877 264.787 461.778 264.628L460.19 265.625C460.44 266.023 460.776 266.359 461.173 266.609L462.171 265.021ZM467.211 262.4C467.211 263.15 467.21 263.645 467.173 264.021C467.138 264.383 467.077 264.535 467.019 264.628L468.607 265.625C468.884 265.184 468.991 264.704 469.04 264.202C469.087 263.714 469.086 263.113 469.086 262.4H467.211ZM464.398 267.088C465.111 267.088 465.712 267.089 466.2 267.042C466.703 266.993 467.182 266.886 467.624 266.609L466.626 265.021C466.534 265.079 466.381 265.14 466.019 265.175C465.643 265.212 465.148 265.213 464.398 265.213V267.088ZM467.019 264.628C466.919 264.787 466.785 264.921 466.626 265.021L467.624 266.609C468.021 266.359 468.357 266.023 468.607 265.625L467.019 264.628ZM462.398 282.713C460.971 282.713 459.976 282.712 459.212 282.629C458.466 282.548 458.052 282.398 457.745 282.176L456.643 283.693C457.323 284.186 458.104 284.395 459.01 284.493C459.899 284.589 461.013 284.588 462.398 284.588V282.713ZM454.711 276.9C454.711 278.286 454.71 279.4 454.806 280.288C454.904 281.195 455.113 281.976 455.606 282.656L457.123 281.554C456.9 281.247 456.751 280.833 456.67 280.087C456.587 279.322 456.586 278.327 456.586 276.9H454.711ZM457.745 282.176C457.507 282.002 457.297 281.792 457.123 281.554L455.606 282.656C455.895 283.054 456.245 283.404 456.643 283.693L457.745 282.176ZM472.211 276.9C472.211 278.327 472.21 279.322 472.127 280.087C472.046 280.833 471.896 281.247 471.674 281.554L473.191 282.656C473.684 281.976 473.893 281.195 473.991 280.288C474.087 279.4 474.086 278.286 474.086 276.9H472.211ZM466.398 284.588C467.784 284.588 468.898 284.589 469.786 284.493C470.693 284.395 471.474 284.186 472.154 283.693L471.052 282.176C470.745 282.398 470.331 282.548 469.585 282.629C468.82 282.712 467.825 282.713 466.398 282.713V284.588ZM471.674 281.554C471.5 281.792 471.29 282.002 471.052 282.176L472.154 283.693C472.552 283.404 472.902 283.054 473.191 282.656L471.674 281.554ZM466.398 262.088C467.825 262.088 468.82 262.089 469.585 262.172C470.331 262.253 470.745 262.402 471.052 262.625L472.154 261.108C471.474 260.615 470.693 260.406 469.786 260.308C468.898 260.212 467.784 260.213 466.398 260.213V262.088ZM474.086 267.9C474.086 266.515 474.087 265.401 473.991 264.512C473.893 263.606 473.684 262.824 473.191 262.145L471.674 263.247C471.896 263.554 472.046 263.968 472.127 264.714C472.21 265.478 472.211 266.473 472.211 267.9H474.086ZM471.052 262.625C471.29 262.799 471.5 263.008 471.674 263.247L473.191 262.145C472.902 261.747 472.552 261.397 472.154 261.108L471.052 262.625ZM462.398 260.213C461.013 260.213 459.899 260.212 459.01 260.308C458.104 260.406 457.323 260.615 456.643 261.108L457.745 262.625C458.052 262.402 458.466 262.253 459.212 262.172C459.976 262.089 460.971 262.088 462.398 262.088V260.213ZM456.586 267.9C456.586 266.473 456.587 265.478 456.67 264.714C456.751 263.968 456.9 263.554 457.123 263.247L455.606 262.145C455.113 262.824 454.904 263.606 454.806 264.512C454.71 265.401 454.711 266.515 454.711 267.9H456.586ZM456.643 261.108C456.245 261.397 455.895 261.747 455.606 262.145L457.123 263.247C457.297 263.008 457.507 262.799 457.745 262.625L456.643 261.108Z" fill="#061D19"/>
<circle cx="555" cy="273" r="30" fill="white"/>
<path d="M550.023 271.463C549.506 271.463 549.086 271.883 549.086 272.4C549.086 272.918 549.506 273.338 550.023 273.338V271.463ZM558.773 273.338C559.291 273.338 559.711 272.918 559.711 272.4C559.711 271.883 559.291 271.463 558.773 271.463V273.338ZM550.023 276.463C549.506 276.463 549.086 276.883 549.086 277.4C549.086 277.918 549.506 278.338 550.023 278.338V276.463ZM558.773 278.338C559.291 278.338 559.711 277.918 559.711 277.4C559.711 276.883 559.291 276.463 558.773 276.463V278.338ZM552.398 262.088H556.398V260.213H552.398V262.088ZM562.211 267.9V276.9H564.086V267.9H562.211ZM556.398 282.713H552.398V284.588H556.398V282.713ZM546.586 276.9V267.9H544.711V276.9H546.586ZM550.023 273.338H558.773V271.463H550.023V273.338ZM550.023 278.338H558.773V276.463H550.023V278.338ZM557.211 261.15V262.4H559.086V261.15H557.211ZM551.586 262.4V261.15H549.711V262.4H551.586ZM554.398 265.213C553.649 265.213 553.154 265.212 552.778 265.175C552.416 265.14 552.263 265.079 552.171 265.021L551.173 266.609C551.614 266.886 552.094 266.993 552.597 267.042C553.085 267.089 553.686 267.088 554.398 267.088V265.213ZM549.711 262.4C549.711 263.113 549.71 263.714 549.757 264.202C549.806 264.704 549.913 265.184 550.19 265.625L551.778 264.628C551.719 264.535 551.659 264.383 551.623 264.021C551.587 263.645 551.586 263.15 551.586 262.4H549.711ZM552.171 265.021C552.012 264.921 551.877 264.787 551.778 264.628L550.19 265.625C550.44 266.023 550.776 266.359 551.173 266.609L552.171 265.021ZM557.211 262.4C557.211 263.15 557.21 263.645 557.173 264.021C557.138 264.383 557.077 264.535 557.019 264.628L558.607 265.625C558.884 265.184 558.991 264.704 559.04 264.202C559.087 263.714 559.086 263.113 559.086 262.4H557.211ZM554.398 267.088C555.111 267.088 555.712 267.089 556.2 267.042C556.703 266.993 557.182 266.886 557.624 266.609L556.626 265.021C556.534 265.079 556.381 265.14 556.019 265.175C555.643 265.212 555.148 265.213 554.398 265.213V267.088ZM557.019 264.628C556.919 264.787 556.785 264.921 556.626 265.021L557.624 266.609C558.021 266.359 558.357 266.023 558.607 265.625L557.019 264.628ZM552.398 282.713C550.971 282.713 549.976 282.712 549.212 282.629C548.466 282.548 548.052 282.398 547.745 282.176L546.643 283.693C547.323 284.186 548.104 284.395 549.01 284.493C549.899 284.589 551.013 284.588 552.398 284.588V282.713ZM544.711 276.9C544.711 278.286 544.71 279.4 544.806 280.288C544.904 281.195 545.113 281.976 545.606 282.656L547.123 281.554C546.9 281.247 546.751 280.833 546.67 280.087C546.587 279.322 546.586 278.327 546.586 276.9H544.711ZM547.745 282.176C547.507 282.002 547.297 281.792 547.123 281.554L545.606 282.656C545.895 283.054 546.245 283.404 546.643 283.693L547.745 282.176ZM562.211 276.9C562.211 278.327 562.21 279.322 562.127 280.087C562.046 280.833 561.896 281.247 561.674 281.554L563.191 282.656C563.684 281.976 563.893 281.195 563.991 280.288C564.087 279.4 564.086 278.286 564.086 276.9H562.211ZM556.398 284.588C557.784 284.588 558.898 284.589 559.786 284.493C560.693 284.395 561.474 284.186 562.154 283.693L561.052 282.176C560.745 282.398 560.331 282.548 559.585 282.629C558.82 282.712 557.825 282.713 556.398 282.713V284.588ZM561.674 281.554C561.5 281.792 561.29 282.002 561.052 282.176L562.154 283.693C562.552 283.404 562.902 283.054 563.191 282.656L561.674 281.554ZM556.398 262.088C557.825 262.088 558.82 262.089 559.585 262.172C560.331 262.253 560.745 262.402 561.052 262.625L562.154 261.108C561.474 260.615 560.693 260.406 559.786 260.308C558.898 260.212 557.784 260.213 556.398 260.213V262.088ZM564.086 267.9C564.086 266.515 564.087 265.401 563.991 264.512C563.893 263.606 563.684 262.824 563.191 262.145L561.674 263.247C561.896 263.554 562.046 263.968 562.127 264.714C562.21 265.478 562.211 266.473 562.211 267.9H564.086ZM561.052 262.625C561.29 262.799 561.5 263.008 561.674 263.247L563.191 262.145C562.902 261.747 562.552 261.397 562.154 261.108L561.052 262.625ZM552.398 260.213C551.013 260.213 549.899 260.212 549.01 260.308C548.104 260.406 547.323 260.615 546.643 261.108L547.745 262.625C548.052 262.402 548.466 262.253 549.212 262.172C549.976 262.089 550.971 262.088 552.398 262.088V260.213ZM546.586 267.9C546.586 266.473 546.587 265.478 546.67 264.714C546.751 263.968 546.9 263.554 547.123 263.247L545.606 262.145C545.113 262.824 544.904 263.606 544.806 264.512C544.71 265.401 544.711 266.515 544.711 267.9H546.586ZM546.643 261.108C546.245 261.397 545.895 261.747 545.606 262.145L547.123 263.247C547.297 263.008 547.507 262.799 547.745 262.625L546.643 261.108Z" fill="#061D19"/>
<circle cx="645" cy="273" r="30" fill="white"/>
<path d="M644.398 283.65C650.612 283.65 655.648 278.614 655.648 272.4C655.648 266.187 650.612 261.15 644.398 261.15C638.185 261.15 633.148 266.187 633.148 272.4C633.148 278.614 638.185 283.65 644.398 283.65Z" stroke="#061D19" stroke-width="1.875" stroke-linecap="round" stroke-linejoin="round"/>
<path fill-rule="evenodd" clip-rule="evenodd" d="M644.398 274.9C645.089 274.9 645.648 275.46 645.648 276.15C645.648 276.841 645.089 277.4 644.398 277.4C643.708 277.4 643.148 276.841 643.148 276.15C643.148 275.46 643.708 274.9 644.398 274.9ZM645.336 272.088C645.336 272.606 644.916 273.025 644.398 273.025C643.881 273.025 643.461 272.606 643.461 272.088V268.338C643.461 267.82 643.881 267.4 644.398 267.4C644.916 267.4 645.336 267.82 645.336 268.338V272.088Z" fill="#061D19"/>
<circle cx="735" cy="273" r="30" fill="white"/>
<path d="M732.943 266.272L732.943 265.104C732.943 263.813 733.989 262.767 735.28 262.767C736.57 262.767 737.616 263.813 737.616 265.103L737.616 266.272M737.616 280.874H741.627C743.489 280.874 744.489 278.688 743.273 277.279L742.441 276.316C741.411 275.124 740.917 273.562 741.074 271.995C741.412 268.618 738.76 265.687 735.366 265.687H735.194C731.8 265.687 729.148 268.618 729.485 271.995C729.642 273.562 729.148 275.124 728.119 276.316L727.287 277.279C726.07 278.688 727.071 280.874 728.933 280.874H732.943M737.616 280.874V281.458C737.616 282.749 736.57 283.795 735.279 283.795C733.989 283.795 732.943 282.749 732.943 281.458V280.874M737.616 280.874H732.943" stroke="#061D19" stroke-width="1.75234" stroke-linejoin="round"/>
<path d="M741.899 265.103C743.454 266.33 744.341 268.054 744.513 269.802" stroke="#061D19" stroke-width="1.75234" stroke-linecap="round" stroke-linejoin="round"/>
<path d="M728.662 265.103C727.107 266.33 726.22 268.054 726.048 269.802" stroke="#061D19" stroke-width="1.75234" stroke-linecap="round" stroke-linejoin="round"/>
<g filter="url(#filter1_d_2_886)">
<rect x="435" y="352" width="171" height="234" rx="10" fill="white"/>
<rect x="445" y="448" width="134" height="6" rx="3" fill="#ECEFF2"/>
<rect x="448" y="512" width="134" height="6" rx="3" fill="#ECEFF2"/>
<rect x="448" y="462" width="83" height="6" rx="3" fill="#ECEFF2"/>
<rect x="448" y="526" width="83" height="6" rx="3" fill="#ECEFF2"/>
<rect x="448" y="538" width="91" height="6" rx="3" fill="#ECEFF2"/>
<rect x="448" y="550" width="83" height="6" rx="3" fill="#ECEFF2"/>
<circle cx="521" cy="384" r="20" fill="#ECEFF2"/>
</g>
<rect x="632" y="352" width="171" height="234" rx="10" fill="white"/>
<rect x="645" y="512" width="134" height="6" rx="3" fill="#ECEFF2"/>
<rect x="642" y="448" width="52" height="6" rx="3" fill="#ECEFF2"/>
<rect x="704" y="448" width="85" height="6" rx="3" fill="#ECEFF2"/>
<rect x="642" y="465" width="52" height="6" rx="3" fill="#ECEFF2"/>
<rect x="704" y="465" width="85" height="6" rx="3" fill="#ECEFF2"/>
<rect x="645" y="526" width="83" height="6" rx="3" fill="#ECEFF2"/>
<rect x="645" y="538" width="93" height="6" rx="3" fill="#ECEFF2"/>
<rect x="645" y="550" width="76" height="6" rx="3" fill="#ECEFF2"/>
<circle cx="718" cy="384" r="20" fill="#ECEFF2"/>
<rect x="829" y="352" width="171" height="234" rx="10" fill="white"/>
<circle cx="915" cy="384" r="20" fill="#ECEFF2"/>
<rect x="847" y="439" width="134" height="6" rx="3" fill="#ECEFF2"/>
<rect x="847" y="453" width="83" height="6" rx="3" fill="#ECEFF2"/>
<rect x="847" y="479" width="106" height="6" rx="3" fill="#ECEFF2"/>
<rect x="847" y="493" width="83" height="6" rx="3" fill="#ECEFF2"/>
<rect x="847" y="519" width="106" height="6" rx="3" fill="#ECEFF2"/>
<rect x="847" y="533" width="83" height="6" rx="3" fill="#ECEFF2"/>
<rect x="847" y="546" width="83" height="6" rx="3" fill="#ECEFF2"/>
<rect x="435" y="616" width="171" height="234" rx="10" fill="white"/>
<rect x="445" y="712" width="134" height="6" rx="3" fill="#ECEFF2"/>
<rect x="448" y="776" width="134" height="6" rx="3" fill="#ECEFF2"/>
<rect x="448" y="726" width="83" height="6" rx="3" fill="#ECEFF2"/>
<rect x="448" y="790" width="83" height="6" rx="3" fill="#ECEFF2"/>
<rect x="448" y="802" width="91" height="6" rx="3" fill="#ECEFF2"/>
<rect x="448" y="814" width="83" height="6" rx="3" fill="#ECEFF2"/>
<circle cx="521" cy="648" r="20" fill="#ECEFF2"/>
<rect x="632" y="616" width="171" height="234" rx="10" fill="white"/>
<rect x="645" y="776" width="134" height="6" rx="3" fill="#ECEFF2"/>
<rect x="642" y="712" width="52" height="6" rx="3" fill="#ECEFF2"/>
<rect x="704" y="712" width="85" height="6" rx="3" fill="#ECEFF2"/>
<rect x="642" y="729" width="52" height="6" rx="3" fill="#ECEFF2"/>
<rect x="704" y="729" width="85" height="6" rx="3" fill="#ECEFF2"/>
<rect x="645" y="790" width="83" height="6" rx="3" fill="#ECEFF2"/>
<rect x="645" y="802" width="93" height="6" rx="3" fill="#ECEFF2"/>
<rect x="645" y="814" width="76" height="6" rx="3" fill="#ECEFF2"/>
<circle cx="718" cy="648" r="20" fill="#ECEFF2"/>
<rect x="829" y="616" width="171" height="234" rx="10" fill="white"/>
<circle cx="915" cy="648" r="20" fill="#ECEFF2"/>
<rect x="847" y="703" width="134" height="6" rx="3" fill="#ECEFF2"/>
<rect x="847" y="717" width="83" height="6" rx="3" fill="#ECEFF2"/>
<rect x="847" y="743" width="106" height="6" rx="3" fill="#ECEFF2"/>
<rect x="847" y="757" width="83" height="6" rx="3" fill="#ECEFF2"/>
<rect x="847" y="783" width="106" height="6" rx="3" fill="#ECEFF2"/>
<rect x="847" y="797" width="83" height="6" rx="3" fill="#ECEFF2"/>
<rect x="847" y="810" width="83" height="6" rx="3" fill="#ECEFF2"/>
<path d="M96.02 379H82.28V358.9H96.02V361.21H84.89V367.54H94.07V369.85H84.89V376.69H96.02V379ZM101.289 379H98.6792V364.48H101.289V368.32C101.859 366.1 103.359 364.18 105.969 364.18C108.639 364.18 110.109 365.71 110.259 368.44C110.829 366.13 112.329 364.18 114.969 364.18C117.819 364.18 119.289 365.89 119.289 368.95V379H116.709V369.58C116.709 367.45 115.689 366.4 113.529 366.4C111.309 366.4 110.289 368.35 110.289 370.78V379H107.679V369.58C107.679 367.45 106.689 366.4 104.499 366.4C102.309 366.4 101.289 368.35 101.289 370.78V379ZM126.23 379.3C123.77 379.3 122.39 377.89 122.39 375.97C122.39 374.02 123.86 372.79 125.93 371.86L131.18 369.52C131.09 367.81 130.28 366.55 128 366.55C125.93 366.55 124.55 367.75 123.8 369.34L122.03 367.51C122.9 366.01 125.06 364.18 128.3 364.18C131.87 364.18 133.79 366.31 133.79 369.76V375.73C133.79 376.42 134.06 376.63 134.6 376.63H135.53V379H133.85C132.35 379 131.27 378.28 131.27 376.24V375.22C130.79 377.14 129.23 379.3 126.23 379.3ZM125.03 375.55C125.03 376.54 125.72 377.14 127.07 377.14C129.53 377.14 131.27 375.52 131.27 373.42V371.41L127.04 373.39C125.66 374.05 125.03 374.65 125.03 375.55ZM141.162 362.14H138.552V358.9H141.162V362.14ZM141.162 379H138.552V364.48H141.162V379ZM147.695 379H145.085V358.9H147.695V379ZM163.07 379.33C160.7 379.33 159.02 377.77 159.02 375.28V366.52H156.68V364.48H159.02V362.62L161.63 360.7V364.48H166.4V366.52H161.63V374.5C161.63 376.36 162.5 376.81 163.64 376.81C164.93 376.81 165.83 375.73 166.22 374.83L167.09 377.41C166.46 378.4 165.08 379.33 163.07 379.33ZM174.82 379.3C170.71 379.3 167.86 376.36 167.86 371.74C167.86 367.15 170.68 364.18 174.67 364.18C178.78 364.18 181.27 366.91 181.27 371.17C181.27 371.62 181.21 372.07 181.15 372.34H170.38C170.53 375.4 172.24 377.14 174.82 377.14C177.73 377.14 178.9 375.55 179.47 374.29L181.06 376.09C179.98 377.83 177.97 379.3 174.82 379.3ZM174.67 366.37C172.33 366.37 170.77 367.75 170.44 370.45H178.93C178.66 367.78 177.1 366.37 174.67 366.37ZM187.188 379H184.578V364.48H187.188V368.32C187.758 366.1 189.258 364.18 191.868 364.18C194.538 364.18 196.008 365.71 196.158 368.44C196.728 366.13 198.228 364.18 200.868 364.18C203.718 364.18 205.188 365.89 205.188 368.95V379H202.608V369.58C202.608 367.45 201.588 366.4 199.428 366.4C197.208 366.4 196.188 368.35 196.188 370.78V379H193.578V369.58C193.578 367.45 192.588 366.4 190.398 366.4C188.208 366.4 187.188 368.35 187.188 370.78V379ZM211.68 384.58H209.07V364.48H211.68V368.2C212.19 366.01 213.57 364.15 216.36 364.15C220.02 364.15 222.3 367.12 222.3 371.71C222.3 376.3 220.02 379.3 216.36 379.3C213.57 379.3 212.19 377.44 211.68 375.25V384.58ZM211.68 372.76C211.68 375.16 212.7 377.11 215.46 377.11C217.77 377.11 219.66 375.43 219.66 371.71C219.66 368.02 217.77 366.34 215.46 366.34C212.7 366.34 211.68 368.29 211.68 370.69V372.76ZM228.057 379H225.447V358.9H228.057V379ZM234.98 379.3C232.52 379.3 231.14 377.89 231.14 375.97C231.14 374.02 232.61 372.79 234.68 371.86L239.93 369.52C239.84 367.81 239.03 366.55 236.75 366.55C234.68 366.55 233.3 367.75 232.55 369.34L230.78 367.51C231.65 366.01 233.81 364.18 237.05 364.18C240.62 364.18 242.54 366.31 242.54 369.76V375.73C242.54 376.42 242.81 376.63 243.35 376.63H244.28V379H242.6C241.1 379 240.02 378.28 240.02 376.24V375.22C239.54 377.14 237.98 379.3 234.98 379.3ZM233.78 375.55C233.78 376.54 234.47 377.14 235.82 377.14C238.28 377.14 240.02 375.52 240.02 373.42V371.41L235.79 373.39C234.41 374.05 233.78 374.65 233.78 375.55ZM251.752 379.33C249.382 379.33 247.702 377.77 247.702 375.28V366.52H245.362V364.48H247.702V362.62L250.312 360.7V364.48H255.082V366.52H250.312V374.5C250.312 376.36 251.182 376.81 252.322 376.81C253.612 376.81 254.512 375.73 254.902 374.83L255.772 377.41C255.142 378.4 253.762 379.33 251.752 379.33ZM263.502 379.3C259.392 379.3 256.542 376.36 256.542 371.74C256.542 367.15 259.362 364.18 263.352 364.18C267.462 364.18 269.952 366.91 269.952 371.17C269.952 371.62 269.892 372.07 269.832 372.34H259.062C259.212 375.4 260.922 377.14 263.502 377.14C266.412 377.14 267.582 375.55 268.152 374.29L269.742 376.09C268.662 377.83 266.652 379.3 263.502 379.3ZM263.352 366.37C261.012 366.37 259.452 367.75 259.122 370.45H267.612C267.342 367.78 265.782 366.37 263.352 366.37ZM278.665 379.3C275.635 379.3 272.875 377.98 271.885 375.28L273.775 373.81C274.285 375.46 275.875 377.11 278.755 377.11C280.465 377.11 281.605 376.45 281.605 375.16C281.605 373.84 280.285 373.42 278.575 373.03L276.655 372.58C274.585 372.1 272.335 371.11 272.335 368.44C272.335 365.8 274.375 364.18 277.525 364.18C280.585 364.18 282.715 365.8 283.525 367.72L281.545 369.19C280.825 367.48 279.445 366.4 277.375 366.4C275.875 366.4 274.795 367.06 274.795 368.29C274.795 369.58 275.755 370.03 277.735 370.51L279.595 370.99C282.865 371.77 283.945 373.12 283.945 375.13C283.945 378.01 281.485 379.3 278.665 379.3Z" fill="#181717"/>
<path d="M93.4659 427H91.7045C91.6004 426.493 91.4181 426.048 91.1577 425.665C90.902 425.281 90.5895 424.959 90.2202 424.699C89.8556 424.434 89.4508 424.235 89.0057 424.102C88.5606 423.97 88.0966 423.903 87.6136 423.903C86.733 423.903 85.9351 424.126 85.2202 424.571C84.5099 425.016 83.9441 425.672 83.5227 426.538C83.1061 427.405 82.8977 428.468 82.8977 429.727C82.8977 430.987 83.1061 432.05 83.5227 432.916C83.9441 433.783 84.5099 434.438 85.2202 434.884C85.9351 435.329 86.733 435.551 87.6136 435.551C88.0966 435.551 88.5606 435.485 89.0057 435.352C89.4508 435.22 89.8556 435.023 90.2202 434.763C90.5895 434.498 90.902 434.173 91.1577 433.79C91.4181 433.402 91.6004 432.956 91.7045 432.455H93.4659C93.3333 433.198 93.0919 433.863 92.7415 434.45C92.3911 435.037 91.9555 435.537 91.4347 435.949C90.9138 436.356 90.3291 436.666 89.6804 436.879C89.0365 437.092 88.3475 437.199 87.6136 437.199C86.3731 437.199 85.2699 436.896 84.304 436.29C83.3381 435.684 82.5781 434.822 82.0241 433.705C81.4702 432.587 81.1932 431.261 81.1932 429.727C81.1932 428.193 81.4702 426.867 82.0241 425.75C82.5781 424.633 83.3381 423.771 84.304 423.165C85.2699 422.559 86.3731 422.256 87.6136 422.256C88.3475 422.256 89.0365 422.362 89.6804 422.575C90.3291 422.788 90.9138 423.101 91.4347 423.513C91.9555 423.92 92.3911 424.417 92.7415 425.004C93.0919 425.587 93.3333 426.252 93.4659 427ZM97.761 422.455V437H96.0849V422.455H97.761ZM104.041 437.256C103.35 437.256 102.723 437.125 102.159 436.865C101.596 436.6 101.148 436.219 100.817 435.722C100.485 435.22 100.32 434.614 100.32 433.903C100.32 433.278 100.443 432.772 100.689 432.384C100.935 431.991 101.264 431.683 101.676 431.46C102.088 431.238 102.543 431.072 103.04 430.963C103.542 430.849 104.046 430.759 104.553 430.693C105.215 430.608 105.753 430.544 106.165 430.501C106.581 430.454 106.884 430.376 107.074 430.267C107.268 430.158 107.365 429.969 107.365 429.699V429.642C107.365 428.941 107.173 428.397 106.79 428.009C106.411 427.62 105.836 427.426 105.064 427.426C104.264 427.426 103.636 427.601 103.182 427.952C102.727 428.302 102.408 428.676 102.223 429.074L100.632 428.506C100.916 427.843 101.295 427.327 101.768 426.957C102.247 426.583 102.768 426.323 103.331 426.176C103.899 426.025 104.458 425.949 105.007 425.949C105.357 425.949 105.76 425.991 106.214 426.077C106.674 426.157 107.116 426.325 107.543 426.581C107.973 426.837 108.331 427.223 108.615 427.739C108.899 428.255 109.041 428.946 109.041 429.812V437H107.365V435.523H107.28C107.166 435.759 106.977 436.013 106.712 436.283C106.446 436.553 106.094 436.782 105.653 436.972C105.213 437.161 104.676 437.256 104.041 437.256ZM104.297 435.75C104.96 435.75 105.518 435.62 105.973 435.359C106.432 435.099 106.778 434.763 107.01 434.351C107.247 433.939 107.365 433.506 107.365 433.051V431.517C107.294 431.602 107.138 431.68 106.896 431.751C106.66 431.818 106.385 431.877 106.072 431.929C105.765 431.976 105.464 432.019 105.17 432.057C104.882 432.09 104.647 432.118 104.467 432.142C104.032 432.199 103.625 432.291 103.246 432.419C102.872 432.542 102.569 432.729 102.337 432.98C102.109 433.226 101.996 433.562 101.996 433.989C101.996 434.571 102.211 435.011 102.642 435.31C103.078 435.603 103.629 435.75 104.297 435.75ZM119.828 428.534L118.322 428.96C118.227 428.709 118.088 428.465 117.903 428.229C117.723 427.987 117.477 427.788 117.164 427.632C116.852 427.476 116.452 427.398 115.964 427.398C115.297 427.398 114.74 427.552 114.295 427.859C113.855 428.162 113.635 428.548 113.635 429.017C113.635 429.434 113.786 429.763 114.089 430.004C114.392 430.246 114.866 430.447 115.51 430.608L117.129 431.006C118.104 431.242 118.831 431.605 119.309 432.092C119.788 432.575 120.027 433.198 120.027 433.96C120.027 434.585 119.847 435.144 119.487 435.636C119.132 436.129 118.635 436.517 117.995 436.801C117.356 437.085 116.613 437.227 115.765 437.227C114.653 437.227 113.732 436.986 113.002 436.503C112.273 436.02 111.812 435.314 111.618 434.386L113.208 433.989C113.36 434.576 113.646 435.016 114.068 435.31C114.494 435.603 115.05 435.75 115.737 435.75C116.518 435.75 117.138 435.584 117.598 435.253C118.062 434.917 118.294 434.514 118.294 434.045C118.294 433.667 118.161 433.349 117.896 433.094C117.631 432.833 117.224 432.639 116.674 432.511L114.856 432.085C113.857 431.848 113.123 431.482 112.654 430.984C112.19 430.482 111.958 429.855 111.958 429.102C111.958 428.487 112.131 427.942 112.477 427.469C112.827 426.995 113.303 426.624 113.904 426.354C114.511 426.084 115.197 425.949 115.964 425.949C117.044 425.949 117.891 426.186 118.507 426.659C119.127 427.133 119.567 427.758 119.828 428.534ZM130.277 428.534L128.771 428.96C128.677 428.709 128.537 428.465 128.352 428.229C128.172 427.987 127.926 427.788 127.614 427.632C127.301 427.476 126.901 427.398 126.413 427.398C125.746 427.398 125.189 427.552 124.744 427.859C124.304 428.162 124.084 428.548 124.084 429.017C124.084 429.434 124.235 429.763 124.538 430.004C124.841 430.246 125.315 430.447 125.959 430.608L127.578 431.006C128.554 431.242 129.28 431.605 129.759 432.092C130.237 432.575 130.476 433.198 130.476 433.96C130.476 434.585 130.296 435.144 129.936 435.636C129.581 436.129 129.084 436.517 128.445 436.801C127.805 437.085 127.062 437.227 126.214 437.227C125.102 437.227 124.181 436.986 123.452 436.503C122.723 436.02 122.261 435.314 122.067 434.386L123.658 433.989C123.809 434.576 124.096 435.016 124.517 435.31C124.943 435.603 125.5 435.75 126.186 435.75C126.967 435.75 127.588 435.584 128.047 435.253C128.511 434.917 128.743 434.514 128.743 434.045C128.743 433.667 128.61 433.349 128.345 433.094C128.08 432.833 127.673 432.639 127.124 432.511L125.305 432.085C124.306 431.848 123.572 431.482 123.104 430.984C122.64 430.482 122.408 429.855 122.408 429.102C122.408 428.487 122.58 427.942 122.926 427.469C123.277 426.995 123.752 426.624 124.354 426.354C124.96 426.084 125.646 425.949 126.413 425.949C127.493 425.949 128.34 426.186 128.956 426.659C129.576 427.133 130.017 427.758 130.277 428.534ZM132.999 437V426.091H134.675V437H132.999ZM133.851 424.273C133.525 424.273 133.243 424.161 133.006 423.939C132.774 423.716 132.658 423.449 132.658 423.136C132.658 422.824 132.774 422.556 133.006 422.334C133.243 422.111 133.525 422 133.851 422C134.178 422 134.457 422.111 134.689 422.334C134.926 422.556 135.044 422.824 135.044 423.136C135.044 423.449 134.926 423.716 134.689 423.939C134.457 424.161 134.178 424.273 133.851 424.273ZM142.177 437.227C141.154 437.227 140.273 436.986 139.535 436.503C138.796 436.02 138.228 435.355 137.83 434.507C137.433 433.66 137.234 432.691 137.234 431.602C137.234 430.494 137.437 429.517 137.844 428.669C138.256 427.817 138.829 427.152 139.563 426.673C140.302 426.19 141.164 425.949 142.148 425.949C142.915 425.949 143.607 426.091 144.222 426.375C144.838 426.659 145.342 427.057 145.735 427.568C146.128 428.08 146.372 428.676 146.467 429.358H144.79C144.663 428.861 144.379 428.42 143.938 428.037C143.503 427.649 142.915 427.455 142.177 427.455C141.523 427.455 140.951 427.625 140.458 427.966C139.97 428.302 139.589 428.778 139.315 429.393C139.045 430.004 138.91 430.722 138.91 431.545C138.91 432.388 139.042 433.122 139.308 433.747C139.577 434.372 139.956 434.857 140.444 435.203C140.936 435.549 141.514 435.722 142.177 435.722C142.612 435.722 143.008 435.646 143.363 435.494C143.718 435.343 144.019 435.125 144.265 434.841C144.511 434.557 144.686 434.216 144.79 433.818H146.467C146.372 434.462 146.138 435.042 145.763 435.558C145.394 436.07 144.904 436.477 144.293 436.78C143.687 437.078 142.982 437.227 142.177 437.227Z" fill="#181717"/>
<path d="M93.4659 473H91.7045C91.6004 472.493 91.4181 472.048 91.1577 471.665C90.902 471.281 90.5895 470.959 90.2202 470.699C89.8556 470.434 89.4508 470.235 89.0057 470.102C88.5606 469.97 88.0966 469.903 87.6136 469.903C86.733 469.903 85.9351 470.126 85.2202 470.571C84.5099 471.016 83.9441 471.672 83.5227 472.538C83.1061 473.405 82.8977 474.468 82.8977 475.727C82.8977 476.987 83.1061 478.05 83.5227 478.916C83.9441 479.783 84.5099 480.438 85.2202 480.884C85.9351 481.329 86.733 481.551 87.6136 481.551C88.0966 481.551 88.5606 481.485 89.0057 481.352C89.4508 481.22 89.8556 481.023 90.2202 480.763C90.5895 480.498 90.902 480.173 91.1577 479.79C91.4181 479.402 91.6004 478.956 91.7045 478.455H93.4659C93.3333 479.198 93.0919 479.863 92.7415 480.45C92.3911 481.037 91.9555 481.537 91.4347 481.949C90.9138 482.356 90.3291 482.666 89.6804 482.879C89.0365 483.092 88.3475 483.199 87.6136 483.199C86.3731 483.199 85.2699 482.896 84.304 482.29C83.3381 481.684 82.5781 480.822 82.0241 479.705C81.4702 478.587 81.1932 477.261 81.1932 475.727C81.1932 474.193 81.4702 472.867 82.0241 471.75C82.5781 470.633 83.3381 469.771 84.304 469.165C85.2699 468.559 86.3731 468.256 87.6136 468.256C88.3475 468.256 89.0365 468.362 89.6804 468.575C90.3291 468.788 90.9138 469.101 91.4347 469.513C91.9555 469.92 92.3911 470.417 92.7415 471.004C93.0919 471.587 93.3333 472.252 93.4659 473ZM100.517 483.227C99.5318 483.227 98.6677 482.993 97.9244 482.524C97.1857 482.055 96.6081 481.4 96.1914 480.557C95.7795 479.714 95.5735 478.729 95.5735 477.602C95.5735 476.466 95.7795 475.474 96.1914 474.626C96.6081 473.779 97.1857 473.121 97.9244 472.652C98.6677 472.183 99.5318 471.949 100.517 471.949C101.502 471.949 102.363 472.183 103.102 472.652C103.845 473.121 104.423 473.779 104.835 474.626C105.252 475.474 105.46 476.466 105.46 477.602C105.46 478.729 105.252 479.714 104.835 480.557C104.423 481.4 103.845 482.055 103.102 482.524C102.363 482.993 101.502 483.227 100.517 483.227ZM100.517 481.722C101.265 481.722 101.88 481.53 102.363 481.146C102.846 480.763 103.204 480.259 103.436 479.634C103.668 479.009 103.784 478.331 103.784 477.602C103.784 476.873 103.668 476.194 103.436 475.564C103.204 474.934 102.846 474.425 102.363 474.037C101.88 473.649 101.265 473.455 100.517 473.455C99.7686 473.455 99.1531 473.649 98.6701 474.037C98.1871 474.425 97.8297 474.934 97.5977 475.564C97.3656 476.194 97.2496 476.873 97.2496 477.602C97.2496 478.331 97.3656 479.009 97.5977 479.634C97.8297 480.259 98.1871 480.763 98.6701 481.146C99.1531 481.53 99.7686 481.722 100.517 481.722ZM108.018 483V472.091H109.638V473.795H109.78C110.007 473.213 110.374 472.761 110.881 472.439C111.387 472.112 111.996 471.949 112.706 471.949C113.426 471.949 114.025 472.112 114.503 472.439C114.986 472.761 115.362 473.213 115.632 473.795H115.746C116.025 473.232 116.444 472.785 117.003 472.453C117.562 472.117 118.232 471.949 119.013 471.949C119.988 471.949 120.786 472.254 121.406 472.865C122.027 473.471 122.337 474.416 122.337 475.699V483H120.661V475.699C120.661 474.894 120.44 474.319 120 473.973C119.56 473.627 119.041 473.455 118.445 473.455C117.678 473.455 117.083 473.687 116.662 474.151C116.241 474.61 116.03 475.192 116.03 475.898V483H114.325V475.528C114.325 474.908 114.124 474.409 113.722 474.03C113.319 473.646 112.801 473.455 112.166 473.455C111.731 473.455 111.323 473.571 110.945 473.803C110.571 474.035 110.268 474.357 110.036 474.768C109.808 475.176 109.695 475.647 109.695 476.182V483H108.018ZM128.612 483.256C127.92 483.256 127.293 483.125 126.729 482.865C126.166 482.6 125.719 482.219 125.387 481.722C125.056 481.22 124.89 480.614 124.89 479.903C124.89 479.278 125.013 478.772 125.259 478.384C125.505 477.991 125.835 477.683 126.246 477.46C126.658 477.238 127.113 477.072 127.61 476.963C128.112 476.849 128.616 476.759 129.123 476.693C129.786 476.608 130.323 476.544 130.735 476.501C131.152 476.454 131.455 476.376 131.644 476.267C131.838 476.158 131.935 475.969 131.935 475.699V475.642C131.935 474.941 131.744 474.397 131.36 474.009C130.981 473.62 130.406 473.426 129.634 473.426C128.834 473.426 128.207 473.601 127.752 473.952C127.298 474.302 126.978 474.676 126.793 475.074L125.202 474.506C125.487 473.843 125.865 473.327 126.339 472.957C126.817 472.583 127.338 472.323 127.901 472.176C128.469 472.025 129.028 471.949 129.577 471.949C129.928 471.949 130.33 471.991 130.785 472.077C131.244 472.157 131.687 472.325 132.113 472.581C132.544 472.837 132.901 473.223 133.185 473.739C133.469 474.255 133.612 474.946 133.612 475.812V483H131.935V481.523H131.85C131.737 481.759 131.547 482.013 131.282 482.283C131.017 482.553 130.664 482.782 130.224 482.972C129.783 483.161 129.246 483.256 128.612 483.256ZM128.867 481.75C129.53 481.75 130.089 481.62 130.543 481.359C131.003 481.099 131.348 480.763 131.58 480.351C131.817 479.939 131.935 479.506 131.935 479.051V477.517C131.864 477.602 131.708 477.68 131.467 477.751C131.23 477.818 130.955 477.877 130.643 477.929C130.335 477.976 130.034 478.019 129.741 478.057C129.452 478.09 129.218 478.118 129.038 478.142C128.602 478.199 128.195 478.291 127.816 478.419C127.442 478.542 127.139 478.729 126.907 478.98C126.68 479.226 126.566 479.562 126.566 479.989C126.566 480.571 126.781 481.011 127.212 481.31C127.648 481.603 128.2 481.75 128.867 481.75ZM141.103 483.227C140.118 483.227 139.254 482.993 138.51 482.524C137.772 482.055 137.194 481.4 136.777 480.557C136.365 479.714 136.159 478.729 136.159 477.602C136.159 476.466 136.365 475.474 136.777 474.626C137.194 473.779 137.772 473.121 138.51 472.652C139.254 472.183 140.118 471.949 141.103 471.949C142.087 471.949 142.949 472.183 143.688 472.652C144.431 473.121 145.009 473.779 145.421 474.626C145.837 475.474 146.046 476.466 146.046 477.602C146.046 478.729 145.837 479.714 145.421 480.557C145.009 481.4 144.431 482.055 143.688 482.524C142.949 482.993 142.087 483.227 141.103 483.227ZM141.103 481.722C141.851 481.722 142.466 481.53 142.949 481.146C143.432 480.763 143.79 480.259 144.022 479.634C144.254 479.009 144.37 478.331 144.37 477.602C144.37 476.873 144.254 476.194 144.022 475.564C143.79 474.934 143.432 474.425 142.949 474.037C142.466 473.649 141.851 473.455 141.103 473.455C140.355 473.455 139.739 473.649 139.256 474.037C138.773 474.425 138.416 474.934 138.184 475.564C137.952 476.194 137.836 476.873 137.836 477.602C137.836 478.331 137.952 479.009 138.184 479.634C138.416 480.259 138.773 480.763 139.256 481.146C139.739 481.53 140.355 481.722 141.103 481.722ZM153.036 483.227C152.013 483.227 151.133 482.986 150.394 482.503C149.656 482.02 149.087 481.355 148.69 480.507C148.292 479.66 148.093 478.691 148.093 477.602C148.093 476.494 148.297 475.517 148.704 474.669C149.116 473.817 149.689 473.152 150.423 472.673C151.161 472.19 152.023 471.949 153.008 471.949C153.775 471.949 154.466 472.091 155.082 472.375C155.697 472.659 156.201 473.057 156.594 473.568C156.987 474.08 157.231 474.676 157.326 475.358H155.65C155.522 474.861 155.238 474.42 154.798 474.037C154.362 473.649 153.775 473.455 153.036 473.455C152.383 473.455 151.81 473.625 151.317 473.966C150.83 474.302 150.449 474.778 150.174 475.393C149.904 476.004 149.769 476.722 149.769 477.545C149.769 478.388 149.902 479.122 150.167 479.747C150.437 480.372 150.816 480.857 151.303 481.203C151.796 481.549 152.373 481.722 153.036 481.722C153.472 481.722 153.867 481.646 154.222 481.494C154.577 481.343 154.878 481.125 155.124 480.841C155.371 480.557 155.546 480.216 155.65 479.818H157.326C157.231 480.462 156.997 481.042 156.623 481.558C156.254 482.07 155.763 482.477 155.153 482.78C154.547 483.078 153.841 483.227 153.036 483.227ZM164.521 472.091V473.511H158.867V472.091H164.521ZM160.515 469.477H162.191V479.875C162.191 480.348 162.26 480.704 162.397 480.94C162.539 481.172 162.719 481.329 162.937 481.409C163.159 481.485 163.394 481.523 163.64 481.523C163.825 481.523 163.976 481.513 164.094 481.494C164.213 481.471 164.308 481.452 164.379 481.438L164.719 482.943C164.606 482.986 164.447 483.028 164.244 483.071C164.04 483.118 163.782 483.142 163.469 483.142C162.996 483.142 162.532 483.04 162.077 482.837C161.628 482.633 161.254 482.323 160.955 481.906C160.662 481.49 160.515 480.964 160.515 480.33V469.477Z" fill="#181717"/>
<path d="M81.7614 514.455H83.8636L88.8068 526.528H88.9773L93.9205 514.455H96.0227V529H94.375V517.949H94.233L89.6875 529H88.0966L83.5511 517.949H83.4091V529H81.7614V514.455ZM103.759 529.227C102.774 529.227 101.91 528.993 101.167 528.524C100.428 528.055 99.8503 527.4 99.4336 526.557C99.0217 525.714 98.8157 524.729 98.8157 523.602C98.8157 522.466 99.0217 521.474 99.4336 520.626C99.8503 519.779 100.428 519.121 101.167 518.652C101.91 518.183 102.774 517.949 103.759 517.949C104.744 517.949 105.605 518.183 106.344 518.652C107.087 519.121 107.665 519.779 108.077 520.626C108.494 521.474 108.702 522.466 108.702 523.602C108.702 524.729 108.494 525.714 108.077 526.557C107.665 527.4 107.087 528.055 106.344 528.524C105.605 528.993 104.744 529.227 103.759 529.227ZM103.759 527.722C104.507 527.722 105.123 527.53 105.605 527.146C106.088 526.763 106.446 526.259 106.678 525.634C106.91 525.009 107.026 524.331 107.026 523.602C107.026 522.873 106.91 522.194 106.678 521.564C106.446 520.934 106.088 520.425 105.605 520.037C105.123 519.649 104.507 519.455 103.759 519.455C103.011 519.455 102.395 519.649 101.912 520.037C101.429 520.425 101.072 520.934 100.84 521.564C100.608 522.194 100.492 522.873 100.492 523.602C100.492 524.331 100.608 525.009 100.84 525.634C101.072 526.259 101.429 526.763 101.912 527.146C102.395 527.53 103.011 527.722 103.759 527.722ZM115.38 529.227C114.471 529.227 113.668 528.998 112.972 528.538C112.276 528.074 111.732 527.421 111.339 526.578C110.946 525.731 110.749 524.729 110.749 523.574C110.749 522.428 110.946 521.434 111.339 520.591C111.732 519.748 112.279 519.097 112.979 518.638C113.68 518.179 114.49 517.949 115.408 517.949C116.119 517.949 116.68 518.067 117.092 518.304C117.508 518.536 117.826 518.801 118.043 519.099C118.266 519.393 118.439 519.634 118.562 519.824H118.704V514.455H120.38V529H118.761V527.324H118.562C118.439 527.523 118.263 527.774 118.036 528.077C117.809 528.375 117.485 528.643 117.063 528.879C116.642 529.111 116.081 529.227 115.38 529.227ZM115.607 527.722C116.28 527.722 116.848 527.546 117.312 527.196C117.776 526.841 118.129 526.351 118.37 525.726C118.612 525.096 118.732 524.369 118.732 523.545C118.732 522.731 118.614 522.018 118.377 521.408C118.14 520.792 117.79 520.314 117.326 519.973C116.862 519.627 116.289 519.455 115.607 519.455C114.897 519.455 114.305 519.637 113.832 520.001C113.363 520.361 113.01 520.851 112.773 521.472C112.541 522.087 112.425 522.778 112.425 523.545C112.425 524.322 112.544 525.027 112.781 525.662C113.022 526.292 113.377 526.794 113.846 527.168C114.319 527.537 114.906 527.722 115.607 527.722ZM128.256 529.227C127.205 529.227 126.299 528.995 125.536 528.531C124.779 528.062 124.194 527.409 123.782 526.571C123.375 525.728 123.171 524.748 123.171 523.631C123.171 522.513 123.375 521.528 123.782 520.676C124.194 519.819 124.767 519.152 125.501 518.673C126.239 518.19 127.101 517.949 128.086 517.949C128.654 517.949 129.215 518.044 129.769 518.233C130.323 518.422 130.827 518.73 131.282 519.156C131.737 519.578 132.099 520.136 132.369 520.832C132.638 521.528 132.773 522.385 132.773 523.403V524.114H124.364V522.665H131.069C131.069 522.049 130.946 521.5 130.7 521.017C130.458 520.534 130.112 520.153 129.663 519.874C129.218 519.594 128.692 519.455 128.086 519.455C127.418 519.455 126.841 519.62 126.353 519.952C125.87 520.278 125.498 520.705 125.238 521.23C124.978 521.756 124.847 522.319 124.847 522.92V523.886C124.847 524.71 124.989 525.409 125.273 525.982C125.562 526.55 125.962 526.983 126.474 527.281C126.985 527.575 127.579 527.722 128.256 527.722C128.697 527.722 129.094 527.66 129.45 527.537C129.809 527.409 130.12 527.22 130.38 526.969C130.64 526.713 130.842 526.396 130.984 526.017L132.603 526.472C132.433 527.021 132.146 527.504 131.744 527.92C131.341 528.332 130.844 528.654 130.252 528.886C129.66 529.114 128.995 529.227 128.256 529.227ZM135.323 529V518.091H136.942V519.739H137.056C137.255 519.199 137.615 518.761 138.136 518.425C138.656 518.089 139.244 517.92 139.897 517.92C140.02 517.92 140.174 517.923 140.359 517.928C140.543 517.932 140.683 517.939 140.778 517.949V519.653C140.721 519.639 140.591 519.618 140.387 519.589C140.188 519.556 139.978 519.54 139.755 519.54C139.225 519.54 138.751 519.651 138.335 519.874C137.923 520.091 137.596 520.394 137.354 520.783C137.118 521.166 136.999 521.604 136.999 522.097V529H135.323ZM144.441 522.438V529H142.765V518.091H144.384V519.795H144.526C144.782 519.241 145.17 518.796 145.691 518.46C146.212 518.119 146.884 517.949 147.708 517.949C148.446 517.949 149.093 518.1 149.647 518.403C150.201 518.702 150.632 519.156 150.939 519.767C151.247 520.373 151.401 521.14 151.401 522.068V529H149.725V522.182C149.725 521.325 149.502 520.657 149.057 520.179C148.612 519.696 148.001 519.455 147.225 519.455C146.69 519.455 146.212 519.571 145.79 519.803C145.373 520.035 145.044 520.373 144.803 520.818C144.561 521.263 144.441 521.803 144.441 522.438Z" fill="#181717"/>
<defs>
<filter id="filter0_d_2_886" x="423.3" y="231.3" width="83.4" height="83.4" filterUnits="userSpaceOnUse" color-interpolation-filters="sRGB">
<feFlood flood-opacity="0" result="BackgroundImageFix"/>
<feColorMatrix in="SourceAlpha" type="matrix" values="0 0 0 0 0 0 0 0 0 0 0 0 0 0 0 0 0 0 127 0" result="hardAlpha"/>
<feOffset/>
<feGaussianBlur stdDeviation="5.85"/>
<feComposite in2="hardAlpha" operator="out"/>
<feColorMatrix type="matrix" values="0 0 0 0 0 0 0 0 0 0 0 0 0 0 0 0 0 0 0.1 0"/>
<feBlend mode="normal" in2="BackgroundImageFix" result="effect1_dropShadow_2_886"/>
<feBlend mode="normal" in="SourceGraphic" in2="effect1_dropShadow_2_886" result="shape"/>
</filter>
<filter id="filter1_d_2_886" x="405" y="322" width="231" height="294" filterUnits="userSpaceOnUse" color-interpolation-filters="sRGB">
<feFlood flood-opacity="0" result="BackgroundImageFix"/>
<feColorMatrix in="SourceAlpha" type="matrix" values="0 0 0 0 0 0 0 0 0 0 0 0 0 0 0 0 0 0 127 0" result="hardAlpha"/>
<feMorphology radius="5" operator="dilate" in="SourceAlpha" result="effect1_dropShadow_2_886"/>
<feOffset/>
<feGaussianBlur stdDeviation="12.5"/>
<feComposite in2="hardAlpha" operator="out"/>
<feColorMatrix type="matrix" values="0 0 0 0 0 0 0 0 0 0 0 0 0 0 0 0 0 0 0.05 0"/>
<feBlend mode="normal" in2="BackgroundImageFix" result="effect1_dropShadow_2_886"/>
<feBlend mode="normal" in="SourceGraphic" in2="effect1_dropShadow_2_886" result="shape"/>
</filter>
</defs>
</svg>
