<svg width="350" height="260" viewBox="0 0 350 260" fill="none" xmlns="http://www.w3.org/2000/svg">
<rect width="350" height="260" fill="white"/>
<path d="M27.0729 56.2521H24.915V39.634H27.3209L31.6119 47.8686L33.2985 51.5147L34.9603 47.8686L39.276 39.634H41.6819V56.2521H39.5241V47.0749L39.7473 42.5856L37.9119 46.7029L34.3402 53.4741H32.232L28.6603 46.7029L26.8001 42.5856L27.0729 47.0749V56.2521ZM49.9462 56.5001C46.6226 56.5001 44.2911 54.0446 44.2911 50.2497C44.2911 46.4549 46.6226 43.9993 49.9462 43.9993C53.2698 43.9993 55.6261 46.4549 55.6261 50.2497C55.6261 54.0446 53.2698 56.5001 49.9462 56.5001ZM49.9462 54.6895C52.0049 54.6895 53.4435 53.2757 53.4435 50.2497C53.4435 47.1989 52.0049 45.81 49.9462 45.81C47.9124 45.81 46.4986 47.1989 46.4986 50.2497C46.4986 53.2757 47.9124 54.6895 49.9462 54.6895ZM60.4932 56.2521H58.3353V44.2474H60.4932V47.447C60.9644 45.5867 62.2542 43.9993 64.6105 43.9993C66.9668 43.9993 68.4301 45.4131 68.4301 47.9678V56.2521H66.2971V48.4887C66.2971 46.9261 65.677 45.8348 63.6431 45.8348C61.3365 45.8348 60.4932 47.447 60.4932 49.456V56.2521ZM75.312 56.5249C73.3526 56.5249 71.9636 55.2351 71.9636 53.1765V45.934H70.029V44.2474H71.9636V42.7096L74.1215 41.1222V44.2474H78.0652V45.934H74.1215V52.5316C74.1215 54.0694 74.8408 54.4414 75.7833 54.4414C76.8498 54.4414 77.5939 53.5485 77.9164 52.8044L78.6357 54.9375C78.1148 55.756 76.9738 56.5249 75.312 56.5249ZM82.9225 56.2521H80.7646V39.634H82.9225V47.447C83.3938 45.5867 84.6835 43.9993 87.0398 43.9993C89.3961 43.9993 90.8595 45.4131 90.8595 47.9678V56.2521H88.7264V48.4887C88.7264 46.9261 88.1064 45.8348 86.0725 45.8348C83.7658 45.8348 82.9225 47.447 82.9225 49.456V56.2521ZM101.67 60.8655H99.5123V44.2474H101.67V47.323C102.092 45.5123 103.233 43.9745 105.539 43.9745C108.565 43.9745 110.45 46.43 110.45 50.2249C110.45 54.0198 108.565 56.5001 105.539 56.5001C103.233 56.5001 102.092 54.9623 101.67 53.1517V60.8655ZM101.67 51.093C101.67 53.0773 102.513 54.6895 104.795 54.6895C106.705 54.6895 108.268 53.3005 108.268 50.2249C108.268 47.1741 106.705 45.7852 104.795 45.7852C102.513 45.7852 101.67 47.3974 101.67 49.3816V51.093ZM115.162 56.2521H113.004V44.2474H115.162V47.447C115.633 45.5867 116.873 43.9745 118.907 43.9745C120.197 43.9745 121.437 44.8923 121.437 46.5789C121.437 47.5958 121.164 48.3399 120.966 48.6375H118.609C119.006 48.2903 119.329 47.5462 119.329 46.8765C119.329 46.182 118.957 45.5867 118.088 45.5867C116.551 45.5867 115.162 47.3974 115.162 49.456V56.2521ZM127.965 56.5001C124.641 56.5001 122.309 54.0446 122.309 50.2497C122.309 46.4549 124.641 43.9993 127.965 43.9993C131.288 43.9993 133.644 46.4549 133.644 50.2497C133.644 54.0446 131.288 56.5001 127.965 56.5001ZM127.965 54.6895C130.023 54.6895 131.462 53.2757 131.462 50.2497C131.462 47.1989 130.023 45.81 127.965 45.81C125.931 45.81 124.517 47.1989 124.517 50.2497C124.517 53.2757 125.931 54.6895 127.965 54.6895ZM140.945 52.5812C140.076 52.5812 139.283 52.4076 138.613 52.0852C138.315 52.482 137.968 53.0525 137.968 53.5733C137.968 54.2182 138.315 54.5407 139.556 54.5407H143.177C145.359 54.5407 146.724 55.4088 146.724 57.2194C146.724 59.5013 144.491 61.1135 140.448 61.1135C137.373 61.1135 135.438 60.0966 135.438 58.5092C135.438 57.393 136.455 56.7233 137.373 56.3513C136.604 56.1033 136.207 55.5328 136.207 54.7391C136.207 53.7966 136.926 52.7548 138.092 51.8123C136.902 51.0682 136.207 49.8033 136.207 48.2903C136.207 45.7852 138.117 43.9993 140.945 43.9993C141.738 43.9993 142.458 44.1482 143.078 44.3962L143.822 41.519L146.054 42.3127L143.846 44.793C144.987 45.5371 145.682 46.8021 145.682 48.2903C145.682 50.7954 143.772 52.5812 140.945 52.5812ZM140.945 50.9194C142.458 50.9194 143.598 49.9273 143.598 48.2903C143.598 46.6533 142.458 45.6612 140.945 45.6612C139.456 45.6612 138.291 46.6533 138.291 48.2903C138.291 49.9273 139.456 50.9194 140.945 50.9194ZM140.448 59.4021C143.177 59.4021 144.715 58.7076 144.715 57.517C144.715 56.7481 144.119 56.4009 142.904 56.4009H137.993C137.596 56.7481 137.174 57.269 137.174 57.8395C137.174 58.8068 138.291 59.4021 140.448 59.4021ZM150.865 56.2521H148.707V44.2474H150.865V47.447C151.336 45.5867 152.576 43.9745 154.61 43.9745C155.9 43.9745 157.14 44.8923 157.14 46.5789C157.14 47.5958 156.867 48.3399 156.669 48.6375H154.312C154.709 48.2903 155.032 47.5462 155.032 46.8765C155.032 46.182 154.659 45.5867 153.791 45.5867C152.254 45.5867 150.865 47.3974 150.865 49.456V56.2521ZM163.965 56.5001C160.567 56.5001 158.211 54.0694 158.211 50.2497C158.211 46.4549 160.542 43.9993 163.841 43.9993C167.239 43.9993 169.298 46.2564 169.298 49.7785C169.298 50.1505 169.248 50.5226 169.199 50.7458H160.294C160.418 53.2757 161.832 54.7143 163.965 54.7143C166.371 54.7143 167.338 53.3997 167.81 52.358L169.124 53.8462C168.231 55.2848 166.569 56.5001 163.965 56.5001ZM163.841 45.81C161.906 45.81 160.617 46.9509 160.344 49.1832H167.363C167.14 46.9757 165.85 45.81 163.841 45.81ZM176.502 56.5001C173.996 56.5001 171.715 55.4088 170.896 53.1765L172.459 51.9611C172.88 53.3253 174.195 54.6895 176.576 54.6895C177.99 54.6895 178.932 54.1438 178.932 53.0773C178.932 51.9859 177.841 51.6387 176.427 51.3163L174.84 50.9442C173.128 50.5474 171.268 49.7289 171.268 47.5214C171.268 45.3387 172.955 43.9993 175.559 43.9993C178.089 43.9993 179.85 45.3387 180.52 46.9261L178.883 48.1415C178.287 46.7277 177.146 45.8348 175.435 45.8348C174.195 45.8348 173.302 46.3804 173.302 47.3974C173.302 48.4639 174.096 48.8359 175.733 49.2328L177.27 49.6296C179.974 50.2745 180.867 51.3907 180.867 53.0525C180.867 55.4336 178.833 56.5001 176.502 56.5001ZM187.74 56.5001C185.235 56.5001 182.953 55.4088 182.135 53.1765L183.698 51.9611C184.119 53.3253 185.434 54.6895 187.815 54.6895C189.229 54.6895 190.171 54.1438 190.171 53.0773C190.171 51.9859 189.08 51.6387 187.666 51.3163L186.079 50.9442C184.367 50.5474 182.507 49.7289 182.507 47.5214C182.507 45.3387 184.194 43.9993 186.798 43.9993C189.328 43.9993 191.089 45.3387 191.759 46.9261L190.122 48.1415C189.526 46.7277 188.385 45.8348 186.674 45.8348C185.434 45.8348 184.541 46.3804 184.541 47.3974C184.541 48.4639 185.335 48.8359 186.972 49.2328L188.509 49.6296C191.213 50.2745 192.106 51.3907 192.106 53.0525C192.106 55.4336 190.072 56.5001 187.74 56.5001Z" fill="#181717"/>
<path d="M313.316 37.6913H324.377M313.316 37.6913V43.2217C313.316 43.7924 313.316 44.0777 313.34 44.318C313.57 46.652 315.416 48.4986 317.75 48.7285C317.991 48.7521 318.276 48.7521 318.847 48.7521M313.316 37.6913H310.244M324.377 37.6913V43.2217C324.377 43.7924 324.377 44.0777 324.354 44.318C324.124 46.652 322.277 48.4986 319.943 48.7285C319.703 48.7521 319.417 48.7521 318.847 48.7521M324.377 37.6913H327.45M318.847 48.7521C319.417 48.7521 319.703 48.7521 319.943 48.7758C322.277 49.0057 324.124 50.8522 324.354 53.1862C324.377 53.4266 324.377 53.7119 324.377 54.2826V59.813M318.847 48.7521C318.276 48.7521 317.991 48.7521 317.75 48.7758C315.416 49.0057 313.57 50.8522 313.34 53.1862C313.316 53.4266 313.316 53.7119 313.316 54.2826L313.316 59.813M324.377 59.813L313.316 59.813M324.377 59.813H327.45M313.316 59.813H310.244" stroke="#061D19" stroke-width="1.20792" stroke-linecap="round" stroke-linejoin="round"/>
<path d="M35.686 99.6272H31.6359V103.784H28.8073V99.6272H24.7572V97.0128H28.8073V92.8556H31.6359V97.0128H35.686V99.6272ZM39.5181 102.563C40.8895 101.42 41.9824 100.47 42.7967 99.7129C43.611 98.9414 44.2896 98.1414 44.8325 97.3128C45.3753 96.4843 45.6468 95.6699 45.6468 94.8699C45.6468 94.1413 45.4753 93.5699 45.1325 93.1556C44.7896 92.7413 44.261 92.5342 43.5467 92.5342C42.8324 92.5342 42.2824 92.777 41.8967 93.2628C41.511 93.7342 41.311 94.3842 41.2967 95.2128H38.3823C38.4395 93.4985 38.9466 92.1984 39.9038 91.3127C40.8753 90.427 42.1038 89.9841 43.5896 89.9841C45.2182 89.9841 46.4682 90.4198 47.3397 91.2913C48.2111 92.1484 48.6468 93.2842 48.6468 94.6985C48.6468 95.8128 48.3468 96.8771 47.7468 97.8914C47.1468 98.9057 46.4611 99.7915 45.6896 100.549C44.9182 101.291 43.911 102.192 42.6681 103.249H48.9897V105.734H38.4038V103.506L39.5181 102.563ZM50.8801 97.9343C50.8801 95.4628 51.323 93.527 52.2087 92.127C53.1088 90.727 54.5945 90.027 56.666 90.027C58.7374 90.027 60.2161 90.727 61.1018 92.127C62.0018 93.527 62.4518 95.4628 62.4518 97.9343C62.4518 100.42 62.0018 102.37 61.1018 103.784C60.2161 105.199 58.7374 105.906 56.666 105.906C54.5945 105.906 53.1088 105.199 52.2087 103.784C51.323 102.37 50.8801 100.42 50.8801 97.9343ZM59.4946 97.9343C59.4946 96.8771 59.4232 95.9914 59.2803 95.2771C59.1517 94.5485 58.8803 93.9556 58.466 93.4985C58.066 93.0413 57.466 92.8127 56.666 92.8127C55.866 92.8127 55.2588 93.0413 54.8445 93.4985C54.4445 93.9556 54.1731 94.5485 54.0302 95.2771C53.9016 95.9914 53.8373 96.8771 53.8373 97.9343C53.8373 99.02 53.9016 99.9343 54.0302 100.677C54.1588 101.406 54.4302 101.999 54.8445 102.456C55.2588 102.899 55.866 103.12 56.666 103.12C57.466 103.12 58.0731 102.899 58.4874 102.456C58.9017 101.999 59.1732 101.406 59.3017 100.677C59.4303 99.9343 59.4946 99.02 59.4946 97.9343ZM64.3908 94.1628C64.3908 93.077 64.7051 92.227 65.3337 91.6127C65.9765 90.9984 66.798 90.6913 67.798 90.6913C68.798 90.6913 69.6123 90.9984 70.2409 91.6127C70.8838 92.227 71.2052 93.077 71.2052 94.1628C71.2052 95.2628 70.8838 96.12 70.2409 96.7343C69.6123 97.3486 68.798 97.6557 67.798 97.6557C66.798 97.6557 65.9765 97.3486 65.3337 96.7343C64.7051 96.12 64.3908 95.2628 64.3908 94.1628ZM78.1482 90.9484L69.7266 105.949H66.8123L75.2125 90.9484H78.1482ZM67.7766 92.4913C66.9909 92.4913 66.598 93.0485 66.598 94.1628C66.598 95.2914 66.9909 95.8557 67.7766 95.8557C68.1623 95.8557 68.4623 95.72 68.6766 95.4485C68.8909 95.1628 68.998 94.7342 68.998 94.1628C68.998 93.0485 68.5909 92.4913 67.7766 92.4913ZM73.7981 102.713C73.7981 101.613 74.1124 100.763 74.741 100.163C75.3839 99.5486 76.2053 99.2415 77.2053 99.2415C78.2054 99.2415 79.0125 99.5486 79.6268 100.163C80.2554 100.763 80.5697 101.613 80.5697 102.713C80.5697 103.813 80.2554 104.67 79.6268 105.284C79.0125 105.899 78.2054 106.206 77.2053 106.206C76.191 106.206 75.3696 105.899 74.741 105.284C74.1124 104.67 73.7981 103.813 73.7981 102.713ZM77.1839 101.041C76.3696 101.041 75.9625 101.599 75.9625 102.713C75.9625 103.842 76.3696 104.406 77.1839 104.406C77.9839 104.406 78.3839 103.842 78.3839 102.713C78.3839 101.599 77.9839 101.041 77.1839 101.041Z" fill="#061D19"/>
<path d="M87.0905 100.971C87.0905 99.9457 87.2957 99.0528 87.7059 98.2926C88.1162 97.5204 88.6833 96.9231 89.4073 96.5008C90.1433 96.0784 90.982 95.8673 91.9231 95.8673C93.1418 95.8673 94.1433 96.1629 94.9277 96.7542C95.724 97.3454 96.2489 98.1659 96.5023 99.2157H94.7286C94.5596 98.6124 94.2278 98.1358 93.7331 97.7858C93.2504 97.4359 92.6471 97.2609 91.9231 97.2609C90.982 97.2609 90.2218 97.5867 89.6426 98.2383C89.0634 98.8778 88.7738 99.7888 88.7738 100.971C88.7738 102.166 89.0634 103.089 89.6426 103.741C90.2218 104.392 90.982 104.718 91.9231 104.718C92.6471 104.718 93.2504 104.549 93.7331 104.211C94.2157 103.873 94.5476 103.391 94.7286 102.763H96.5023C96.2369 103.777 95.7059 104.591 94.9096 105.207C94.1132 105.81 93.1177 106.112 91.9231 106.112C90.982 106.112 90.1433 105.9 89.4073 105.478C88.6833 105.056 88.1162 104.459 87.7059 103.686C87.2957 102.914 87.0905 102.009 87.0905 100.971ZM103.026 106.112C102.097 106.112 101.252 105.9 100.492 105.478C99.7437 105.056 99.1525 104.459 98.7181 103.686C98.2958 102.902 98.0846 101.997 98.0846 100.971C98.0846 99.9578 98.3018 99.0649 98.7362 98.2926C99.1827 97.5083 99.786 96.911 100.546 96.5008C101.306 96.0784 102.157 95.8673 103.098 95.8673C104.039 95.8673 104.89 96.0784 105.65 96.5008C106.41 96.911 107.008 97.5023 107.442 98.2745C107.889 99.0468 108.112 99.9457 108.112 100.971C108.112 101.997 107.883 102.902 107.424 103.686C106.978 104.459 106.368 105.056 105.596 105.478C104.824 105.9 103.967 106.112 103.026 106.112ZM103.026 104.664C103.617 104.664 104.172 104.525 104.691 104.247C105.21 103.97 105.626 103.554 105.94 102.999C106.266 102.443 106.429 101.768 106.429 100.971C106.429 100.175 106.272 99.4993 105.958 98.9442C105.644 98.3891 105.234 97.9789 104.727 97.7134C104.22 97.4359 103.671 97.2971 103.08 97.2971C102.477 97.2971 101.922 97.4359 101.415 97.7134C100.92 97.9789 100.522 98.3891 100.22 98.9442C99.9187 99.4993 99.7679 100.175 99.7679 100.971C99.7679 101.78 99.9127 102.462 100.202 103.017C100.504 103.572 100.902 103.988 101.397 104.265C101.892 104.531 102.435 104.664 103.026 104.664ZM122.205 95.8492C122.977 95.8492 123.665 96.0121 124.268 96.3379C124.872 96.6516 125.348 97.1282 125.698 97.7677C126.048 98.4072 126.223 99.1855 126.223 100.103V105.949H124.594V100.338C124.594 99.3484 124.347 98.5943 123.852 98.0754C123.369 97.5445 122.712 97.279 121.879 97.279C121.022 97.279 120.341 97.5566 119.834 98.1116C119.327 98.6546 119.074 99.445 119.074 100.483V105.949H117.445V100.338C117.445 99.3484 117.197 98.5943 116.703 98.0754C116.22 97.5445 115.562 97.279 114.73 97.279C113.873 97.279 113.191 97.5566 112.685 98.1116C112.178 98.6546 111.924 99.445 111.924 100.483V105.949H110.277V96.0302H111.924V97.46C112.25 96.9412 112.685 96.543 113.228 96.2655C113.783 95.9879 114.392 95.8492 115.056 95.8492C115.888 95.8492 116.624 96.0362 117.264 96.4103C117.903 96.7843 118.38 97.3333 118.694 98.0573C118.971 97.3575 119.43 96.8145 120.069 96.4284C120.709 96.0422 121.421 95.8492 122.205 95.8492ZM130.572 97.8582C130.898 97.2911 131.38 96.8205 132.02 96.4465C132.671 96.0603 133.426 95.8673 134.282 95.8673C135.163 95.8673 135.96 96.0784 136.671 96.5008C137.395 96.9231 137.963 97.5204 138.373 98.2926C138.783 99.0528 138.988 99.9397 138.988 100.953C138.988 101.955 138.783 102.848 138.373 103.632C137.963 104.416 137.395 105.026 136.671 105.46C135.96 105.894 135.163 106.112 134.282 106.112C133.438 106.112 132.69 105.925 132.038 105.551C131.398 105.164 130.91 104.688 130.572 104.121V110.655H128.925V96.0302H130.572V97.8582ZM137.305 100.953C137.305 100.205 137.154 99.5536 136.852 98.9985C136.551 98.4434 136.141 98.0211 135.622 97.7315C135.115 97.4419 134.554 97.2971 133.938 97.2971C133.335 97.2971 132.774 97.448 132.255 97.7496C131.748 98.0392 131.338 98.4676 131.024 99.0347C130.723 99.5898 130.572 100.235 130.572 100.971C130.572 101.719 130.723 102.377 131.024 102.944C131.338 103.499 131.748 103.928 132.255 104.229C132.774 104.519 133.335 104.664 133.938 104.664C134.554 104.664 135.115 104.519 135.622 104.229C136.141 103.928 136.551 103.499 136.852 102.944C137.154 102.377 137.305 101.713 137.305 100.953ZM140.541 100.953C140.541 99.9397 140.746 99.0528 141.156 98.2926C141.566 97.5204 142.128 96.9231 142.839 96.5008C143.563 96.0784 144.366 95.8673 145.247 95.8673C146.115 95.8673 146.87 96.0543 147.509 96.4284C148.149 96.8024 148.625 97.273 148.939 97.8401V96.0302H150.604V105.949H148.939V104.103C148.613 104.682 148.125 105.164 147.473 105.551C146.833 105.925 146.085 106.112 145.229 106.112C144.348 106.112 143.551 105.894 142.839 105.46C142.128 105.026 141.566 104.416 141.156 103.632C140.746 102.848 140.541 101.955 140.541 100.953ZM148.939 100.971C148.939 100.223 148.788 99.5717 148.487 99.0166C148.185 98.4615 147.775 98.0392 147.256 97.7496C146.749 97.448 146.188 97.2971 145.572 97.2971C144.957 97.2971 144.396 97.4419 143.889 97.7315C143.382 98.0211 142.978 98.4434 142.677 98.9985C142.375 99.5536 142.224 100.205 142.224 100.953C142.224 101.713 142.375 102.377 142.677 102.944C142.978 103.499 143.382 103.928 143.889 104.229C144.396 104.519 144.957 104.664 145.572 104.664C146.188 104.664 146.749 104.519 147.256 104.229C147.775 103.928 148.185 103.499 148.487 102.944C148.788 102.377 148.939 101.719 148.939 100.971ZM155.035 97.641C155.324 97.0739 155.734 96.6335 156.265 96.3198C156.808 96.006 157.466 95.8492 158.238 95.8492V97.5505H157.804C155.958 97.5505 155.035 98.552 155.035 100.555V105.949H153.388V96.0302H155.035V97.641ZM169.189 100.609C169.189 100.923 169.171 101.255 169.135 101.605H161.207C161.268 102.582 161.6 103.348 162.203 103.903C162.818 104.446 163.56 104.718 164.429 104.718C165.141 104.718 165.732 104.555 166.203 104.229C166.686 103.891 167.023 103.445 167.216 102.89H168.99C168.725 103.843 168.194 104.621 167.397 105.225C166.601 105.816 165.612 106.112 164.429 106.112C163.488 106.112 162.643 105.9 161.895 105.478C161.159 105.056 160.58 104.459 160.158 103.686C159.735 102.902 159.524 101.997 159.524 100.971C159.524 99.9457 159.729 99.0468 160.14 98.2745C160.55 97.5023 161.123 96.911 161.859 96.5008C162.607 96.0784 163.464 95.8673 164.429 95.8673C165.37 95.8673 166.203 96.0724 166.927 96.4827C167.651 96.8929 168.206 97.46 168.592 98.184C168.99 98.8959 169.189 99.7044 169.189 100.609ZM167.488 100.265C167.488 99.638 167.349 99.1011 167.072 98.6546C166.794 98.1961 166.414 97.8522 165.931 97.6229C165.461 97.3816 164.936 97.2609 164.357 97.2609C163.524 97.2609 162.812 97.5264 162.221 98.0573C161.642 98.5882 161.31 99.3243 161.226 100.265H167.488ZM178.198 97.3876V103.234C178.198 103.716 178.3 104.06 178.505 104.265C178.711 104.459 179.067 104.555 179.573 104.555H180.786V105.949H179.302C178.385 105.949 177.697 105.738 177.239 105.315C176.78 104.893 176.551 104.199 176.551 103.234V97.3876H175.266V96.0302H176.551V93.5324H178.198V96.0302H180.786V97.3876H178.198ZM187.107 106.112C186.178 106.112 185.334 105.9 184.574 105.478C183.825 105.056 183.234 104.459 182.8 103.686C182.377 102.902 182.166 101.997 182.166 100.971C182.166 99.9578 182.383 99.0649 182.818 98.2926C183.264 97.5083 183.868 96.911 184.628 96.5008C185.388 96.0784 186.239 95.8673 187.18 95.8673C188.121 95.8673 188.972 96.0784 189.732 96.5008C190.492 96.911 191.089 97.5023 191.524 98.2745C191.97 99.0468 192.193 99.9457 192.193 100.971C192.193 101.997 191.964 102.902 191.506 103.686C191.059 104.459 190.45 105.056 189.678 105.478C188.905 105.9 188.049 106.112 187.107 106.112ZM187.107 104.664C187.699 104.664 188.254 104.525 188.773 104.247C189.291 103.97 189.708 103.554 190.021 102.999C190.347 102.443 190.51 101.768 190.51 100.971C190.51 100.175 190.353 99.4993 190.04 98.9442C189.726 98.3891 189.316 97.9789 188.809 97.7134C188.302 97.4359 187.753 97.2971 187.162 97.2971C186.558 97.2971 186.003 97.4359 185.497 97.7134C185.002 97.9789 184.604 98.3891 184.302 98.9442C184 99.4993 183.85 100.175 183.85 100.971C183.85 101.78 183.994 102.462 184.284 103.017C184.586 103.572 184.984 103.988 185.478 104.265C185.973 104.531 186.516 104.664 187.107 104.664ZM200.831 92.5551V105.949H199.184V92.5551H200.831ZM203.023 100.953C203.023 99.9397 203.228 99.0528 203.639 98.2926C204.049 97.5204 204.61 96.9231 205.322 96.5008C206.046 96.0784 206.848 95.8673 207.729 95.8673C208.598 95.8673 209.352 96.0543 209.992 96.4284C210.631 96.8024 211.108 97.273 211.421 97.8401V96.0302H213.087V105.949H211.421V104.103C211.096 104.682 210.607 105.164 209.955 105.551C209.316 105.925 208.568 106.112 207.711 106.112C206.83 106.112 206.034 105.894 205.322 105.46C204.61 105.026 204.049 104.416 203.639 103.632C203.228 102.848 203.023 101.955 203.023 100.953ZM211.421 100.971C211.421 100.223 211.271 99.5717 210.969 99.0166C210.667 98.4615 210.257 98.0392 209.738 97.7496C209.231 97.448 208.67 97.2971 208.055 97.2971C207.439 97.2971 206.878 97.4419 206.372 97.7315C205.865 98.0211 205.461 98.4434 205.159 98.9985C204.857 99.5536 204.706 100.205 204.706 100.953C204.706 101.713 204.857 102.377 205.159 102.944C205.461 103.499 205.865 103.928 206.372 104.229C206.878 104.519 207.439 104.664 208.055 104.664C208.67 104.664 209.231 104.519 209.738 104.229C210.257 103.928 210.667 103.499 210.969 102.944C211.271 102.377 211.421 101.719 211.421 100.971ZM219.381 106.112C218.621 106.112 217.939 105.985 217.336 105.732C216.733 105.466 216.256 105.104 215.906 104.646C215.556 104.175 215.363 103.638 215.327 103.035H217.028C217.077 103.529 217.306 103.934 217.716 104.247C218.138 104.561 218.687 104.718 219.363 104.718C219.991 104.718 220.485 104.579 220.847 104.302C221.209 104.024 221.39 103.674 221.39 103.252C221.39 102.818 221.197 102.498 220.811 102.293C220.425 102.075 219.828 101.864 219.019 101.659C218.283 101.466 217.68 101.273 217.209 101.08C216.751 100.875 216.353 100.579 216.015 100.193C215.689 99.7949 215.526 99.276 215.526 98.6365C215.526 98.1297 215.677 97.6652 215.979 97.2428C216.28 96.8205 216.709 96.4887 217.264 96.2474C217.819 95.994 218.452 95.8673 219.164 95.8673C220.262 95.8673 221.149 96.1448 221.825 96.6999C222.5 97.2549 222.862 98.0151 222.911 98.9804H221.264C221.227 98.4615 221.016 98.0453 220.63 97.7315C220.256 97.4178 219.749 97.2609 219.11 97.2609C218.518 97.2609 218.048 97.3876 217.698 97.641C217.348 97.8944 217.173 98.2263 217.173 98.6365C217.173 98.9623 217.276 99.2338 217.481 99.451C217.698 99.6561 217.963 99.825 218.277 99.9578C218.603 100.078 219.049 100.217 219.617 100.374C220.328 100.567 220.908 100.76 221.354 100.953C221.801 101.134 222.181 101.412 222.494 101.786C222.82 102.16 222.989 102.649 223.001 103.252C223.001 103.795 222.85 104.284 222.549 104.718C222.247 105.152 221.819 105.496 221.264 105.75C220.721 105.991 220.093 106.112 219.381 106.112ZM227.335 97.3876V103.234C227.335 103.716 227.438 104.06 227.643 104.265C227.848 104.459 228.204 104.555 228.711 104.555H229.924V105.949H228.439C227.522 105.949 226.835 105.738 226.376 105.315C225.917 104.893 225.688 104.199 225.688 103.234V97.3876H224.403V96.0302H225.688V93.5324H227.335V96.0302H229.924V97.3876H227.335ZM248.672 95.8492C249.444 95.8492 250.132 96.0121 250.735 96.3379C251.339 96.6516 251.815 97.1282 252.165 97.7677C252.515 98.4072 252.69 99.1855 252.69 100.103V105.949H251.061V100.338C251.061 99.3484 250.814 98.5943 250.319 98.0754C249.837 97.5445 249.179 97.279 248.346 97.279C247.49 97.279 246.808 97.5566 246.301 98.1116C245.794 98.6546 245.541 99.445 245.541 100.483V105.949H243.912V100.338C243.912 99.3484 243.665 98.5943 243.17 98.0754C242.687 97.5445 242.03 97.279 241.197 97.279C240.34 97.279 239.659 97.5566 239.152 98.1116C238.645 98.6546 238.392 99.445 238.392 100.483V105.949H236.744V96.0302H238.392V97.46C238.717 96.9412 239.152 96.543 239.695 96.2655C240.25 95.9879 240.859 95.8492 241.523 95.8492C242.355 95.8492 243.091 96.0362 243.731 96.4103C244.37 96.7843 244.847 97.3333 245.161 98.0573C245.438 97.3575 245.897 96.8145 246.536 96.4284C247.176 96.0422 247.888 95.8492 248.672 95.8492ZM259.718 106.112C258.789 106.112 257.944 105.9 257.184 105.478C256.436 105.056 255.844 104.459 255.41 103.686C254.988 102.902 254.777 101.997 254.777 100.971C254.777 99.9578 254.994 99.0649 255.428 98.2926C255.875 97.5083 256.478 96.911 257.238 96.5008C257.998 96.0784 258.849 95.8673 259.79 95.8673C260.731 95.8673 261.582 96.0784 262.342 96.5008C263.102 96.911 263.7 97.5023 264.134 98.2745C264.581 99.0468 264.804 99.9457 264.804 100.971C264.804 101.997 264.574 102.902 264.116 103.686C263.67 104.459 263.06 105.056 262.288 105.478C261.516 105.9 260.659 106.112 259.718 106.112ZM259.718 104.664C260.309 104.664 260.864 104.525 261.383 104.247C261.902 103.97 262.318 103.554 262.632 102.999C262.958 102.443 263.12 101.768 263.12 100.971C263.12 100.175 262.964 99.4993 262.65 98.9442C262.336 98.3891 261.926 97.9789 261.419 97.7134C260.912 97.4359 260.363 97.2971 259.772 97.2971C259.169 97.2971 258.614 97.4359 258.107 97.7134C257.612 97.9789 257.214 98.3891 256.912 98.9442C256.611 99.4993 256.46 100.175 256.46 100.971C256.46 101.78 256.605 102.462 256.894 103.017C257.196 103.572 257.594 103.988 258.089 104.265C258.584 104.531 259.127 104.664 259.718 104.664ZM271.802 95.8492C273.009 95.8492 273.986 96.2172 274.734 96.9532C275.482 97.6772 275.856 98.727 275.856 100.103V105.949H274.227V100.338C274.227 99.3484 273.98 98.5943 273.485 98.0754C272.99 97.5445 272.315 97.279 271.458 97.279C270.589 97.279 269.895 97.5505 269.377 98.0935C268.87 98.6365 268.616 99.4269 268.616 100.465V105.949H266.969V96.0302H268.616V97.4419C268.942 96.9351 269.383 96.543 269.938 96.2655C270.505 95.9879 271.126 95.8492 271.802 95.8492ZM280.556 97.3876V103.234C280.556 103.716 280.658 104.06 280.863 104.265C281.069 104.459 281.425 104.555 281.931 104.555H283.144V105.949H281.66C280.743 105.949 280.055 105.738 279.596 105.315C279.138 104.893 278.909 104.199 278.909 103.234V97.3876H277.624V96.0302H278.909V93.5324H280.556V96.0302H283.144V97.3876H280.556ZM290.063 95.8492C290.811 95.8492 291.487 96.0121 292.09 96.3379C292.693 96.6516 293.164 97.1282 293.502 97.7677C293.852 98.4072 294.026 99.1855 294.026 100.103V105.949H292.398V100.338C292.398 99.3484 292.15 98.5943 291.655 98.0754C291.161 97.5445 290.485 97.279 289.628 97.279C288.76 97.279 288.066 97.5505 287.547 98.0935C287.04 98.6365 286.787 99.4269 286.787 100.465V105.949H285.14V92.5551H286.787V97.4419C287.112 96.9351 287.559 96.543 288.126 96.2655C288.705 95.9879 289.351 95.8492 290.063 95.8492ZM302.328 93.822L302.979 94.9985L300.464 96.0483L302.998 97.0799L302.31 98.2926L300.12 96.6999L300.409 99.4329H299.052L299.323 96.6999L297.133 98.3107L296.427 97.0799L298.943 96.0302L296.427 95.0166L297.097 93.8039L299.341 95.4148L299.052 92.6637H300.427L300.12 95.4148L302.328 93.822Z" fill="#444444"/>
<path d="M315.391 180.002C315.391 200.603 298.673 217.303 278.051 217.303C257.429 217.303 240.711 200.603 240.711 180.002C240.711 159.401 257.429 142.7 278.051 142.7C298.673 142.7 315.391 159.401 315.391 180.002ZM245.178 180.002C245.178 198.138 259.896 212.841 278.051 212.841C296.206 212.841 310.924 198.138 310.924 180.002C310.924 161.865 296.206 147.162 278.051 147.162C259.896 147.162 245.178 161.865 245.178 180.002Z" fill="#061D19"/>
<path d="M271.536 214.464C271.307 215.674 270.138 216.477 268.943 216.177C260.764 214.122 253.497 209.353 248.356 202.617C242.764 195.29 240.085 186.154 240.835 176.97C241.584 167.786 245.71 159.204 252.417 152.879C258.582 147.064 266.526 143.534 274.931 142.831C276.159 142.728 277.182 143.709 277.212 144.941C277.241 146.173 276.265 147.188 275.038 147.301C267.737 147.972 260.846 151.066 255.484 156.123C249.579 161.692 245.947 169.247 245.287 177.332C244.626 185.418 246.985 193.461 251.909 199.912C256.38 205.77 262.678 209.939 269.773 211.783C270.966 212.093 271.765 213.253 271.536 214.464Z" fill="#838E8C"/>
<path d="M305.861 179.207C305.861 194.11 293.767 206.191 278.849 206.191C263.931 206.191 251.837 194.11 251.837 179.207C251.837 164.304 263.931 152.223 278.849 152.223C293.767 152.223 305.861 164.304 305.861 179.207ZM255.068 179.207C255.068 192.327 265.715 202.963 278.849 202.963C291.983 202.963 302.63 192.327 302.63 179.207C302.63 166.087 291.983 155.451 278.849 155.451C265.715 155.451 255.068 166.087 255.068 179.207Z" fill="#B8FF90"/>
<path d="M254.602 186.755C253.75 187.02 252.84 186.546 252.626 185.68C251.735 182.077 251.596 178.322 252.225 174.653C252.945 170.452 254.651 166.481 257.203 163.065C259.756 159.649 263.081 156.886 266.909 155.002C270.736 153.118 274.955 152.167 279.222 152.225C283.488 152.284 287.68 153.352 291.453 155.341C295.227 157.329 298.475 160.183 300.932 163.668C303.389 167.152 304.985 171.169 305.589 175.388C306.116 179.074 305.874 182.823 304.883 186.4C304.645 187.26 303.722 187.709 302.879 187.42C302.034 187.132 301.589 186.214 301.82 185.352C302.649 182.259 302.845 179.025 302.39 175.845C301.859 172.13 300.454 168.594 298.291 165.527C296.127 162.459 293.268 159.947 289.945 158.196C286.623 156.445 282.933 155.505 279.177 155.453C275.421 155.401 271.706 156.239 268.337 157.898C264.968 159.557 262.04 161.989 259.793 164.996C257.546 168.003 256.044 171.499 255.41 175.197C254.867 178.364 254.974 181.602 255.717 184.716C255.924 185.584 255.454 186.49 254.602 186.755Z" fill="#EBFFE0"/>
<ellipse cx="26.8631" cy="153.5" rx="3.86312" ry="3.85915" fill="#B8FF90"/>
<path d="M45.4614 150.687C45.4043 150.205 45.1725 149.83 44.7663 149.563C44.36 149.297 43.8617 149.164 43.2713 149.164C42.8396 149.164 42.4619 149.233 42.1382 149.373C41.8176 149.513 41.5669 149.705 41.3859 149.949C41.2082 150.193 41.1193 150.471 41.1193 150.782C41.1193 151.043 41.1812 151.266 41.305 151.454C41.432 151.638 41.5938 151.792 41.7906 151.915C41.9874 152.036 42.1937 152.136 42.4096 152.215C42.6254 152.292 42.8238 152.353 43.0047 152.401L43.995 152.668C44.2489 152.734 44.5314 152.826 44.8424 152.944C45.1567 153.061 45.4566 153.222 45.7423 153.425C46.0311 153.625 46.2692 153.882 46.4564 154.196C46.6437 154.51 46.7373 154.896 46.7373 155.353C46.7373 155.88 46.5993 156.356 46.3231 156.781C46.0502 157.206 45.6502 157.545 45.1234 157.795C44.5996 158.046 43.9632 158.171 43.2142 158.171C42.5159 158.171 41.9112 158.059 41.4002 157.833C40.8924 157.608 40.4924 157.294 40.2004 156.891C39.9116 156.488 39.7481 156.019 39.7101 155.486H40.9289C40.9606 155.854 41.0844 156.159 41.3002 156.4C41.5192 156.638 41.7954 156.816 42.1287 156.934C42.4651 157.048 42.8269 157.105 43.2142 157.105C43.6649 157.105 44.0696 157.032 44.4282 156.886C44.7869 156.737 45.071 156.53 45.2805 156.267C45.4899 156 45.5947 155.689 45.5947 155.334C45.5947 155.01 45.5042 154.747 45.3233 154.543C45.1424 154.34 44.9043 154.175 44.6092 154.048C44.314 153.921 43.995 153.81 43.6522 153.715L42.4524 153.372C41.6906 153.153 41.0876 152.841 40.6432 152.434C40.1989 152.028 39.9767 151.496 39.9767 150.839C39.9767 150.293 40.1243 149.817 40.4194 149.411C40.7178 149.002 41.1177 148.684 41.6192 148.459C42.1239 148.23 42.6873 148.116 43.3094 148.116C43.9379 148.116 44.4965 148.229 44.9853 148.454C45.4741 148.676 45.8613 148.981 46.147 149.368C46.4358 149.755 46.5882 150.195 46.604 150.687H45.4614ZM51.7067 150.687V151.639H47.9169V150.687H51.7067ZM49.0214 148.935H50.1451V155.905C50.1451 156.223 50.1911 156.461 50.2831 156.619C50.3783 156.775 50.499 156.88 50.645 156.934C50.7941 156.984 50.9513 157.01 51.1163 157.01C51.2401 157.01 51.3417 157.003 51.421 156.991C51.5004 156.975 51.5638 156.962 51.6115 156.953L51.84 157.962C51.7638 157.99 51.6575 158.019 51.521 158.048C51.3845 158.079 51.2115 158.095 51.002 158.095C50.6846 158.095 50.3736 158.027 50.0689 157.89C49.7673 157.754 49.5166 157.546 49.3166 157.267C49.1198 156.987 49.0214 156.635 49.0214 156.21V148.935ZM58.0055 155.01V150.687H59.1291V158H58.0055V156.762H57.9294C57.758 157.133 57.4913 157.449 57.1295 157.71C56.7677 157.967 56.3106 158.095 55.7583 158.095C55.3013 158.095 54.895 157.995 54.5395 157.795C54.184 157.592 53.9047 157.287 53.7015 156.881C53.4984 156.472 53.3968 155.956 53.3968 155.334V150.687H54.5204V155.258C54.5204 155.791 54.6696 156.216 54.968 156.534C55.2695 156.851 55.6536 157.01 56.1202 157.01C56.3995 157.01 56.6835 156.938 56.9724 156.795C57.2644 156.653 57.5088 156.434 57.7056 156.138C57.9055 155.843 58.0055 155.467 58.0055 155.01ZM63.9485 158.152C63.3391 158.152 62.8011 157.998 62.3345 157.691C61.8679 157.379 61.5029 156.941 61.2395 156.376C60.976 155.808 60.8443 155.137 60.8443 154.363C60.8443 153.594 60.976 152.928 61.2395 152.363C61.5029 151.798 61.8695 151.362 62.3393 151.054C62.809 150.746 63.3518 150.592 63.9675 150.592C64.4436 150.592 64.8198 150.671 65.0959 150.83C65.3752 150.985 65.5879 151.163 65.7339 151.363C65.8831 151.56 65.9989 151.722 66.0814 151.849H66.1767V148.249H67.3003V158H66.2147V156.876H66.0814C65.9989 157.01 65.8815 157.178 65.7291 157.381C65.5768 157.581 65.3593 157.76 65.0769 157.919C64.7944 158.075 64.4182 158.152 63.9485 158.152ZM64.1008 157.143C64.5516 157.143 64.9324 157.026 65.2435 156.791C65.5545 156.553 65.791 156.224 65.9529 155.805C66.1148 155.383 66.1957 154.896 66.1957 154.344C66.1957 153.798 66.1164 153.32 65.9577 152.91C65.7989 152.498 65.5641 152.177 65.253 151.949C64.942 151.717 64.5579 151.601 64.1008 151.601C63.6247 151.601 63.228 151.723 62.9106 151.968C62.5964 152.209 62.3599 152.538 62.2012 152.953C62.0457 153.366 61.9679 153.829 61.9679 154.344C61.9679 154.864 62.0473 155.337 62.206 155.762C62.3678 156.184 62.6059 156.521 62.9201 156.772C63.2375 157.019 63.6311 157.143 64.1008 157.143ZM70.2378 160.742C70.0474 160.742 69.8776 160.726 69.7284 160.695C69.5792 160.666 69.4761 160.638 69.4189 160.609L69.7046 159.619C69.9776 159.689 70.2188 159.714 70.4283 159.695C70.6378 159.676 70.8234 159.582 70.9853 159.414C71.1504 159.249 71.3011 158.981 71.4376 158.609L71.6471 158.038L68.9428 150.687H70.1616L72.1803 156.515H72.2565L74.2752 150.687H75.494L72.3898 159.066C72.2502 159.444 72.0772 159.757 71.8709 160.004C71.6645 160.255 71.4249 160.441 71.1519 160.561C70.8822 160.682 70.5774 160.742 70.2378 160.742Z" fill="black"/>
<ellipse cx="26.8631" cy="189.058" rx="3.86312" ry="3.85915" fill="#061D19"/>
<path d="M39.819 193.558V183.807H43.1136C43.8786 183.807 44.5039 183.945 44.9895 184.221C45.4783 184.494 45.8401 184.864 46.075 185.331C46.3099 185.797 46.4273 186.318 46.4273 186.892C46.4273 187.467 46.3099 187.989 46.075 188.459C45.8433 188.928 45.4846 189.303 44.999 189.582C44.5134 189.858 43.8913 189.996 43.1327 189.996H40.7712V188.949H43.0946C43.6183 188.949 44.0389 188.859 44.3563 188.678C44.6737 188.497 44.9038 188.252 45.0466 187.944C45.1926 187.633 45.2656 187.283 45.2656 186.892C45.2656 186.502 45.1926 186.153 45.0466 185.845C44.9038 185.537 44.6721 185.296 44.3515 185.121C44.0309 184.943 43.6056 184.855 43.0756 184.855H40.9997V193.558H39.819ZM48.177 193.558V186.245H49.2625V187.349H49.3387C49.472 186.988 49.7132 186.694 50.0624 186.469C50.4115 186.243 50.8051 186.131 51.2431 186.131C51.3256 186.131 51.4288 186.132 51.5526 186.135C51.6764 186.138 51.77 186.143 51.8335 186.15V187.292C51.7954 187.283 51.7081 187.268 51.5716 187.249C51.4383 187.227 51.2971 187.216 51.1479 187.216C50.7924 187.216 50.475 187.291 50.1957 187.44C49.9195 187.586 49.7005 187.789 49.5387 188.049C49.38 188.306 49.3006 188.6 49.3006 188.93V193.558H48.177ZM55.9137 193.71C55.2535 193.71 54.6742 193.553 54.1759 193.239C53.6808 192.925 53.2935 192.485 53.0142 191.92C52.7381 191.355 52.6 190.695 52.6 189.939C52.6 189.178 52.7381 188.513 53.0142 187.944C53.2935 187.376 53.6808 186.935 54.1759 186.621C54.6742 186.307 55.2535 186.15 55.9137 186.15C56.5739 186.15 57.1516 186.307 57.6467 186.621C58.145 186.935 58.5323 187.376 58.8084 187.944C59.0877 188.513 59.2274 189.178 59.2274 189.939C59.2274 190.695 59.0877 191.355 58.8084 191.92C58.5323 192.485 58.145 192.925 57.6467 193.239C57.1516 193.553 56.5739 193.71 55.9137 193.71ZM55.9137 192.701C56.4152 192.701 56.8278 192.572 57.1516 192.315C57.4753 192.058 57.7149 191.72 57.8705 191.301C58.026 190.882 58.1038 190.428 58.1038 189.939C58.1038 189.451 58.026 188.995 57.8705 188.573C57.7149 188.151 57.4753 187.81 57.1516 187.549C56.8278 187.289 56.4152 187.159 55.9137 187.159C55.4122 187.159 54.9996 187.289 54.6758 187.549C54.3521 187.81 54.1124 188.151 53.9569 188.573C53.8014 188.995 53.7236 189.451 53.7236 189.939C53.7236 190.428 53.8014 190.882 53.9569 191.301C54.1124 191.72 54.3521 192.058 54.6758 192.315C54.9996 192.572 55.4122 192.701 55.9137 192.701ZM60.9425 186.245H62.0661V194.091C62.0661 194.542 61.9884 194.932 61.8328 195.262C61.6805 195.592 61.4488 195.848 61.1377 196.029C60.8299 196.21 60.441 196.3 59.9713 196.3C59.9332 196.3 59.8951 196.3 59.857 196.3C59.8189 196.3 59.7808 196.3 59.7428 196.3V195.253C59.7808 195.253 59.8158 195.253 59.8475 195.253C59.8792 195.253 59.9142 195.253 59.9522 195.253C60.295 195.253 60.5458 195.151 60.7045 194.948C60.8632 194.748 60.9425 194.462 60.9425 194.091V186.245ZM61.4948 185.026C61.2758 185.026 61.087 184.951 60.9283 184.802C60.7727 184.653 60.695 184.474 60.695 184.264C60.695 184.055 60.7727 183.875 60.9283 183.726C61.087 183.577 61.2758 183.502 61.4948 183.502C61.7138 183.502 61.9011 183.577 62.0566 183.726C62.2153 183.875 62.2947 184.055 62.2947 184.264C62.2947 184.474 62.2153 184.653 62.0566 184.802C61.9011 184.951 61.7138 185.026 61.4948 185.026ZM67.1902 193.71C66.4856 193.71 65.8777 193.555 65.3667 193.244C64.8589 192.929 64.4669 192.491 64.1908 191.929C63.9178 191.364 63.7813 190.707 63.7813 189.958C63.7813 189.209 63.9178 188.549 64.1908 187.978C64.4669 187.403 64.851 186.956 65.3429 186.635C65.8381 186.311 66.4157 186.15 67.0759 186.15C67.4568 186.15 67.8329 186.213 68.2043 186.34C68.5757 186.467 68.9137 186.673 69.2184 186.959C69.5231 187.241 69.7659 187.616 69.9468 188.083C70.1278 188.549 70.2182 189.124 70.2182 189.806V190.282H64.5812V189.311H69.0756C69.0756 188.898 68.9931 188.53 68.828 188.206C68.6661 187.883 68.4344 187.627 68.1329 187.44C67.8345 187.253 67.4822 187.159 67.0759 187.159C66.6284 187.159 66.2412 187.27 65.9142 187.492C65.5905 187.711 65.3413 187.997 65.1668 188.349C64.9922 188.701 64.9049 189.079 64.9049 189.482V190.13C64.9049 190.682 65.0001 191.15 65.1906 191.534C65.3842 191.915 65.6524 192.206 65.9952 192.406C66.338 192.602 66.7363 192.701 67.1902 192.701C67.4854 192.701 67.752 192.659 67.9901 192.577C68.2313 192.491 68.4392 192.364 68.6138 192.196C68.7883 192.025 68.9232 191.812 69.0184 191.558L70.104 191.863C69.9897 192.231 69.7977 192.555 69.5279 192.834C69.2581 193.11 68.9248 193.326 68.5281 193.482C68.1313 193.634 67.6854 193.71 67.1902 193.71ZM74.8983 193.71C74.2127 193.71 73.6224 193.548 73.1272 193.224C72.6321 192.901 72.2512 192.455 71.9846 191.887C71.718 191.318 71.5846 190.669 71.5846 189.939C71.5846 189.197 71.7211 188.541 71.9941 187.973C72.2702 187.402 72.6543 186.956 73.1463 186.635C73.6414 186.311 74.2191 186.15 74.8793 186.15C75.3935 186.15 75.8569 186.245 76.2695 186.435C76.6821 186.626 77.0202 186.892 77.2836 187.235C77.5471 187.578 77.7105 187.978 77.774 188.435H76.6504C76.5647 188.102 76.3742 187.806 76.0791 187.549C75.7871 187.289 75.3935 187.159 74.8983 187.159C74.4603 187.159 74.0763 187.273 73.7462 187.502C73.4192 187.727 73.1637 188.046 72.9796 188.459C72.7987 188.868 72.7082 189.349 72.7082 189.901C72.7082 190.466 72.7971 190.958 72.9749 191.377C73.1558 191.796 73.4097 192.121 73.7366 192.353C74.0667 192.585 74.454 192.701 74.8983 192.701C75.1903 192.701 75.4554 192.65 75.6934 192.548C75.9315 192.447 76.133 192.301 76.2981 192.11C76.4631 191.92 76.5806 191.691 76.6504 191.425H77.774C77.7105 191.856 77.5534 192.245 77.3027 192.591C77.0551 192.934 76.7266 193.207 76.3171 193.41C75.9108 193.61 75.4379 193.71 74.8983 193.71ZM82.5969 186.245V187.197H78.8071V186.245H82.5969ZM79.9117 184.493H81.0353V191.463C81.0353 191.78 81.0813 192.018 81.1734 192.177C81.2686 192.333 81.3892 192.437 81.5352 192.491C81.6844 192.542 81.8415 192.567 82.0066 192.567C82.1303 192.567 82.2319 192.561 82.3113 192.548C82.3906 192.533 82.4541 192.52 82.5017 192.51L82.7302 193.52C82.6541 193.548 82.5477 193.577 82.4112 193.605C82.2748 193.637 82.1018 193.653 81.8923 193.653C81.5749 193.653 81.2638 193.585 80.9591 193.448C80.6576 193.312 80.4068 193.104 80.2069 192.825C80.0101 192.545 79.9117 192.193 79.9117 191.768V184.493Z" fill="black"/>
</svg>
