<svg width="350" height="260" viewBox="0 0 350 260" fill="none" xmlns="http://www.w3.org/2000/svg">
<rect width="350" height="260" fill="white"/>
<path d="M27.2035 44.429H24.6984L20.085 27.8109H22.5653L25.0952 38.1042L25.9137 42.4199L26.9555 38.1538L29.9566 27.8109H32.685L35.6365 38.1538L36.6535 42.4199L37.4968 38.1042L40.0763 27.8109H42.507L37.844 44.429H35.3389L32.2881 33.6396L31.2712 29.5967L30.2791 33.6396L27.2035 44.429ZM48.3098 44.677C44.9117 44.677 42.5554 42.2463 42.5554 38.4266C42.5554 34.6317 44.8869 32.1762 48.1857 32.1762C51.5838 32.1762 53.6424 34.4333 53.6424 37.9553C53.6424 38.3274 53.5928 38.6994 53.5432 38.9227H44.6389C44.7629 41.4526 46.1767 42.8912 48.3098 42.8912C50.7157 42.8912 51.683 41.5766 52.1542 40.5349L53.4688 42.0231C52.5759 43.4616 50.9141 44.677 48.3098 44.677ZM48.1857 33.9868C46.2511 33.9868 44.9613 35.1278 44.6885 37.3601H51.7078C51.4846 35.1526 50.1948 33.9868 48.1857 33.9868ZM61.7286 44.677C58.3306 44.677 55.9743 42.2463 55.9743 38.4266C55.9743 34.6317 58.3058 32.1762 61.6046 32.1762C65.0026 32.1762 67.0613 34.4333 67.0613 37.9553C67.0613 38.3274 67.0117 38.6994 66.9621 38.9227H58.0578C58.1818 41.4526 59.5956 42.8912 61.7286 42.8912C64.1345 42.8912 65.1019 41.5766 65.5731 40.5349L66.8877 42.0231C65.9948 43.4616 64.333 44.677 61.7286 44.677ZM61.6046 33.9868C59.67 33.9868 58.3802 35.1278 58.1074 37.3601H65.1267C64.9034 35.1526 63.6137 33.9868 61.6046 33.9868ZM72.0022 44.429H69.8443V27.8109H72.0022V36.2439L71.9277 37.9305L73.6888 36.1943L77.6325 32.4243H80.336L75.4002 37.0872L80.4104 44.429H77.8061L73.912 38.4266L72.0022 40.2372V44.429ZM84.4764 44.429H82.3185V27.8109H84.4764V44.429ZM89.5058 48.3478C87.7944 48.3478 86.5542 47.4053 86.0333 46.4132L87.1991 44.7762C87.7696 45.7435 88.3896 46.4628 89.5306 46.4628C90.4979 46.4628 91.1428 45.9916 91.614 44.5282L91.8621 43.7593L90.5227 43.7841L86.4798 32.4243H88.7865L91.366 40.138L92.2093 42.7175L93.0526 40.138L95.6073 32.4243H97.914L93.3006 45.4211C92.5318 47.6286 91.1924 48.3478 89.5058 48.3478ZM107.293 49.0423H105.135V32.4243H107.293V35.4998C107.715 33.6892 108.856 32.1514 111.163 32.1514C114.189 32.1514 116.074 34.6069 116.074 38.4018C116.074 42.1967 114.189 44.677 111.163 44.677C108.856 44.677 107.715 43.1392 107.293 41.3286V49.0423ZM107.293 39.2699C107.293 41.2542 108.137 42.8664 110.418 42.8664C112.328 42.8664 113.891 41.4774 113.891 38.4018C113.891 35.351 112.328 33.962 110.418 33.962C108.137 33.962 107.293 35.5742 107.293 37.5585V39.2699ZM120.785 44.429H118.627V32.4243H120.785V35.6239C121.256 33.7636 122.496 32.1514 124.53 32.1514C125.82 32.1514 127.06 33.0691 127.06 34.7557C127.06 35.7727 126.787 36.5168 126.589 36.8144H124.232C124.629 36.4672 124.952 35.7231 124.952 35.0534C124.952 34.3589 124.58 33.7636 123.712 33.7636C122.174 33.7636 120.785 35.5742 120.785 37.6329V44.429ZM133.588 44.677C130.264 44.677 127.933 42.2215 127.933 38.4266C127.933 34.6317 130.264 32.1762 133.588 32.1762C136.911 32.1762 139.268 34.6317 139.268 38.4266C139.268 42.2215 136.911 44.677 133.588 44.677ZM133.588 42.8664C135.646 42.8664 137.085 41.4526 137.085 38.4266C137.085 35.3758 135.646 33.9868 133.588 33.9868C131.554 33.9868 130.14 35.3758 130.14 38.4266C130.14 41.4526 131.554 42.8664 133.588 42.8664ZM146.568 40.7581C145.7 40.7581 144.906 40.5845 144.236 40.262C143.939 40.6589 143.591 41.2294 143.591 41.7502C143.591 42.3951 143.939 42.7175 145.179 42.7175H148.8C150.983 42.7175 152.347 43.5856 152.347 45.3963C152.347 47.6782 150.114 49.2904 146.072 49.2904C142.996 49.2904 141.061 48.2734 141.061 46.686C141.061 45.5699 142.078 44.9002 142.996 44.5282C142.227 44.2801 141.83 43.7097 141.83 42.916C141.83 41.9734 142.55 40.9317 143.715 39.9892C142.525 39.2451 141.83 37.9801 141.83 36.4672C141.83 33.962 143.74 32.1762 146.568 32.1762C147.361 32.1762 148.081 32.325 148.701 32.5731L149.445 29.6959L151.677 30.4896L149.47 32.9699C150.611 33.714 151.305 34.979 151.305 36.4672C151.305 38.9723 149.395 40.7581 146.568 40.7581ZM146.568 39.0963C148.081 39.0963 149.222 38.1042 149.222 36.4672C149.222 34.8302 148.081 33.838 146.568 33.838C145.079 33.838 143.914 34.8302 143.914 36.4672C143.914 38.1042 145.079 39.0963 146.568 39.0963ZM146.072 47.5789C148.8 47.5789 150.338 46.8845 150.338 45.6939C150.338 44.925 149.742 44.5778 148.527 44.5778H143.616C143.219 44.925 142.798 45.4459 142.798 46.0164C142.798 46.9837 143.914 47.5789 146.072 47.5789ZM156.488 44.429H154.33V32.4243H156.488V35.6239C156.959 33.7636 158.199 32.1514 160.233 32.1514C161.523 32.1514 162.763 33.0691 162.763 34.7557C162.763 35.7727 162.49 36.5168 162.292 36.8144H159.935C160.332 36.4672 160.655 35.7231 160.655 35.0534C160.655 34.3589 160.283 33.7636 159.414 33.7636C157.877 33.7636 156.488 35.5742 156.488 37.6329V44.429ZM169.588 44.677C166.19 44.677 163.834 42.2463 163.834 38.4266C163.834 34.6317 166.165 32.1762 169.464 32.1762C172.862 32.1762 174.921 34.4333 174.921 37.9553C174.921 38.3274 174.871 38.6994 174.822 38.9227H165.917C166.041 41.4526 167.455 42.8912 169.588 42.8912C171.994 42.8912 172.961 41.5766 173.433 40.5349L174.747 42.0231C173.854 43.4616 172.193 44.677 169.588 44.677ZM169.464 33.9868C167.53 33.9868 166.24 35.1278 165.967 37.3601H172.986C172.763 35.1526 171.473 33.9868 169.464 33.9868ZM182.125 44.677C179.62 44.677 177.338 43.5856 176.519 41.3534L178.082 40.138C178.503 41.5022 179.818 42.8664 182.199 42.8664C183.613 42.8664 184.555 42.3207 184.555 41.2542C184.555 40.1628 183.464 39.8156 182.05 39.4931L180.463 39.1211C178.751 38.7242 176.891 37.9057 176.891 35.6983C176.891 33.5156 178.578 32.1762 181.182 32.1762C183.712 32.1762 185.473 33.5156 186.143 35.103L184.506 36.3183C183.91 34.9046 182.769 34.0117 181.058 34.0117C179.818 34.0117 178.925 34.5573 178.925 35.5742C178.925 36.6408 179.719 37.0128 181.356 37.4097L182.894 37.8065C185.597 38.4514 186.49 39.5675 186.49 41.2294C186.49 43.6105 184.456 44.677 182.125 44.677ZM193.364 44.677C190.858 44.677 188.577 43.5856 187.758 41.3534L189.321 40.138C189.742 41.5022 191.057 42.8664 193.438 42.8664C194.852 42.8664 195.794 42.3207 195.794 41.2542C195.794 40.1628 194.703 39.8156 193.289 39.4931L191.702 39.1211C189.99 38.7242 188.13 37.9057 188.13 35.6983C188.13 33.5156 189.817 32.1762 192.421 32.1762C194.951 32.1762 196.712 33.5156 197.382 35.103L195.745 36.3183C195.149 34.9046 194.008 34.0117 192.297 34.0117C191.057 34.0117 190.164 34.5573 190.164 35.5742C190.164 36.6408 190.958 37.0128 192.595 37.4097L194.132 37.8065C196.836 38.4514 197.729 39.5675 197.729 41.2294C197.729 43.6105 195.695 44.677 193.364 44.677Z" fill="#181717"/>
<path d="M319.303 26.5208C318.624 26.2761 318.285 26.1537 317.943 26.3068C317.844 26.3508 317.728 26.4326 317.653 26.5103C317.393 26.7802 317.393 27.1858 317.393 27.9972V35.0852H324.481C325.292 35.0852 325.698 35.0852 325.968 34.8251C326.045 34.7503 326.127 34.6339 326.171 34.5354C326.324 34.1933 326.202 33.854 325.957 33.1754C324.843 30.0859 322.392 27.6351 319.303 26.5208Z" stroke="#061D19" stroke-width="1.39376" stroke-linejoin="round"/>
<path d="M304.489 36.9286C304.489 43.0374 309.441 47.9895 315.549 47.9895C320.597 47.9895 324.854 44.6088 326.182 39.9882C326.371 39.3273 326.466 38.9968 326.306 38.6739C326.26 38.5804 326.178 38.4712 326.1 38.4008C325.834 38.1576 325.448 38.1576 324.675 38.1576H315.993C315.296 38.1576 314.948 38.1576 314.703 37.9802C314.625 37.9229 314.555 37.8535 314.498 37.7746C314.32 37.5304 314.32 37.1819 314.32 36.4851V27.8029C314.32 27.0301 314.32 26.6437 314.077 26.3776C314.007 26.3005 313.898 26.2182 313.804 26.1718C313.481 26.0116 313.151 26.1066 312.49 26.2964C307.869 27.6236 304.489 31.8813 304.489 36.9286Z" stroke="#061D19" stroke-width="1.39376" stroke-linejoin="round"/>
<path d="M65.533 213.092H66.9423L70.256 221.186H70.3702L73.6839 213.092H75.0932V222.843H73.9886V215.435H73.8934L70.8464 222.843H69.7799L66.7328 215.435H66.6376V222.843H65.533V213.092Z" fill="#444444"/>
<path d="M108.051 214.14V213.092H115.364V214.14H112.298V222.843H111.117V214.14H108.051Z" fill="#444444"/>
<path d="M150.406 222.843L147.74 213.092H148.94L150.978 221.034H151.073L153.149 213.092H154.482L156.558 221.034H156.653L158.691 213.092H159.89L157.224 222.843H156.005L153.853 215.073H153.777L151.625 222.843H150.406Z" fill="#444444"/>
<path d="M192.153 214.14V213.092H199.466V214.14H196.4V222.843H195.219V214.14H192.153Z" fill="#444444"/>
<path d="M232.737 222.843V213.092H238.584V214.14H233.918V217.434H238.146V218.482H233.918V222.843H232.737Z" fill="#444444"/>
<path d="M277.121 215.53C277.064 215.047 276.832 214.673 276.426 214.406C276.019 214.14 275.521 214.006 274.931 214.006C274.499 214.006 274.121 214.076 273.798 214.216C273.477 214.355 273.226 214.547 273.045 214.792C272.868 215.036 272.779 215.314 272.779 215.625C272.779 215.885 272.841 216.109 272.964 216.296C273.091 216.48 273.253 216.634 273.45 216.758C273.647 216.879 273.853 216.979 274.069 217.058C274.285 217.134 274.483 217.196 274.664 217.244L275.654 217.51C275.908 217.577 276.191 217.669 276.502 217.787C276.816 217.904 277.116 218.064 277.402 218.267C277.691 218.467 277.929 218.724 278.116 219.039C278.303 219.353 278.397 219.739 278.397 220.196C278.397 220.723 278.259 221.199 277.983 221.624C277.71 222.049 277.31 222.387 276.783 222.638C276.259 222.889 275.623 223.014 274.874 223.014C274.175 223.014 273.571 222.901 273.06 222.676C272.552 222.451 272.152 222.137 271.86 221.733C271.571 221.33 271.408 220.862 271.369 220.329H272.588C272.62 220.697 272.744 221.002 272.96 221.243C273.179 221.481 273.455 221.659 273.788 221.776C274.124 221.891 274.486 221.948 274.874 221.948C275.324 221.948 275.729 221.875 276.088 221.729C276.446 221.58 276.73 221.373 276.94 221.11C277.149 220.843 277.254 220.532 277.254 220.177C277.254 219.853 277.164 219.589 276.983 219.386C276.802 219.183 276.564 219.018 276.269 218.891C275.973 218.764 275.654 218.653 275.312 218.558L274.112 218.215C273.35 217.996 272.747 217.683 272.303 217.277C271.858 216.871 271.636 216.339 271.636 215.682C271.636 215.136 271.784 214.66 272.079 214.254C272.377 213.844 272.777 213.527 273.279 213.302C273.783 213.073 274.347 212.959 274.969 212.959C275.597 212.959 276.156 213.072 276.645 213.297C277.133 213.519 277.521 213.824 277.806 214.211C278.095 214.598 278.248 215.038 278.263 215.53H277.121Z" fill="#444444"/>
<path d="M317.172 215.53C317.115 215.047 316.883 214.673 316.477 214.406C316.071 214.14 315.572 214.006 314.982 214.006C314.55 214.006 314.172 214.076 313.849 214.216C313.528 214.355 313.277 214.547 313.096 214.792C312.919 215.036 312.83 215.314 312.83 215.625C312.83 215.885 312.892 216.109 313.016 216.296C313.142 216.48 313.304 216.634 313.501 216.758C313.698 216.879 313.904 216.979 314.12 217.058C314.336 217.134 314.534 217.196 314.715 217.244L315.706 217.51C315.959 217.577 316.242 217.669 316.553 217.787C316.867 217.904 317.167 218.064 317.453 218.267C317.742 218.467 317.98 218.724 318.167 219.039C318.354 219.353 318.448 219.739 318.448 220.196C318.448 220.723 318.31 221.199 318.034 221.624C317.761 222.049 317.361 222.387 316.834 222.638C316.31 222.889 315.674 223.014 314.925 223.014C314.226 223.014 313.622 222.901 313.111 222.676C312.603 222.451 312.203 222.137 311.911 221.733C311.622 221.33 311.459 220.862 311.421 220.329H312.639C312.671 220.697 312.795 221.002 313.011 221.243C313.23 221.481 313.506 221.659 313.839 221.776C314.176 221.891 314.537 221.948 314.925 221.948C315.375 221.948 315.78 221.875 316.139 221.729C316.497 221.58 316.782 221.373 316.991 221.11C317.2 220.843 317.305 220.532 317.305 220.177C317.305 219.853 317.215 219.589 317.034 219.386C316.853 219.183 316.615 219.018 316.32 218.891C316.025 218.764 315.706 218.653 315.363 218.558L314.163 218.215C313.401 217.996 312.798 217.683 312.354 217.277C311.909 216.871 311.687 216.339 311.687 215.682C311.687 215.136 311.835 214.66 312.13 214.254C312.428 213.844 312.828 213.527 313.33 213.302C313.834 213.073 314.398 212.959 315.02 212.959C315.648 212.959 316.207 213.072 316.696 213.297C317.185 213.519 317.572 213.824 317.858 214.211C318.146 214.598 318.299 215.038 318.315 215.53H317.172Z" fill="#444444"/>
<path d="M25.4854 96.5035C24.9267 96.5035 24.4236 96.3925 23.9761 96.1703C23.5286 95.9481 23.1699 95.6434 22.9001 95.2562C22.6303 94.8689 22.4827 94.4277 22.4573 93.9326H23.6C23.6444 94.3738 23.8444 94.7388 24.1999 95.0276C24.5585 95.3133 24.987 95.4561 25.4854 95.4561C25.8853 95.4561 26.2408 95.3625 26.5518 95.1752C26.8661 94.988 27.112 94.7309 27.2898 94.4039C27.4707 94.0738 27.5612 93.7009 27.5612 93.2851C27.5612 92.8598 27.4675 92.4805 27.2803 92.1472C27.0962 91.8108 26.8423 91.5457 26.5185 91.3521C26.1948 91.1585 25.825 91.0601 25.4092 91.0569C25.1108 91.0537 24.8045 91.0998 24.4903 91.195C24.1761 91.287 23.9174 91.4061 23.7143 91.5521L22.6097 91.4188L23.2001 86.6196H28.2658V87.6671H24.1904L23.8476 90.5427H23.9047C24.1047 90.384 24.3554 90.2523 24.6569 90.1476C24.9585 90.0428 25.2727 89.9904 25.5996 89.9904C26.1963 89.9904 26.728 90.1333 27.1946 90.4189C27.6643 90.7014 28.0325 91.0887 28.2991 91.5806C28.5689 92.0726 28.7038 92.6344 28.7038 93.266C28.7038 93.8882 28.5642 94.4436 28.2848 94.9324C28.0087 95.418 27.6278 95.8021 27.1422 96.0846C26.6566 96.3639 26.1043 96.5035 25.4854 96.5035ZM33.7755 96.5035C33.0582 96.5035 32.4472 96.3083 31.9425 95.9179C31.4378 95.5244 31.0522 94.9546 30.7856 94.2087C30.519 93.4597 30.3857 92.5551 30.3857 91.4949C30.3857 90.4412 30.519 89.5413 30.7856 88.7954C31.0554 88.0464 31.4426 87.475 31.9473 87.0815C32.4551 86.6847 33.0645 86.4863 33.7755 86.4863C34.4865 86.4863 35.0943 86.6847 35.599 87.0815C36.1068 87.475 36.4941 88.0464 36.7607 88.7954C37.0305 89.5413 37.1654 90.4412 37.1654 91.4949C37.1654 92.5551 37.0321 93.4597 36.7654 94.2087C36.4988 94.9546 36.1132 95.5244 35.6085 95.9179C35.1038 96.3083 34.4928 96.5035 33.7755 96.5035ZM33.7755 95.4561C34.4865 95.4561 35.0388 95.1133 35.4324 94.4277C35.8259 93.7421 36.0227 92.7645 36.0227 91.4949C36.0227 90.6506 35.9323 89.9317 35.7513 89.3382C35.5736 88.7446 35.3165 88.2923 34.9801 87.9813C34.6468 87.6702 34.2453 87.5147 33.7755 87.5147C33.0709 87.5147 32.5202 87.8623 32.1234 88.5574C31.7267 89.2493 31.5283 90.2285 31.5283 91.4949C31.5283 92.3392 31.6172 93.0566 31.7949 93.6469C31.9727 94.2373 32.2282 94.6864 32.5615 94.9943C32.8979 95.3022 33.3026 95.4561 33.7755 95.4561Z" fill="#444444"/>
<path d="M22.4383 151.107V150.25L25.6568 146.727C26.0345 146.314 26.3455 145.955 26.5899 145.651C26.8343 145.343 27.0152 145.054 27.1327 144.784C27.2533 144.511 27.3136 144.225 27.3136 143.927C27.3136 143.584 27.2311 143.287 27.066 143.037C26.9041 142.786 26.682 142.592 26.3995 142.456C26.117 142.319 25.7996 142.251 25.4473 142.251C25.0727 142.251 24.7458 142.329 24.4665 142.484C24.1904 142.637 23.9761 142.851 23.8238 143.127C23.6746 143.403 23.6 143.727 23.6 144.098H22.4764C22.4764 143.527 22.6081 143.026 22.8715 142.594C23.135 142.162 23.4937 141.826 23.9475 141.585C24.4046 141.343 24.9172 141.223 25.4854 141.223C26.0567 141.223 26.5629 141.343 27.0041 141.585C27.4453 141.826 27.7913 142.151 28.042 142.561C28.2928 142.97 28.4182 143.426 28.4182 143.927C28.4182 144.286 28.3531 144.636 28.223 144.979C28.096 145.319 27.8738 145.698 27.5564 146.117C27.2422 146.533 26.8058 147.041 26.2471 147.641L24.057 149.983V150.059H28.5896V151.107H22.4383ZM33.6029 151.24C33.0443 151.24 32.5412 151.129 32.0937 150.907C31.6461 150.685 31.2875 150.38 31.0177 149.993C30.7479 149.605 30.6003 149.164 30.5749 148.669H31.7176C31.762 149.11 31.962 149.475 32.3174 149.764C32.6761 150.05 33.1046 150.193 33.6029 150.193C34.0029 150.193 34.3583 150.099 34.6694 149.912C34.9836 149.724 35.2296 149.467 35.4074 149.14C35.5883 148.81 35.6787 148.437 35.6787 148.022C35.6787 147.596 35.5851 147.217 35.3978 146.884C35.2137 146.547 34.9598 146.282 34.6361 146.089C34.3123 145.895 33.9425 145.797 33.5268 145.793C33.2284 145.79 32.9221 145.836 32.6079 145.931C32.2936 146.023 32.035 146.143 31.8318 146.289L30.7273 146.155L31.3176 141.356H36.3834V142.404H32.3079L31.9651 145.279H32.0223C32.2222 145.12 32.473 144.989 32.7745 144.884C33.076 144.779 33.3903 144.727 33.7172 144.727C34.3139 144.727 34.8456 144.87 35.3121 145.155C35.7819 145.438 36.1501 145.825 36.4167 146.317C36.6865 146.809 36.8214 147.371 36.8214 148.002C36.8214 148.625 36.6817 149.18 36.4024 149.669C36.1263 150.154 35.7454 150.539 35.2598 150.821C34.7741 151.1 34.2219 151.24 33.6029 151.24Z" fill="#444444"/>
<path d="M25.6187 205.977C24.9013 205.977 24.2903 205.781 23.7857 205.391C23.281 204.997 22.8954 204.428 22.6287 203.682C22.3621 202.933 22.2288 202.028 22.2288 200.968C22.2288 199.914 22.3621 199.014 22.6287 198.268C22.8985 197.519 23.2858 196.948 23.7904 196.554C24.2983 196.158 24.9077 195.959 25.6187 195.959C26.3296 195.959 26.9375 196.158 27.4421 196.554C27.95 196.948 28.3372 197.519 28.6038 198.268C28.8736 199.014 29.0085 199.914 29.0085 200.968C29.0085 202.028 28.8752 202.933 28.6086 203.682C28.342 204.428 27.9563 204.997 27.4517 205.391C26.947 205.781 26.336 205.977 25.6187 205.977ZM25.6187 204.929C26.3296 204.929 26.8819 204.586 27.2755 203.901C27.6691 203.215 27.8659 202.238 27.8659 200.968C27.8659 200.124 27.7754 199.405 27.5945 198.811C27.4168 198.218 27.1597 197.765 26.8232 197.454C26.4899 197.143 26.0884 196.988 25.6187 196.988C24.914 196.988 24.3633 197.335 23.9666 198.03C23.5698 198.722 23.3715 199.702 23.3715 200.968C23.3715 201.812 23.4603 202.53 23.6381 203.12C23.8158 203.71 24.0713 204.159 24.4046 204.467C24.7411 204.775 25.1457 204.929 25.6187 204.929Z" fill="#444444"/>
<path d="M57.9492 187.001C71.973 183.933 105.933 169.614 129.584 136.886C147.309 112.359 167.417 119.233 181.008 130.818C189.392 137.964 195.731 153.191 205.663 148.425C213.099 144.856 221.92 133.094 229.646 111.318C240.162 81.6799 252.255 84.1588 260.197 92.6284C264.874 97.617 266.643 104.505 267.766 111.251C271.303 132.501 277.56 164.867 296.733 143.022C313.789 123.59 324.781 149.159 328.571 161.432" stroke="#B8FF90" stroke-width="1.54445"/>
<path d="M57.5708 173.137C71.5035 169.822 105.243 154.353 128.74 118.995C152.238 83.637 164.148 126.937 168.279 146.866C172.41 166.795 173.927 211.561 195.391 135.816C203.945 105.629 216.131 118.771 226.362 132.683C233.312 142.132 238.214 153.121 243.692 163.493C252.265 179.724 260.958 174.876 265.431 146.866C274.08 92.6991 318.526 140.236 326.433 118.995" stroke="#061D19" stroke-width="1.54445"/>
<path d="M226.616 55.7029C226.616 54.5903 227.518 53.6884 228.631 53.6884H273.226C274.339 53.6884 275.241 54.5903 275.241 55.7029V80.6031C275.241 81.7157 274.339 82.6176 273.226 82.6176H256.805C256.34 82.6176 255.889 82.7785 255.529 83.0729L250.929 86.8364L245.561 82.994C245.219 82.7492 244.809 82.6176 244.388 82.6176H228.631C227.518 82.6176 226.616 81.7157 226.616 80.6031V55.7029Z" fill="#B8FF90"/>
<path d="M240.998 71.6102V70.9664L243.416 68.3195C243.7 68.0095 243.934 67.74 244.117 67.5111C244.301 67.2798 244.437 67.0628 244.525 66.8601C244.616 66.655 244.661 66.4404 244.661 66.2163C244.661 65.9587 244.599 65.7358 244.475 65.5474C244.353 65.359 244.186 65.2136 243.974 65.111C243.762 65.0085 243.524 64.9572 243.259 64.9572C242.978 64.9572 242.732 65.0156 242.522 65.1325C242.315 65.2469 242.154 65.4079 242.039 65.6154C241.927 65.8228 241.871 66.066 241.871 66.345H241.027C241.027 65.9158 241.126 65.5391 241.324 65.2147C241.522 64.8904 241.791 64.6377 242.132 64.4564C242.476 64.2752 242.861 64.1846 243.288 64.1846C243.717 64.1846 244.097 64.2752 244.429 64.4564C244.76 64.6377 245.02 64.8821 245.208 65.1897C245.397 65.4973 245.491 65.8395 245.491 66.2163C245.491 66.4857 245.442 66.7492 245.344 67.0068C245.249 67.2619 245.082 67.5469 244.843 67.8616C244.607 68.174 244.279 68.5556 243.86 69.0063L242.214 70.7661V70.8233H245.62V71.6102H240.998ZM246.768 70.1079V69.3782L249.987 64.2848H250.516V65.4151H250.159L247.726 69.2638V69.321H252.062V70.1079H246.768ZM250.216 71.6102V69.8862V69.5464V64.2848H251.06V71.6102H250.216ZM257.136 70.2367V69.8504C257.136 69.5833 257.191 69.3389 257.301 69.1171C257.413 68.893 257.575 68.7141 257.787 68.5806C258.002 68.4447 258.262 68.3767 258.567 68.3767C258.877 68.3767 259.137 68.4447 259.347 68.5806C259.557 68.7141 259.715 68.893 259.823 69.1171C259.93 69.3389 259.984 69.5833 259.984 69.8504V70.2367C259.984 70.5038 259.929 70.7494 259.819 70.9735C259.712 71.1953 259.552 71.3742 259.34 71.5101C259.13 71.6436 258.872 71.7104 258.567 71.7104C258.257 71.7104 257.996 71.6436 257.784 71.5101C257.572 71.3742 257.411 71.1953 257.301 70.9735C257.191 70.7494 257.136 70.5038 257.136 70.2367ZM257.866 69.8504V70.2367C257.866 70.4585 257.918 70.6576 258.023 70.834C258.128 71.0081 258.31 71.0952 258.567 71.0952C258.817 71.0952 258.994 71.0081 259.096 70.834C259.201 70.6576 259.254 70.4585 259.254 70.2367V69.8504C259.254 69.6286 259.204 69.4307 259.104 69.2566C259.003 69.0802 258.825 68.9919 258.567 68.9919C258.317 68.9919 258.137 69.0802 258.027 69.2566C257.92 69.4307 257.866 69.6286 257.866 69.8504ZM253.488 66.0446V65.6583C253.488 65.3912 253.543 65.1468 253.652 64.925C253.765 64.7009 253.927 64.522 254.139 64.3885C254.354 64.2526 254.613 64.1846 254.919 64.1846C255.229 64.1846 255.489 64.2526 255.698 64.3885C255.908 64.522 256.067 64.7009 256.174 64.925C256.281 65.1468 256.335 65.3912 256.335 65.6583V66.0446C256.335 66.3117 256.28 66.5573 256.171 66.7814C256.063 67.0032 255.903 67.182 255.691 67.318C255.481 67.4515 255.224 67.5183 254.919 67.5183C254.609 67.5183 254.348 67.4515 254.135 67.318C253.923 67.182 253.762 67.0032 253.652 66.7814C253.543 66.5573 253.488 66.3117 253.488 66.0446ZM254.218 65.6583V66.0446C254.218 66.2664 254.27 66.4655 254.375 66.6419C254.48 66.816 254.661 66.903 254.919 66.903C255.169 66.903 255.345 66.816 255.448 66.6419C255.553 66.4655 255.605 66.2664 255.605 66.0446V65.6583C255.605 65.4365 255.555 65.2386 255.455 65.0645C255.355 64.8881 255.176 64.7998 254.919 64.7998C254.668 64.7998 254.488 64.8881 254.379 65.0645C254.271 65.2386 254.218 65.4365 254.218 65.6583ZM253.76 71.6102L258.796 64.2848H259.612L254.575 71.6102H253.76Z" fill="#061D19"/>
</svg>
