<svg width="800" height="936" viewBox="0 0 800 936" fill="none" xmlns="http://www.w3.org/2000/svg">
<rect width="800" height="936" fill="#F3F3E5"/>
<rect x="487.678" y="258.667" width="32" height="339.901" rx="14.7783" transform="rotate(90 487.678 258.667)" fill="#061D19"/>
<rect x="628.893" y="328" width="32" height="481.117" rx="14.7783" transform="rotate(90 628.893 328)" fill="#B8FF90"/>
<rect x="719.205" y="501.333" width="32" height="571.429" rx="14.7783" transform="rotate(90 719.205 501.333)" fill="#061D19"/>
<rect x="487.678" y="570.667" width="32" height="339.901" rx="14.7783" transform="rotate(90 487.678 570.667)" fill="#B8FF90"/>
<rect x="678.148" y="738.667" width="32" height="530.378" rx="14.7783" transform="rotate(90 678.148 738.667)" fill="#061D19"/>
<rect x="587.836" y="808" width="32" height="440.066" rx="14.7783" transform="rotate(90 587.836 808)" fill="#B8FF90"/>
<path d="M87.7273 373.182V369.818L107.045 361.909V361.636L87.7273 353.727V350.364H111V353H93.3182V353.227L111 360.5V363.045L93.3182 370.318V370.545H111V373.182H87.7273ZM111.409 339.94C111.409 341.046 111.201 342.05 110.784 342.952C110.36 343.853 109.75 344.569 108.955 345.099C108.152 345.63 107.182 345.895 106.045 345.895C105.045 345.895 104.235 345.698 103.614 345.304C102.985 344.91 102.492 344.384 102.136 343.724C101.78 343.065 101.515 342.338 101.341 341.543C101.159 340.74 101.015 339.933 100.909 339.122C100.773 338.062 100.67 337.202 100.602 336.543C100.527 335.876 100.402 335.391 100.227 335.088C100.053 334.777 99.75 334.622 99.3182 334.622H99.2273C98.1061 334.622 97.2348 334.929 96.6136 335.543C95.9924 336.149 95.6818 337.069 95.6818 338.304C95.6818 339.584 95.9621 340.588 96.5227 341.315C97.0833 342.043 97.6818 342.554 98.3182 342.849L97.4091 345.395C96.3485 344.94 95.5227 344.334 94.9318 343.577C94.3333 342.812 93.9167 341.978 93.6818 341.077C93.4394 340.168 93.3182 339.274 93.3182 338.395C93.3182 337.834 93.3864 337.19 93.5227 336.463C93.6515 335.728 93.9205 335.02 94.3295 334.338C94.7386 333.649 95.3561 333.077 96.1818 332.622C97.0076 332.168 98.1136 331.94 99.5 331.94H111V334.622H108.636V334.759C109.015 334.94 109.42 335.243 109.852 335.668C110.284 336.092 110.652 336.656 110.955 337.361C111.258 338.065 111.409 338.925 111.409 339.94ZM109 339.531C109 338.471 108.792 337.577 108.375 336.849C107.958 336.115 107.42 335.562 106.761 335.19C106.102 334.812 105.409 334.622 104.682 334.622H102.227C102.364 334.736 102.489 334.986 102.602 335.372C102.708 335.751 102.803 336.19 102.886 336.69C102.962 337.183 103.03 337.664 103.091 338.134C103.144 338.596 103.189 338.971 103.227 339.259C103.318 339.955 103.466 340.607 103.67 341.213C103.867 341.812 104.167 342.296 104.568 342.668C104.962 343.031 105.5 343.213 106.182 343.213C107.114 343.213 107.818 342.868 108.295 342.179C108.765 341.482 109 340.599 109 339.531ZM117.545 325.943C117.545 326.398 117.508 326.803 117.432 327.159C117.364 327.515 117.295 327.761 117.227 327.898L114.864 327.216C115.03 326.564 115.091 325.989 115.045 325.489C115 324.989 114.777 324.545 114.375 324.159C113.981 323.765 113.341 323.405 112.455 323.08L111.091 322.58L93.5455 329.034V326.125L107.455 321.307V321.125L93.5455 316.307V313.398L113.545 320.807C114.447 321.14 115.193 321.553 115.784 322.045C116.383 322.538 116.826 323.11 117.114 323.761C117.402 324.405 117.545 325.133 117.545 325.943ZM99.7727 299.858H102.273L102.273 310.04H99.7727L99.7727 299.858ZM87.7273 285.866V283.048H104.364C105.848 283.048 107.11 283.321 108.148 283.866C109.186 284.412 109.973 285.181 110.511 286.173C111.049 287.166 111.318 288.336 111.318 289.685C111.318 290.957 111.087 292.09 110.625 293.082C110.155 294.075 109.489 294.855 108.625 295.423C107.761 295.991 106.735 296.276 105.545 296.276V293.503C106.205 293.503 106.78 293.34 107.273 293.014C107.758 292.681 108.136 292.226 108.409 291.651C108.682 291.075 108.818 290.42 108.818 289.685C108.818 288.874 108.648 288.185 108.307 287.616C107.966 287.048 107.466 286.616 106.807 286.321C106.14 286.018 105.326 285.866 104.364 285.866H87.7273ZM103.864 266.764H93.5455V264.082H111V266.764H108.045V266.946C108.932 267.355 109.686 267.991 110.307 268.855C110.92 269.719 111.227 270.81 111.227 272.128C111.227 273.219 110.989 274.188 110.511 275.037C110.027 275.885 109.299 276.552 108.33 277.037C107.352 277.522 106.121 277.764 104.636 277.764H93.5455V275.082H104.455C105.727 275.082 106.742 274.726 107.5 274.014C108.258 273.295 108.636 272.378 108.636 271.264C108.636 270.598 108.466 269.92 108.125 269.23C107.784 268.533 107.261 267.95 106.557 267.48C105.852 267.003 104.955 266.764 103.864 266.764ZM100.5 256.489H111V259.17H93.5455V256.58H96.2727V256.352C95.3864 255.943 94.6742 255.322 94.1364 254.489C93.5909 253.655 93.3182 252.58 93.3182 251.261C93.3182 250.08 93.5606 249.045 94.0455 248.159C94.5227 247.273 95.25 246.583 96.2273 246.091C97.197 245.598 98.4242 245.352 99.9091 245.352H111V248.034H100.091C98.7197 248.034 97.6515 248.39 96.8864 249.102C96.1136 249.814 95.7273 250.792 95.7273 252.034C95.7273 252.89 95.9129 253.655 96.2841 254.33C96.6553 254.996 97.197 255.523 97.9091 255.909C98.6212 256.295 99.4848 256.489 100.5 256.489Z" fill="#838689"/>
<path d="M86.5398 613.184V609.82L105.858 601.911V601.638L86.5398 593.729V590.365H109.812V593.002H92.1307V593.229L109.812 600.502V603.047L92.1307 610.32V610.547H109.812V613.184H86.5398ZM110.222 579.942C110.222 581.048 110.013 582.052 109.597 582.953C109.172 583.855 108.562 584.571 107.767 585.101C106.964 585.631 105.994 585.897 104.858 585.897C103.858 585.897 103.047 585.7 102.426 585.306C101.797 584.912 101.305 584.385 100.949 583.726C100.593 583.067 100.328 582.34 100.153 581.544C99.9716 580.741 99.8277 579.934 99.7216 579.124C99.5852 578.063 99.483 577.203 99.4148 576.544C99.339 575.878 99.214 575.393 99.0398 575.09C98.8655 574.779 98.5625 574.624 98.1307 574.624H98.0398C96.9186 574.624 96.0473 574.931 95.4261 575.544C94.8049 576.15 94.4943 577.071 94.4943 578.306C94.4943 579.586 94.7746 580.59 95.3352 581.317C95.8958 582.044 96.4943 582.556 97.1307 582.851L96.2216 585.397C95.161 584.942 94.3352 584.336 93.7443 583.578C93.1458 582.813 92.7292 581.98 92.4943 581.078C92.2519 580.169 92.1307 579.275 92.1307 578.397C92.1307 577.836 92.1989 577.192 92.3352 576.465C92.464 575.73 92.733 575.022 93.142 574.34C93.5511 573.65 94.1686 573.078 94.9943 572.624C95.8201 572.169 96.9261 571.942 98.3125 571.942H109.812V574.624H107.449V574.76C107.828 574.942 108.233 575.245 108.665 575.669C109.097 576.094 109.464 576.658 109.767 577.363C110.07 578.067 110.222 578.927 110.222 579.942ZM107.812 579.533C107.812 578.472 107.604 577.578 107.188 576.851C106.771 576.116 106.233 575.563 105.574 575.192C104.915 574.813 104.222 574.624 103.494 574.624H101.04C101.176 574.738 101.301 574.988 101.415 575.374C101.521 575.753 101.616 576.192 101.699 576.692C101.775 577.184 101.843 577.666 101.903 578.135C101.956 578.597 102.002 578.972 102.04 579.26C102.131 579.957 102.278 580.609 102.483 581.215C102.68 581.813 102.979 582.298 103.381 582.669C103.775 583.033 104.312 583.215 104.994 583.215C105.926 583.215 106.631 582.87 107.108 582.181C107.578 581.484 107.812 580.601 107.812 579.533ZM109.812 567.047H92.358V564.456H94.9943V564.274C94.1307 563.956 93.4299 563.38 92.892 562.547C92.3542 561.714 92.0852 560.774 92.0852 559.729C92.0852 559.532 92.089 559.286 92.0966 558.99C92.1042 558.695 92.1155 558.471 92.1307 558.32H94.858C94.8352 558.411 94.8011 558.619 94.7557 558.945C94.7027 559.263 94.6761 559.6 94.6761 559.956C94.6761 560.805 94.8542 561.562 95.2102 562.229C95.5587 562.888 96.0436 563.411 96.6648 563.797C97.2784 564.176 97.9792 564.365 98.767 564.365H109.812V567.047ZM98.5852 546.422H101.085V556.604H98.5852V546.422ZM109.813 540.385V543.34L86.5398 534.794V531.885L109.813 523.34V526.294L90.2216 533.249V533.431L109.813 540.385ZM100.722 539.294V527.385H103.222V539.294H100.722ZM116.358 520.078H92.358V517.488H95.1307V517.169C94.8277 516.972 94.4413 516.7 93.9716 516.351C93.4943 515.995 93.0701 515.488 92.6989 514.828C92.3201 514.162 92.1307 513.26 92.1307 512.124C92.1307 510.654 92.4981 509.359 93.233 508.238C93.9678 507.116 95.0095 506.241 96.358 505.613C97.7064 504.984 99.2973 504.669 101.131 504.669C102.979 504.669 104.581 504.984 105.938 505.613C107.286 506.241 108.331 507.113 109.074 508.226C109.809 509.34 110.176 510.624 110.176 512.078C110.176 513.2 109.991 514.097 109.619 514.772C109.241 515.446 108.812 515.965 108.335 516.328C107.85 516.692 107.449 516.972 107.131 517.169V517.397H116.358V520.078ZM101.085 517.442C102.403 517.442 103.566 517.249 104.574 516.863C105.574 516.476 106.358 515.912 106.926 515.169C107.487 514.427 107.767 513.518 107.767 512.442C107.767 511.321 107.472 510.385 106.881 509.635C106.282 508.878 105.479 508.309 104.472 507.931C103.456 507.544 102.328 507.351 101.085 507.351C99.858 507.351 98.7519 507.541 97.767 507.919C96.7746 508.291 95.9905 508.855 95.4148 509.613C94.8314 510.363 94.5398 511.306 94.5398 512.442C94.5398 513.533 94.8163 514.45 95.3693 515.192C95.9148 515.934 96.6799 516.495 97.6648 516.874C98.642 517.253 99.7822 517.442 101.085 517.442ZM109.813 500.578H92.358V497.988H94.9943V497.806C94.1307 497.488 93.4299 496.912 92.892 496.078C92.3542 495.245 92.0852 494.306 92.0852 493.26C92.0852 493.063 92.089 492.817 92.0966 492.522C92.1042 492.226 92.1155 492.003 92.1307 491.851H94.858C94.8352 491.942 94.8011 492.15 94.7557 492.476C94.7027 492.794 94.6761 493.131 94.6761 493.488C94.6761 494.336 94.8542 495.094 95.2102 495.76C95.5587 496.419 96.0436 496.942 96.6648 497.328C97.2784 497.707 97.9792 497.897 98.767 497.897H109.813V500.578Z" fill="#838689"/>
<path d="M86.5398 841.603V838.785H103.176C104.661 838.785 105.922 839.058 106.96 839.603C107.998 840.149 108.786 840.918 109.324 841.91C109.862 842.903 110.131 844.073 110.131 845.422C110.131 846.694 109.9 847.827 109.438 848.819C108.968 849.812 108.301 850.592 107.438 851.16C106.574 851.728 105.547 852.013 104.358 852.013V849.24C105.017 849.24 105.593 849.077 106.085 848.751C106.57 848.418 106.949 847.963 107.222 847.388C107.494 846.812 107.631 846.157 107.631 845.422C107.631 844.611 107.46 843.922 107.119 843.353C106.778 842.785 106.278 842.353 105.619 842.058C104.953 841.755 104.138 841.603 103.176 841.603H86.5398ZM110.222 828.365C110.222 829.471 110.013 830.475 109.597 831.376C109.172 832.278 108.562 832.994 107.767 833.524C106.964 834.054 105.994 834.319 104.858 834.319C103.858 834.319 103.047 834.122 102.426 833.728C101.797 833.335 101.305 832.808 100.949 832.149C100.593 831.49 100.328 830.763 100.153 829.967C99.9716 829.164 99.8277 828.357 99.7216 827.547C99.5852 826.486 99.483 825.626 99.4148 824.967C99.339 824.3 99.214 823.816 99.0398 823.513C98.8655 823.202 98.5625 823.047 98.1307 823.047H98.0398C96.9186 823.047 96.0473 823.353 95.4261 823.967C94.8049 824.573 94.4943 825.494 94.4943 826.728C94.4943 828.009 94.7746 829.013 95.3352 829.74C95.8958 830.467 96.4943 830.978 97.1307 831.274L96.2216 833.819C95.161 833.365 94.3352 832.759 93.7443 832.001C93.1458 831.236 92.7292 830.403 92.4943 829.501C92.2519 828.592 92.1307 827.698 92.1307 826.819C92.1307 826.259 92.1989 825.615 92.3352 824.888C92.464 824.153 92.733 823.444 93.142 822.763C93.5511 822.073 94.1686 821.501 94.9943 821.047C95.8201 820.592 96.9261 820.365 98.3125 820.365H109.812V823.047H107.449V823.183C107.828 823.365 108.233 823.668 108.665 824.092C109.097 824.516 109.464 825.081 109.767 825.785C110.07 826.49 110.222 827.35 110.222 828.365ZM107.812 827.956C107.812 826.895 107.604 826.001 107.188 825.274C106.771 824.539 106.233 823.986 105.574 823.615C104.915 823.236 104.222 823.047 103.494 823.047H101.04C101.176 823.16 101.301 823.41 101.415 823.797C101.521 824.175 101.616 824.615 101.699 825.115C101.775 825.607 101.843 826.088 101.903 826.558C101.956 827.02 102.002 827.395 102.04 827.683C102.131 828.38 102.278 829.032 102.483 829.638C102.68 830.236 102.979 830.721 103.381 831.092C103.775 831.456 104.312 831.638 104.994 831.638C105.926 831.638 106.631 831.293 107.108 830.603C107.578 829.907 107.812 829.024 107.812 827.956ZM99.3125 812.788H109.812V815.47H92.358V812.879H95.0852V812.652C94.1989 812.243 93.4867 811.621 92.9489 810.788C92.4034 809.955 92.1307 808.879 92.1307 807.561C92.1307 806.379 92.3731 805.345 92.858 804.459C93.3352 803.572 94.0625 802.883 95.0398 802.39C96.0095 801.898 97.2367 801.652 98.7216 801.652H109.812V804.334H98.9034C97.5322 804.334 96.464 804.69 95.6989 805.402C94.9261 806.114 94.5398 807.091 94.5398 808.334C94.5398 809.19 94.7254 809.955 95.0966 810.629C95.4678 811.296 96.0095 811.822 96.7216 812.209C97.4337 812.595 98.2973 812.788 99.3125 812.788ZM98.5852 786.751H101.085V796.933H98.5852V786.751ZM109.812 781.669H86.5398V767.714H89.0398V778.851H96.9034V768.76H99.4034V778.851H109.813L109.812 781.669ZM110.176 757.214C110.176 758.896 109.805 760.347 109.063 761.567C108.313 762.779 107.267 763.714 105.926 764.373C104.578 765.025 103.009 765.351 101.222 765.351C99.4337 765.351 97.858 765.025 96.4943 764.373C95.1231 763.714 94.0549 762.798 93.2898 761.623C92.517 760.442 92.1307 759.063 92.1307 757.487C92.1307 756.578 92.2822 755.68 92.5852 754.794C92.8883 753.907 93.3807 753.101 94.0625 752.373C94.7367 751.646 95.6307 751.067 96.7443 750.635C97.858 750.203 99.2292 749.987 100.858 749.987H101.994V763.442H99.6761V752.714C98.6913 752.714 97.8125 752.911 97.0398 753.305C96.267 753.692 95.6572 754.245 95.2102 754.964C94.7633 755.676 94.5398 756.517 94.5398 757.487C94.5398 758.555 94.8049 759.479 95.3352 760.26C95.858 761.032 96.5398 761.627 97.3807 762.044C98.2216 762.46 99.1231 762.669 100.085 762.669H101.631C102.949 762.669 104.066 762.442 104.983 761.987C105.892 761.525 106.585 760.885 107.063 760.067C107.532 759.248 107.767 758.298 107.767 757.214C107.767 756.51 107.669 755.873 107.472 755.305C107.267 754.729 106.964 754.233 106.563 753.817C106.153 753.4 105.646 753.078 105.04 752.851L105.767 750.26C106.646 750.532 107.419 750.991 108.085 751.635C108.744 752.279 109.259 753.074 109.631 754.021C109.994 754.968 110.176 756.032 110.176 757.214ZM109.813 745.544H86.5398V742.862H95.1307V742.635C94.8277 742.438 94.4413 742.165 93.9716 741.817C93.4943 741.46 93.0701 740.953 92.6989 740.294C92.3201 739.627 92.1307 738.726 92.1307 737.589C92.1307 736.12 92.4981 734.824 93.233 733.703C93.9678 732.582 95.0095 731.707 96.358 731.078C97.7064 730.449 99.2973 730.135 101.131 730.135C102.979 730.135 104.581 730.449 105.938 731.078C107.286 731.707 108.331 732.578 109.074 733.692C109.809 734.805 110.176 736.089 110.176 737.544C110.176 738.665 109.991 739.563 109.619 740.237C109.241 740.911 108.812 741.43 108.335 741.794C107.85 742.157 107.449 742.438 107.131 742.635V742.953H109.813V745.544ZM101.085 742.907C102.403 742.907 103.566 742.714 104.574 742.328C105.574 741.942 106.358 741.377 106.926 740.635C107.487 739.892 107.767 738.983 107.767 737.907C107.767 736.786 107.472 735.851 106.881 735.101C106.282 734.343 105.479 733.775 104.472 733.396C103.456 733.01 102.328 732.817 101.085 732.817C99.858 732.817 98.7519 733.006 97.767 733.385C96.7746 733.756 95.9905 734.32 95.4148 735.078C94.8314 735.828 94.5398 736.771 94.5398 737.907C94.5398 738.998 94.8163 739.915 95.3693 740.657C95.9148 741.4 96.6799 741.96 97.6648 742.339C98.642 742.718 99.7822 742.907 101.085 742.907Z" fill="#838689"/>
<path d="M114.667 90.6667V92.2667C114.667 98.2663 114.667 101.266 116.195 103.369C116.688 104.048 117.285 104.645 117.964 105.139C120.067 106.667 123.067 106.667 129.067 106.667L130.667 106.667M130.667 109.965V124.267C130.667 130.266 130.667 133.266 129.139 135.369C128.645 136.048 128.048 136.645 127.369 137.139C125.266 138.667 122.266 138.667 116.267 138.667H107.733C101.734 138.667 98.734 138.667 96.6311 137.139C95.9519 136.645 95.3546 136.048 94.8612 135.369C93.3333 133.266 93.3333 130.266 93.3333 124.267L93.3333 105.067C93.3333 99.0671 93.3333 96.0673 94.8612 93.9644C95.3546 93.2852 95.9519 92.688 96.6311 92.1946C98.734 90.6667 101.734 90.6667 107.733 90.6667L111.369 90.6667C113.981 90.6667 115.287 90.6667 116.492 91.0582C116.89 91.1877 117.278 91.3484 117.652 91.5386C118.781 92.1139 119.704 93.0374 121.551 94.8844L126.449 99.7824C128.296 101.629 129.219 102.553 129.795 103.682C129.985 104.055 130.146 104.443 130.275 104.842C130.667 106.047 130.667 107.353 130.667 109.965Z" stroke="#061D19" stroke-width="4" stroke-linejoin="round"/>
<path d="M171.364 130.667H166.394L177.561 99.6364H182.97L194.136 130.667H189.167L180.394 105.273H180.152L171.364 130.667ZM172.197 118.515H188.318V122.455H172.197V118.515ZM212.996 121.015V107.394H217.542V130.667H213.087V126.636H212.845C212.309 127.879 211.451 128.914 210.269 129.742C209.097 130.561 207.638 130.97 205.89 130.97C204.395 130.97 203.072 130.641 201.92 129.985C200.779 129.318 199.88 128.333 199.223 127.03C198.577 125.727 198.254 124.116 198.254 122.197V107.394H202.784V121.652C202.784 123.237 203.223 124.5 204.102 125.439C204.981 126.379 206.122 126.849 207.527 126.849C208.375 126.849 209.218 126.636 210.057 126.212C210.905 125.788 211.607 125.146 212.163 124.288C212.729 123.429 213.006 122.338 212.996 121.015ZM234.492 107.394V111.03H221.78V107.394H234.492ZM225.189 101.818H229.72V123.833C229.72 124.712 229.851 125.374 230.114 125.818C230.376 126.253 230.715 126.551 231.129 126.712C231.553 126.864 232.013 126.939 232.508 126.939C232.871 126.939 233.189 126.914 233.462 126.864C233.735 126.813 233.947 126.773 234.098 126.742L234.917 130.485C234.654 130.586 234.28 130.687 233.795 130.788C233.311 130.899 232.705 130.96 231.977 130.97C230.785 130.99 229.674 130.778 228.644 130.333C227.614 129.889 226.78 129.202 226.144 128.273C225.508 127.343 225.189 126.177 225.189 124.773V101.818ZM249.057 131.136C246.875 131.136 244.971 130.636 243.345 129.636C241.718 128.636 240.456 127.237 239.557 125.439C238.658 123.641 238.208 121.54 238.208 119.136C238.208 116.722 238.658 114.611 239.557 112.803C240.456 110.995 241.718 109.591 243.345 108.591C244.971 107.591 246.875 107.091 249.057 107.091C251.239 107.091 253.143 107.591 254.769 108.591C256.395 109.591 257.658 110.995 258.557 112.803C259.456 114.611 259.905 116.722 259.905 119.136C259.905 121.54 259.456 123.641 258.557 125.439C257.658 127.237 256.395 128.636 254.769 129.636C253.143 130.636 251.239 131.136 249.057 131.136ZM249.072 127.333C250.486 127.333 251.658 126.96 252.587 126.212C253.516 125.465 254.203 124.47 254.648 123.227C255.102 121.985 255.33 120.616 255.33 119.121C255.33 117.636 255.102 116.273 254.648 115.03C254.203 113.778 253.516 112.773 252.587 112.015C251.658 111.258 250.486 110.879 249.072 110.879C247.648 110.879 246.466 111.258 245.527 112.015C244.597 112.773 243.905 113.778 243.451 115.03C243.006 116.273 242.784 117.636 242.784 119.121C242.784 120.616 243.006 121.985 243.451 123.227C243.905 124.47 244.597 125.465 245.527 126.212C246.466 126.96 247.648 127.333 249.072 127.333ZM264.962 130.667V107.394H269.311V111.182H269.598C270.083 109.899 270.876 108.899 271.977 108.182C273.078 107.455 274.396 107.091 275.932 107.091C277.487 107.091 278.79 107.455 279.841 108.182C280.902 108.909 281.684 109.909 282.189 111.182H282.432C282.987 109.939 283.871 108.95 285.083 108.212C286.295 107.465 287.74 107.091 289.417 107.091C291.528 107.091 293.25 107.753 294.583 109.076C295.927 110.399 296.598 112.394 296.598 115.061V130.667H292.068V115.485C292.068 113.909 291.639 112.768 290.78 112.061C289.922 111.354 288.896 111 287.705 111C286.23 111 285.083 111.455 284.265 112.364C283.447 113.263 283.038 114.419 283.038 115.833V130.667H278.523V115.197C278.523 113.934 278.129 112.919 277.341 112.152C276.553 111.384 275.528 111 274.265 111C273.407 111 272.614 111.227 271.886 111.682C271.169 112.126 270.588 112.747 270.144 113.545C269.71 114.343 269.492 115.268 269.492 116.318V130.667H264.962ZM309.443 131.182C307.968 131.182 306.635 130.909 305.443 130.364C304.251 129.808 303.307 129.005 302.61 127.955C301.923 126.904 301.58 125.616 301.58 124.091C301.58 122.778 301.832 121.697 302.337 120.849C302.842 120 303.524 119.328 304.383 118.833C305.241 118.338 306.201 117.965 307.261 117.712C308.322 117.46 309.403 117.268 310.504 117.136C311.898 116.975 313.029 116.843 313.898 116.742C314.766 116.631 315.398 116.455 315.792 116.212C316.186 115.97 316.383 115.576 316.383 115.03V114.924C316.383 113.601 316.009 112.576 315.261 111.849C314.524 111.121 313.423 110.758 311.958 110.758C310.433 110.758 309.231 111.096 308.352 111.773C307.484 112.439 306.883 113.182 306.549 114L302.292 113.03C302.797 111.616 303.534 110.475 304.504 109.606C305.484 108.727 306.61 108.091 307.883 107.697C309.155 107.293 310.494 107.091 311.898 107.091C312.827 107.091 313.812 107.202 314.852 107.424C315.903 107.636 316.883 108.03 317.792 108.606C318.711 109.182 319.463 110.005 320.049 111.076C320.635 112.136 320.928 113.515 320.928 115.212V130.667H316.504V127.485H316.322C316.029 128.071 315.59 128.646 315.004 129.212C314.418 129.778 313.665 130.247 312.746 130.621C311.827 130.995 310.726 131.182 309.443 131.182ZM310.428 127.545C311.681 127.545 312.751 127.298 313.64 126.803C314.539 126.308 315.221 125.662 315.686 124.864C316.16 124.056 316.398 123.192 316.398 122.273V119.273C316.236 119.434 315.923 119.586 315.458 119.727C315.004 119.859 314.484 119.975 313.898 120.076C313.312 120.167 312.741 120.253 312.186 120.333C311.63 120.404 311.165 120.465 310.792 120.515C309.913 120.626 309.11 120.813 308.383 121.076C307.665 121.338 307.09 121.717 306.655 122.212C306.231 122.697 306.019 123.343 306.019 124.152C306.019 125.273 306.433 126.121 307.261 126.697C308.09 127.263 309.145 127.545 310.428 127.545ZM337.826 107.394V111.03H325.114V107.394H337.826ZM328.523 101.818H333.053V123.833C333.053 124.712 333.184 125.374 333.447 125.818C333.71 126.253 334.048 126.551 334.462 126.712C334.886 126.864 335.346 126.939 335.841 126.939C336.205 126.939 336.523 126.914 336.795 126.864C337.068 126.813 337.28 126.773 337.432 126.742L338.25 130.485C337.987 130.586 337.614 130.687 337.129 130.788C336.644 130.899 336.038 130.96 335.311 130.97C334.119 130.99 333.008 130.778 331.977 130.333C330.947 129.889 330.114 129.202 329.477 128.273C328.841 127.343 328.523 126.177 328.523 124.773V101.818ZM352.617 131.136C350.325 131.136 348.35 130.646 346.693 129.667C345.047 128.677 343.774 127.288 342.875 125.5C341.986 123.702 341.542 121.596 341.542 119.182C341.542 116.798 341.986 114.697 342.875 112.879C343.774 111.061 345.027 109.641 346.633 108.621C348.249 107.601 350.138 107.091 352.299 107.091C353.612 107.091 354.885 107.308 356.117 107.742C357.35 108.177 358.456 108.859 359.436 109.788C360.415 110.717 361.188 111.924 361.754 113.409C362.319 114.884 362.602 116.677 362.602 118.788V120.394H344.102V117H358.163C358.163 115.808 357.92 114.753 357.436 113.833C356.951 112.904 356.269 112.172 355.39 111.636C354.521 111.101 353.501 110.833 352.33 110.833C351.057 110.833 349.946 111.146 348.996 111.773C348.057 112.389 347.33 113.197 346.814 114.197C346.309 115.187 346.057 116.263 346.057 117.424V120.076C346.057 121.631 346.33 122.955 346.875 124.045C347.431 125.136 348.203 125.97 349.193 126.545C350.183 127.111 351.34 127.394 352.663 127.394C353.521 127.394 354.304 127.273 355.011 127.03C355.718 126.778 356.33 126.404 356.845 125.909C357.36 125.414 357.754 124.803 358.027 124.076L362.314 124.849C361.971 126.111 361.355 127.217 360.466 128.167C359.587 129.106 358.481 129.838 357.148 130.364C355.825 130.879 354.314 131.136 352.617 131.136ZM376.341 131.121C374.462 131.121 372.785 130.641 371.311 129.682C369.846 128.712 368.694 127.333 367.856 125.545C367.028 123.747 366.614 121.591 366.614 119.076C366.614 116.561 367.033 114.409 367.871 112.621C368.72 110.833 369.881 109.465 371.356 108.515C372.831 107.566 374.503 107.091 376.371 107.091C377.816 107.091 378.977 107.333 379.856 107.818C380.745 108.293 381.432 108.849 381.917 109.485C382.412 110.121 382.795 110.682 383.068 111.167H383.341V99.6364H387.871V130.667H383.447V127.045H383.068C382.795 127.54 382.402 128.106 381.886 128.742C381.381 129.379 380.684 129.934 379.795 130.409C378.907 130.884 377.755 131.121 376.341 131.121ZM377.341 127.258C378.644 127.258 379.745 126.914 380.644 126.227C381.553 125.53 382.24 124.566 382.705 123.333C383.179 122.101 383.417 120.667 383.417 119.03C383.417 117.414 383.184 116 382.72 114.788C382.255 113.576 381.573 112.631 380.674 111.955C379.775 111.278 378.664 110.939 377.341 110.939C375.977 110.939 374.841 111.293 373.932 112C373.023 112.707 372.336 113.672 371.871 114.894C371.417 116.116 371.189 117.495 371.189 119.03C371.189 120.586 371.422 121.985 371.886 123.227C372.351 124.47 373.038 125.455 373.947 126.182C374.866 126.899 375.997 127.258 377.341 127.258ZM405.629 130.667V107.394H410.008V111.091H410.25C410.674 109.838 411.422 108.854 412.492 108.136C413.573 107.409 414.795 107.045 416.159 107.045C416.442 107.045 416.775 107.056 417.159 107.076C417.553 107.096 417.861 107.121 418.083 107.152V111.485C417.902 111.434 417.578 111.379 417.114 111.318C416.649 111.247 416.184 111.212 415.72 111.212C414.649 111.212 413.694 111.439 412.856 111.894C412.028 112.338 411.371 112.96 410.886 113.758C410.402 114.545 410.159 115.444 410.159 116.455V130.667L405.629 130.667ZM431.201 131.136C428.908 131.136 426.933 130.646 425.277 129.667C423.63 128.677 422.357 127.288 421.458 125.5C420.569 123.702 420.125 121.596 420.125 119.182C420.125 116.798 420.569 114.697 421.458 112.879C422.357 111.061 423.61 109.641 425.216 108.621C426.832 107.601 428.721 107.091 430.883 107.091C432.196 107.091 433.468 107.308 434.701 107.742C435.933 108.177 437.039 108.859 438.019 109.788C438.999 110.717 439.771 111.924 440.337 113.409C440.903 114.884 441.186 116.677 441.186 118.788V120.394H422.686V117H436.746C436.746 115.808 436.504 114.753 436.019 113.833C435.534 112.904 434.852 112.172 433.974 111.636C433.105 111.101 432.085 110.833 430.913 110.833C429.64 110.833 428.529 111.146 427.58 111.773C426.64 112.389 425.913 113.197 425.398 114.197C424.893 115.187 424.64 116.263 424.64 117.424V120.076C424.64 121.631 424.913 122.955 425.458 124.045C426.014 125.136 426.787 125.97 427.777 126.545C428.766 127.111 429.923 127.394 431.246 127.394C432.105 127.394 432.888 127.273 433.595 127.03C434.302 126.778 434.913 126.404 435.428 125.909C435.943 125.414 436.337 124.803 436.61 124.076L440.898 124.849C440.554 126.111 439.938 127.217 439.049 128.167C438.17 129.106 437.064 129.838 435.731 130.364C434.408 130.879 432.898 131.136 431.201 131.136ZM446.212 139.394V107.394H450.636V111.167H451.015C451.278 110.682 451.657 110.121 452.152 109.485C452.646 108.849 453.333 108.293 454.212 107.818C455.091 107.333 456.253 107.091 457.697 107.091C459.576 107.091 461.253 107.566 462.727 108.515C464.202 109.465 465.359 110.833 466.197 112.621C467.045 114.409 467.47 116.561 467.47 119.076C467.47 121.591 467.051 123.747 466.212 125.545C465.374 127.333 464.222 128.712 462.758 129.682C461.293 130.641 459.621 131.121 457.742 131.121C456.328 131.121 455.172 130.884 454.273 130.409C453.384 129.934 452.687 129.379 452.182 128.742C451.677 128.106 451.288 127.54 451.015 127.045H450.742V139.394H446.212ZM450.652 119.03C450.652 120.667 450.889 122.101 451.364 123.333C451.838 124.566 452.525 125.53 453.424 126.227C454.323 126.914 455.424 127.258 456.727 127.258C458.081 127.258 459.212 126.899 460.121 126.182C461.03 125.455 461.717 124.47 462.182 123.227C462.657 121.985 462.894 120.586 462.894 119.03C462.894 117.495 462.662 116.116 462.197 114.894C461.742 113.672 461.056 112.707 460.136 112C459.227 111.293 458.091 110.939 456.727 110.939C455.414 110.939 454.303 111.278 453.394 111.955C452.495 112.631 451.813 113.576 451.349 114.788C450.884 116 450.652 117.414 450.652 119.03ZM482.349 131.136C480.167 131.136 478.263 130.636 476.636 129.636C475.01 128.636 473.748 127.237 472.849 125.439C471.95 123.641 471.5 121.54 471.5 119.136C471.5 116.722 471.95 114.611 472.849 112.803C473.748 110.995 475.01 109.591 476.636 108.591C478.263 107.591 480.167 107.091 482.349 107.091C484.53 107.091 486.434 107.591 488.061 108.591C489.687 109.591 490.95 110.995 491.849 112.803C492.748 114.611 493.197 116.722 493.197 119.136C493.197 121.54 492.748 123.641 491.849 125.439C490.95 127.237 489.687 128.636 488.061 129.636C486.434 130.636 484.53 131.136 482.349 131.136ZM482.364 127.333C483.778 127.333 484.95 126.96 485.879 126.212C486.808 125.465 487.495 124.47 487.939 123.227C488.394 121.985 488.621 120.616 488.621 119.121C488.621 117.636 488.394 116.273 487.939 115.03C487.495 113.778 486.808 112.773 485.879 112.015C484.95 111.258 483.778 110.879 482.364 110.879C480.939 110.879 479.758 111.258 478.818 112.015C477.889 112.773 477.197 113.778 476.742 115.03C476.298 116.273 476.076 117.636 476.076 119.121C476.076 120.616 476.298 121.985 476.742 123.227C477.197 124.47 477.889 125.465 478.818 126.212C479.758 126.96 480.939 127.333 482.364 127.333ZM498.254 130.667V107.394H502.633V111.091H502.875C503.299 109.838 504.047 108.854 505.117 108.136C506.198 107.409 507.42 107.045 508.784 107.045C509.067 107.045 509.4 107.056 509.784 107.076C510.178 107.096 510.486 107.121 510.708 107.152V111.485C510.527 111.434 510.203 111.379 509.739 111.318C509.274 111.247 508.809 111.212 508.345 111.212C507.274 111.212 506.319 111.439 505.481 111.894C504.653 112.338 503.996 112.96 503.511 113.758C503.027 114.545 502.784 115.444 502.784 116.455V130.667H498.254ZM526.867 107.394V111.03H514.155V107.394H526.867ZM517.564 101.818H522.095V123.833C522.095 124.712 522.226 125.374 522.489 125.818C522.751 126.253 523.09 126.551 523.504 126.712C523.928 126.864 524.388 126.939 524.883 126.939C525.246 126.939 525.564 126.914 525.837 126.864C526.11 126.813 526.322 126.773 526.473 126.742L527.292 130.485C527.029 130.586 526.655 130.687 526.17 130.788C525.686 130.899 525.08 130.96 524.352 130.97C523.16 130.99 522.049 130.778 521.019 130.333C519.989 129.889 519.155 129.202 518.519 128.273C517.883 127.343 517.564 126.177 517.564 124.773V101.818ZM531.879 130.667V107.394H536.409V130.667H531.879ZM534.167 103.803C533.379 103.803 532.702 103.54 532.136 103.015C531.581 102.48 531.303 101.843 531.303 101.106C531.303 100.359 531.581 99.7222 532.136 99.197C532.702 98.6616 533.379 98.394 534.167 98.394C534.955 98.394 535.626 98.6616 536.182 99.197C536.747 99.7222 537.03 100.359 537.03 101.106C537.03 101.843 536.747 102.48 536.182 103.015C535.626 103.54 534.955 103.803 534.167 103.803ZM547.034 116.849V130.667H542.504V107.394H546.852V111.182H547.14C547.676 109.95 548.514 108.96 549.655 108.212C550.807 107.465 552.256 107.091 554.004 107.091C555.59 107.091 556.979 107.424 558.17 108.091C559.362 108.747 560.287 109.727 560.943 111.03C561.6 112.333 561.928 113.944 561.928 115.864V130.667H557.398V116.409C557.398 114.722 556.958 113.404 556.08 112.455C555.201 111.495 553.994 111.015 552.458 111.015C551.408 111.015 550.473 111.242 549.655 111.697C548.847 112.152 548.206 112.818 547.731 113.697C547.266 114.566 547.034 115.616 547.034 116.849ZM577.761 139.879C575.913 139.879 574.322 139.636 572.989 139.152C571.665 138.667 570.585 138.025 569.746 137.227C568.908 136.429 568.282 135.556 567.867 134.606L571.761 133C572.034 133.444 572.398 133.914 572.852 134.409C573.317 134.914 573.943 135.343 574.731 135.697C575.529 136.051 576.554 136.227 577.807 136.227C579.524 136.227 580.943 135.808 582.064 134.97C583.186 134.141 583.746 132.818 583.746 131V126.424H583.458C583.186 126.919 582.792 127.47 582.277 128.076C581.771 128.682 581.075 129.207 580.186 129.652C579.297 130.096 578.14 130.318 576.716 130.318C574.878 130.318 573.221 129.889 571.746 129.03C570.282 128.162 569.12 126.884 568.261 125.197C567.413 123.5 566.989 121.414 566.989 118.939C566.989 116.465 567.408 114.343 568.246 112.576C569.095 110.808 570.256 109.455 571.731 108.515C573.206 107.566 574.878 107.091 576.746 107.091C578.191 107.091 579.357 107.333 580.246 107.818C581.135 108.293 581.827 108.849 582.322 109.485C582.827 110.121 583.216 110.682 583.489 111.167H583.822V107.394H588.261V131.182C588.261 133.182 587.797 134.823 586.867 136.106C585.938 137.389 584.681 138.338 583.095 138.955C581.519 139.571 579.741 139.879 577.761 139.879ZM577.716 126.561C579.019 126.561 580.12 126.258 581.019 125.652C581.928 125.035 582.615 124.157 583.08 123.015C583.554 121.864 583.792 120.485 583.792 118.879C583.792 117.313 583.559 115.934 583.095 114.742C582.63 113.551 581.948 112.621 581.049 111.955C580.15 111.278 579.039 110.939 577.716 110.939C576.352 110.939 575.216 111.293 574.307 112C573.398 112.697 572.711 113.646 572.246 114.849C571.792 116.051 571.564 117.394 571.564 118.879C571.564 120.404 571.797 121.742 572.261 122.894C572.726 124.045 573.413 124.944 574.322 125.591C575.241 126.237 576.372 126.561 577.716 126.561Z" fill="#161516"/>
<g opacity="0.5">
<circle cx="714.667" cy="98.6666" r="5.33333" fill="#444444"/>
<circle cx="714.667" cy="114.667" r="5.33333" fill="#444444"/>
<circle cx="714.667" cy="130.667" r="5.33333" fill="#444444"/>
</g>
</svg>
