<svg xmlns="http://www.w3.org/2000/svg" width="287" height="177" fill="none"><g filter="url(#a)"><rect width="247" height="137" x="16" y="16" fill="#F3F3E5" rx="10" shape-rendering="crispEdges"/><path fill="#161516" d="M56.636 42.364V54h-1.363l-6.341-9.136h-.114V54H47.41V42.364h1.364l6.363 9.159h.114v-9.16h1.386zm6.297 11.818c-.84 0-1.566-.186-2.176-.557a3.737 3.737 0 0 1-1.403-1.568c-.326-.674-.489-1.459-.489-2.352 0-.894.163-1.682.489-2.364.33-.686.788-1.22 1.375-1.602.59-.387 1.28-.58 2.068-.58.454 0 .903.076 1.347.227.443.152.846.398 1.21.739.363.337.653.784.869 1.34.216.558.324 1.243.324 2.058v.568H59.82v-1.16h5.363c0-.492-.098-.931-.295-1.317a2.226 2.226 0 0 0-.83-.915c-.356-.224-.776-.335-1.261-.335-.534 0-.996.132-1.386.397a2.615 2.615 0 0 0-.892 1.023c-.209.42-.313.871-.313 1.352v.773c0 .66.114 1.218.34 1.676.232.455.552.801.961 1.04.41.235.885.352 1.426.352.352 0 .67-.049.955-.147.288-.103.536-.254.744-.455.208-.205.37-.458.483-.761l1.296.363c-.137.44-.366.826-.688 1.16-.322.329-.72.587-1.193.772a4.426 4.426 0 0 1-1.597.273zm9.45-8.91v1.137h-4.524v-1.136h4.523zm-3.205-2.09h1.34V51.5c0 .379.055.663.165.852.114.186.258.31.432.375.178.06.366.091.563.091.147 0 .269-.007.363-.023l.228-.045.272 1.205a2.72 2.72 0 0 1-.38.102c-.163.038-.37.057-.62.057-.379 0-.75-.082-1.113-.245a2.213 2.213 0 0 1-.898-.744c-.235-.333-.352-.754-.352-1.261v-8.682zM78.899 54v-8.727h1.296v1.318h.09c.16-.432.448-.782.864-1.051a2.542 2.542 0 0 1 1.41-.404c.098 0 .22.002.369.006.147.004.259.01.335.017v1.364a4.008 4.008 0 0 0-.313-.051 3.077 3.077 0 0 0-.505-.04c-.425 0-.803.089-1.137.267a1.954 1.954 0 0 0-1.068 1.778V54H78.9zm9.347.182c-.841 0-1.566-.186-2.176-.557a3.737 3.737 0 0 1-1.404-1.568c-.326-.674-.488-1.459-.488-2.352 0-.894.162-1.682.488-2.364.33-.686.788-1.22 1.375-1.602.591-.387 1.28-.58 2.068-.58.455 0 .904.076 1.347.227.443.152.847.398 1.21.739.364.337.654.784.87 1.34.215.558.323 1.243.323 2.058v.568h-6.727v-1.16h5.364c0-.492-.099-.931-.296-1.317a2.226 2.226 0 0 0-.83-.915c-.355-.224-.776-.335-1.26-.335-.535 0-.997.132-1.387.397a2.615 2.615 0 0 0-.892 1.023c-.208.42-.313.871-.313 1.352v.773c0 .66.114 1.218.341 1.676.231.455.552.801.96 1.04.41.235.885.352 1.427.352.352 0 .67-.049.954-.147.288-.103.536-.254.745-.455.208-.205.369-.458.483-.761l1.295.363c-.136.44-.365.826-.688 1.16-.322.329-.72.587-1.193.772a4.426 4.426 0 0 1-1.596.273zm12.524-8.91L97.543 54h-1.364l-3.227-8.727h1.454l2.41 6.954h.09l2.41-6.954h1.454zm5.116 8.91c-.841 0-1.566-.186-2.176-.557a3.733 3.733 0 0 1-1.403-1.568c-.326-.674-.489-1.459-.489-2.352 0-.894.163-1.682.489-2.364.329-.686.788-1.22 1.375-1.602.591-.387 1.28-.58 2.068-.58.455 0 .903.076 1.347.227a3.34 3.34 0 0 1 1.21.739c.363.337.653.784.869 1.34.216.558.324 1.243.324 2.058v.568h-6.727v-1.16h5.363c0-.492-.098-.931-.295-1.317a2.225 2.225 0 0 0-.83-.915c-.356-.224-.776-.335-1.261-.335-.534 0-.996.132-1.386.397a2.608 2.608 0 0 0-.892 1.023c-.209.42-.313.871-.313 1.352v.773c0 .66.114 1.218.341 1.676.231.455.551.801.96 1.04.409.235.885.352 1.426.352a2.9 2.9 0 0 0 .955-.147c.288-.103.536-.254.744-.455.209-.205.37-.458.483-.761l1.296.363a2.88 2.88 0 0 1-.688 1.16c-.322.329-.72.587-1.193.772a4.43 4.43 0 0 1-1.597.273zm6.995-5.432V54h-1.341v-8.727h1.295v1.363h.114c.204-.443.515-.799.932-1.068.416-.273.954-.409 1.613-.409.591 0 1.108.121 1.551.364.444.238.788.602 1.035 1.09.246.486.369 1.1.369 1.842V54h-1.341v-5.455c0-.685-.178-1.22-.534-1.602-.356-.386-.845-.58-1.466-.58a2.34 2.34 0 0 0-1.148.279 2 2 0 0 0-.79.813c-.193.356-.289.787-.289 1.295zm13.518 1.682v-5.16h1.341V54h-1.341v-1.477h-.091c-.204.443-.522.82-.954 1.13-.432.307-.978.46-1.637.46-.545 0-1.03-.119-1.454-.357-.424-.243-.758-.606-1-1.091-.243-.489-.364-1.104-.364-1.847v-5.545h1.341v5.454c0 .637.178 1.144.534 1.523.36.379.818.568 1.375.568a2.29 2.29 0 0 0 1.017-.255c.349-.171.64-.432.875-.785.239-.352.358-.8.358-1.346zm7.456 3.75c-.841 0-1.566-.186-2.176-.557a3.733 3.733 0 0 1-1.403-1.568c-.326-.674-.489-1.459-.489-2.352 0-.894.163-1.682.489-2.364.329-.686.787-1.22 1.375-1.602.59-.387 1.28-.58 2.068-.58.454 0 .903.076 1.346.227.444.152.847.398 1.211.739.363.337.653.784.869 1.34.216.558.324 1.243.324 2.058v.568h-6.728v-1.16h5.364c0-.492-.098-.931-.295-1.317a2.232 2.232 0 0 0-.83-.915c-.356-.224-.776-.335-1.261-.335-.534 0-.996.132-1.387.397a2.623 2.623 0 0 0-.892 1.023c-.208.42-.312.871-.312 1.352v.773c0 .66.113 1.218.341 1.676.231.455.551.801.96 1.04.409.235.884.352 1.426.352.352 0 .671-.049.955-.147.288-.103.536-.254.744-.455.208-.205.369-.458.483-.761l1.295.363a2.87 2.87 0 0 1-.687 1.16c-.322.329-.72.587-1.193.772a4.43 4.43 0 0 1-1.597.273z"/><circle cx="199" cy="48" r="2" fill="#061D19"/><circle cx="208" cy="48" r="2" fill="#061D19"/><circle cx="217" cy="48" r="2" fill="#061D19"/><path fill="#161516" d="M51.299 84.636V68.273h1.048v16.363H51.3zm3.28-11.288c-.07-.605-.35-1.074-.845-1.406-.494-.337-1.116-.505-1.866-.505-.537 0-1.002.085-1.394.255-.392.167-.696.397-.914.69-.213.29-.32.62-.32.992 0 .31.073.58.218.805.15.226.343.415.582.569a4.4 4.4 0 0 0 .78.377c.277.098.543.179.799.243l1.278.332a9.81 9.81 0 0 1 1.285.416 5.15 5.15 0 0 1 1.22.69c.376.286.678.64.908 1.061.235.422.352.927.352 1.515 0 .742-.192 1.4-.575 1.975-.38.576-.931 1.03-1.656 1.362-.72.332-1.591.498-2.614.498-.98 0-1.828-.155-2.544-.466-.716-.311-1.277-.752-1.681-1.323-.405-.576-.629-1.257-.672-2.046h1.982c.038.473.192.867.46 1.183.273.31.62.543 1.042.696.426.15.893.224 1.4.224.558 0 1.055-.087 1.49-.262.438-.179.783-.426 1.035-.742.251-.32.377-.692.377-1.118 0-.388-.11-.705-.332-.953-.218-.247-.514-.451-.889-.613a8.682 8.682 0 0 0-1.26-.428l-1.546-.422c-1.048-.286-1.88-.706-2.493-1.26-.61-.553-.914-1.286-.914-2.198 0-.755.205-1.413.614-1.976.409-.562.963-.999 1.662-1.31.698-.315 1.487-.473 2.365-.473.886 0 1.668.156 2.346.467.681.31 1.218.74 1.61 1.284.392.542.597 1.164.614 1.867h-1.905zm9.23-3.439V83h-1.98V71.89h-.077l-3.133 2.046v-1.892l3.267-2.135h1.924zM67.352 83v-1.432l4.43-4.59c.473-.498.863-.935 1.17-1.31.31-.379.543-.739.696-1.08.154-.34.23-.703.23-1.087 0-.434-.102-.81-.306-1.125a2.006 2.006 0 0 0-.838-.735 2.663 2.663 0 0 0-1.195-.262c-.469 0-.878.096-1.227.288a1.97 1.97 0 0 0-.806.812c-.187.35-.281.758-.281 1.227h-1.886c0-.797.184-1.494.55-2.09a3.733 3.733 0 0 1 1.508-1.387c.64-.333 1.366-.499 2.18-.499.823 0 1.547.164 2.174.492.63.324 1.122.767 1.476 1.33a3.46 3.46 0 0 1 .53 1.892c0 .486-.091.96-.274 1.425-.18.465-.492.983-.94 1.554-.447.566-1.07 1.255-1.866 2.064l-2.602 2.723v.096h5.894V83H67.35zm15.597.179c-.878 0-1.662-.151-2.353-.454-.686-.302-1.23-.722-1.63-1.26a3.343 3.343 0 0 1-.639-1.878h2.007c.026.387.156.724.39 1.01.239.28.55.498.933.652.384.153.81.23 1.279.23.516 0 .971-.09 1.368-.269.4-.179.713-.428.94-.748a1.91 1.91 0 0 0 .338-1.118 2.01 2.01 0 0 0-.339-1.157c-.221-.337-.547-.601-.978-.793-.426-.192-.941-.288-1.546-.288h-1.106v-1.61h1.106c.485 0 .911-.088 1.278-.262.37-.175.66-.418.87-.729.208-.315.312-.684.312-1.106 0-.405-.091-.756-.274-1.055a1.847 1.847 0 0 0-.767-.71c-.329-.17-.716-.255-1.164-.255-.426 0-.824.08-1.195.237a2.207 2.207 0 0 0-.895.665 1.71 1.71 0 0 0-.37 1.029H78.6c.021-.708.23-1.33.627-1.867a4.05 4.05 0 0 1 1.585-1.26c.656-.302 1.385-.453 2.186-.453.84 0 1.564.164 2.173.492.614.324 1.087.757 1.42 1.298.336.541.502 1.133.498 1.777.004.733-.2 1.355-.614 1.866-.41.512-.954.855-1.636 1.03v.102c.869.132 1.542.477 2.02 1.035.481.558.72 1.251.716 2.078a3.234 3.234 0 0 1-.601 1.936c-.401.572-.948 1.021-1.643 1.35-.695.323-1.49.485-2.384.485zm9.169-1.969-.096.697a11.207 11.207 0 0 1-.326 1.598 24.63 24.63 0 0 1-.466 1.553c-.158.477-.288.857-.39 1.138h-1.355c.055-.264.132-.622.23-1.074.098-.447.194-.948.287-1.502.094-.554.164-1.119.211-1.694l.064-.716h1.841zm6.756 2.007c-1.01-.004-1.873-.27-2.588-.799-.716-.528-1.264-1.297-1.643-2.307-.38-1.01-.569-2.227-.569-3.65 0-1.42.19-2.632.569-3.637.383-1.006.933-1.773 1.649-2.301.72-.529 1.581-.793 2.582-.793 1.002 0 1.86.266 2.576.8.716.528 1.264 1.295 1.643 2.3.384 1.002.575 2.212.575 3.63 0 1.428-.189 2.647-.568 3.657-.38 1.006-.927 1.775-1.643 2.308-.716.528-1.577.792-2.583.792zm0-1.706c.887 0 1.579-.433 2.078-1.298.503-.865.754-2.116.754-3.752 0-1.087-.115-2.005-.345-2.755-.226-.754-.552-1.325-.978-1.713a2.14 2.14 0 0 0-1.509-.588c-.882 0-1.574.434-2.077 1.304-.503.87-.756 2.12-.76 3.752 0 1.09.112 2.013.338 2.768.23.75.556 1.319.978 1.706.422.384.93.576 1.521.576zm11.62 1.706c-1.01-.004-1.873-.27-2.589-.799-.716-.528-1.264-1.297-1.643-2.307s-.569-2.227-.569-3.65c0-1.42.19-2.632.569-3.637.384-1.006.933-1.773 1.649-2.301.72-.529 1.581-.793 2.583-.793 1.001 0 1.86.266 2.576.8.715.528 1.263 1.295 1.642 2.3.384 1.002.576 2.212.576 3.63 0 1.428-.19 2.647-.569 3.657-.38 1.006-.927 1.775-1.643 2.308-.716.528-1.577.792-2.582.792zm0-1.706c.886 0 1.578-.433 2.077-1.298.503-.865.754-2.116.754-3.752 0-1.087-.115-2.005-.345-2.755-.226-.754-.552-1.325-.978-1.713a2.14 2.14 0 0 0-1.508-.588c-.883 0-1.575.434-2.078 1.304-.503.87-.756 2.12-.761 3.752 0 1.09.113 2.013.339 2.768.23.75.556 1.319.978 1.706.422.384.929.576 1.522.576zm11.619 1.706c-1.01-.004-1.873-.27-2.589-.799-.716-.528-1.264-1.297-1.643-2.307s-.569-2.227-.569-3.65c0-1.42.19-2.632.569-3.637.384-1.006.933-1.773 1.649-2.301.72-.529 1.581-.793 2.583-.793 1.001 0 1.86.266 2.576.8.716.528 1.263 1.295 1.642 2.3.384 1.002.576 2.212.576 3.63 0 1.428-.19 2.647-.569 3.657-.379 1.006-.927 1.775-1.643 2.308-.716.528-1.577.792-2.582.792zm0-1.706c.886 0 1.579-.433 2.077-1.298.503-.865.754-2.116.754-3.752 0-1.087-.115-2.005-.345-2.755-.226-.754-.552-1.325-.978-1.713a2.14 2.14 0 0 0-1.508-.588c-.882 0-1.575.434-2.078 1.304-.503.87-.756 2.12-.76 3.752 0 1.09.113 2.013.338 2.768.231.75.557 1.319.978 1.706.422.384.929.576 1.522.576z"/><path fill="#061D19" d="m56.97 111.4.494-.869-.712-.405-.537.617.754.657zm6.638 3.78-.494.869.718.409.537-.629-.76-.649zm11.389-12.259a1 1 0 0 0-1.076-.918l-8.972.711a1 1 0 0 0 .158 1.994l7.975-.632.632 7.975a1 1 0 0 0 1.994-.158l-.711-8.972zm-28.243 21.736 10.97-12.6-1.51-1.314-10.968 12.6 1.508 1.314zm9.72-12.388 6.64 3.78.989-1.738-6.64-3.78-.989 1.738zm7.895 3.56 10.392-12.18-1.522-1.298-10.392 12.18 1.522 1.298zm25.211 9.35c-.8 0-1.521-.153-2.16-.46a3.92 3.92 0 0 1-1.522-1.279 3.375 3.375 0 0 1-.607-1.853h1.918c.047.562.296 1.025.748 1.387.451.362.993.543 1.623.543.503 0 .948-.115 1.336-.345.392-.234.7-.556.92-.965.227-.409.34-.876.34-1.4 0-.533-.116-1.008-.346-1.426a2.554 2.554 0 0 0-.952-.984c-.4-.239-.861-.36-1.38-.364a3.7 3.7 0 0 0-1.196.204c-.4.137-.725.316-.972.537l-1.809-.268.735-6.597h7.198v1.694h-5.555l-.415 3.663h.076c.256-.248.595-.454 1.017-.62.426-.167.882-.25 1.368-.25.797 0 1.506.19 2.128.569a4.043 4.043 0 0 1 1.477 1.553c.362.652.54 1.402.537 2.25.004.848-.188 1.605-.576 2.27a4.167 4.167 0 0 1-1.598 1.572c-.677.379-1.455.569-2.333.569zm13.674-2.634v-.69c0-.494.103-.946.307-1.355.209-.413.512-.744.908-.991.4-.251.884-.377 1.451-.377.579 0 1.065.124 1.457.371.392.247.689.577.889.991.204.413.307.867.307 1.361v.69c0 .495-.103.949-.307 1.362a2.468 2.468 0 0 1-.901.991c-.393.247-.874.37-1.445.37-.575 0-1.061-.123-1.457-.37a2.463 2.463 0 0 1-.902-.991 3.033 3.033 0 0 1-.307-1.362zm1.49-.69v.69c0 .367.087.699.262.998.175.298.479.447.914.447.43 0 .731-.149.901-.447.171-.299.256-.631.256-.998v-.69c0-.366-.083-.699-.249-.997-.162-.298-.465-.447-.908-.447-.426 0-.729.149-.908.447a1.9 1.9 0 0 0-.268.997zm-8.073-6.801v-.69c0-.495.102-.949.306-1.362.21-.413.512-.743.908-.991.4-.247.884-.37 1.451-.37.58 0 1.065.123 1.458.37.392.248.688.578.888.991.2.413.3.867.3 1.362v.69c0 .494-.102.948-.306 1.361-.201.41-.499.74-.895.991-.392.247-.874.371-1.445.371-.58 0-1.067-.124-1.464-.371a2.464 2.464 0 0 1-.894-.991 3.024 3.024 0 0 1-.307-1.361zm1.495-.69v.69c0 .366.086.699.256.997.175.298.48.448.914.448.426 0 .725-.15.895-.448.175-.298.262-.631.262-.997v-.69a2.02 2.02 0 0 0-.249-.998c-.166-.298-.469-.447-.908-.447-.426 0-.729.149-.908.447a1.94 1.94 0 0 0-.262.998zM97.278 125l9-13.091h1.528l-9 13.091h-1.528z"/><path fill="#161516" d="m127.886 112.364 3.455 9.795h.136l3.455-9.795h1.477L132.136 124h-1.454l-4.273-11.636h1.477zm16.699 2.909a1.782 1.782 0 0 0-.829-1.341c-.485-.318-1.08-.477-1.784-.477-.516 0-.966.083-1.353.25a2.152 2.152 0 0 0-.897.687 1.643 1.643 0 0 0-.319.994c0 .311.074.578.222.802.152.219.345.403.58.551.234.144.481.263.738.358.258.09.495.164.71.221l1.182.318c.303.08.64.19 1.012.33.375.14.733.331 1.073.574.345.238.629.545.853.92.223.375.335.835.335 1.381 0 .629-.165 1.197-.494 1.704-.326.508-.803.911-1.432 1.211-.625.299-1.385.449-2.279.449-.833 0-1.555-.135-2.164-.404-.606-.269-1.084-.644-1.432-1.125a3.203 3.203 0 0 1-.585-1.676h1.454c.038.439.186.803.443 1.091.262.284.591.496.989.636.401.137.833.205 1.295.205.538 0 1.021-.087 1.449-.262.428-.178.767-.424 1.017-.738.25-.318.375-.69.375-1.114 0-.386-.108-.701-.324-.943a2.381 2.381 0 0 0-.852-.591 9.083 9.083 0 0 0-1.142-.398l-1.432-.409c-.909-.261-1.628-.634-2.159-1.119-.53-.485-.795-1.119-.795-1.903 0-.652.176-1.22.528-1.705a3.51 3.51 0 0 1 1.432-1.136c.602-.273 1.275-.409 2.017-.409.75 0 1.417.134 2 .403.583.265 1.046.629 1.386 1.091.345.462.527.987.546 1.574h-1.364zm10.983-2.909V124h-1.341v-11.636h1.341zm5.024 11.841a3.546 3.546 0 0 1-1.505-.313 2.58 2.58 0 0 1-1.074-.915c-.265-.401-.398-.886-.398-1.454 0-.5.099-.906.296-1.216.196-.315.46-.561.789-.739.33-.178.693-.31 1.091-.398.402-.09.805-.162 1.21-.215.531-.069.961-.12 1.29-.154.334-.038.576-.1.727-.187.156-.087.233-.239.233-.455v-.045c0-.561-.153-.997-.46-1.307-.303-.311-.763-.466-1.38-.466-.641 0-1.143.14-1.506.42-.364.281-.619.58-.767.898l-1.273-.454c.227-.531.53-.944.909-1.239a3.406 3.406 0 0 1 1.25-.625 5.205 5.205 0 0 1 1.341-.182c.28 0 .602.034.966.102a3.09 3.09 0 0 1 1.062.404c.345.204.631.513.858.926.228.413.341.966.341 1.659V124h-1.341v-1.182h-.068c-.091.19-.242.392-.454.608-.212.216-.495.4-.847.551-.352.152-.782.228-1.29.228zm.205-1.205c.53 0 .977-.104 1.341-.312a2.133 2.133 0 0 0 1.113-1.847v-1.227c-.056.068-.181.13-.375.187a6.143 6.143 0 0 1-.659.142 27.7 27.7 0 0 1-.721.102c-.231.027-.419.05-.563.069a5.114 5.114 0 0 0-.977.221 1.684 1.684 0 0 0-.727.449c-.182.197-.273.466-.273.807 0 .466.172.818.517 1.057.348.235.79.352 1.324.352zm12.425-5.773-1.205.341a2.224 2.224 0 0 0-.335-.585 1.63 1.63 0 0 0-.591-.477c-.25-.125-.57-.188-.96-.188-.534 0-.979.123-1.336.37-.352.242-.528.551-.528.926 0 .333.121.596.364.789.242.194.621.355 1.136.483l1.295.319c.781.189 1.362.479 1.745.869.382.386.574.884.574 1.494 0 .5-.144.947-.432 1.341-.284.394-.682.705-1.193.932-.512.227-1.106.341-1.784.341-.891 0-1.627-.193-2.211-.58-.583-.386-.952-.95-1.108-1.693l1.273-.318c.121.47.351.822.688 1.057.341.235.786.352 1.335.352.625 0 1.121-.133 1.489-.398.371-.269.556-.591.556-.966 0-.303-.106-.556-.318-.761-.212-.208-.538-.364-.977-.466l-1.455-.341c-.799-.189-1.386-.483-1.761-.88-.371-.402-.557-.904-.557-1.506 0-.493.138-.928.415-1.307a2.82 2.82 0 0 1 1.142-.892c.485-.216 1.034-.324 1.648-.324.863 0 1.541.189 2.034.568a3.07 3.07 0 0 1 1.057 1.5zm5.973-1.954v1.136h-4.523v-1.136h4.523zm-3.205-2.091h1.341v8.318c0 .379.055.663.165.852a.845.845 0 0 0 .432.375c.178.061.365.091.562.091.148 0 .269-.007.364-.023l.227-.045.273 1.205a2.74 2.74 0 0 1-.381.102 2.792 2.792 0 0 1-.619.057 2.7 2.7 0 0 1-1.114-.245 2.217 2.217 0 0 1-.898-.744c-.235-.333-.352-.754-.352-1.261v-8.682zM185.712 124v-8.727h1.295v1.363h.114c.182-.466.475-.827.88-1.085.406-.261.892-.392 1.461-.392.575 0 1.055.131 1.437.392.387.258.688.619.904 1.085h.09c.224-.45.559-.808 1.006-1.074.447-.268.983-.403 1.608-.403.78 0 1.419.244 1.915.733.496.485.744 1.241.744 2.267V124h-1.341v-5.841c0-.644-.176-1.104-.528-1.381a1.957 1.957 0 0 0-1.244-.414c-.614 0-1.089.185-1.427.556-.337.368-.505.834-.505 1.398V124h-1.364v-5.977c0-.496-.161-.896-.483-1.199-.322-.307-.737-.46-1.244-.46-.349 0-.674.092-.977.278-.3.186-.542.443-.728.773a2.277 2.277 0 0 0-.272 1.13V124h-1.341zm17.451.182c-.788 0-1.479-.188-2.074-.563-.59-.375-1.053-.899-1.386-1.574-.329-.674-.494-1.462-.494-2.363 0-.909.165-1.703.494-2.381.333-.678.796-1.204 1.386-1.579.595-.375 1.286-.563 2.074-.563.788 0 1.478.188 2.069.563.594.375 1.056.901 1.386 1.579.333.678.5 1.472.5 2.381 0 .901-.167 1.689-.5 2.363a3.772 3.772 0 0 1-1.386 1.574c-.591.375-1.281.563-2.069.563zm0-1.205c.599 0 1.091-.153 1.478-.46a2.72 2.72 0 0 0 .858-1.21c.185-.5.278-1.042.278-1.625 0-.584-.093-1.127-.278-1.631a2.748 2.748 0 0 0-.858-1.221c-.387-.311-.879-.466-1.478-.466-.598 0-1.091.155-1.477.466-.386.31-.672.717-.858 1.221a4.695 4.695 0 0 0-.278 1.631c0 .583.093 1.125.278 1.625.186.5.472.903.858 1.21.386.307.879.46 1.477.46zm7.343-4.227V124h-1.341v-8.727h1.295v1.363h.114c.204-.443.515-.799.932-1.068.416-.273.954-.409 1.613-.409.591 0 1.108.121 1.551.364.444.238.788.602 1.035 1.091.246.484.369 1.098.369 1.841V124h-1.341v-5.455c0-.685-.178-1.219-.534-1.602-.356-.386-.845-.579-1.466-.579-.428 0-.811.092-1.148.278a1.998 1.998 0 0 0-.79.813c-.193.356-.289.787-.289 1.295zm11.814-3.477v1.136h-4.523v-1.136h4.523zm-3.205-2.091h1.341v8.318c0 .379.055.663.165.852a.845.845 0 0 0 .432.375c.178.061.365.091.562.091.148 0 .269-.007.364-.023l.227-.045.273 1.205a2.74 2.74 0 0 1-.381.102 2.792 2.792 0 0 1-.619.057 2.7 2.7 0 0 1-1.114-.245 2.217 2.217 0 0 1-.898-.744c-.235-.333-.352-.754-.352-1.261v-8.682zm6.75 5.568V124h-1.341v-11.636h1.341v4.272h.114c.204-.45.511-.808.92-1.074.413-.268.962-.403 1.648-.403.595 0 1.115.119 1.562.358a2.41 2.41 0 0 1 1.04 1.085c.25.485.375 1.103.375 1.853V124h-1.341v-5.455c0-.693-.18-1.229-.54-1.607-.356-.383-.85-.574-1.482-.574-.44 0-.834.092-1.182.278a2.025 2.025 0 0 0-.818.813c-.197.356-.296.787-.296 1.295z"/></g><defs><filter id="a" width="287" height="177" x="0" y="0" color-interpolation-filters="sRGB" filterUnits="userSpaceOnUse"><feFlood flood-opacity="0" result="BackgroundImageFix"/><feColorMatrix in="SourceAlpha" result="hardAlpha" values="0 0 0 0 0 0 0 0 0 0 0 0 0 0 0 0 0 0 127 0"/><feOffset dx="4" dy="4"/><feGaussianBlur stdDeviation="10"/><feComposite in2="hardAlpha" operator="out"/><feColorMatrix values="0 0 0 0 0.770833 0 0 0 0 0.748351 0 0 0 0 0.748351 0 0 0 0.2 0"/><feBlend in2="BackgroundImageFix" result="effect1_dropShadow_164_1924"/><feBlend in="SourceGraphic" in2="effect1_dropShadow_164_1924" result="shape"/></filter></defs></svg>