<svg width="286" height="115" viewBox="0 0 286 115" fill="none" xmlns="http://www.w3.org/2000/svg">
<rect y="0.5" width="285.059" height="114.401" rx="16" fill="#F3F3E5"/>
<path fill-rule="evenodd" clip-rule="evenodd" d="M24.4126 34.4563V46.1005C24.4126 46.8041 24.6919 47.4786 25.1896 47.9755C25.6864 48.4732 26.3609 48.7525 27.0646 48.7525H44.7448C45.4485 48.7525 46.123 48.4732 46.6198 47.9755C47.1175 47.4786 47.3969 46.8041 47.3969 46.1005V34.4563C47.7664 34.3263 48.1058 34.1141 48.3878 33.8313C48.8855 33.3344 49.1649 32.6599 49.1649 31.9563V28.4202C49.1649 27.7166 48.8855 27.0421 48.3878 26.5452C47.891 26.0475 47.2165 25.7682 46.5129 25.7682C41.9567 25.7682 29.8528 25.7682 25.2966 25.7682C24.5929 25.7682 23.9184 26.0475 23.4216 26.5452C22.9239 27.0421 22.6445 27.7166 22.6445 28.4202V31.9563C22.6445 32.6599 22.9239 33.3344 23.4216 33.8313C23.7036 34.1141 24.043 34.3263 24.4126 34.4563ZM26.1806 34.6083V46.1005C26.1806 46.3347 26.2734 46.5602 26.4396 46.7255C26.6049 46.8917 26.8303 46.9845 27.0646 46.9845H44.7448C44.9791 46.9845 45.2045 46.8917 45.3698 46.7255C45.536 46.5602 45.6288 46.3347 45.6288 46.1005V34.6083H26.1806ZM47.3969 28.4202V31.9563C47.3969 32.1905 47.3041 32.416 47.1379 32.5813C46.9725 32.7475 46.7471 32.8403 46.5129 32.8403H25.2966C25.0623 32.8403 24.8369 32.7475 24.6716 32.5813C24.5054 32.416 24.4126 32.1905 24.4126 31.9563V28.4202C24.4126 28.186 24.5054 27.9605 24.6716 27.7952C24.8369 27.629 25.0623 27.5362 25.2966 27.5362H46.5129C46.7471 27.5362 46.9725 27.629 47.1379 27.7952C47.3041 27.9605 47.3969 28.186 47.3969 28.4202Z" fill="#061D19"/>
<path fill-rule="evenodd" clip-rule="evenodd" d="M31.4856 38.1441H40.3257C40.8137 38.1441 41.2097 37.7481 41.2097 37.2601C41.2097 36.7721 40.8137 36.3761 40.3257 36.3761H31.4856C30.9976 36.3761 30.6016 36.7721 30.6016 37.2601C30.6016 37.7481 30.9976 38.1441 31.4856 38.1441Z" fill="#061D19"/>
<path d="M67.8093 44.2603V31.1694H72.4755C73.494 31.1694 74.3377 31.3548 75.0067 31.7255C75.6758 32.0963 76.1765 32.6034 76.5089 33.2468C76.8413 33.886 77.0075 34.6062 77.0075 35.4073C77.0075 36.2127 76.8391 36.9372 76.5025 37.5806C76.1701 38.2198 75.6673 38.7269 74.994 39.1019C74.3249 39.4727 73.4833 39.658 72.4691 39.658H69.2603V37.9833H72.2901C72.9336 37.9833 73.4556 37.8725 73.8562 37.6509C74.2567 37.4251 74.5508 37.1183 74.7383 36.7305C74.9258 36.3427 75.0195 35.9016 75.0195 35.4073C75.0195 34.913 74.9258 34.4741 74.7383 34.0906C74.5508 33.707 74.2546 33.4066 73.8498 33.1893C73.4492 32.972 72.9208 32.8633 72.2646 32.8633H69.7844V44.2603H67.8093ZM79.1696 44.2603V34.4421H81.0169V36.0018H81.1191C81.2981 35.4734 81.6135 35.0579 82.0652 34.7553C82.5211 34.4485 83.0368 34.2951 83.612 34.2951C83.7314 34.2951 83.872 34.2994 84.0339 34.3079C84.2001 34.3164 84.3301 34.3271 84.4238 34.3399V36.168C84.3471 36.1467 84.2108 36.1232 84.0147 36.0977C83.8187 36.0678 83.6227 36.0529 83.4267 36.0529C82.975 36.0529 82.5723 36.1488 82.2186 36.3406C81.8691 36.5281 81.5922 36.7901 81.3876 37.1268C81.1831 37.4592 81.0808 37.8384 81.0808 38.2646V44.2603H79.1696ZM89.8619 44.4585C88.9414 44.4585 88.1381 44.2475 87.4521 43.8257C86.766 43.4038 86.2333 42.8136 85.854 42.0551C85.4748 41.2965 85.2852 40.4102 85.2852 39.396C85.2852 38.3775 85.4748 37.4869 85.854 36.7241C86.2333 35.9613 86.766 35.369 87.4521 34.9471C88.1381 34.5252 88.9414 34.3143 89.8619 34.3143C90.7823 34.3143 91.5856 34.5252 92.2717 34.9471C92.9577 35.369 93.4904 35.9613 93.8697 36.7241C94.2489 37.4869 94.4386 38.3775 94.4386 39.396C94.4386 40.4102 94.2489 41.2965 93.8697 42.0551C93.4904 42.8136 92.9577 43.4038 92.2717 43.8257C91.5856 44.2475 90.7823 44.4585 89.8619 44.4585ZM89.8683 42.8541C90.4648 42.8541 90.9592 42.6964 91.3512 42.3811C91.7433 42.0657 92.033 41.646 92.2205 41.1218C92.4123 40.5977 92.5082 40.0203 92.5082 39.3896C92.5082 38.7632 92.4123 38.1879 92.2205 37.6637C92.033 37.1353 91.7433 36.7113 91.3512 36.3917C90.9592 36.0721 90.4648 35.9123 89.8683 35.9123C89.2674 35.9123 88.7688 36.0721 88.3725 36.3917C87.9805 36.7113 87.6886 37.1353 87.4968 37.6637C87.3093 38.1879 87.2156 38.7632 87.2156 39.3896C87.2156 40.0203 87.3093 40.5977 87.4968 41.1218C87.6886 41.646 87.9805 42.0657 88.3725 42.3811C88.7688 42.6964 89.2674 42.8541 89.8683 42.8541ZM100.247 44.4521C99.4547 44.4521 98.7473 44.2497 98.1252 43.8448C97.5073 43.4357 97.0215 42.8541 96.6678 42.0998C96.3184 41.3413 96.1436 40.4315 96.1436 39.3704C96.1436 38.3093 96.3205 37.4016 96.6742 36.6474C97.0321 35.8931 97.5222 35.3157 98.1444 34.9151C98.7665 34.5146 99.4718 34.3143 100.26 34.3143C100.869 34.3143 101.36 34.4166 101.73 34.6211C102.105 34.8214 102.395 35.0558 102.6 35.3242C102.808 35.5927 102.97 35.8292 103.085 36.0338H103.2V31.1694H105.112V44.2603H103.245V42.7326H103.085C102.97 42.9414 102.804 43.1801 102.587 43.4485C102.374 43.717 102.08 43.9514 101.705 44.1517C101.33 44.3519 100.844 44.4521 100.247 44.4521ZM100.669 42.8221C101.219 42.8221 101.683 42.6772 102.063 42.3874C102.446 42.0934 102.736 41.6865 102.932 41.1666C103.132 40.6467 103.232 40.0416 103.232 39.3512C103.232 38.6694 103.134 38.0728 102.938 37.5615C102.742 37.0501 102.455 36.6516 102.075 36.3661C101.696 36.0806 101.227 35.9379 100.669 35.9379C100.094 35.9379 99.6145 36.087 99.231 36.3853C98.8475 36.6836 98.5577 37.0906 98.3617 37.6062C98.1699 38.1218 98.074 38.7035 98.074 39.3512C98.074 40.0075 98.1721 40.5977 98.3681 41.1218C98.5641 41.646 98.8539 42.0615 99.2374 42.3683C99.6252 42.6708 100.102 42.8221 100.669 42.8221ZM114.059 40.1886V34.4421H115.977V44.2603H114.097V42.56H113.995C113.769 43.0842 113.407 43.521 112.908 43.8704C112.414 44.2156 111.798 44.3882 111.061 44.3882C110.43 44.3882 109.872 44.2497 109.386 43.9727C108.905 43.6914 108.526 43.2759 108.249 42.7262C107.976 42.1765 107.839 41.4968 107.839 40.6872V34.4421H109.751V40.457C109.751 41.1261 109.936 41.6588 110.307 42.0551C110.678 42.4514 111.159 42.6495 111.751 42.6495C112.109 42.6495 112.465 42.56 112.819 42.3811C113.177 42.2021 113.473 41.9315 113.707 41.5693C113.946 41.207 114.063 40.7468 114.059 40.1886ZM122.68 44.4585C121.73 44.4585 120.912 44.2433 120.226 43.8129C119.544 43.3782 119.02 42.7795 118.653 42.0167C118.287 41.2539 118.104 40.3803 118.104 39.396C118.104 38.3988 118.291 37.5188 118.666 36.7561C119.041 35.989 119.569 35.3903 120.251 34.9599C120.933 34.5295 121.736 34.3143 122.661 34.3143C123.407 34.3143 124.072 34.4528 124.655 34.7298C125.239 35.0025 125.71 35.386 126.068 35.8803C126.43 36.3747 126.645 36.9521 126.714 37.6126H124.854C124.751 37.1524 124.517 36.7561 124.15 36.4237C123.788 36.0913 123.302 35.9251 122.693 35.9251C122.16 35.9251 121.694 36.0657 121.293 36.347C120.897 36.624 120.588 37.0203 120.366 37.5359C120.145 38.0472 120.034 38.6524 120.034 39.3512C120.034 40.0671 120.143 40.685 120.36 41.2049C120.577 41.7248 120.884 42.1275 121.28 42.413C121.681 42.6985 122.152 42.8413 122.693 42.8413C123.055 42.8413 123.383 42.7752 123.677 42.6431C123.976 42.5068 124.225 42.3129 124.425 42.0615C124.63 41.81 124.773 41.5075 124.854 41.1538H126.714C126.645 41.7887 126.439 42.3555 126.094 42.8541C125.748 43.3526 125.286 43.7447 124.706 44.0302C124.131 44.3157 123.456 44.4585 122.68 44.4585ZM133.341 34.4421V35.9762H127.978V34.4421H133.341ZM129.416 32.0899H131.327V41.3775C131.327 41.7482 131.382 42.0274 131.493 42.2149C131.604 42.3981 131.747 42.5238 131.922 42.592C132.1 42.6559 132.294 42.6879 132.503 42.6879C132.657 42.6879 132.791 42.6772 132.906 42.6559C133.021 42.6346 133.11 42.6176 133.174 42.6048L133.52 44.1836C133.409 44.2262 133.251 44.2688 133.047 44.3115C132.842 44.3583 132.586 44.3839 132.279 44.3882C131.777 44.3967 131.308 44.3072 130.873 44.1197C130.439 43.9322 130.087 43.6424 129.819 43.2504C129.55 42.8583 129.416 42.3661 129.416 41.7738V32.0899Z" fill="#161516"/>
<path d="M71.587 86.7768V70.4132H72.6353V86.7768H71.587ZM75.1154 75.3223C75.0387 74.6745 74.7276 74.1717 74.1822 73.8137C73.6367 73.4558 72.9677 73.2768 72.1751 73.2768C71.5955 73.2768 71.0884 73.3706 70.6538 73.5581C70.2234 73.7456 69.8867 74.0034 69.6438 74.3315C69.4052 74.6596 69.2859 75.0325 69.2859 75.4501C69.2859 75.7995 69.369 76.1 69.5352 76.3514C69.7056 76.5985 69.9229 76.8052 70.1871 76.9714C70.4513 77.1333 70.7283 77.2676 71.0181 77.3741C71.3079 77.4764 71.5742 77.5595 71.8171 77.6234L73.1467 77.9814C73.4876 78.0708 73.8668 78.1944 74.2844 78.3521C74.7063 78.5098 75.109 78.725 75.4925 78.9977C75.8803 79.2662 76.1999 79.6113 76.4514 80.0332C76.7028 80.4551 76.8285 80.9728 76.8285 81.5865C76.8285 82.2939 76.6431 82.9331 76.2724 83.5041C75.9059 84.0751 75.369 84.5289 74.6616 84.8656C73.9585 85.2022 73.104 85.3706 72.0984 85.3706C71.1609 85.3706 70.3491 85.2193 69.663 84.9167C68.9812 84.6142 68.4442 84.1923 68.0522 83.6511C67.6644 83.1099 67.445 82.4814 67.3938 81.7654H69.0302C69.0728 82.2598 69.239 82.6689 69.5288 82.9927C69.8228 83.3123 70.1935 83.551 70.641 83.7086C71.0927 83.862 71.5785 83.9387 72.0984 83.9387C72.7035 83.9387 73.2468 83.8407 73.7283 83.6447C74.2099 83.4444 74.5913 83.1674 74.8725 82.8137C75.1538 82.4558 75.2944 82.0382 75.2944 81.5609C75.2944 81.1262 75.1729 80.7725 74.93 80.4998C74.6871 80.2271 74.3675 80.0055 73.9712 79.835C73.5749 79.6646 73.1467 79.5154 72.6864 79.3876L71.0756 78.9274C70.0529 78.6333 69.2433 78.2136 68.6467 77.6681C68.0501 77.1227 67.7518 76.4089 67.7518 75.5268C67.7518 74.7939 67.9499 74.1546 68.3462 73.6092C68.7468 73.0595 69.2837 72.6333 69.957 72.3308C70.6346 72.024 71.391 71.8706 72.2262 71.8706C73.07 71.8706 73.82 72.0218 74.4762 72.3244C75.1325 72.6227 75.6523 73.0318 76.0359 73.5517C76.4237 74.0715 76.6282 74.6617 76.6495 75.3223H75.1154ZM83.3979 85.3194C82.5201 85.3194 81.7445 85.1639 81.0712 84.8528C80.4022 84.5375 79.8801 84.1049 79.5051 83.5552C79.1301 83.0012 78.9448 82.3706 78.949 81.6632C78.9448 81.1092 79.0534 80.5978 79.275 80.1291C79.4966 79.6561 79.7992 79.2619 80.1827 78.9465C80.5705 78.6269 81.003 78.4245 81.4803 78.3393V78.2626C80.8539 78.1007 80.3553 77.7491 79.9846 77.2079C79.6138 76.6625 79.4306 76.0424 79.4348 75.3478C79.4306 74.6831 79.5989 74.0886 79.9398 73.5644C80.2807 73.0403 80.7495 72.6269 81.3461 72.3244C81.9469 72.0218 82.6309 71.8706 83.3979 71.8706C84.1564 71.8706 84.834 72.0218 85.4306 72.3244C86.0272 72.6269 86.4959 73.0403 86.8368 73.5644C87.182 74.0886 87.3567 74.6831 87.361 75.3478C87.3567 76.0424 87.1671 76.6625 86.7921 77.2079C86.4213 77.7491 85.9292 78.1007 85.3155 78.2626V78.3393C85.7885 78.4245 86.2147 78.6269 86.5939 78.9465C86.9732 79.2619 87.2757 79.6561 87.5016 80.1291C87.7275 80.5978 87.8425 81.1092 87.8468 81.6632C87.8425 82.3706 87.6507 83.0012 87.2715 83.5552C86.8965 84.1049 86.3745 84.5375 85.7054 84.8528C85.0407 85.1639 84.2715 85.3194 83.3979 85.3194ZM83.3979 83.9132C83.9902 83.9132 84.5016 83.8173 84.932 83.6255C85.3624 83.4338 85.6948 83.1632 85.9292 82.8137C86.1635 82.4643 86.2828 82.0552 86.2871 81.5865C86.2828 81.0921 86.155 80.6554 85.9036 80.2761C85.6522 79.8968 85.3091 79.5985 84.8745 79.3812C84.4441 79.1639 83.9519 79.0552 83.3979 79.0552C82.8397 79.0552 82.3411 79.1639 81.9022 79.3812C81.4675 79.5985 81.1245 79.8968 80.873 80.2761C80.6259 80.6554 80.5044 81.0921 80.5087 81.5865C80.5044 82.0552 80.6174 82.4643 80.8475 82.8137C81.0819 83.1632 81.4164 83.4338 81.851 83.6255C82.2857 83.8173 82.8013 83.9132 83.3979 83.9132ZM83.3979 77.7001C83.8667 77.7001 84.2821 77.6064 84.6444 77.4189C85.0108 77.2314 85.2985 76.9693 85.5073 76.6326C85.7161 76.296 85.8226 75.9018 85.8269 75.4501C85.8226 75.0069 85.7182 74.6213 85.5137 74.2931C85.3091 73.9608 85.0257 73.7051 84.6635 73.5261C84.3013 73.3429 83.8794 73.2512 83.3979 73.2512C82.9078 73.2512 82.4796 73.3429 82.1131 73.5261C81.7466 73.7051 81.4632 73.9608 81.263 74.2931C81.0627 74.6213 80.9647 75.0069 80.9689 75.4501C80.9647 75.9018 81.0648 76.296 81.2694 76.6326C81.4782 76.9693 81.7658 77.2314 82.1323 77.4189C82.4988 77.6064 82.9206 77.7001 83.3979 77.7001ZM94.4641 71.8706C95.0011 71.8748 95.538 71.9771 96.0749 72.1774C96.6119 72.3777 97.1019 72.71 97.5451 73.1745C97.9883 73.6348 98.3441 74.2633 98.6126 75.0602C98.881 75.8571 99.0153 76.8564 99.0153 78.0581C99.0153 79.2214 98.9045 80.2548 98.6829 81.1582C98.4656 82.0573 98.1502 82.8159 97.7369 83.4338C97.3278 84.0517 96.8292 84.5204 96.2411 84.84C95.6573 85.1596 94.9968 85.3194 94.2596 85.3194C93.5266 85.3194 92.8725 85.1745 92.2972 84.8848C91.7262 84.5907 91.2575 84.1838 90.891 83.6639C90.5288 83.1397 90.2965 82.5325 90.1942 81.8421H91.7539C91.8945 82.443 92.1737 82.9394 92.5913 83.3315C93.0131 83.7193 93.5692 83.9132 94.2596 83.9132C95.2695 83.9132 96.0664 83.4721 96.6502 82.59C97.2383 81.7079 97.5323 80.4615 97.5323 78.8507H97.43C97.1914 79.2086 96.908 79.5176 96.5799 79.7775C96.2518 80.0375 95.8874 80.2377 95.4869 80.3784C95.0863 80.519 94.6602 80.5893 94.2085 80.5893C93.4585 80.5893 92.7702 80.4039 92.1438 80.0332C91.5217 79.6582 91.0231 79.1447 90.6481 78.4927C90.2773 77.8365 90.092 77.0865 90.092 76.2427C90.092 75.4416 90.271 74.7086 90.6289 74.0439C90.9911 73.3748 91.4982 72.8421 92.1502 72.4458C92.8065 72.0495 93.5778 71.8578 94.4641 71.8706ZM94.4641 73.2768C93.9272 73.2768 93.4435 73.411 93.0131 73.6795C92.587 73.9437 92.2482 74.3017 91.9968 74.7534C91.7496 75.2008 91.6261 75.6973 91.6261 76.2427C91.6261 76.7882 91.7454 77.2846 91.984 77.7321C92.2269 78.1752 92.5572 78.5289 92.9748 78.7931C93.3967 79.0531 93.8761 79.1831 94.413 79.1831C94.8178 79.1831 95.195 79.1042 95.5444 78.9465C95.8938 78.7846 96.1985 78.5652 96.4585 78.2882C96.7227 78.0069 96.9293 77.6894 97.0785 77.3358C97.2276 76.9778 97.3022 76.6049 97.3022 76.2171C97.3022 75.7058 97.1786 75.2264 96.9315 74.7789C96.6886 74.3315 96.3519 73.9693 95.9215 73.6923C95.4954 73.4153 95.0096 73.2768 94.4641 73.2768ZM105.722 85.3194C104.844 85.3194 104.069 85.1639 103.395 84.8528C102.726 84.5375 102.204 84.1049 101.829 83.5552C101.454 83.0012 101.269 82.3706 101.273 81.6632C101.269 81.1092 101.378 80.5978 101.599 80.1291C101.821 79.6561 102.123 79.2619 102.507 78.9465C102.895 78.6269 103.327 78.4245 103.805 78.3393V78.2626C103.178 78.1007 102.68 77.7491 102.309 77.2079C101.938 76.6625 101.755 76.0424 101.759 75.3478C101.755 74.6831 101.923 74.0886 102.264 73.5644C102.605 73.0403 103.074 72.6269 103.67 72.3244C104.271 72.0218 104.955 71.8706 105.722 71.8706C106.481 71.8706 107.158 72.0218 107.755 72.3244C108.351 72.6269 108.82 73.0403 109.161 73.5644C109.506 74.0886 109.681 74.6831 109.685 75.3478C109.681 76.0424 109.491 76.6625 109.116 77.2079C108.746 77.7491 108.253 78.1007 107.64 78.2626V78.3393C108.113 78.4245 108.539 78.6269 108.918 78.9465C109.297 79.2619 109.6 79.6561 109.826 80.1291C110.052 80.5978 110.167 81.1092 110.171 81.6632C110.167 82.3706 109.975 83.0012 109.596 83.5552C109.221 84.1049 108.699 84.5375 108.03 84.8528C107.365 85.1639 106.596 85.3194 105.722 85.3194ZM105.722 83.9132C106.314 83.9132 106.826 83.8173 107.256 83.6255C107.687 83.4338 108.019 83.1632 108.253 82.8137C108.488 82.4643 108.607 82.0552 108.611 81.5865C108.607 81.0921 108.479 80.6554 108.228 80.2761C107.976 79.8968 107.633 79.5985 107.199 79.3812C106.768 79.1639 106.276 79.0552 105.722 79.0552C105.164 79.0552 104.665 79.1639 104.226 79.3812C103.792 79.5985 103.449 79.8968 103.197 80.2761C102.95 80.6554 102.829 81.0921 102.833 81.5865C102.829 82.0552 102.942 82.4643 103.172 82.8137C103.406 83.1632 103.741 83.4338 104.175 83.6255C104.61 83.8173 105.126 83.9132 105.722 83.9132ZM105.722 77.7001C106.191 77.7001 106.606 77.6064 106.969 77.4189C107.335 77.2314 107.623 76.9693 107.831 76.6326C108.04 76.296 108.147 75.9018 108.151 75.4501C108.147 75.0069 108.042 74.6213 107.838 74.2931C107.633 73.9608 107.35 73.7051 106.988 73.5261C106.626 73.3429 106.204 73.2512 105.722 73.2512C105.232 73.2512 104.804 73.3429 104.437 73.5261C104.071 73.7051 103.787 73.9608 103.587 74.2931C103.387 74.6213 103.289 75.0069 103.293 75.4501C103.289 75.9018 103.389 76.296 103.594 76.6326C103.802 76.9693 104.09 77.2314 104.456 77.4189C104.823 77.6064 105.245 77.7001 105.722 77.7001ZM116.891 85.3194C115.928 85.3194 115.107 85.0573 114.43 84.5332C113.752 84.0048 113.234 83.2399 112.876 82.2385C112.518 81.2328 112.339 80.0183 112.339 78.595C112.339 77.1802 112.518 75.9721 112.876 74.9707C113.239 73.965 113.759 73.198 114.436 72.6696C115.118 72.1369 115.936 71.8706 116.891 71.8706C117.845 71.8706 118.661 72.1369 119.339 72.6696C120.021 73.198 120.54 73.965 120.898 74.9707C121.261 75.9721 121.442 77.1802 121.442 78.595C121.442 80.0183 121.263 81.2328 120.905 82.2385C120.547 83.2399 120.029 84.0048 119.352 84.5332C118.674 85.0573 117.854 85.3194 116.891 85.3194ZM116.891 83.9132C117.845 83.9132 118.587 83.4529 119.115 82.5325C119.643 81.612 119.908 80.2995 119.908 78.595C119.908 77.4615 119.786 76.4963 119.543 75.6994C119.305 74.9025 118.96 74.2953 118.508 73.8777C118.06 73.46 117.521 73.2512 116.891 73.2512C115.945 73.2512 115.205 73.7179 114.673 74.6511C114.14 75.5801 113.874 76.8947 113.874 78.595C113.874 79.7285 113.993 80.6916 114.232 81.4842C114.47 82.2768 114.813 82.8798 115.261 83.2931C115.712 83.7065 116.256 83.9132 116.891 83.9132Z" fill="#161516"/>
<path d="M173.539 70.8923C177.891 62.5509 180.938 57.4554 195.299 59.1962C213.252 61.3723 202.915 55.3881 215.972 48.316C233.56 38.7891 233.38 72.7966 249.7 57.5643C252.601 54.6629 259.383 50.9274 263.3 59.1962" stroke="#061D19" stroke-width="1.08801"/>
<path d="M195.299 59.1962C180.938 57.4554 177.891 62.5509 173.539 70.8923H263.3V59.1962C259.383 50.9274 252.601 54.6629 249.7 57.5643C233.38 72.7966 233.56 38.7891 215.972 48.316C202.915 55.3881 213.252 61.3723 195.299 59.1962Z" fill="url(#paint0_linear_164_1865)"/>
<circle cx="224.677" cy="47.2281" r="3.49719" fill="#061D19" stroke="#F7F7F7" stroke-width="1.55431"/>
<defs>
<linearGradient id="paint0_linear_164_1865" x1="218.42" y1="46.6027" x2="218.42" y2="70.8923" gradientUnits="userSpaceOnUse">
<stop stop-color="#061D19"/>
<stop offset="1" stop-color="#061D19" stop-opacity="0"/>
</linearGradient>
</defs>
</svg>
