<svg width="294" height="170" viewBox="0 0 294 170" fill="none" xmlns="http://www.w3.org/2000/svg">
<rect width="294" height="170" fill="white"/>
<path d="M33.938 49H31.452V34.26H34.51L37.678 40.728L39.13 44.49L40.604 40.728L43.772 34.26H46.808V49H44.322V42.07L44.63 37.208L42.936 41.432L40.384 46.514H37.876L35.324 41.432L33.586 37.208L33.938 42.07V49ZM54.0053 49.22C50.9253 49.22 48.8133 46.976 48.8133 43.654C48.8133 40.31 50.9253 38.066 54.0053 38.066C57.1293 38.066 59.2413 40.31 59.2413 43.654C59.2413 46.976 57.1293 49.22 54.0053 49.22ZM54.0273 47.174C55.6333 47.174 56.7333 46.118 56.7333 43.654C56.7333 41.168 55.6333 40.112 54.0273 40.112C52.4433 40.112 51.3433 41.168 51.3433 43.654C51.3433 46.118 52.4433 47.174 54.0273 47.174ZM63.8186 49H61.3546V38.286H63.8186V41.212C64.2146 39.518 65.3146 38.066 67.4486 38.066C69.5386 38.066 70.8146 39.32 70.8146 41.542V49H68.3286V42.29C68.3286 40.97 67.8886 40.068 66.2386 40.068C64.4346 40.068 63.8186 41.234 63.8186 42.994V49ZM76.9356 49.242C74.9116 49.242 73.7456 47.966 73.7456 46.074V40.2H72.0736V38.286H73.7456V36.988L76.2096 35.426V38.286H79.4876V40.2H76.2096V45.48C76.2096 46.646 76.7596 46.932 77.4856 46.932C78.3216 46.932 78.9376 46.25 79.2456 45.634L80.0156 47.834C79.5536 48.516 78.4976 49.242 76.9356 49.242ZM84.1429 49H81.6789V34.26H84.1429V41.212C84.5389 39.518 85.6389 38.066 87.7729 38.066C89.8629 38.066 91.1389 39.32 91.1389 41.542V49H88.6529V42.29C88.6529 40.97 88.2129 40.068 86.5629 40.068C84.7589 40.068 84.1429 41.234 84.1429 42.994V49ZM96.1311 49H93.6671V34.26H96.1311V49ZM100.827 52.674C99.2875 52.674 98.0335 51.882 97.4395 51.046L98.6055 49.066C99.1775 49.88 99.8375 50.496 100.827 50.496C101.663 50.496 102.191 50.122 102.587 48.934L102.785 48.34H101.267L97.7255 38.286H100.431L102.367 44.358L103.137 47.218L103.907 44.358L105.821 38.286H108.549L104.589 49.748C103.819 51.904 102.565 52.674 100.827 52.674ZM118.95 49.22C116.662 49.22 114.572 48.296 113.758 46.602L115.21 45.062C115.804 46.14 117.124 47.24 119.038 47.24C120.094 47.24 120.776 46.866 120.776 46.096C120.776 45.304 119.962 45.04 118.774 44.754L117.344 44.402C115.65 44.006 114.088 43.258 114.088 41.3C114.088 39.298 115.694 38.088 118.158 38.088C120.446 38.088 122.052 39.188 122.712 40.398L121.26 41.938C120.512 40.75 119.368 40.046 117.982 40.046C117.036 40.046 116.398 40.442 116.398 41.168C116.398 41.938 116.97 42.224 118.422 42.598L119.72 42.928C122.118 43.544 122.998 44.512 122.998 46.052C122.998 48.164 121.216 49.22 118.95 49.22ZM127.257 49.22C125.497 49.22 124.441 48.23 124.441 46.69C124.441 45.172 125.497 44.248 127.235 43.566L130.821 42.048C130.733 40.97 130.249 40.244 128.775 40.244C127.345 40.244 126.223 41.08 125.607 42.202L124.133 40.442C124.969 39.298 126.641 38.066 129.017 38.066C131.679 38.066 133.175 39.584 133.175 42.224V46.25C133.175 46.734 133.351 46.888 133.747 46.888H134.429V49H132.911C131.767 49 130.865 48.472 130.865 46.932V46.14C130.535 47.548 129.501 49.22 127.257 49.22ZM126.817 46.316C126.817 46.932 127.235 47.306 128.137 47.306C129.765 47.306 130.865 46.338 130.865 44.886V43.742L128.115 44.974C127.191 45.392 126.817 45.766 126.817 46.316ZM138.778 49H136.314V34.26H138.778V49ZM146.136 49.22C142.946 49.22 140.856 46.998 140.856 43.654C140.856 40.288 142.946 38.066 145.96 38.066C149.172 38.066 150.954 40.2 150.954 43.17C150.954 43.566 150.91 44.028 150.866 44.248H143.21C143.342 46.162 144.464 47.196 146.158 47.196C148.028 47.196 148.864 46.228 149.26 45.326L150.778 46.91C149.964 48.142 148.512 49.22 146.136 49.22ZM145.96 40.046C144.442 40.046 143.43 40.926 143.232 42.664H148.732C148.556 40.97 147.588 40.046 145.96 40.046ZM157.343 49.22C155.055 49.22 152.965 48.296 152.151 46.602L153.603 45.062C154.197 46.14 155.517 47.24 157.431 47.24C158.487 47.24 159.169 46.866 159.169 46.096C159.169 45.304 158.355 45.04 157.167 44.754L155.737 44.402C154.043 44.006 152.481 43.258 152.481 41.3C152.481 39.298 154.087 38.088 156.551 38.088C158.839 38.088 160.445 39.188 161.105 40.398L159.653 41.938C158.905 40.75 157.761 40.046 156.375 40.046C155.429 40.046 154.791 40.442 154.791 41.168C154.791 41.938 155.363 42.224 156.815 42.598L158.113 42.928C160.511 43.544 161.391 44.512 161.391 46.052C161.391 48.164 159.609 49.22 157.343 49.22ZM172.339 45.788C171.503 45.788 170.733 45.634 170.095 45.326C169.897 45.656 169.655 46.074 169.655 46.448C169.655 46.998 169.941 47.284 170.931 47.284H174.385C176.519 47.284 177.685 48.142 177.685 49.748C177.685 51.772 175.705 53.312 171.811 53.312C168.819 53.312 167.081 52.366 167.081 51.024C167.081 50.012 168.049 49.462 169.083 49.22C168.313 49 167.807 48.494 167.807 47.68C167.807 46.712 168.643 45.766 169.633 45.084C168.555 44.424 167.895 43.302 167.895 41.938C167.895 39.672 169.699 38.066 172.339 38.066C173.021 38.066 173.637 38.176 174.187 38.374L174.715 35.8L177.091 36.614L175.089 38.814C176.145 39.496 176.761 40.596 176.761 41.938C176.761 44.204 174.979 45.788 172.339 45.788ZM172.339 44.028C173.505 44.028 174.429 43.28 174.429 41.938C174.429 40.596 173.505 39.848 172.339 39.848C171.173 39.848 170.249 40.596 170.249 41.938C170.249 43.28 171.173 44.028 172.339 44.028ZM171.921 51.464C174.231 51.464 175.463 50.958 175.463 50.056C175.463 49.484 175.001 49.242 174.055 49.242H169.589C169.347 49.484 169.083 49.836 169.083 50.21C169.083 51.002 169.963 51.464 171.921 51.464ZM181.617 49H179.153V38.286H181.617V41.322C182.013 39.606 183.091 38.066 185.005 38.066C186.347 38.066 187.337 38.946 187.337 40.53C187.337 41.564 187.051 42.334 186.853 42.664H184.323C184.675 42.312 185.005 41.608 185.005 40.992C185.005 40.398 184.719 39.914 183.993 39.914C182.761 39.914 181.617 41.322 181.617 43.104V49ZM193.224 49.22C190.144 49.22 188.032 46.976 188.032 43.654C188.032 40.31 190.144 38.066 193.224 38.066C196.348 38.066 198.46 40.31 198.46 43.654C198.46 46.976 196.348 49.22 193.224 49.22ZM193.246 47.174C194.852 47.174 195.952 46.118 195.952 43.654C195.952 41.168 194.852 40.112 193.246 40.112C191.662 40.112 190.562 41.168 190.562 43.654C190.562 46.118 191.662 47.174 193.246 47.174ZM204.832 49H201.664L198.936 38.286H201.686L202.786 44.314L203.248 47.328L203.93 44.314L205.558 38.286H208.484L210.134 44.314L210.794 47.328L211.256 44.314L212.378 38.286H215.128L212.378 49H209.232L207.714 43.434L207.032 40.112L206.328 43.434L204.832 49ZM220.473 49.242C218.449 49.242 217.283 47.966 217.283 46.074V40.2H215.611V38.286H217.283V36.988L219.747 35.426V38.286H223.025V40.2H219.747V45.48C219.747 46.646 220.297 46.932 221.023 46.932C221.859 46.932 222.475 46.25 222.783 45.634L223.553 47.834C223.091 48.516 222.035 49.242 220.473 49.242ZM227.68 49H225.216V34.26H227.68V41.212C228.076 39.518 229.176 38.066 231.31 38.066C233.4 38.066 234.676 39.32 234.676 41.542V49H232.19V42.29C232.19 40.97 231.75 40.068 230.1 40.068C228.296 40.068 227.68 41.234 227.68 42.994V49Z" fill="#444444"/>
<rect x="30" y="76" width="234" height="39" rx="10" fill="#B8FF90"/>
<path d="M135.957 88.9091V102H134.372V90.571H134.295L131.099 92.6932V91.0824L134.372 88.9091H135.957ZM143.813 102.179C143.063 102.179 142.388 102.03 141.787 101.732C141.186 101.433 140.705 101.024 140.342 100.504C139.98 99.9844 139.782 99.392 139.748 98.7273H141.282C141.342 99.3196 141.61 99.8097 142.087 100.197C142.569 100.581 143.144 100.773 143.813 100.773C144.35 100.773 144.827 100.647 145.245 100.396C145.667 100.144 145.997 99.799 146.236 99.3601C146.479 98.9169 146.6 98.4162 146.6 97.858C146.6 97.2869 146.474 96.7777 146.223 96.3303C145.976 95.8786 145.635 95.5227 145.2 95.2628C144.766 95.0028 144.269 94.8707 143.711 94.8665C143.31 94.8622 142.899 94.924 142.477 95.0518C142.055 95.1754 141.708 95.3352 141.435 95.5312L139.952 95.3523L140.745 88.9091H147.546V90.3153H142.075L141.614 94.1761H141.691C141.96 93.9631 142.296 93.7862 142.701 93.6456C143.106 93.505 143.528 93.4347 143.967 93.4347C144.768 93.4347 145.482 93.6264 146.108 94.0099C146.739 94.3892 147.233 94.9091 147.591 95.5696C147.953 96.2301 148.134 96.9844 148.134 97.8324C148.134 98.6676 147.947 99.4134 147.572 100.07C147.201 100.722 146.69 101.237 146.038 101.616C145.386 101.991 144.644 102.179 143.813 102.179ZM157.347 99.5455V98.8551C157.347 98.3778 157.445 97.9411 157.641 97.5447C157.841 97.1442 158.131 96.8246 158.51 96.5859C158.894 96.343 159.358 96.2216 159.904 96.2216C160.458 96.2216 160.922 96.343 161.297 96.5859C161.672 96.8246 161.955 97.1442 162.147 97.5447C162.339 97.9411 162.435 98.3778 162.435 98.8551V99.5455C162.435 100.023 162.337 100.462 162.141 100.862C161.949 101.259 161.664 101.578 161.284 101.821C160.909 102.06 160.449 102.179 159.904 102.179C159.35 102.179 158.883 102.06 158.504 101.821C158.124 101.578 157.837 101.259 157.641 100.862C157.445 100.462 157.347 100.023 157.347 99.5455ZM158.651 98.8551V99.5455C158.651 99.9418 158.744 100.298 158.932 100.613C159.119 100.924 159.443 101.08 159.904 101.08C160.351 101.08 160.666 100.924 160.85 100.613C161.037 100.298 161.131 99.9418 161.131 99.5455V98.8551C161.131 98.4588 161.041 98.1051 160.862 97.794C160.683 97.4787 160.364 97.321 159.904 97.321C159.456 97.321 159.134 97.4787 158.938 97.794C158.747 98.1051 158.651 98.4588 158.651 98.8551ZM150.827 92.054V91.3636C150.827 90.8864 150.925 90.4496 151.121 90.0533C151.321 89.6527 151.611 89.3331 151.99 89.0945C152.374 88.8516 152.838 88.7301 153.384 88.7301C153.938 88.7301 154.402 88.8516 154.777 89.0945C155.152 89.3331 155.436 89.6527 155.627 90.0533C155.819 90.4496 155.915 90.8864 155.915 91.3636V92.054C155.915 92.5312 155.817 92.9702 155.621 93.3707C155.429 93.767 155.144 94.0866 154.764 94.3295C154.389 94.5682 153.929 94.6875 153.384 94.6875C152.83 94.6875 152.363 94.5682 151.984 94.3295C151.605 94.0866 151.317 93.767 151.121 93.3707C150.925 92.9702 150.827 92.5312 150.827 92.054ZM152.131 91.3636V92.054C152.131 92.4503 152.225 92.8061 152.412 93.1214C152.6 93.4325 152.923 93.5881 153.384 93.5881C153.831 93.5881 154.146 93.4325 154.33 93.1214C154.517 92.8061 154.611 92.4503 154.611 92.054V91.3636C154.611 90.9673 154.521 90.6136 154.343 90.3026C154.164 89.9872 153.844 89.8295 153.384 89.8295C152.936 89.8295 152.615 89.9872 152.419 90.3026C152.227 90.6136 152.131 90.9673 152.131 91.3636ZM151.313 102L160.313 88.9091H161.77L152.77 102H151.313Z" fill="#061D19"/>
<path d="M31.5327 147H30.3324L33.804 137.545H34.9858L38.4574 147H37.2571L34.4318 139.041H34.358L31.5327 147ZM31.9759 143.307H36.8139V144.322H31.9759V143.307ZM42.663 147.148C41.9982 147.148 41.4258 146.991 40.9457 146.677C40.4656 146.363 40.0962 145.931 39.8377 145.38C39.5792 144.829 39.4499 144.199 39.4499 143.491C39.4499 142.771 39.5823 142.136 39.8469 141.585C40.1147 141.031 40.4871 140.598 40.9641 140.288C41.4442 139.974 42.0044 139.817 42.6445 139.817C43.1431 139.817 43.5924 139.909 43.9925 140.094C44.3926 140.278 44.7204 140.537 44.9759 140.869C45.2313 141.202 45.3898 141.589 45.4513 142.033H44.3619C44.2788 141.71 44.0941 141.423 43.8079 141.174C43.5247 140.922 43.1431 140.795 42.663 140.795C42.2383 140.795 41.8659 140.906 41.5458 141.128C41.2288 141.346 40.9811 141.656 40.8026 142.056C40.6271 142.453 40.5394 142.919 40.5394 143.455C40.5394 144.002 40.6256 144.479 40.7979 144.886C40.9734 145.292 41.2196 145.607 41.5366 145.832C41.8567 146.057 42.2321 146.169 42.663 146.169C42.9461 146.169 43.2031 146.12 43.4339 146.021C43.6648 145.923 43.8602 145.781 44.0202 145.597C44.1803 145.412 44.2942 145.19 44.3619 144.932H45.4513C45.3898 145.35 45.2375 145.727 44.9943 146.063C44.7543 146.395 44.4357 146.66 44.0387 146.857C43.6448 147.051 43.1862 147.148 42.663 147.148ZM49.9247 147.148C49.2599 147.148 48.6875 146.991 48.2074 146.677C47.7273 146.363 47.358 145.931 47.0994 145.38C46.8409 144.829 46.7116 144.199 46.7116 143.491C46.7116 142.771 46.844 142.136 47.1087 141.585C47.3764 141.031 47.7488 140.598 48.2259 140.288C48.706 139.974 49.2661 139.817 49.9062 139.817C50.4048 139.817 50.8542 139.909 51.2543 140.094C51.6544 140.278 51.9821 140.537 52.2376 140.869C52.493 141.202 52.6515 141.589 52.7131 142.033H51.6236C51.5405 141.71 51.3558 141.423 51.0696 141.174C50.7865 140.922 50.4048 140.795 49.9247 140.795C49.5 140.795 49.1276 140.906 48.8075 141.128C48.4905 141.346 48.2428 141.656 48.0643 142.056C47.8888 142.453 47.8011 142.919 47.8011 143.455C47.8011 144.002 47.8873 144.479 48.0597 144.886C48.2351 145.292 48.4813 145.607 48.7983 145.832C49.1184 146.057 49.4938 146.169 49.9247 146.169C50.2079 146.169 50.4648 146.12 50.6957 146.021C50.9265 145.923 51.1219 145.781 51.282 145.597C51.442 145.412 51.5559 145.19 51.6236 144.932H52.7131C52.6515 145.35 52.4992 145.727 52.256 146.063C52.016 146.395 51.6974 146.66 51.3004 146.857C50.9065 147.051 50.4479 147.148 49.9247 147.148ZM58.7745 144.101V139.909H59.864V147H58.7745V145.8H58.7006C58.5344 146.16 58.2759 146.466 57.9251 146.718C57.5742 146.968 57.131 147.092 56.5955 147.092C56.1523 147.092 55.7584 146.995 55.4137 146.801C55.069 146.605 54.7982 146.309 54.6012 145.915C54.4042 145.518 54.3058 145.018 54.3058 144.415V139.909H55.3952V144.341C55.3952 144.858 55.5399 145.27 55.8292 145.578C56.1216 145.886 56.494 146.04 56.9464 146.04C57.2172 146.04 57.4927 145.971 57.7727 145.832C58.0559 145.694 58.2929 145.481 58.4837 145.195C58.6776 144.909 58.7745 144.544 58.7745 144.101ZM61.8595 147V139.909H62.912V141.017H63.0044C63.1521 140.638 63.3906 140.345 63.7199 140.135C64.0492 139.923 64.4447 139.817 64.9063 139.817C65.3741 139.817 65.7635 139.923 66.0743 140.135C66.3882 140.345 66.6329 140.638 66.8083 141.017H66.8822C67.0638 140.651 67.3361 140.36 67.6993 140.145C68.0625 139.926 68.498 139.817 69.0058 139.817C69.6398 139.817 70.1584 140.015 70.5615 140.412C70.9647 140.806 71.1663 141.42 71.1663 142.254V147H70.0768V142.254C70.0768 141.731 69.9337 141.357 69.6475 141.132C69.3612 140.908 69.0242 140.795 68.6365 140.795C68.1379 140.795 67.7516 140.946 67.4777 141.248C67.2038 141.546 67.0669 141.925 67.0669 142.384V147H65.9589V142.143C65.9589 141.74 65.8281 141.416 65.5665 141.169C65.3049 140.92 64.9679 140.795 64.5555 140.795C64.2723 140.795 64.0077 140.871 63.7615 141.022C63.5183 141.172 63.3213 141.382 63.1705 141.65C63.0228 141.914 62.949 142.22 62.949 142.568V147H61.8595ZM77.627 144.101V139.909H78.7165V147H77.627V145.8H77.5532C77.387 146.16 77.1285 146.466 76.7776 146.718C76.4268 146.968 75.9836 147.092 75.4481 147.092C75.0049 147.092 74.6109 146.995 74.2662 146.801C73.9215 146.605 73.6507 146.309 73.4537 145.915C73.2568 145.518 73.1583 145.018 73.1583 144.415V139.909H74.2478V144.341C74.2478 144.858 74.3924 145.27 74.6817 145.578C74.9741 145.886 75.3465 146.04 75.7989 146.04C76.0698 146.04 76.3452 145.971 76.6253 145.832C76.9084 145.694 77.1454 145.481 77.3362 145.195C77.5301 144.909 77.627 144.544 77.627 144.101ZM81.8015 137.545V147H80.712V137.545H81.8015ZM85.8836 147.166C85.4343 147.166 85.0265 147.082 84.6602 146.912C84.294 146.74 84.0032 146.492 83.7877 146.169C83.5723 145.843 83.4646 145.449 83.4646 144.987C83.4646 144.581 83.5446 144.252 83.7046 143.999C83.8647 143.744 84.0786 143.544 84.3463 143.399C84.6141 143.254 84.9095 143.147 85.2327 143.076C85.5589 143.002 85.8867 142.944 86.216 142.901C86.6469 142.845 86.9962 142.804 87.2639 142.776C87.5348 142.745 87.7317 142.694 87.8548 142.624C87.981 142.553 88.0441 142.43 88.0441 142.254V142.217C88.0441 141.762 87.9195 141.408 87.6702 141.156C87.424 140.903 87.05 140.777 86.5484 140.777C86.0283 140.777 85.6205 140.891 85.325 141.119C85.0296 141.346 84.8218 141.589 84.7018 141.848L83.6677 141.479C83.8524 141.048 84.0986 140.712 84.4063 140.472C84.7172 140.229 85.0557 140.06 85.422 139.964C85.7913 139.866 86.1544 139.817 86.5115 139.817C86.7392 139.817 87.0008 139.844 87.2963 139.9C87.5948 139.952 87.8825 140.061 88.1595 140.228C88.4396 140.394 88.672 140.645 88.8566 140.98C89.0413 141.316 89.1336 141.765 89.1336 142.328V147H88.0441V146.04H87.9887C87.9149 146.194 87.7918 146.358 87.6194 146.534C87.4471 146.709 87.2178 146.858 86.9316 146.982C86.6453 147.105 86.296 147.166 85.8836 147.166ZM86.0498 146.188C86.4807 146.188 86.8438 146.103 87.1393 145.934C87.4378 145.764 87.6625 145.546 87.8133 145.278C87.9672 145.01 88.0441 144.729 88.0441 144.433V143.436C87.998 143.491 87.8964 143.542 87.7394 143.588C87.5856 143.632 87.407 143.67 87.2039 143.704C87.0039 143.735 86.8084 143.762 86.6176 143.787C86.4299 143.808 86.2776 143.827 86.1606 143.842C85.8775 143.879 85.6128 143.939 85.3666 144.022C85.1234 144.102 84.9265 144.224 84.7757 144.387C84.6279 144.547 84.5541 144.766 84.5541 145.043C84.5541 145.421 84.6941 145.707 84.9742 145.901C85.2573 146.092 85.6159 146.188 86.0498 146.188ZM94.206 139.909V140.832H90.5312V139.909H94.206ZM91.6023 138.21H92.6918V144.969C92.6918 145.277 92.7364 145.507 92.8256 145.661C92.918 145.812 93.0349 145.914 93.1765 145.966C93.3211 146.015 93.4735 146.04 93.6335 146.04C93.7536 146.04 93.852 146.034 93.929 146.021C94.0059 146.006 94.0675 145.994 94.1136 145.984L94.3352 146.963C94.2614 146.991 94.1583 147.018 94.0259 147.046C93.8936 147.077 93.7259 147.092 93.5227 147.092C93.215 147.092 92.9134 147.026 92.6179 146.894C92.3255 146.761 92.0824 146.56 91.8885 146.289C91.6977 146.018 91.6023 145.677 91.6023 145.264V138.21ZM98.7417 147.148C98.0584 147.148 97.469 146.997 96.9735 146.695C96.4811 146.391 96.101 145.966 95.8333 145.421C95.5686 144.873 95.4363 144.236 95.4363 143.51C95.4363 142.784 95.5686 142.143 95.8333 141.589C96.101 141.032 96.4734 140.598 96.9505 140.288C97.4306 139.974 97.9907 139.817 98.6309 139.817C99.0002 139.817 99.3649 139.878 99.725 140.001C100.085 140.125 100.413 140.325 100.708 140.602C101.004 140.875 101.239 141.239 101.415 141.691C101.59 142.143 101.678 142.701 101.678 143.362V143.824H96.2118V142.882H100.57C100.57 142.482 100.49 142.125 100.33 141.811C100.173 141.497 99.9481 141.249 99.6557 141.068C99.3664 140.886 99.0248 140.795 98.6309 140.795C98.1969 140.795 97.8214 140.903 97.5044 141.119C97.1905 141.331 96.9489 141.608 96.7797 141.95C96.6104 142.291 96.5257 142.657 96.5257 143.048V143.676C96.5257 144.212 96.6181 144.666 96.8027 145.038C96.9905 145.407 97.2505 145.689 97.5829 145.883C97.9153 146.074 98.3016 146.169 98.7417 146.169C99.0279 146.169 99.2864 146.129 99.5172 146.049C99.7511 145.966 99.9527 145.843 100.122 145.68C100.291 145.513 100.422 145.307 100.514 145.061L101.567 145.357C101.456 145.714 101.27 146.027 101.008 146.298C100.747 146.566 100.424 146.775 100.039 146.926C99.6542 147.074 99.2218 147.148 98.7417 147.148ZM106.013 147.148C105.422 147.148 104.9 146.998 104.448 146.7C103.995 146.398 103.641 145.974 103.386 145.426C103.13 144.875 103.003 144.224 103.003 143.473C103.003 142.728 103.13 142.082 103.386 141.534C103.641 140.986 103.997 140.563 104.452 140.265C104.908 139.966 105.434 139.817 106.031 139.817C106.493 139.817 106.857 139.894 107.125 140.048C107.396 140.198 107.602 140.371 107.744 140.565C107.888 140.755 108.001 140.912 108.081 141.036H108.173V137.545H109.263V147H108.21V145.911H108.081C108.001 146.04 107.887 146.203 107.739 146.4C107.591 146.594 107.381 146.768 107.107 146.922C106.833 147.072 106.468 147.148 106.013 147.148ZM106.16 146.169C106.597 146.169 106.967 146.055 107.268 145.827C107.57 145.597 107.799 145.278 107.956 144.872C108.113 144.462 108.192 143.99 108.192 143.455C108.192 142.925 108.115 142.462 107.961 142.065C107.807 141.665 107.579 141.354 107.278 141.132C106.976 140.908 106.604 140.795 106.16 140.795C105.699 140.795 105.314 140.914 105.006 141.151C104.702 141.385 104.472 141.703 104.318 142.107C104.168 142.507 104.092 142.956 104.092 143.455C104.092 143.959 104.169 144.418 104.323 144.83C104.48 145.24 104.711 145.566 105.015 145.809C105.323 146.049 105.705 146.169 106.16 146.169ZM115.066 147V139.909H116.118V140.98H116.192C116.321 140.629 116.555 140.345 116.894 140.126C117.232 139.908 117.614 139.798 118.039 139.798C118.119 139.798 118.219 139.8 118.339 139.803C118.459 139.806 118.549 139.811 118.611 139.817V140.925C118.574 140.915 118.489 140.902 118.357 140.883C118.228 140.862 118.091 140.851 117.946 140.851C117.602 140.851 117.294 140.923 117.023 141.068C116.755 141.209 116.543 141.406 116.386 141.659C116.232 141.908 116.155 142.193 116.155 142.513V147H115.066ZM122.66 147.148C121.976 147.148 121.387 146.997 120.892 146.695C120.399 146.391 120.019 145.966 119.751 145.421C119.487 144.873 119.354 144.236 119.354 143.51C119.354 142.784 119.487 142.143 119.751 141.589C120.019 141.032 120.391 140.598 120.868 140.288C121.349 139.974 121.909 139.817 122.549 139.817C122.918 139.817 123.283 139.878 123.643 140.001C124.003 140.125 124.331 140.325 124.626 140.602C124.922 140.875 125.157 141.239 125.333 141.691C125.508 142.143 125.596 142.701 125.596 143.362V143.824H120.13V142.882H124.488C124.488 142.482 124.408 142.125 124.248 141.811C124.091 141.497 123.866 141.249 123.574 141.068C123.284 140.886 122.943 140.795 122.549 140.795C122.115 140.795 121.739 140.903 121.422 141.119C121.108 141.331 120.867 141.608 120.698 141.95C120.528 142.291 120.444 142.657 120.444 143.048V143.676C120.444 144.212 120.536 144.666 120.721 145.038C120.908 145.407 121.169 145.689 121.501 145.883C121.833 146.074 122.22 146.169 122.66 146.169C122.946 146.169 123.204 146.129 123.435 146.049C123.669 145.966 123.871 145.843 124.04 145.68C124.209 145.513 124.34 145.307 124.432 145.061L125.485 145.357C125.374 145.714 125.188 146.027 124.926 146.298C124.665 146.566 124.342 146.775 123.957 146.926C123.572 147.074 123.14 147.148 122.66 147.148ZM132.835 139.909L130.213 147H129.105L126.483 139.909H127.665L129.622 145.56H129.696L131.654 139.909H132.835ZM136.144 147.166C135.695 147.166 135.287 147.082 134.921 146.912C134.555 146.74 134.264 146.492 134.048 146.169C133.833 145.843 133.725 145.449 133.725 144.987C133.725 144.581 133.805 144.252 133.965 143.999C134.125 143.744 134.339 143.544 134.607 143.399C134.875 143.254 135.17 143.147 135.493 143.076C135.82 143.002 136.147 142.944 136.477 142.901C136.908 142.845 137.257 142.804 137.525 142.776C137.796 142.745 137.992 142.694 138.116 142.624C138.242 142.553 138.305 142.43 138.305 142.254V142.217C138.305 141.762 138.18 141.408 137.931 141.156C137.685 140.903 137.311 140.777 136.809 140.777C136.289 140.777 135.881 140.891 135.586 141.119C135.29 141.346 135.083 141.589 134.963 141.848L133.928 141.479C134.113 141.048 134.359 140.712 134.667 140.472C134.978 140.229 135.316 140.06 135.683 139.964C136.052 139.866 136.415 139.817 136.772 139.817C137 139.817 137.262 139.844 137.557 139.9C137.856 139.952 138.143 140.061 138.42 140.228C138.7 140.394 138.933 140.645 139.117 140.98C139.302 141.316 139.394 141.765 139.394 142.328V147H138.305V146.04H138.249C138.176 146.194 138.052 146.358 137.88 146.534C137.708 146.709 137.479 146.858 137.192 146.982C136.906 147.105 136.557 147.166 136.144 147.166ZM136.311 146.188C136.741 146.188 137.105 146.103 137.4 145.934C137.699 145.764 137.923 145.546 138.074 145.278C138.228 145.01 138.305 144.729 138.305 144.433V143.436C138.259 143.491 138.157 143.542 138 143.588C137.846 143.632 137.668 143.67 137.465 143.704C137.265 143.735 137.069 143.762 136.878 143.787C136.691 143.808 136.538 143.827 136.421 143.842C136.138 143.879 135.874 143.939 135.627 144.022C135.384 144.102 135.187 144.224 135.036 144.387C134.889 144.547 134.815 144.766 134.815 145.043C134.815 145.421 134.955 145.707 135.235 145.901C135.518 146.092 135.877 146.188 136.311 146.188ZM142.472 142.734V147H141.383V139.909H142.435V141.017H142.528C142.694 140.657 142.946 140.368 143.285 140.149C143.623 139.928 144.06 139.817 144.596 139.817C145.076 139.817 145.496 139.915 145.856 140.112C146.216 140.306 146.496 140.602 146.696 140.999C146.897 141.393 146.997 141.891 146.997 142.494V147H145.907V142.568C145.907 142.011 145.762 141.577 145.473 141.266C145.184 140.952 144.787 140.795 144.282 140.795C143.934 140.795 143.623 140.871 143.35 141.022C143.079 141.172 142.865 141.393 142.708 141.682C142.551 141.971 142.472 142.322 142.472 142.734ZM153.456 144.101V139.909H154.546V147H153.456V145.8H153.382C153.216 146.16 152.958 146.466 152.607 146.718C152.256 146.968 151.813 147.092 151.277 147.092C150.834 147.092 150.44 146.995 150.095 146.801C149.751 146.605 149.48 146.309 149.283 145.915C149.086 145.518 148.987 145.018 148.987 144.415V139.909H150.077V144.341C150.077 144.858 150.222 145.27 150.511 145.578C150.803 145.886 151.176 146.04 151.628 146.04C151.899 146.04 152.174 145.971 152.454 145.832C152.738 145.694 152.974 145.481 153.165 145.195C153.359 144.909 153.456 144.544 153.456 144.101ZM159.514 147.148C158.831 147.148 158.242 146.997 157.746 146.695C157.254 146.391 156.873 145.966 156.606 145.421C156.341 144.873 156.209 144.236 156.209 143.51C156.209 142.784 156.341 142.143 156.606 141.589C156.873 141.032 157.246 140.598 157.723 140.288C158.203 139.974 158.763 139.817 159.403 139.817C159.773 139.817 160.137 139.878 160.497 140.001C160.858 140.125 161.185 140.325 161.481 140.602C161.776 140.875 162.012 141.239 162.187 141.691C162.362 142.143 162.45 142.701 162.45 143.362V143.824H156.984V142.882H161.342C161.342 142.482 161.262 142.125 161.102 141.811C160.945 141.497 160.721 141.249 160.428 141.068C160.139 140.886 159.797 140.795 159.403 140.795C158.969 140.795 158.594 140.903 158.277 141.119C157.963 141.331 157.721 141.608 157.552 141.95C157.383 142.291 157.298 142.657 157.298 143.048V143.676C157.298 144.212 157.391 144.666 157.575 145.038C157.763 145.407 158.023 145.689 158.355 145.883C158.688 146.074 159.074 146.169 159.514 146.169C159.8 146.169 160.059 146.129 160.29 146.049C160.524 145.966 160.725 145.843 160.894 145.68C161.064 145.513 161.195 145.307 161.287 145.061L162.339 145.357C162.229 145.714 162.042 146.027 161.781 146.298C161.519 146.566 161.196 146.775 160.811 146.926C160.427 147.074 159.994 147.148 159.514 147.148ZM164.902 147.074C164.674 147.074 164.478 146.992 164.315 146.829C164.152 146.666 164.071 146.471 164.071 146.243C164.071 146.015 164.152 145.82 164.315 145.657C164.478 145.493 164.674 145.412 164.902 145.412C165.129 145.412 165.325 145.493 165.488 145.657C165.651 145.82 165.733 146.015 165.733 146.243C165.733 146.394 165.694 146.532 165.617 146.658C165.543 146.785 165.443 146.886 165.317 146.963C165.194 147.037 165.055 147.074 164.902 147.074ZM164.902 141.811C164.674 141.811 164.478 141.73 164.315 141.566C164.152 141.403 164.071 141.208 164.071 140.98C164.071 140.752 164.152 140.557 164.315 140.394C164.478 140.231 164.674 140.149 164.902 140.149C165.129 140.149 165.325 140.231 165.488 140.394C165.651 140.557 165.733 140.752 165.733 140.98C165.733 141.131 165.694 141.269 165.617 141.396C165.543 141.522 165.443 141.623 165.317 141.7C165.194 141.774 165.055 141.811 164.902 141.811ZM171.492 147V137.545H172.636V145.984H177.031V147H171.492ZM180.743 147.166C180.294 147.166 179.886 147.082 179.52 146.912C179.153 146.74 178.863 146.492 178.647 146.169C178.432 145.843 178.324 145.449 178.324 144.987C178.324 144.581 178.404 144.252 178.564 143.999C178.724 143.744 178.938 143.544 179.206 143.399C179.473 143.254 179.769 143.147 180.092 143.076C180.418 143.002 180.746 142.944 181.075 142.901C181.506 142.845 181.856 142.804 182.123 142.776C182.394 142.745 182.591 142.694 182.714 142.624C182.84 142.553 182.903 142.43 182.903 142.254V142.217C182.903 141.762 182.779 141.408 182.53 141.156C182.283 140.903 181.909 140.777 181.408 140.777C180.888 140.777 180.48 140.891 180.184 141.119C179.889 141.346 179.681 141.589 179.561 141.848L178.527 141.479C178.712 141.048 178.958 140.712 179.266 140.472C179.577 140.229 179.915 140.06 180.281 139.964C180.651 139.866 181.014 139.817 181.371 139.817C181.599 139.817 181.86 139.844 182.156 139.9C182.454 139.952 182.742 140.061 183.019 140.228C183.299 140.394 183.531 140.645 183.716 140.98C183.901 141.316 183.993 141.765 183.993 142.328V147H182.903V146.04H182.848C182.774 146.194 182.651 146.358 182.479 146.534C182.306 146.709 182.077 146.858 181.791 146.982C181.505 147.105 181.155 147.166 180.743 147.166ZM180.909 146.188C181.34 146.188 181.703 146.103 181.999 145.934C182.297 145.764 182.522 145.546 182.673 145.278C182.827 145.01 182.903 144.729 182.903 144.433V143.436C182.857 143.491 182.756 143.542 182.599 143.588C182.445 143.632 182.266 143.67 182.063 143.704C181.863 143.735 181.668 143.762 181.477 143.787C181.289 143.808 181.137 143.827 181.02 143.842C180.737 143.879 180.472 143.939 180.226 144.022C179.983 144.102 179.786 144.224 179.635 144.387C179.487 144.547 179.413 144.766 179.413 145.043C179.413 145.421 179.553 145.707 179.834 145.901C180.117 146.092 180.475 146.188 180.909 146.188ZM191.004 141.497L190.026 141.774C189.964 141.611 189.873 141.453 189.753 141.299C189.636 141.142 189.476 141.012 189.273 140.911C189.07 140.809 188.81 140.759 188.493 140.759C188.059 140.759 187.697 140.859 187.408 141.059C187.122 141.256 186.979 141.506 186.979 141.811C186.979 142.082 187.077 142.296 187.274 142.453C187.471 142.61 187.779 142.741 188.197 142.845L189.25 143.104C189.884 143.258 190.356 143.493 190.667 143.81C190.978 144.124 191.134 144.529 191.134 145.024C191.134 145.43 191.017 145.794 190.783 146.114C190.552 146.434 190.229 146.686 189.813 146.871C189.398 147.055 188.915 147.148 188.364 147.148C187.64 147.148 187.042 146.991 186.568 146.677C186.094 146.363 185.794 145.904 185.668 145.301L186.702 145.043C186.8 145.424 186.986 145.71 187.26 145.901C187.537 146.092 187.899 146.188 188.345 146.188C188.853 146.188 189.256 146.08 189.555 145.864C189.856 145.646 190.007 145.384 190.007 145.08C190.007 144.833 189.921 144.627 189.749 144.461C189.576 144.292 189.312 144.165 188.955 144.082L187.773 143.805C187.123 143.652 186.646 143.413 186.342 143.09C186.04 142.764 185.889 142.356 185.889 141.866C185.889 141.466 186.002 141.112 186.226 140.805C186.454 140.497 186.763 140.255 187.154 140.08C187.548 139.904 187.994 139.817 188.493 139.817C189.195 139.817 189.746 139.971 190.146 140.278C190.549 140.586 190.835 140.992 191.004 141.497ZM195.857 139.909V140.832H192.183V139.909H195.857ZM193.254 138.21H194.343V144.969C194.343 145.277 194.388 145.507 194.477 145.661C194.569 145.812 194.686 145.914 194.828 145.966C194.973 146.015 195.125 146.04 195.285 146.04C195.405 146.04 195.503 146.034 195.58 146.021C195.657 146.006 195.719 145.994 195.765 145.984L195.987 146.963C195.913 146.991 195.81 147.018 195.677 147.046C195.545 147.077 195.377 147.092 195.174 147.092C194.866 147.092 194.565 147.026 194.269 146.894C193.977 146.761 193.734 146.56 193.54 146.289C193.349 146.018 193.254 145.677 193.254 145.264V138.21ZM204.458 137.545V147H203.313V138.746H203.258L200.949 140.278V139.115L203.313 137.545H204.458ZM207.177 147V146.169L210.298 142.753C210.664 142.353 210.966 142.005 211.203 141.71C211.439 141.411 211.615 141.131 211.729 140.869C211.846 140.605 211.904 140.328 211.904 140.038C211.904 139.706 211.824 139.418 211.664 139.175C211.507 138.932 211.292 138.744 211.018 138.612C210.744 138.48 210.436 138.413 210.095 138.413C209.731 138.413 209.414 138.489 209.144 138.64C208.876 138.787 208.668 138.995 208.52 139.263C208.376 139.531 208.303 139.844 208.303 140.205H207.214C207.214 139.651 207.342 139.164 207.597 138.746C207.852 138.327 208.2 138.001 208.64 137.767C209.084 137.533 209.581 137.416 210.131 137.416C210.685 137.416 211.176 137.533 211.604 137.767C212.032 138.001 212.367 138.316 212.611 138.713C212.854 139.11 212.975 139.552 212.975 140.038C212.975 140.386 212.912 140.726 212.786 141.059C212.663 141.388 212.447 141.756 212.14 142.162C211.835 142.565 211.412 143.058 210.87 143.639L208.747 145.911V145.984H213.141V147H207.177ZM218.723 147V139.909H219.775V141.017H219.868C220.015 140.638 220.254 140.345 220.583 140.135C220.912 139.923 221.308 139.817 221.77 139.817C222.237 139.817 222.627 139.923 222.938 140.135C223.252 140.345 223.496 140.638 223.672 141.017H223.745C223.927 140.651 224.199 140.36 224.563 140.145C224.926 139.926 225.361 139.817 225.869 139.817C226.503 139.817 227.022 140.015 227.425 140.412C227.828 140.806 228.03 141.42 228.03 142.254V147H226.94V142.254C226.94 141.731 226.797 141.357 226.511 141.132C226.225 140.908 225.888 140.795 225.5 140.795C225.001 140.795 224.615 140.946 224.341 141.248C224.067 141.546 223.93 141.925 223.93 142.384V147H222.822V142.143C222.822 141.74 222.691 141.416 222.43 141.169C222.168 140.92 221.831 140.795 221.419 140.795C221.136 140.795 220.871 140.871 220.625 141.022C220.382 141.172 220.185 141.382 220.034 141.65C219.886 141.914 219.812 142.22 219.812 142.568V147H218.723ZM232.902 147.148C232.262 147.148 231.7 146.995 231.217 146.691C230.737 146.386 230.362 145.96 230.091 145.412C229.823 144.864 229.689 144.224 229.689 143.491C229.689 142.753 229.823 142.108 230.091 141.557C230.362 141.006 230.737 140.578 231.217 140.274C231.7 139.969 232.262 139.817 232.902 139.817C233.542 139.817 234.103 139.969 234.583 140.274C235.066 140.578 235.441 141.006 235.709 141.557C235.98 142.108 236.115 142.753 236.115 143.491C236.115 144.224 235.98 144.864 235.709 145.412C235.441 145.96 235.066 146.386 234.583 146.691C234.103 146.995 233.542 147.148 232.902 147.148ZM232.902 146.169C233.389 146.169 233.789 146.044 234.103 145.795C234.416 145.546 234.649 145.218 234.8 144.812C234.95 144.406 235.026 143.965 235.026 143.491C235.026 143.018 234.95 142.576 234.8 142.167C234.649 141.757 234.416 141.426 234.103 141.174C233.789 140.922 233.389 140.795 232.902 140.795C232.416 140.795 232.016 140.922 231.702 141.174C231.388 141.426 231.156 141.757 231.005 142.167C230.854 142.576 230.779 143.018 230.779 143.491C230.779 143.965 230.854 144.406 231.005 144.812C231.156 145.218 231.388 145.546 231.702 145.795C232.016 146.044 232.416 146.169 232.902 146.169ZM238.868 142.734V147H237.778V139.909H238.831V141.017H238.923C239.089 140.657 239.342 140.368 239.68 140.149C240.019 139.928 240.456 139.817 240.991 139.817C241.472 139.817 241.892 139.915 242.252 140.112C242.612 140.306 242.892 140.602 243.092 140.999C243.292 141.393 243.392 141.891 243.392 142.494V147H242.303V142.568C242.303 142.011 242.158 141.577 241.869 141.266C241.579 140.952 241.182 140.795 240.678 140.795C240.33 140.795 240.019 140.871 239.745 141.022C239.474 141.172 239.26 141.393 239.103 141.682C238.946 141.971 238.868 142.322 238.868 142.734ZM248.467 139.909V140.832H244.792V139.909H248.467ZM245.863 138.21H246.953V144.969C246.953 145.277 246.997 145.507 247.086 145.661C247.179 145.812 247.296 145.914 247.437 145.966C247.582 146.015 247.734 146.04 247.894 146.04C248.014 146.04 248.113 146.034 248.19 146.021C248.267 146.006 248.328 145.994 248.374 145.984L248.596 146.963C248.522 146.991 248.419 147.018 248.287 147.046C248.154 147.077 247.987 147.092 247.783 147.092C247.476 147.092 247.174 147.026 246.879 146.894C246.586 146.761 246.343 146.56 246.149 146.289C245.958 146.018 245.863 145.677 245.863 145.264V138.21ZM251.347 142.734V147H250.258V137.545H251.347V141.017H251.44C251.606 140.651 251.855 140.36 252.188 140.145C252.523 139.926 252.969 139.817 253.526 139.817C254.01 139.817 254.433 139.914 254.796 140.108C255.159 140.298 255.441 140.592 255.641 140.989C255.844 141.383 255.945 141.885 255.945 142.494V147H254.856V142.568C254.856 142.005 254.71 141.569 254.417 141.262C254.128 140.951 253.726 140.795 253.212 140.795C252.855 140.795 252.535 140.871 252.252 141.022C251.972 141.172 251.751 141.393 251.587 141.682C251.427 141.971 251.347 142.322 251.347 142.734ZM262.961 141.497L261.983 141.774C261.921 141.611 261.83 141.453 261.71 141.299C261.593 141.142 261.433 141.012 261.23 140.911C261.027 140.809 260.767 140.759 260.45 140.759C260.016 140.759 259.654 140.859 259.365 141.059C259.079 141.256 258.936 141.506 258.936 141.811C258.936 142.082 259.034 142.296 259.231 142.453C259.428 142.61 259.736 142.741 260.154 142.845L261.207 143.104C261.841 143.258 262.313 143.493 262.624 143.81C262.935 144.124 263.091 144.529 263.091 145.024C263.091 145.43 262.974 145.794 262.74 146.114C262.509 146.434 262.186 146.686 261.77 146.871C261.355 147.055 260.872 147.148 260.321 147.148C259.597 147.148 258.999 146.991 258.525 146.677C258.051 146.363 257.751 145.904 257.625 145.301L258.659 145.043C258.757 145.424 258.943 145.71 259.217 145.901C259.494 146.092 259.856 146.188 260.302 146.188C260.81 146.188 261.213 146.08 261.512 145.864C261.813 145.646 261.964 145.384 261.964 145.08C261.964 144.833 261.878 144.627 261.706 144.461C261.533 144.292 261.269 144.165 260.912 144.082L259.73 143.805C259.08 143.652 258.603 143.413 258.299 143.09C257.997 142.764 257.846 142.356 257.846 141.866C257.846 141.466 257.959 141.112 258.183 140.805C258.411 140.497 258.72 140.255 259.111 140.08C259.505 139.904 259.951 139.817 260.45 139.817C261.152 139.817 261.703 139.971 262.103 140.278C262.506 140.586 262.792 140.992 262.961 141.497Z" fill="#444444"/>
</svg>
