<svg width="598" height="400" viewBox="0 0 598 400" fill="none" xmlns="http://www.w3.org/2000/svg">
<rect width="598" height="400" fill="#F3F3E5"/>
<rect opacity="0.5" x="87" y="133" width="50" height="178" rx="16" fill="white"/>
<rect opacity="0.5" x="167" y="133" width="51" height="178" rx="16" fill="white"/>
<rect opacity="0.5" x="248" y="133" width="50" height="178" rx="16" fill="white"/>
<rect opacity="0.5" x="328" y="133" width="50" height="178" rx="16" fill="#B8FF90"/>
<rect opacity="0.5" x="408" y="133" width="50" height="178" rx="16" fill="white"/>
<rect opacity="0.5" x="488" y="133" width="50" height="178" rx="16" fill="white"/>
<path opacity="0.7" d="M101.864 332.364H103.273V340.682C103.273 341.424 103.136 342.055 102.864 342.574C102.591 343.093 102.206 343.487 101.71 343.756C101.214 344.025 100.629 344.159 99.9545 344.159C99.3182 344.159 98.7519 344.044 98.2557 343.812C97.7595 343.578 97.3693 343.244 97.0852 342.812C96.8011 342.381 96.6591 341.867 96.6591 341.273H98.0455C98.0455 341.602 98.1269 341.89 98.2898 342.136C98.4564 342.379 98.6837 342.568 98.9716 342.705C99.2595 342.841 99.5871 342.909 99.9545 342.909C100.36 342.909 100.705 342.824 100.989 342.653C101.273 342.483 101.489 342.233 101.636 341.903C101.788 341.57 101.864 341.163 101.864 340.682V332.364ZM108.483 344.205C107.93 344.205 107.428 344.1 106.977 343.892C106.527 343.68 106.169 343.375 105.903 342.977C105.638 342.576 105.506 342.091 105.506 341.523C105.506 341.023 105.604 340.617 105.801 340.307C105.998 339.992 106.261 339.746 106.591 339.568C106.92 339.39 107.284 339.258 107.682 339.17C108.083 339.08 108.487 339.008 108.892 338.955C109.422 338.886 109.852 338.835 110.182 338.801C110.515 338.763 110.758 338.701 110.909 338.614C111.064 338.527 111.142 338.375 111.142 338.159V338.114C111.142 337.553 110.989 337.117 110.682 336.807C110.379 336.496 109.919 336.341 109.301 336.341C108.661 336.341 108.159 336.481 107.795 336.761C107.432 337.042 107.176 337.341 107.028 337.659L105.756 337.205C105.983 336.674 106.286 336.261 106.665 335.966C107.047 335.667 107.464 335.458 107.915 335.341C108.369 335.22 108.816 335.159 109.256 335.159C109.536 335.159 109.858 335.193 110.222 335.261C110.589 335.326 110.943 335.46 111.284 335.665C111.629 335.869 111.915 336.178 112.142 336.591C112.369 337.004 112.483 337.557 112.483 338.25V344H111.142V342.818H111.074C110.983 343.008 110.831 343.21 110.619 343.426C110.407 343.642 110.125 343.826 109.773 343.977C109.42 344.129 108.991 344.205 108.483 344.205ZM108.688 343C109.218 343 109.665 342.896 110.028 342.688C110.396 342.479 110.672 342.21 110.858 341.881C111.047 341.551 111.142 341.205 111.142 340.841V339.614C111.085 339.682 110.96 339.744 110.767 339.801C110.578 339.854 110.358 339.902 110.108 339.943C109.862 339.981 109.621 340.015 109.386 340.045C109.155 340.072 108.968 340.095 108.824 340.114C108.475 340.159 108.15 340.233 107.847 340.335C107.547 340.434 107.305 340.583 107.119 340.784C106.938 340.981 106.847 341.25 106.847 341.591C106.847 342.057 107.019 342.409 107.364 342.648C107.712 342.883 108.153 343 108.688 343ZM116.271 338.75V344H114.93V335.273H116.226V336.636H116.339C116.544 336.193 116.855 335.837 117.271 335.568C117.688 335.295 118.226 335.159 118.885 335.159C119.476 335.159 119.993 335.28 120.436 335.523C120.879 335.761 121.224 336.125 121.47 336.614C121.716 337.098 121.839 337.712 121.839 338.455V344H120.499V338.545C120.499 337.86 120.321 337.326 119.964 336.943C119.608 336.557 119.12 336.364 118.499 336.364C118.071 336.364 117.688 336.456 117.351 336.642C117.018 336.828 116.754 337.098 116.561 337.455C116.368 337.811 116.271 338.242 116.271 338.75Z" fill="#444444"/>
<path opacity="0.7" d="M52.868 307.834C52.868 306.229 53.1293 304.978 53.652 304.082C54.1747 303.177 55.0893 302.724 56.396 302.724C57.6933 302.724 58.6033 303.177 59.126 304.082C59.6487 304.978 59.91 306.229 59.91 307.834C59.91 309.467 59.6487 310.737 59.126 311.642C58.6033 312.547 57.6933 313 56.396 313C55.0893 313 54.1747 312.547 53.652 311.642C53.1293 310.737 52.868 309.467 52.868 307.834ZM58.65 307.834C58.65 307.022 58.594 306.336 58.482 305.776C58.3793 305.207 58.16 304.749 57.824 304.404C57.4973 304.059 57.0213 303.886 56.396 303.886C55.7613 303.886 55.276 304.059 54.94 304.404C54.6133 304.749 54.394 305.207 54.282 305.776C54.1793 306.336 54.128 307.022 54.128 307.834C54.128 308.674 54.1793 309.379 54.282 309.948C54.394 310.517 54.6133 310.975 54.94 311.32C55.276 311.665 55.7613 311.838 56.396 311.838C57.0213 311.838 57.4973 311.665 57.824 311.32C58.16 310.975 58.3793 310.517 58.482 309.948C58.594 309.379 58.65 308.674 58.65 307.834Z" fill="#444444"/>
<path opacity="0.7" d="M52.714 256.978C53.8993 256.026 54.828 255.247 55.5 254.64C56.172 254.024 56.7367 253.385 57.194 252.722C57.6607 252.05 57.894 251.392 57.894 250.748C57.894 250.141 57.7447 249.665 57.446 249.32C57.1567 248.965 56.6853 248.788 56.032 248.788C55.3973 248.788 54.9027 248.989 54.548 249.39C54.2027 249.782 54.016 250.309 53.988 250.972H52.756C52.7933 249.927 53.1107 249.119 53.708 248.55C54.3053 247.981 55.0753 247.696 56.018 247.696C56.9793 247.696 57.74 247.962 58.3 248.494C58.8693 249.026 59.154 249.759 59.154 250.692C59.154 251.467 58.9207 252.223 58.454 252.96C57.9967 253.688 57.474 254.332 56.886 254.892C56.298 255.443 55.5467 256.087 54.632 256.824H59.448V257.888H52.714V256.978Z" fill="#444444"/>
<path opacity="0.7" d="M52.56 200.746V199.78L57.474 192.976H59V199.64H60.4V200.746H59V203H57.74V200.746H52.56ZM57.796 194.306L54.03 199.64H57.796V194.306Z" fill="#444444"/>
<path opacity="0.7" d="M58.51 140.286C58.3047 139.25 57.6653 138.732 56.592 138.732C55.7613 138.732 55.1407 139.054 54.73 139.698C54.3193 140.333 54.1187 141.383 54.128 142.848C54.3427 142.363 54.6973 141.985 55.192 141.714C55.696 141.434 56.256 141.294 56.872 141.294C57.8333 141.294 58.5987 141.593 59.168 142.19C59.7467 142.787 60.036 143.613 60.036 144.668C60.036 145.303 59.91 145.872 59.658 146.376C59.4153 146.88 59.042 147.281 58.538 147.58C58.0433 147.879 57.4413 148.028 56.732 148.028C55.7707 148.028 55.0193 147.813 54.478 147.384C53.9367 146.955 53.5587 146.362 53.344 145.606C53.1293 144.85 53.022 143.917 53.022 142.806C53.022 139.381 54.2167 137.668 56.606 137.668C57.5207 137.668 58.2393 137.915 58.762 138.41C59.2847 138.905 59.5927 139.53 59.686 140.286H58.51ZM56.606 142.372C56.2047 142.372 55.8267 142.456 55.472 142.624C55.1173 142.783 54.828 143.03 54.604 143.366C54.3893 143.693 54.282 144.094 54.282 144.57C54.282 145.279 54.4873 145.858 54.898 146.306C55.3087 146.745 55.8967 146.964 56.662 146.964C57.3153 146.964 57.8333 146.763 58.216 146.362C58.608 145.951 58.804 145.401 58.804 144.71C58.804 143.982 58.6173 143.413 58.244 143.002C57.8707 142.582 57.3247 142.372 56.606 142.372Z" fill="#444444"/>
<path opacity="0.7" d="M178.409 344V332.364H185.386V333.614H179.818V337.545H184.864V338.795H179.818V344H178.409ZM190.636 344.182C189.795 344.182 189.07 343.996 188.46 343.625C187.854 343.25 187.386 342.727 187.057 342.057C186.731 341.383 186.568 340.598 186.568 339.705C186.568 338.811 186.731 338.023 187.057 337.341C187.386 336.655 187.845 336.121 188.432 335.739C189.023 335.352 189.712 335.159 190.5 335.159C190.955 335.159 191.403 335.235 191.847 335.386C192.29 335.538 192.693 335.784 193.057 336.125C193.42 336.462 193.71 336.909 193.926 337.466C194.142 338.023 194.25 338.708 194.25 339.523V340.091H187.523V338.932H192.886C192.886 338.439 192.788 338 192.591 337.614C192.398 337.227 192.121 336.922 191.761 336.699C191.405 336.475 190.985 336.364 190.5 336.364C189.966 336.364 189.504 336.496 189.114 336.761C188.727 337.023 188.43 337.364 188.222 337.784C188.013 338.205 187.909 338.655 187.909 339.136V339.909C187.909 340.568 188.023 341.127 188.25 341.585C188.481 342.04 188.801 342.386 189.21 342.625C189.619 342.86 190.095 342.977 190.636 342.977C190.989 342.977 191.307 342.928 191.591 342.83C191.879 342.727 192.127 342.576 192.335 342.375C192.544 342.17 192.705 341.917 192.818 341.614L194.114 341.977C193.977 342.417 193.748 342.803 193.426 343.136C193.104 343.466 192.706 343.723 192.233 343.909C191.759 344.091 191.227 344.182 190.636 344.182ZM196.472 344V332.364H197.812V336.659H197.926C198.025 336.508 198.161 336.314 198.335 336.08C198.513 335.841 198.767 335.629 199.097 335.443C199.43 335.254 199.881 335.159 200.449 335.159C201.184 335.159 201.831 335.343 202.392 335.71C202.953 336.078 203.39 336.598 203.705 337.273C204.019 337.947 204.176 338.742 204.176 339.659C204.176 340.583 204.019 341.384 203.705 342.062C203.39 342.737 202.955 343.259 202.398 343.631C201.841 343.998 201.199 344.182 200.472 344.182C199.911 344.182 199.462 344.089 199.125 343.903C198.788 343.714 198.528 343.5 198.347 343.261C198.165 343.019 198.025 342.818 197.926 342.659H197.767V344H196.472ZM197.79 339.636C197.79 340.295 197.886 340.877 198.08 341.381C198.273 341.881 198.555 342.273 198.926 342.557C199.297 342.837 199.752 342.977 200.29 342.977C200.85 342.977 201.318 342.83 201.693 342.534C202.072 342.235 202.356 341.833 202.545 341.33C202.739 340.822 202.835 340.258 202.835 339.636C202.835 339.023 202.741 338.47 202.551 337.977C202.366 337.481 202.083 337.089 201.705 336.801C201.33 336.509 200.858 336.364 200.29 336.364C199.744 336.364 199.286 336.502 198.915 336.778C198.544 337.051 198.263 337.434 198.074 337.926C197.884 338.415 197.79 338.985 197.79 339.636Z" fill="#444444"/>
<path opacity="0.7" d="M256.409 332.364H258.091L262.045 342.023H262.182L266.136 332.364H267.818V344H266.5V335.159H266.386L262.75 344H261.477L257.841 335.159H257.727V344H256.409V332.364ZM273.03 344.205C272.477 344.205 271.975 344.1 271.524 343.892C271.073 343.68 270.715 343.375 270.45 342.977C270.185 342.576 270.053 342.091 270.053 341.523C270.053 341.023 270.151 340.617 270.348 340.307C270.545 339.992 270.808 339.746 271.138 339.568C271.467 339.39 271.831 339.258 272.229 339.17C272.63 339.08 273.034 339.008 273.439 338.955C273.969 338.886 274.399 338.835 274.729 338.801C275.062 338.763 275.304 338.701 275.456 338.614C275.611 338.527 275.689 338.375 275.689 338.159V338.114C275.689 337.553 275.536 337.117 275.229 336.807C274.926 336.496 274.465 336.341 273.848 336.341C273.208 336.341 272.706 336.481 272.342 336.761C271.979 337.042 271.723 337.341 271.575 337.659L270.303 337.205C270.53 336.674 270.833 336.261 271.212 335.966C271.594 335.667 272.011 335.458 272.462 335.341C272.916 335.22 273.363 335.159 273.803 335.159C274.083 335.159 274.405 335.193 274.768 335.261C275.136 335.326 275.49 335.46 275.831 335.665C276.176 335.869 276.462 336.178 276.689 336.591C276.916 337.004 277.03 337.557 277.03 338.25V344H275.689V342.818H275.621C275.53 343.008 275.378 343.21 275.166 343.426C274.954 343.642 274.672 343.826 274.32 343.977C273.967 344.129 273.537 344.205 273.03 344.205ZM273.234 343C273.765 343 274.212 342.896 274.575 342.688C274.943 342.479 275.219 342.21 275.405 341.881C275.594 341.551 275.689 341.205 275.689 340.841V339.614C275.632 339.682 275.507 339.744 275.314 339.801C275.125 339.854 274.905 339.902 274.655 339.943C274.409 339.981 274.168 340.015 273.933 340.045C273.702 340.072 273.515 340.095 273.371 340.114C273.022 340.159 272.696 340.233 272.393 340.335C272.094 340.434 271.852 340.583 271.666 340.784C271.484 340.981 271.393 341.25 271.393 341.591C271.393 342.057 271.566 342.409 271.911 342.648C272.259 342.883 272.7 343 273.234 343ZM279.477 344V335.273H280.773V336.591H280.864C281.023 336.159 281.311 335.809 281.727 335.54C282.144 335.271 282.614 335.136 283.136 335.136C283.235 335.136 283.358 335.138 283.506 335.142C283.653 335.146 283.765 335.152 283.841 335.159V336.523C283.795 336.511 283.691 336.494 283.528 336.472C283.369 336.445 283.201 336.432 283.023 336.432C282.598 336.432 282.22 336.521 281.886 336.699C281.557 336.873 281.295 337.116 281.102 337.426C280.913 337.733 280.818 338.083 280.818 338.477V344H279.477Z" fill="#444444"/>
<path opacity="0.7" d="M338.886 344H337.409L341.682 332.364H343.136L347.409 344H345.932L342.455 334.205H342.364L338.886 344ZM339.432 339.455H345.386V340.705H339.432V339.455ZM349.04 347.273V335.273H350.335V336.659H350.494C350.593 336.508 350.729 336.314 350.903 336.08C351.081 335.841 351.335 335.629 351.665 335.443C351.998 335.254 352.449 335.159 353.017 335.159C353.752 335.159 354.4 335.343 354.96 335.71C355.521 336.078 355.958 336.598 356.273 337.273C356.587 337.947 356.744 338.742 356.744 339.659C356.744 340.583 356.587 341.384 356.273 342.062C355.958 342.737 355.523 343.259 354.966 343.631C354.409 343.998 353.767 344.182 353.04 344.182C352.479 344.182 352.03 344.089 351.693 343.903C351.356 343.714 351.097 343.5 350.915 343.261C350.733 343.019 350.593 342.818 350.494 342.659H350.381V347.273H349.04ZM350.358 339.636C350.358 340.295 350.455 340.877 350.648 341.381C350.841 341.881 351.123 342.273 351.494 342.557C351.866 342.837 352.32 342.977 352.858 342.977C353.419 342.977 353.886 342.83 354.261 342.534C354.64 342.235 354.924 341.833 355.114 341.33C355.307 340.822 355.403 340.258 355.403 339.636C355.403 339.023 355.309 338.47 355.119 337.977C354.934 337.481 354.652 337.089 354.273 336.801C353.898 336.509 353.426 336.364 352.858 336.364C352.313 336.364 351.854 336.502 351.483 336.778C351.112 337.051 350.831 337.434 350.642 337.926C350.453 338.415 350.358 338.985 350.358 339.636ZM358.79 344V335.273H360.085V336.591H360.176C360.335 336.159 360.623 335.809 361.04 335.54C361.456 335.271 361.926 335.136 362.449 335.136C362.547 335.136 362.67 335.138 362.818 335.142C362.966 335.146 363.078 335.152 363.153 335.159V336.523C363.108 336.511 363.004 336.494 362.841 336.472C362.682 336.445 362.513 336.432 362.335 336.432C361.911 336.432 361.532 336.521 361.199 336.699C360.869 336.873 360.608 337.116 360.415 337.426C360.225 337.733 360.131 338.083 360.131 338.477V344H358.79Z" fill="#444444"/>
<path opacity="0.7" d="M416.409 332.364H418.091L422.045 342.023H422.182L426.136 332.364H427.818V344H426.5V335.159H426.386L422.75 344H421.477L417.841 335.159H417.727V344H416.409V332.364ZM433.03 344.205C432.477 344.205 431.975 344.1 431.524 343.892C431.073 343.68 430.715 343.375 430.45 342.977C430.185 342.576 430.053 342.091 430.053 341.523C430.053 341.023 430.151 340.617 430.348 340.307C430.545 339.992 430.808 339.746 431.138 339.568C431.467 339.39 431.831 339.258 432.229 339.17C432.63 339.08 433.034 339.008 433.439 338.955C433.969 338.886 434.399 338.835 434.729 338.801C435.062 338.763 435.304 338.701 435.456 338.614C435.611 338.527 435.689 338.375 435.689 338.159V338.114C435.689 337.553 435.536 337.117 435.229 336.807C434.926 336.496 434.465 336.341 433.848 336.341C433.208 336.341 432.706 336.481 432.342 336.761C431.979 337.042 431.723 337.341 431.575 337.659L430.303 337.205C430.53 336.674 430.833 336.261 431.212 335.966C431.594 335.667 432.011 335.458 432.462 335.341C432.916 335.22 433.363 335.159 433.803 335.159C434.083 335.159 434.405 335.193 434.768 335.261C435.136 335.326 435.49 335.46 435.831 335.665C436.176 335.869 436.462 336.178 436.689 336.591C436.916 337.004 437.03 337.557 437.03 338.25V344H435.689V342.818H435.621C435.53 343.008 435.378 343.21 435.166 343.426C434.954 343.642 434.672 343.826 434.32 343.977C433.967 344.129 433.537 344.205 433.03 344.205ZM433.234 343C433.765 343 434.212 342.896 434.575 342.688C434.943 342.479 435.219 342.21 435.405 341.881C435.594 341.551 435.689 341.205 435.689 340.841V339.614C435.632 339.682 435.507 339.744 435.314 339.801C435.125 339.854 434.905 339.902 434.655 339.943C434.409 339.981 434.168 340.015 433.933 340.045C433.702 340.072 433.515 340.095 433.371 340.114C433.022 340.159 432.696 340.233 432.393 340.335C432.094 340.434 431.852 340.583 431.666 340.784C431.484 340.981 431.393 341.25 431.393 341.591C431.393 342.057 431.566 342.409 431.911 342.648C432.259 342.883 432.7 343 433.234 343ZM440.028 347.273C439.801 347.273 439.598 347.254 439.42 347.216C439.242 347.182 439.119 347.148 439.051 347.114L439.392 345.932C439.718 346.015 440.006 346.045 440.256 346.023C440.506 346 440.727 345.888 440.92 345.688C441.117 345.491 441.297 345.17 441.46 344.727L441.71 344.045L438.483 335.273H439.938L442.347 342.227H442.438L444.847 335.273H446.301L442.597 345.273C442.43 345.723 442.223 346.097 441.977 346.392C441.731 346.691 441.445 346.913 441.119 347.057C440.797 347.201 440.434 347.273 440.028 347.273Z" fill="#444444"/>
<path opacity="0.7" d="M501.864 332.364H503.273V340.682C503.273 341.424 503.136 342.055 502.864 342.574C502.591 343.093 502.206 343.487 501.71 343.756C501.214 344.025 500.629 344.159 499.955 344.159C499.318 344.159 498.752 344.044 498.256 343.812C497.759 343.578 497.369 343.244 497.085 342.812C496.801 342.381 496.659 341.867 496.659 341.273H498.045C498.045 341.602 498.127 341.89 498.29 342.136C498.456 342.379 498.684 342.568 498.972 342.705C499.259 342.841 499.587 342.909 499.955 342.909C500.36 342.909 500.705 342.824 500.989 342.653C501.273 342.483 501.489 342.233 501.636 341.903C501.788 341.57 501.864 341.163 501.864 340.682V332.364ZM511.415 340.432V335.273H512.756V344H511.415V342.523H511.324C511.119 342.966 510.801 343.343 510.369 343.653C509.938 343.96 509.392 344.114 508.733 344.114C508.188 344.114 507.703 343.994 507.278 343.756C506.854 343.513 506.521 343.15 506.278 342.665C506.036 342.176 505.915 341.561 505.915 340.818V335.273H507.256V340.727C507.256 341.364 507.434 341.871 507.79 342.25C508.15 342.629 508.608 342.818 509.165 342.818C509.498 342.818 509.837 342.733 510.182 342.562C510.53 342.392 510.822 342.131 511.057 341.778C511.295 341.426 511.415 340.977 511.415 340.432ZM516.553 338.75V344H515.212V335.273H516.507V336.636H516.621C516.825 336.193 517.136 335.837 517.553 335.568C517.969 335.295 518.507 335.159 519.166 335.159C519.757 335.159 520.274 335.28 520.717 335.523C521.161 335.761 521.505 336.125 521.751 336.614C521.998 337.098 522.121 337.712 522.121 338.455V344H520.78V338.545C520.78 337.86 520.602 337.326 520.246 336.943C519.89 336.557 519.401 336.364 518.78 336.364C518.352 336.364 517.969 336.456 517.632 336.642C517.299 336.828 517.036 337.098 516.842 337.455C516.649 337.811 516.553 338.242 516.553 338.75Z" fill="#444444"/>
<path d="M52.728 70H50.11L55.874 55.26H58.734L64.498 70H61.77L60.362 66.282H54.136L52.728 70ZM56.468 60.144L54.95 64.126H59.548L58.052 60.144L57.26 57.482L56.468 60.144ZM70.0552 70.22C66.8652 70.22 64.8632 67.976 64.8632 64.654C64.8632 61.31 66.8652 59.066 70.0552 59.066C72.7392 59.066 74.4332 60.584 75.0052 62.608L72.7832 63.708C72.5412 62.168 71.7492 61.134 70.0992 61.134C68.4052 61.134 67.3712 62.388 67.3712 64.654C67.3712 66.898 68.4052 68.152 70.0992 68.152C71.7712 68.152 72.5412 67.118 72.7832 65.578L75.0052 66.678C74.4332 68.702 72.7392 70.22 70.0552 70.22ZM80.7364 70.242C78.7124 70.242 77.5464 68.966 77.5464 67.074V61.2H75.8744V59.286H77.5464V57.988L80.0104 56.426V59.286H83.2884V61.2H80.0104V66.48C80.0104 67.646 80.5604 67.932 81.2864 67.932C82.1224 67.932 82.7384 67.25 83.0464 66.634L83.8164 68.834C83.3544 69.516 82.2984 70.242 80.7364 70.242ZM87.9436 57.768H85.4796V55.26H87.9436V57.768ZM87.9436 70H85.4796V59.286H87.9436V70ZM96.314 70H93.168L89.362 59.286H92.09L93.916 65.116L94.796 68.394L95.654 65.116L97.458 59.286H100.142L96.314 70ZM104.014 57.768H101.55V55.26H104.014V57.768ZM104.014 70H101.55V59.286H104.014V70ZM110.492 70.242C108.468 70.242 107.302 68.966 107.302 67.074V61.2H105.63V59.286H107.302V57.988L109.766 56.426V59.286H113.044V61.2H109.766V66.48C109.766 67.646 110.316 67.932 111.042 67.932C111.878 67.932 112.494 67.25 112.802 66.634L113.572 68.834C113.11 69.516 112.054 70.242 110.492 70.242ZM117.7 57.768H115.236V55.26H117.7V57.768ZM117.7 70H115.236V59.286H117.7V70ZM125.058 70.22C121.868 70.22 119.778 67.998 119.778 64.654C119.778 61.288 121.868 59.066 124.882 59.066C128.094 59.066 129.876 61.2 129.876 64.17C129.876 64.566 129.832 65.028 129.788 65.248H122.132C122.264 67.162 123.386 68.196 125.08 68.196C126.95 68.196 127.786 67.228 128.182 66.326L129.7 67.91C128.886 69.142 127.434 70.22 125.058 70.22ZM124.882 61.046C123.364 61.046 122.352 61.926 122.154 63.664H127.654C127.478 61.97 126.51 61.046 124.882 61.046ZM136.265 70.22C133.977 70.22 131.887 69.296 131.073 67.602L132.525 66.062C133.119 67.14 134.439 68.24 136.353 68.24C137.409 68.24 138.091 67.866 138.091 67.096C138.091 66.304 137.277 66.04 136.089 65.754L134.659 65.402C132.965 65.006 131.403 64.258 131.403 62.3C131.403 60.298 133.009 59.088 135.473 59.088C137.761 59.088 139.367 60.188 140.027 61.398L138.575 62.938C137.827 61.75 136.683 61.046 135.297 61.046C134.351 61.046 133.713 61.442 133.713 62.168C133.713 62.938 134.285 63.224 135.737 63.598L137.035 63.928C139.433 64.544 140.313 65.512 140.313 67.052C140.313 69.164 138.531 70.22 136.265 70.22Z" fill="#444444"/>
<rect x="424.5" y="50.5" width="109" height="28" rx="14" stroke="#444444" stroke-opacity="0.5"/>
<path d="M434.358 59.8182H435.77L438.594 64.571H438.713L441.537 59.8182H442.949L439.27 65.804V70H438.037V65.804L434.358 59.8182ZM446.506 70.1591C445.77 70.1591 445.136 69.9967 444.602 69.6719C444.072 69.3438 443.662 68.8864 443.374 68.2997C443.089 67.7098 442.946 67.0237 442.946 66.2415C442.946 65.4593 443.089 64.7699 443.374 64.1733C443.662 63.5734 444.063 63.1061 444.577 62.7713C445.094 62.4332 445.697 62.2642 446.387 62.2642C446.784 62.2642 447.177 62.3305 447.565 62.4631C447.953 62.5956 448.306 62.8111 448.624 63.1094C448.942 63.4044 449.196 63.7955 449.385 64.2827C449.574 64.7699 449.668 65.3698 449.668 66.0824V66.5795H443.782V65.5653H448.475C448.475 65.1345 448.389 64.75 448.216 64.4119C448.047 64.0739 447.805 63.8071 447.49 63.6115C447.179 63.416 446.811 63.3182 446.387 63.3182C445.919 63.3182 445.515 63.4342 445.174 63.6662C444.836 63.8949 444.575 64.1932 444.393 64.5611C444.211 64.929 444.12 65.3234 444.12 65.7443V66.4205C444.12 66.9972 444.219 67.486 444.418 67.8871C444.62 68.2848 444.9 68.5881 445.258 68.7969C445.616 69.0024 446.032 69.1051 446.506 69.1051C446.814 69.1051 447.093 69.062 447.341 68.9759C447.593 68.8864 447.81 68.7538 447.993 68.5781C448.175 68.3991 448.316 68.1771 448.415 67.9119L449.549 68.2301C449.429 68.6146 449.229 68.9527 448.947 69.2443C448.665 69.5327 448.317 69.758 447.903 69.9205C447.489 70.0795 447.023 70.1591 446.506 70.1591ZM453.7 70.179C453.216 70.179 452.777 70.0878 452.382 69.9055C451.988 69.7199 451.675 69.4531 451.443 69.1051C451.211 68.7538 451.095 68.3295 451.095 67.8324C451.095 67.3949 451.181 67.0402 451.353 66.7685C451.526 66.4934 451.756 66.2779 452.044 66.1222C452.333 65.9664 452.651 65.8504 452.999 65.7741C453.35 65.6946 453.703 65.6316 454.058 65.5852C454.522 65.5256 454.898 65.4808 455.186 65.451C455.478 65.4179 455.69 65.3632 455.823 65.2869C455.959 65.2107 456.027 65.0781 456.027 64.8892V64.8494C456.027 64.3589 455.892 63.9777 455.624 63.706C455.359 63.4342 454.956 63.2983 454.416 63.2983C453.856 63.2983 453.417 63.4209 453.098 63.6662C452.78 63.9115 452.556 64.1733 452.427 64.4517L451.314 64.054C451.512 63.59 451.778 63.2287 452.109 62.9702C452.444 62.7083 452.808 62.526 453.203 62.4233C453.6 62.3172 453.992 62.2642 454.376 62.2642C454.621 62.2642 454.903 62.294 455.221 62.3537C455.543 62.41 455.853 62.5277 456.151 62.7067C456.453 62.8857 456.703 63.1558 456.902 63.517C457.1 63.8783 457.2 64.3622 457.2 64.9688V70H456.027V68.9659H455.967C455.887 69.1316 455.755 69.3089 455.569 69.4979C455.384 69.6868 455.137 69.8475 454.828 69.9801C454.52 70.1127 454.144 70.179 453.7 70.179ZM453.879 69.125C454.343 69.125 454.734 69.0339 455.052 68.8516C455.374 68.6693 455.616 68.4339 455.778 68.1456C455.944 67.8572 456.027 67.554 456.027 67.2358V66.1619C455.977 66.2216 455.868 66.2763 455.699 66.326C455.533 66.3724 455.341 66.4138 455.122 66.4503C454.906 66.4834 454.696 66.5133 454.49 66.5398C454.288 66.563 454.124 66.5829 453.998 66.5994C453.693 66.6392 453.408 66.7038 453.143 66.7933C452.881 66.8795 452.669 67.0104 452.507 67.1861C452.348 67.3584 452.268 67.5937 452.268 67.892C452.268 68.2997 452.419 68.608 452.721 68.8168C453.025 69.0223 453.412 69.125 453.879 69.125ZM459.341 70V62.3636H460.475V63.517H460.555C460.694 63.1392 460.946 62.8326 461.31 62.5973C461.675 62.362 462.086 62.2443 462.543 62.2443C462.629 62.2443 462.737 62.246 462.866 62.2493C462.996 62.2526 463.093 62.2576 463.16 62.2642V63.4574C463.12 63.4474 463.029 63.4325 462.886 63.4126C462.747 63.3894 462.599 63.3778 462.444 63.3778C462.073 63.3778 461.741 63.4557 461.449 63.6115C461.161 63.764 460.932 63.9761 460.763 64.2479C460.598 64.5163 460.515 64.8229 460.515 65.1676V70H459.341Z" fill="#8D9092"/>
<path d="M510.554 62.2772L514.998 66.7217L519.443 62.2772" stroke="#444444" stroke-opacity="0.5" stroke-width="1.33333" stroke-linecap="round" stroke-linejoin="round"/>
<g filter="url(#filter0_f_2_590)">
<path d="M87 248.376L108.316 243.403C123.89 239.77 138.04 231.609 148.983 219.947L161.679 206.416C169.166 198.437 178.574 192.513 189.004 189.21V189.21C201.755 185.172 215.45 185.233 228.163 189.385L229.158 189.71C238.313 192.7 246.718 197.623 253.804 204.145L282.014 230.11C287.58 235.232 293.836 239.55 300.6 242.937L305.569 245.426C316.828 251.064 329.247 254 341.839 254H353.271C362.233 254 371.127 252.446 379.558 249.408L381.664 248.649C392.402 244.779 402.007 238.294 409.61 229.781L410.427 228.866C417.13 221.36 425.52 215.551 434.905 211.918V211.918C444.609 208.162 455.086 206.844 465.418 208.08L494 211.5H520.268C525.08 211.5 529.882 211.071 534.618 210.219L552.5 207" stroke="#292D30" stroke-opacity="0.19" stroke-width="6" stroke-linecap="round"/>
</g>
<path d="M87 246.762L106.768 239.57C123.275 233.564 137.382 222.356 146.963 207.633L163.593 182.079C169.769 172.59 178.802 165.311 189.387 161.294V161.294C201.76 156.6 215.607 156.737 227.931 161.559V161.559C237.711 165.386 246.302 172.024 252.41 180.567L281.518 221.285C286.739 228.589 293.138 234.974 300.454 240.178L304.829 243.292C316.469 251.573 330.325 256.173 344.606 256.497V256.497C359.07 256.824 373.293 252.75 385.39 244.814L385.893 244.484C393.904 239.229 400.807 232.455 406.213 224.545L416.069 210.123C419.086 205.709 422.821 201.833 427.12 198.656L434.788 192.989C443.984 186.192 456.139 184.904 466.556 189.623V189.623C485.263 198.097 505.44 202.846 525.963 203.604L553 204.604" stroke="#061D19" stroke-width="6" stroke-linecap="round"/>
<circle cx="349" cy="255" r="6" fill="#061D19" stroke="white" stroke-width="2"/>
<rect x="319" y="210" width="61" height="28" rx="14" fill="#B8FF90"/>
<path d="M343.324 225.708C343.324 226.092 343.228 226.46 343.036 226.812C342.844 227.156 342.56 227.444 342.184 227.676C341.816 227.908 341.372 228.04 340.852 228.072V229.044H340.204V228.072C339.476 228.008 338.884 227.776 338.428 227.376C337.972 226.968 337.74 226.452 337.732 225.828H338.896C338.928 226.164 339.052 226.456 339.268 226.704C339.492 226.952 339.804 227.108 340.204 227.172V224.172C339.668 224.036 339.236 223.896 338.908 223.752C338.58 223.608 338.3 223.384 338.068 223.08C337.836 222.776 337.72 222.368 337.72 221.856C337.72 221.208 337.944 220.672 338.392 220.248C338.848 219.824 339.452 219.588 340.204 219.54V218.544H340.852V219.54C341.532 219.596 342.08 219.816 342.496 220.2C342.912 220.576 343.152 221.068 343.216 221.676H342.052C342.012 221.396 341.888 221.144 341.68 220.92C341.472 220.688 341.196 220.536 340.852 220.464V223.392C341.38 223.528 341.808 223.668 342.136 223.812C342.472 223.948 342.752 224.168 342.976 224.472C343.208 224.776 343.324 225.188 343.324 225.708ZM338.836 221.796C338.836 222.188 338.952 222.488 339.184 222.696C339.416 222.904 339.756 223.076 340.204 223.212V220.44C339.788 220.48 339.456 220.616 339.208 220.848C338.96 221.072 338.836 221.388 338.836 221.796ZM340.852 227.184C341.284 227.136 341.62 226.98 341.86 226.716C342.108 226.452 342.232 226.136 342.232 225.768C342.232 225.376 342.112 225.076 341.872 224.868C341.632 224.652 341.292 224.48 340.852 224.352V227.184ZM346.613 225.672C346.693 226.128 346.877 226.48 347.165 226.728C347.461 226.976 347.857 227.1 348.353 227.1C349.017 227.1 349.505 226.84 349.817 226.32C350.137 225.8 350.289 224.924 350.273 223.692C350.105 224.052 349.825 224.336 349.433 224.544C349.041 224.744 348.605 224.844 348.125 224.844C347.589 224.844 347.109 224.736 346.685 224.52C346.269 224.296 345.941 223.972 345.701 223.548C345.461 223.124 345.341 222.612 345.341 222.012C345.341 221.156 345.589 220.468 346.085 219.948C346.581 219.42 347.285 219.156 348.197 219.156C349.317 219.156 350.101 219.52 350.549 220.248C351.005 220.976 351.233 222.06 351.233 223.5C351.233 224.508 351.141 225.34 350.957 225.996C350.781 226.652 350.477 227.152 350.045 227.496C349.621 227.84 349.037 228.012 348.293 228.012C347.477 228.012 346.841 227.792 346.385 227.352C345.929 226.912 345.669 226.352 345.605 225.672H346.613ZM348.305 223.92C348.841 223.92 349.281 223.756 349.625 223.428C349.969 223.092 350.141 222.64 350.141 222.072C350.141 221.472 349.973 220.988 349.637 220.62C349.301 220.252 348.829 220.068 348.221 220.068C347.661 220.068 347.213 220.244 346.877 220.596C346.549 220.948 346.385 221.412 346.385 221.988C346.385 222.572 346.549 223.04 346.877 223.392C347.205 223.744 347.681 223.92 348.305 223.92ZM353.295 228.072C353.087 228.072 352.911 228 352.767 227.856C352.623 227.712 352.551 227.536 352.551 227.328C352.551 227.12 352.623 226.944 352.767 226.8C352.911 226.656 353.087 226.584 353.295 226.584C353.495 226.584 353.663 226.656 353.799 226.8C353.943 226.944 354.015 227.12 354.015 227.328C354.015 227.536 353.943 227.712 353.799 227.856C353.663 228 353.495 228.072 353.295 228.072ZM355.155 227.124C356.171 226.308 356.967 225.64 357.543 225.12C358.119 224.592 358.603 224.044 358.995 223.476C359.395 222.9 359.595 222.336 359.595 221.784C359.595 221.264 359.467 220.856 359.211 220.56C358.963 220.256 358.559 220.104 357.999 220.104C357.455 220.104 357.031 220.276 356.727 220.62C356.431 220.956 356.271 221.408 356.247 221.976H355.191C355.223 221.08 355.495 220.388 356.007 219.9C356.519 219.412 357.179 219.168 357.987 219.168C358.811 219.168 359.463 219.396 359.943 219.852C360.431 220.308 360.675 220.936 360.675 221.736C360.675 222.4 360.475 223.048 360.075 223.68C359.683 224.304 359.235 224.856 358.731 225.336C358.227 225.808 357.583 226.36 356.799 226.992H360.927V227.904H355.155V227.124Z" fill="#061D19"/>
<path d="M350.421 243.825C350.076 244.639 348.924 244.639 348.579 243.825L345.325 236.14C345.046 235.481 345.53 234.75 346.246 234.75L352.754 234.75C353.47 234.75 353.954 235.481 353.675 236.14L350.421 243.825Z" fill="#B8FF90"/>
<defs>
<filter id="filter0_f_2_590" x="79.9993" y="179.226" width="479.501" height="81.7744" filterUnits="userSpaceOnUse" color-interpolation-filters="sRGB">
<feFlood flood-opacity="0" result="BackgroundImageFix"/>
<feBlend mode="normal" in="SourceGraphic" in2="BackgroundImageFix" result="shape"/>
<feGaussianBlur stdDeviation="2" result="effect1_foregroundBlur_2_590"/>
</filter>
</defs>
</svg>
