<svg width="371" height="205" viewBox="0 0 371 205" fill="none" xmlns="http://www.w3.org/2000/svg">
<rect width="371" height="205" fill="white"/>
<path d="M32.728 50H30.11L35.874 35.26H38.734L44.498 50H41.77L40.362 46.282H34.136L32.728 50ZM36.468 40.144L34.95 44.126H39.548L38.052 40.144L37.26 37.482L36.468 40.144ZM50.0552 50.22C46.8652 50.22 44.8632 47.976 44.8632 44.654C44.8632 41.31 46.8652 39.066 50.0552 39.066C52.7392 39.066 54.4332 40.584 55.0052 42.608L52.7832 43.708C52.5412 42.168 51.7492 41.134 50.0992 41.134C48.4052 41.134 47.3712 42.388 47.3712 44.654C47.3712 46.898 48.4052 48.152 50.0992 48.152C51.7712 48.152 52.5412 47.118 52.7832 45.578L55.0052 46.678C54.4332 48.702 52.7392 50.22 50.0552 50.22ZM60.7364 50.242C58.7124 50.242 57.5464 48.966 57.5464 47.074V41.2H55.8744V39.286H57.5464V37.988L60.0104 36.426V39.286H63.2884V41.2H60.0104V46.48C60.0104 47.646 60.5604 47.932 61.2864 47.932C62.1224 47.932 62.7384 47.25 63.0464 46.634L63.8164 48.834C63.3544 49.516 62.2984 50.242 60.7364 50.242ZM67.9436 37.768H65.4796V35.26H67.9436V37.768ZM67.9436 50H65.4796V39.286H67.9436V50ZM76.314 50H73.168L69.362 39.286H72.09L73.916 45.116L74.796 48.394L75.654 45.116L77.458 39.286H80.142L76.314 50ZM84.014 37.768H81.55V35.26H84.014V37.768ZM84.014 50H81.55V39.286H84.014V50ZM90.4923 50.242C88.4683 50.242 87.3023 48.966 87.3023 47.074V41.2H85.6303V39.286H87.3023V37.988L89.7663 36.426V39.286H93.0443V41.2H89.7663V46.48C89.7663 47.646 90.3163 47.932 91.0423 47.932C91.8783 47.932 92.4943 47.25 92.8023 46.634L93.5723 48.834C93.1103 49.516 92.0543 50.242 90.4923 50.242ZM97.6995 37.768H95.2355V35.26H97.6995V37.768ZM97.6995 50H95.2355V39.286H97.6995V50ZM105.058 50.22C101.868 50.22 99.7778 47.998 99.7778 44.654C99.7778 41.288 101.868 39.066 104.882 39.066C108.094 39.066 109.876 41.2 109.876 44.17C109.876 44.566 109.832 45.028 109.788 45.248H102.132C102.264 47.162 103.386 48.196 105.08 48.196C106.95 48.196 107.786 47.228 108.182 46.326L109.7 47.91C108.886 49.142 107.434 50.22 105.058 50.22ZM104.882 41.046C103.364 41.046 102.352 41.926 102.154 43.664H107.654C107.478 41.97 106.51 41.046 104.882 41.046ZM116.265 50.22C113.977 50.22 111.887 49.296 111.073 47.602L112.525 46.062C113.119 47.14 114.439 48.24 116.353 48.24C117.409 48.24 118.091 47.866 118.091 47.096C118.091 46.304 117.277 46.04 116.089 45.754L114.659 45.402C112.965 45.006 111.403 44.258 111.403 42.3C111.403 40.298 113.009 39.088 115.473 39.088C117.761 39.088 119.367 40.188 120.027 41.398L118.575 42.938C117.827 41.75 116.683 41.046 115.297 41.046C114.351 41.046 113.713 41.442 113.713 42.168C113.713 42.938 114.285 43.224 115.737 43.598L117.035 43.928C119.433 44.544 120.313 45.512 120.313 47.052C120.313 49.164 118.531 50.22 116.265 50.22Z" fill="black"/>
<rect x="30" y="81" width="16" height="16" rx="4" fill="#061D19"/>
<path d="M63.7727 87H62.3636C62.2803 86.5947 62.1345 86.2386 61.9261 85.9318C61.7216 85.625 61.4716 85.3674 61.1761 85.1591C60.8845 84.947 60.5606 84.7879 60.2045 84.6818C59.8485 84.5758 59.4773 84.5227 59.0909 84.5227C58.3864 84.5227 57.7481 84.7008 57.1761 85.0568C56.608 85.4129 56.1553 85.9375 55.8182 86.6307C55.4848 87.3239 55.3182 88.1742 55.3182 89.1818C55.3182 90.1894 55.4848 91.0398 55.8182 91.733C56.1553 92.4261 56.608 92.9508 57.1761 93.3068C57.7481 93.6629 58.3864 93.8409 59.0909 93.8409C59.4773 93.8409 59.8485 93.7879 60.2045 93.6818C60.5606 93.5758 60.8845 93.4186 61.1761 93.2102C61.4716 92.9981 61.7216 92.7386 61.9261 92.4318C62.1345 92.1212 62.2803 91.7652 62.3636 91.3636H63.7727C63.6667 91.9583 63.4735 92.4905 63.1932 92.9602C62.9129 93.4299 62.5644 93.8295 62.1477 94.1591C61.7311 94.4848 61.2633 94.733 60.7443 94.9034C60.2292 95.0739 59.678 95.1591 59.0909 95.1591C58.0985 95.1591 57.2159 94.9167 56.4432 94.4318C55.6705 93.947 55.0625 93.2576 54.6193 92.3636C54.1761 91.4697 53.9545 90.4091 53.9545 89.1818C53.9545 87.9545 54.1761 86.8939 54.6193 86C55.0625 85.1061 55.6705 84.4167 56.4432 83.9318C57.2159 83.447 58.0985 83.2045 59.0909 83.2045C59.678 83.2045 60.2292 83.2898 60.7443 83.4602C61.2633 83.6307 61.7311 83.8807 62.1477 84.2102C62.5644 84.536 62.9129 84.9337 63.1932 85.4034C63.4735 85.8693 63.6667 86.4015 63.7727 87ZM68.4361 95.2045C67.883 95.2045 67.3812 95.1004 66.9304 94.892C66.4796 94.6799 66.1217 94.375 65.8565 93.9773C65.5914 93.5758 65.4588 93.0909 65.4588 92.5227C65.4588 92.0227 65.5573 91.6174 65.7543 91.3068C65.9512 90.9924 66.2145 90.7462 66.544 90.5682C66.8736 90.3902 67.2372 90.2576 67.6349 90.1705C68.0365 90.0795 68.4399 90.0076 68.8452 89.9545C69.3755 89.8864 69.8054 89.8352 70.1349 89.8011C70.4683 89.7633 70.7107 89.7008 70.8622 89.6136C71.0175 89.5265 71.0952 89.375 71.0952 89.1591V89.1136C71.0952 88.553 70.9418 88.1174 70.6349 87.8068C70.3319 87.4962 69.8717 87.3409 69.2543 87.3409C68.6141 87.3409 68.1122 87.4811 67.7486 87.7614C67.3849 88.0417 67.1293 88.3409 66.9815 88.6591L65.7088 88.2045C65.9361 87.6742 66.2391 87.2614 66.6179 86.9659C67.0005 86.6667 67.4171 86.4583 67.8679 86.3409C68.3224 86.2197 68.7694 86.1591 69.2088 86.1591C69.4891 86.1591 69.8111 86.1932 70.1747 86.2614C70.5421 86.3258 70.8963 86.4602 71.2372 86.6648C71.5819 86.8693 71.8679 87.178 72.0952 87.5909C72.3224 88.0038 72.4361 88.5568 72.4361 89.25V95H71.0952V93.8182H71.027C70.9361 94.0076 70.7846 94.2102 70.5724 94.4261C70.3603 94.642 70.0781 94.8258 69.7259 94.9773C69.3736 95.1288 68.9437 95.2045 68.4361 95.2045ZM68.6406 94C69.1709 94 69.6179 93.8958 69.9815 93.6875C70.349 93.4792 70.6255 93.2102 70.8111 92.8807C71.0005 92.5511 71.0952 92.2045 71.0952 91.8409V90.6136C71.0384 90.6818 70.9134 90.7443 70.7202 90.8011C70.5308 90.8542 70.3111 90.9015 70.0611 90.9432C69.8149 90.9811 69.5743 91.0152 69.3395 91.0455C69.1084 91.072 68.9209 91.0947 68.777 91.1136C68.4285 91.1591 68.1027 91.233 67.7997 91.3352C67.5005 91.4337 67.258 91.5833 67.0724 91.7841C66.8906 91.9811 66.7997 92.25 66.7997 92.5909C66.7997 93.0568 66.9721 93.4091 67.3168 93.6477C67.6652 93.8826 68.1065 94 68.6406 94ZM78.679 86.2727V87.4091L74.1563 87.4091V86.2727L78.679 86.2727ZM75.4744 84.1818H76.8153L76.8153 92.5C76.8153 92.8788 76.8703 93.1629 76.9801 93.3523C77.0938 93.5379 77.2377 93.6629 77.4119 93.7273C77.59 93.7879 77.7775 93.8182 77.9744 93.8182C78.1222 93.8182 78.2434 93.8106 78.3381 93.7955C78.4328 93.7765 78.5085 93.7614 78.5653 93.75L78.8381 94.9545C78.7472 94.9886 78.6203 95.0227 78.4574 95.0568C78.2945 95.0947 78.0881 95.1136 77.8381 95.1136C77.4593 95.1136 77.0881 95.0322 76.7244 94.8693C76.3646 94.7064 76.0653 94.4583 75.8267 94.125C75.5919 93.7917 75.4744 93.3712 75.4744 92.8636L75.4744 84.1818ZM84.2614 95.1818C83.4205 95.1818 82.6951 94.9962 82.0852 94.625C81.4792 94.25 81.0114 93.7273 80.6818 93.0568C80.3561 92.3826 80.1932 91.5985 80.1932 90.7045C80.1932 89.8106 80.3561 89.0227 80.6818 88.3409C81.0114 87.6553 81.4697 87.1212 82.0568 86.7386C82.6477 86.3523 83.3371 86.1591 84.125 86.1591C84.5795 86.1591 85.0284 86.2348 85.4716 86.3864C85.9148 86.5379 86.3182 86.7841 86.6818 87.125C87.0455 87.4621 87.3352 87.9091 87.5511 88.4659C87.767 89.0227 87.875 89.7083 87.875 90.5227V91.0909L81.1477 91.0909V89.9318L86.5114 89.9318C86.5114 89.4394 86.4129 89 86.2159 88.6136C86.0227 88.2273 85.7462 87.9223 85.3864 87.6989C85.0303 87.4754 84.6098 87.3636 84.125 87.3636C83.5909 87.3636 83.1288 87.4962 82.7386 87.7614C82.3523 88.0227 82.0549 88.3636 81.8466 88.7841C81.6383 89.2045 81.5341 89.6553 81.5341 90.1364V90.9091C81.5341 91.5682 81.6477 92.1269 81.875 92.5852C82.1061 93.0398 82.4261 93.3864 82.8352 93.625C83.2443 93.8598 83.7197 93.9773 84.2614 93.9773C84.6136 93.9773 84.9318 93.928 85.2159 93.8295C85.5038 93.7273 85.7519 93.5758 85.9602 93.375C86.1686 93.1705 86.3295 92.9167 86.4432 92.6136L87.7386 92.9773C87.6023 93.4167 87.3731 93.803 87.0511 94.1364C86.7292 94.4659 86.3314 94.7235 85.858 94.9091C85.3845 95.0909 84.8523 95.1818 84.2614 95.1818ZM93.4375 98.4545C92.7898 98.4545 92.233 98.3712 91.767 98.2045C91.3011 98.0417 90.9129 97.8258 90.6023 97.5568C90.2955 97.2917 90.0511 97.0076 89.8693 96.7045L90.9375 95.9545C91.0587 96.1136 91.2121 96.2955 91.3977 96.5C91.5833 96.7083 91.8371 96.8883 92.1591 97.0398C92.4848 97.1951 92.911 97.2727 93.4375 97.2727C94.142 97.2727 94.7235 97.1023 95.1818 96.7614C95.6402 96.4205 95.8693 95.8864 95.8693 95.1591V93.3864H95.7557C95.6572 93.5455 95.517 93.7424 95.3352 93.9773C95.1572 94.2083 94.8996 94.4148 94.5625 94.5966C94.2292 94.7746 93.7784 94.8636 93.2102 94.8636C92.5057 94.8636 91.8731 94.697 91.3125 94.3636C90.7557 94.0303 90.3144 93.5455 89.9886 92.9091C89.6667 92.2727 89.5057 91.5 89.5057 90.5909C89.5057 89.697 89.6629 88.9186 89.9773 88.2557C90.2917 87.589 90.7292 87.0739 91.2898 86.7102C91.8504 86.3428 92.4981 86.1591 93.233 86.1591C93.8011 86.1591 94.2519 86.2538 94.5852 86.4432C94.9223 86.6288 95.1799 86.8409 95.358 87.0795C95.5398 87.3144 95.6799 87.5076 95.7784 87.6591H95.9148L95.9148 86.2727H97.2102L97.2102 95.25C97.2102 96 97.0398 96.6098 96.6989 97.0795C96.3617 97.553 95.9072 97.8996 95.3352 98.1193C94.767 98.3428 94.1345 98.4545 93.4375 98.4545ZM93.392 93.6591C93.9299 93.6591 94.3845 93.536 94.7557 93.2898C95.1269 93.0436 95.4091 92.6894 95.6023 92.2273C95.7955 91.7652 95.892 91.2121 95.892 90.5682C95.892 89.9394 95.7973 89.3845 95.608 88.9034C95.4186 88.4223 95.1383 88.0455 94.767 87.7727C94.3958 87.5 93.9375 87.3636 93.392 87.3636C92.8239 87.3636 92.3504 87.5076 91.9716 87.7955C91.5966 88.0833 91.3144 88.4697 91.125 88.9545C90.9394 89.4394 90.8466 89.9773 90.8466 90.5682C90.8466 91.1742 90.9413 91.7102 91.1307 92.1761C91.3239 92.6383 91.608 93.0019 91.983 93.267C92.3617 93.5284 92.8314 93.6591 93.392 93.6591ZM103.21 95.1818C102.422 95.1818 101.731 94.9943 101.136 94.6193C100.545 94.2443 100.083 93.7197 99.75 93.0455C99.4205 92.3712 99.2557 91.5833 99.2557 90.6818C99.2557 89.7727 99.4205 88.9792 99.75 88.3011C100.083 87.6231 100.545 87.0966 101.136 86.7216C101.731 86.3466 102.422 86.1591 103.21 86.1591C103.998 86.1591 104.688 86.3466 105.278 86.7216C105.873 87.0966 106.335 87.6231 106.665 88.3011C106.998 88.9792 107.165 89.7727 107.165 90.6818C107.165 91.5833 106.998 92.3712 106.665 93.0455C106.335 93.7197 105.873 94.2443 105.278 94.6193C104.688 94.9943 103.998 95.1818 103.21 95.1818ZM103.21 93.9773C103.809 93.9773 104.301 93.8239 104.688 93.517C105.074 93.2102 105.36 92.8068 105.545 92.3068C105.731 91.8068 105.824 91.2652 105.824 90.6818C105.824 90.0985 105.731 89.5549 105.545 89.0511C105.36 88.5473 105.074 88.1402 104.688 87.8295C104.301 87.5189 103.809 87.3636 103.21 87.3636C102.612 87.3636 102.119 87.5189 101.733 87.8295C101.347 88.1402 101.061 88.5473 100.875 89.0511C100.689 89.5549 100.597 90.0985 100.597 90.6818C100.597 91.2652 100.689 91.8068 100.875 92.3068C101.061 92.8068 101.347 93.2102 101.733 93.517C102.119 93.8239 102.612 93.9773 103.21 93.9773ZM109.212 95L109.212 86.2727H110.507L110.507 87.5909H110.598C110.757 87.1591 111.045 86.8087 111.462 86.5398C111.878 86.2708 112.348 86.1364 112.871 86.1364C112.969 86.1364 113.092 86.1383 113.24 86.142C113.388 86.1458 113.5 86.1515 113.575 86.1591L113.575 87.5227C113.53 87.5114 113.426 87.4943 113.263 87.4716C113.104 87.4451 112.935 87.4318 112.757 87.4318C112.333 87.4318 111.954 87.5208 111.621 87.6989C111.291 87.8731 111.03 88.1155 110.837 88.4261C110.647 88.733 110.553 89.0833 110.553 89.4773V95H109.212ZM116.294 98.2727C116.067 98.2727 115.864 98.2538 115.686 98.2159C115.508 98.1818 115.385 98.1477 115.317 98.1136L115.658 96.9318C115.983 97.0152 116.271 97.0455 116.521 97.0227C116.771 97 116.993 96.8883 117.186 96.6875C117.383 96.4905 117.563 96.1705 117.726 95.7273L117.976 95.0455L114.749 86.2727H116.203L118.612 93.2273H118.703L121.112 86.2727H122.567L118.862 96.2727C118.696 96.7235 118.489 97.0966 118.243 97.392C117.997 97.6913 117.711 97.9129 117.385 98.0568C117.063 98.2008 116.699 98.2727 116.294 98.2727ZM128.405 83.3636L128.405 95H126.996L126.996 84.8409H126.928L124.087 86.7273V85.2955L126.996 83.3636H128.405Z" fill="#8D9092"/>
<rect x="30" y="115" width="16" height="16" rx="4" fill="#B8FF90"/>
<path d="M62.7727 121H61.3636C61.2803 120.595 61.1345 120.239 60.9261 119.932C60.7216 119.625 60.4716 119.367 60.1761 119.159C59.8845 118.947 59.5606 118.788 59.2045 118.682C58.8485 118.576 58.4773 118.523 58.0909 118.523C57.3864 118.523 56.7481 118.701 56.1761 119.057C55.608 119.413 55.1553 119.938 54.8182 120.631C54.4848 121.324 54.3182 122.174 54.3182 123.182C54.3182 124.189 54.4848 125.04 54.8182 125.733C55.1553 126.426 55.608 126.951 56.1761 127.307C56.7481 127.663 57.3864 127.841 58.0909 127.841C58.4773 127.841 58.8485 127.788 59.2045 127.682C59.5606 127.576 59.8845 127.419 60.1761 127.21C60.4716 126.998 60.7216 126.739 60.9261 126.432C61.1345 126.121 61.2803 125.765 61.3636 125.364H62.7727C62.6667 125.958 62.4735 126.491 62.1932 126.96C61.9129 127.43 61.5644 127.83 61.1477 128.159C60.7311 128.485 60.2633 128.733 59.7443 128.903C59.2292 129.074 58.678 129.159 58.0909 129.159C57.0985 129.159 56.2159 128.917 55.4432 128.432C54.6705 127.947 54.0625 127.258 53.6193 126.364C53.1761 125.47 52.9545 124.409 52.9545 123.182C52.9545 121.955 53.1761 120.894 53.6193 120C54.0625 119.106 54.6705 118.417 55.4432 117.932C56.2159 117.447 57.0985 117.205 58.0909 117.205C58.678 117.205 59.2292 117.29 59.7443 117.46C60.2633 117.631 60.7311 117.881 61.1477 118.21C61.5644 118.536 61.9129 118.934 62.1932 119.403C62.4735 119.869 62.6667 120.402 62.7727 121ZM67.4361 129.205C66.883 129.205 66.3812 129.1 65.9304 128.892C65.4796 128.68 65.1217 128.375 64.8565 127.977C64.5914 127.576 64.4588 127.091 64.4588 126.523C64.4588 126.023 64.5573 125.617 64.7543 125.307C64.9512 124.992 65.2145 124.746 65.544 124.568C65.8736 124.39 66.2372 124.258 66.6349 124.17C67.0365 124.08 67.4399 124.008 67.8452 123.955C68.3755 123.886 68.8054 123.835 69.1349 123.801C69.4683 123.763 69.7107 123.701 69.8622 123.614C70.0175 123.527 70.0952 123.375 70.0952 123.159V123.114C70.0952 122.553 69.9418 122.117 69.6349 121.807C69.3319 121.496 68.8717 121.341 68.2543 121.341C67.6141 121.341 67.1122 121.481 66.7486 121.761C66.3849 122.042 66.1293 122.341 65.9815 122.659L64.7088 122.205C64.9361 121.674 65.2391 121.261 65.6179 120.966C66.0005 120.667 66.4171 120.458 66.8679 120.341C67.3224 120.22 67.7694 120.159 68.2088 120.159C68.4891 120.159 68.8111 120.193 69.1747 120.261C69.5421 120.326 69.8963 120.46 70.2372 120.665C70.5819 120.869 70.8679 121.178 71.0952 121.591C71.3224 122.004 71.4361 122.557 71.4361 123.25V129H70.0952V127.818H70.027C69.9361 128.008 69.7846 128.21 69.5724 128.426C69.3603 128.642 69.0781 128.826 68.7259 128.977C68.3736 129.129 67.9437 129.205 67.4361 129.205ZM67.6406 128C68.1709 128 68.6179 127.896 68.9815 127.687C69.349 127.479 69.6255 127.21 69.8111 126.881C70.0005 126.551 70.0952 126.205 70.0952 125.841V124.614C70.0384 124.682 69.9134 124.744 69.7202 124.801C69.5308 124.854 69.3111 124.902 69.0611 124.943C68.8149 124.981 68.5743 125.015 68.3395 125.045C68.1084 125.072 67.9209 125.095 67.777 125.114C67.4285 125.159 67.1027 125.233 66.7997 125.335C66.5005 125.434 66.258 125.583 66.0724 125.784C65.8906 125.981 65.7997 126.25 65.7997 126.591C65.7997 127.057 65.9721 127.409 66.3168 127.648C66.6652 127.883 67.1065 128 67.6406 128ZM77.679 120.273V121.409L73.1563 121.409V120.273L77.679 120.273ZM74.4744 118.182H75.8153L75.8153 126.5C75.8153 126.879 75.8703 127.163 75.9801 127.352C76.0938 127.538 76.2377 127.663 76.4119 127.727C76.59 127.788 76.7775 127.818 76.9744 127.818C77.1222 127.818 77.2434 127.811 77.3381 127.795C77.4328 127.777 77.5085 127.761 77.5653 127.75L77.8381 128.955C77.7472 128.989 77.6203 129.023 77.4574 129.057C77.2945 129.095 77.0881 129.114 76.8381 129.114C76.4593 129.114 76.0881 129.032 75.7244 128.869C75.3646 128.706 75.0653 128.458 74.8267 128.125C74.5919 127.792 74.4744 127.371 74.4744 126.864L74.4744 118.182ZM83.2614 129.182C82.4205 129.182 81.6951 128.996 81.0852 128.625C80.4792 128.25 80.0114 127.727 79.6818 127.057C79.3561 126.383 79.1932 125.598 79.1932 124.705C79.1932 123.811 79.3561 123.023 79.6818 122.341C80.0114 121.655 80.4697 121.121 81.0568 120.739C81.6477 120.352 82.3371 120.159 83.125 120.159C83.5795 120.159 84.0284 120.235 84.4716 120.386C84.9148 120.538 85.3182 120.784 85.6818 121.125C86.0455 121.462 86.3352 121.909 86.5511 122.466C86.767 123.023 86.875 123.708 86.875 124.523V125.091L80.1477 125.091V123.932L85.5114 123.932C85.5114 123.439 85.4129 123 85.2159 122.614C85.0227 122.227 84.7462 121.922 84.3864 121.699C84.0303 121.475 83.6098 121.364 83.125 121.364C82.5909 121.364 82.1288 121.496 81.7386 121.761C81.3523 122.023 81.0549 122.364 80.8466 122.784C80.6383 123.205 80.5341 123.655 80.5341 124.136V124.909C80.5341 125.568 80.6477 126.127 80.875 126.585C81.1061 127.04 81.4261 127.386 81.8352 127.625C82.2443 127.86 82.7197 127.977 83.2614 127.977C83.6136 127.977 83.9318 127.928 84.2159 127.83C84.5038 127.727 84.7519 127.576 84.9602 127.375C85.1686 127.17 85.3295 126.917 85.4432 126.614L86.7386 126.977C86.6023 127.417 86.3731 127.803 86.0511 128.136C85.7292 128.466 85.3314 128.723 84.858 128.909C84.3845 129.091 83.8523 129.182 83.2614 129.182ZM92.4375 132.455C91.7898 132.455 91.233 132.371 90.767 132.205C90.3011 132.042 89.9129 131.826 89.6023 131.557C89.2955 131.292 89.0511 131.008 88.8693 130.705L89.9375 129.955C90.0587 130.114 90.2121 130.295 90.3977 130.5C90.5833 130.708 90.8371 130.888 91.1591 131.04C91.4848 131.195 91.911 131.273 92.4375 131.273C93.142 131.273 93.7235 131.102 94.1818 130.761C94.6402 130.42 94.8693 129.886 94.8693 129.159V127.386H94.7557C94.6572 127.545 94.517 127.742 94.3352 127.977C94.1572 128.208 93.8996 128.415 93.5625 128.597C93.2292 128.775 92.7784 128.864 92.2102 128.864C91.5057 128.864 90.8731 128.697 90.3125 128.364C89.7557 128.03 89.3144 127.545 88.9886 126.909C88.6667 126.273 88.5057 125.5 88.5057 124.591C88.5057 123.697 88.6629 122.919 88.9773 122.256C89.2917 121.589 89.7292 121.074 90.2898 120.71C90.8504 120.343 91.4981 120.159 92.233 120.159C92.8011 120.159 93.2519 120.254 93.5852 120.443C93.9223 120.629 94.1799 120.841 94.358 121.08C94.5398 121.314 94.6799 121.508 94.7784 121.659H94.9148L94.9148 120.273H96.2102L96.2102 129.25C96.2102 130 96.0398 130.61 95.6989 131.08C95.3617 131.553 94.9072 131.9 94.3352 132.119C93.767 132.343 93.1345 132.455 92.4375 132.455ZM92.392 127.659C92.9299 127.659 93.3845 127.536 93.7557 127.29C94.1269 127.044 94.4091 126.689 94.6023 126.227C94.7955 125.765 94.892 125.212 94.892 124.568C94.892 123.939 94.7973 123.384 94.608 122.903C94.4186 122.422 94.1383 122.045 93.767 121.773C93.3958 121.5 92.9375 121.364 92.392 121.364C91.8239 121.364 91.3504 121.508 90.9716 121.795C90.5966 122.083 90.3144 122.47 90.125 122.955C89.9394 123.439 89.8466 123.977 89.8466 124.568C89.8466 125.174 89.9413 125.71 90.1307 126.176C90.3239 126.638 90.608 127.002 90.983 127.267C91.3617 127.528 91.8314 127.659 92.392 127.659ZM102.21 129.182C101.422 129.182 100.731 128.994 100.136 128.619C99.5455 128.244 99.0833 127.72 98.75 127.045C98.4205 126.371 98.2557 125.583 98.2557 124.682C98.2557 123.773 98.4205 122.979 98.75 122.301C99.0833 121.623 99.5455 121.097 100.136 120.722C100.731 120.347 101.422 120.159 102.21 120.159C102.998 120.159 103.688 120.347 104.278 120.722C104.873 121.097 105.335 121.623 105.665 122.301C105.998 122.979 106.165 123.773 106.165 124.682C106.165 125.583 105.998 126.371 105.665 127.045C105.335 127.72 104.873 128.244 104.278 128.619C103.688 128.994 102.998 129.182 102.21 129.182ZM102.21 127.977C102.809 127.977 103.301 127.824 103.688 127.517C104.074 127.21 104.36 126.807 104.545 126.307C104.731 125.807 104.824 125.265 104.824 124.682C104.824 124.098 104.731 123.555 104.545 123.051C104.36 122.547 104.074 122.14 103.688 121.83C103.301 121.519 102.809 121.364 102.21 121.364C101.612 121.364 101.119 121.519 100.733 121.83C100.347 122.14 100.061 122.547 99.875 123.051C99.6894 123.555 99.5966 124.098 99.5966 124.682C99.5966 125.265 99.6894 125.807 99.875 126.307C100.061 126.807 100.347 127.21 100.733 127.517C101.119 127.824 101.612 127.977 102.21 127.977ZM108.212 129L108.212 120.273H109.507L109.507 121.591H109.598C109.757 121.159 110.045 120.809 110.462 120.54C110.878 120.271 111.348 120.136 111.871 120.136C111.969 120.136 112.092 120.138 112.24 120.142C112.388 120.146 112.5 120.152 112.575 120.159L112.575 121.523C112.53 121.511 112.426 121.494 112.263 121.472C112.104 121.445 111.935 121.432 111.757 121.432C111.333 121.432 110.954 121.521 110.621 121.699C110.291 121.873 110.03 122.116 109.837 122.426C109.647 122.733 109.553 123.083 109.553 123.477V129L108.212 129ZM115.294 132.273C115.067 132.273 114.864 132.254 114.686 132.216C114.508 132.182 114.385 132.148 114.317 132.114L114.658 130.932C114.983 131.015 115.271 131.045 115.521 131.023C115.771 131 115.993 130.888 116.186 130.687C116.383 130.491 116.563 130.17 116.726 129.727L116.976 129.045L113.749 120.273H115.203L117.612 127.227H117.703L120.112 120.273H121.567L117.862 130.273C117.696 130.723 117.489 131.097 117.243 131.392C116.997 131.691 116.711 131.913 116.385 132.057C116.063 132.201 115.699 132.273 115.294 132.273ZM123.314 129V127.977L127.155 123.773C127.606 123.28 127.977 122.852 128.268 122.489C128.56 122.121 128.776 121.777 128.916 121.455C129.06 121.129 129.132 120.788 129.132 120.432C129.132 120.023 129.034 119.669 128.837 119.369C128.643 119.07 128.378 118.839 128.041 118.676C127.704 118.513 127.325 118.432 126.905 118.432C126.458 118.432 126.068 118.525 125.734 118.71C125.405 118.892 125.149 119.148 124.967 119.477C124.789 119.807 124.7 120.193 124.7 120.636H123.359C123.359 119.955 123.517 119.356 123.831 118.841C124.145 118.326 124.573 117.924 125.115 117.636C125.661 117.348 126.272 117.205 126.95 117.205C127.632 117.205 128.236 117.348 128.763 117.636C129.289 117.924 129.702 118.312 130.001 118.801C130.301 119.29 130.45 119.833 130.45 120.432C130.45 120.86 130.373 121.278 130.217 121.687C130.066 122.093 129.801 122.545 129.422 123.045C129.047 123.542 128.526 124.148 127.859 124.864L125.246 127.659V127.75L130.655 127.75V129L123.314 129Z" fill="#8D9092"/>
<rect x="30" y="149" width="16" height="16" rx="4" fill="#F3F3E5"/>
<path d="M63.7727 155H62.3636C62.2803 154.595 62.1345 154.239 61.9261 153.932C61.7216 153.625 61.4716 153.367 61.1761 153.159C60.8845 152.947 60.5606 152.788 60.2045 152.682C59.8485 152.576 59.4773 152.523 59.0909 152.523C58.3864 152.523 57.7481 152.701 57.1761 153.057C56.608 153.413 56.1553 153.938 55.8182 154.631C55.4848 155.324 55.3182 156.174 55.3182 157.182C55.3182 158.189 55.4848 159.04 55.8182 159.733C56.1553 160.426 56.608 160.951 57.1761 161.307C57.7481 161.663 58.3864 161.841 59.0909 161.841C59.4773 161.841 59.8485 161.788 60.2045 161.682C60.5606 161.576 60.8845 161.419 61.1761 161.21C61.4716 160.998 61.7216 160.739 61.9261 160.432C62.1345 160.121 62.2803 159.765 62.3636 159.364H63.7727C63.6667 159.958 63.4735 160.491 63.1932 160.96C62.9129 161.43 62.5644 161.83 62.1477 162.159C61.7311 162.485 61.2633 162.733 60.7443 162.903C60.2292 163.074 59.678 163.159 59.0909 163.159C58.0985 163.159 57.2159 162.917 56.4432 162.432C55.6705 161.947 55.0625 161.258 54.6193 160.364C54.1761 159.47 53.9545 158.409 53.9545 157.182C53.9545 155.955 54.1761 154.894 54.6193 154C55.0625 153.106 55.6705 152.417 56.4432 151.932C57.2159 151.447 58.0985 151.205 59.0909 151.205C59.678 151.205 60.2292 151.29 60.7443 151.46C61.2633 151.631 61.7311 151.881 62.1477 152.21C62.5644 152.536 62.9129 152.934 63.1932 153.403C63.4735 153.869 63.6667 154.402 63.7727 155ZM68.4361 163.205C67.883 163.205 67.3812 163.1 66.9304 162.892C66.4796 162.68 66.1217 162.375 65.8565 161.977C65.5914 161.576 65.4588 161.091 65.4588 160.523C65.4588 160.023 65.5573 159.617 65.7543 159.307C65.9512 158.992 66.2145 158.746 66.544 158.568C66.8736 158.39 67.2372 158.258 67.6349 158.17C68.0365 158.08 68.4399 158.008 68.8452 157.955C69.3755 157.886 69.8054 157.835 70.1349 157.801C70.4683 157.763 70.7107 157.701 70.8622 157.614C71.0175 157.527 71.0952 157.375 71.0952 157.159V157.114C71.0952 156.553 70.9418 156.117 70.6349 155.807C70.3319 155.496 69.8717 155.341 69.2543 155.341C68.6141 155.341 68.1122 155.481 67.7486 155.761C67.3849 156.042 67.1293 156.341 66.9815 156.659L65.7088 156.205C65.9361 155.674 66.2391 155.261 66.6179 154.966C67.0005 154.667 67.4171 154.458 67.8679 154.341C68.3224 154.22 68.7694 154.159 69.2088 154.159C69.4891 154.159 69.8111 154.193 70.1747 154.261C70.5421 154.326 70.8963 154.46 71.2372 154.665C71.5819 154.869 71.8679 155.178 72.0952 155.591C72.3224 156.004 72.4361 156.557 72.4361 157.25V163H71.0952V161.818H71.027C70.9361 162.008 70.7846 162.21 70.5724 162.426C70.3603 162.642 70.0781 162.826 69.7259 162.977C69.3736 163.129 68.9437 163.205 68.4361 163.205ZM68.6406 162C69.1709 162 69.6179 161.896 69.9815 161.687C70.349 161.479 70.6255 161.21 70.8111 160.881C71.0005 160.551 71.0952 160.205 71.0952 159.841V158.614C71.0384 158.682 70.9134 158.744 70.7202 158.801C70.5308 158.854 70.3111 158.902 70.0611 158.943C69.8149 158.981 69.5743 159.015 69.3395 159.045C69.1084 159.072 68.9209 159.095 68.777 159.114C68.4285 159.159 68.1027 159.233 67.7997 159.335C67.5005 159.434 67.258 159.583 67.0724 159.784C66.8906 159.981 66.7997 160.25 66.7997 160.591C66.7997 161.057 66.9721 161.409 67.3168 161.648C67.6652 161.883 68.1065 162 68.6406 162ZM78.679 154.273V155.409L74.1563 155.409V154.273L78.679 154.273ZM75.4744 152.182H76.8153L76.8153 160.5C76.8153 160.879 76.8703 161.163 76.9801 161.352C77.0938 161.538 77.2377 161.663 77.4119 161.727C77.59 161.788 77.7775 161.818 77.9744 161.818C78.1222 161.818 78.2434 161.811 78.3381 161.795C78.4328 161.777 78.5085 161.761 78.5653 161.75L78.8381 162.955C78.7472 162.989 78.6203 163.023 78.4574 163.057C78.2945 163.095 78.0881 163.114 77.8381 163.114C77.4593 163.114 77.0881 163.032 76.7244 162.869C76.3646 162.706 76.0653 162.458 75.8267 162.125C75.5919 161.792 75.4744 161.371 75.4744 160.864L75.4744 152.182ZM84.2614 163.182C83.4205 163.182 82.6951 162.996 82.0852 162.625C81.4792 162.25 81.0114 161.727 80.6818 161.057C80.3561 160.383 80.1932 159.598 80.1932 158.705C80.1932 157.811 80.3561 157.023 80.6818 156.341C81.0114 155.655 81.4697 155.121 82.0568 154.739C82.6477 154.352 83.3371 154.159 84.125 154.159C84.5795 154.159 85.0284 154.235 85.4716 154.386C85.9148 154.538 86.3182 154.784 86.6818 155.125C87.0455 155.462 87.3352 155.909 87.5511 156.466C87.767 157.023 87.875 157.708 87.875 158.523V159.091H81.1477V157.932H86.5114C86.5114 157.439 86.4129 157 86.2159 156.614C86.0227 156.227 85.7462 155.922 85.3864 155.699C85.0303 155.475 84.6098 155.364 84.125 155.364C83.5909 155.364 83.1288 155.496 82.7386 155.761C82.3523 156.023 82.0549 156.364 81.8466 156.784C81.6383 157.205 81.5341 157.655 81.5341 158.136V158.909C81.5341 159.568 81.6477 160.127 81.875 160.585C82.1061 161.04 82.4261 161.386 82.8352 161.625C83.2443 161.86 83.7197 161.977 84.2614 161.977C84.6136 161.977 84.9318 161.928 85.2159 161.83C85.5038 161.727 85.7519 161.576 85.9602 161.375C86.1686 161.17 86.3295 160.917 86.4432 160.614L87.7386 160.977C87.6023 161.417 87.3731 161.803 87.0511 162.136C86.7292 162.466 86.3314 162.723 85.858 162.909C85.3845 163.091 84.8523 163.182 84.2614 163.182ZM93.4375 166.455C92.7898 166.455 92.233 166.371 91.767 166.205C91.3011 166.042 90.9129 165.826 90.6023 165.557C90.2955 165.292 90.0511 165.008 89.8693 164.705L90.9375 163.955C91.0587 164.114 91.2121 164.295 91.3977 164.5C91.5833 164.708 91.8371 164.888 92.1591 165.04C92.4848 165.195 92.911 165.273 93.4375 165.273C94.142 165.273 94.7235 165.102 95.1818 164.761C95.6402 164.42 95.8693 163.886 95.8693 163.159V161.386H95.7557C95.6572 161.545 95.517 161.742 95.3352 161.977C95.1572 162.208 94.8996 162.415 94.5625 162.597C94.2292 162.775 93.7784 162.864 93.2102 162.864C92.5057 162.864 91.8731 162.697 91.3125 162.364C90.7557 162.03 90.3144 161.545 89.9886 160.909C89.6667 160.273 89.5057 159.5 89.5057 158.591C89.5057 157.697 89.6629 156.919 89.9773 156.256C90.2917 155.589 90.7292 155.074 91.2898 154.71C91.8504 154.343 92.4981 154.159 93.233 154.159C93.8011 154.159 94.2519 154.254 94.5852 154.443C94.9223 154.629 95.1799 154.841 95.358 155.08C95.5398 155.314 95.6799 155.508 95.7784 155.659H95.9148L95.9148 154.273H97.2102L97.2102 163.25C97.2102 164 97.0398 164.61 96.6989 165.08C96.3617 165.553 95.9072 165.9 95.3352 166.119C94.767 166.343 94.1345 166.455 93.4375 166.455ZM93.392 161.659C93.9299 161.659 94.3845 161.536 94.7557 161.29C95.1269 161.044 95.4091 160.689 95.6023 160.227C95.7955 159.765 95.892 159.212 95.892 158.568C95.892 157.939 95.7973 157.384 95.608 156.903C95.4186 156.422 95.1383 156.045 94.767 155.773C94.3958 155.5 93.9375 155.364 93.392 155.364C92.8239 155.364 92.3504 155.508 91.9716 155.795C91.5966 156.083 91.3144 156.47 91.125 156.955C90.9394 157.439 90.8466 157.977 90.8466 158.568C90.8466 159.174 90.9413 159.71 91.1307 160.176C91.3239 160.638 91.608 161.002 91.983 161.267C92.3617 161.528 92.8314 161.659 93.392 161.659ZM103.21 163.182C102.422 163.182 101.731 162.994 101.136 162.619C100.545 162.244 100.083 161.72 99.75 161.045C99.4205 160.371 99.2557 159.583 99.2557 158.682C99.2557 157.773 99.4205 156.979 99.75 156.301C100.083 155.623 100.545 155.097 101.136 154.722C101.731 154.347 102.422 154.159 103.21 154.159C103.998 154.159 104.688 154.347 105.278 154.722C105.873 155.097 106.335 155.623 106.665 156.301C106.998 156.979 107.165 157.773 107.165 158.682C107.165 159.583 106.998 160.371 106.665 161.045C106.335 161.72 105.873 162.244 105.278 162.619C104.688 162.994 103.998 163.182 103.21 163.182ZM103.21 161.977C103.809 161.977 104.301 161.824 104.688 161.517C105.074 161.21 105.36 160.807 105.545 160.307C105.731 159.807 105.824 159.265 105.824 158.682C105.824 158.098 105.731 157.555 105.545 157.051C105.36 156.547 105.074 156.14 104.688 155.83C104.301 155.519 103.809 155.364 103.21 155.364C102.612 155.364 102.119 155.519 101.733 155.83C101.347 156.14 101.061 156.547 100.875 157.051C100.689 157.555 100.597 158.098 100.597 158.682C100.597 159.265 100.689 159.807 100.875 160.307C101.061 160.807 101.347 161.21 101.733 161.517C102.119 161.824 102.612 161.977 103.21 161.977ZM109.212 163L109.212 154.273L110.507 154.273L110.507 155.591H110.598C110.757 155.159 111.045 154.809 111.462 154.54C111.878 154.271 112.348 154.136 112.871 154.136C112.969 154.136 113.092 154.138 113.24 154.142C113.388 154.146 113.5 154.152 113.575 154.159L113.575 155.523C113.53 155.511 113.426 155.494 113.263 155.472C113.104 155.445 112.935 155.432 112.757 155.432C112.333 155.432 111.954 155.521 111.621 155.699C111.291 155.873 111.03 156.116 110.837 156.426C110.647 156.733 110.553 157.083 110.553 157.477V163L109.212 163ZM116.294 166.273C116.067 166.273 115.864 166.254 115.686 166.216C115.508 166.182 115.385 166.148 115.317 166.114L115.658 164.932C115.983 165.015 116.271 165.045 116.521 165.023C116.771 165 116.993 164.888 117.186 164.687C117.383 164.491 117.563 164.17 117.726 163.727L117.976 163.045L114.749 154.273H116.203L118.612 161.227H118.703L121.112 154.273H122.567L118.862 164.273C118.696 164.723 118.489 165.097 118.243 165.392C117.997 165.691 117.711 165.913 117.385 166.057C117.063 166.201 116.699 166.273 116.294 166.273ZM128.246 163.159C127.496 163.159 126.827 163.03 126.24 162.773C125.657 162.515 125.193 162.157 124.848 161.699C124.507 161.237 124.321 160.701 124.291 160.091H125.723C125.753 160.466 125.882 160.79 126.109 161.062C126.337 161.331 126.634 161.54 127.001 161.687C127.369 161.835 127.776 161.909 128.223 161.909C128.723 161.909 129.166 161.822 129.553 161.648C129.939 161.473 130.242 161.231 130.462 160.92C130.681 160.61 130.791 160.25 130.791 159.841C130.791 159.413 130.685 159.036 130.473 158.71C130.261 158.381 129.95 158.123 129.541 157.937C129.132 157.752 128.632 157.659 128.041 157.659H127.109L127.109 156.409H128.041C128.503 156.409 128.909 156.326 129.257 156.159C129.609 155.992 129.884 155.758 130.081 155.455C130.282 155.152 130.382 154.795 130.382 154.386C130.382 153.992 130.295 153.65 130.121 153.358C129.946 153.066 129.7 152.839 129.382 152.676C129.068 152.513 128.696 152.432 128.268 152.432C127.867 152.432 127.488 152.506 127.132 152.653C126.78 152.797 126.492 153.008 126.268 153.284C126.045 153.557 125.924 153.886 125.905 154.273H124.541C124.564 153.663 124.748 153.129 125.092 152.67C125.437 152.208 125.888 151.848 126.445 151.591C127.005 151.333 127.621 151.205 128.291 151.205C129.011 151.205 129.628 151.35 130.143 151.642C130.659 151.93 131.054 152.311 131.331 152.784C131.607 153.258 131.746 153.769 131.746 154.318C131.746 154.973 131.573 155.532 131.229 155.994C130.888 156.456 130.424 156.777 129.837 156.955V157.045C130.571 157.167 131.145 157.479 131.558 157.983C131.971 158.483 132.178 159.102 132.178 159.841C132.178 160.473 132.005 161.042 131.661 161.545C131.32 162.045 130.854 162.439 130.263 162.727C129.672 163.015 129 163.159 128.246 163.159Z" fill="#8D9092"/>
<circle cx="262" cy="82" r="50" fill="#061D19"/>
<path d="M249.307 84.1591C248.788 84.1515 248.277 84.0568 247.773 83.875C247.273 83.6932 246.818 83.3902 246.409 82.9659C246 82.5417 245.672 81.9716 245.426 81.2557C245.184 80.5398 245.062 79.6458 245.062 78.5739C245.062 77.5587 245.163 76.6572 245.364 75.8693C245.568 75.0814 245.862 74.4167 246.244 73.875C246.627 73.3295 247.089 72.9148 247.631 72.6307C248.172 72.3466 248.78 72.2045 249.455 72.2045C250.148 72.2045 250.763 72.3409 251.301 72.6136C251.839 72.8864 252.275 73.2633 252.608 73.7443C252.945 74.2254 253.159 74.7727 253.25 75.3864H251.517C251.4 74.9015 251.167 74.5057 250.818 74.1989C250.47 73.892 250.015 73.7386 249.455 73.7386C248.602 73.7386 247.938 74.1098 247.46 74.8523C246.987 75.5947 246.748 76.6269 246.744 77.9489H246.83C247.03 77.6193 247.277 77.339 247.568 77.108C247.864 76.8731 248.193 76.6932 248.557 76.5682C248.924 76.4394 249.311 76.375 249.716 76.375C250.39 76.375 251 76.5398 251.545 76.8693C252.095 77.1951 252.532 77.6458 252.858 78.2216C253.184 78.7973 253.347 79.4564 253.347 80.1989C253.347 80.9413 253.178 81.6136 252.841 82.2159C252.508 82.8182 252.038 83.2955 251.432 83.6477C250.826 83.9962 250.117 84.1667 249.307 84.1591ZM249.301 82.6818C249.748 82.6818 250.148 82.572 250.5 82.3523C250.852 82.1326 251.131 81.8371 251.335 81.4659C251.54 81.0947 251.642 80.6799 251.642 80.2216C251.642 79.7746 251.542 79.3674 251.341 79C251.144 78.6326 250.871 78.3409 250.523 78.125C250.178 77.9091 249.784 77.8011 249.341 77.8011C249.004 77.8011 248.691 77.8655 248.403 77.9943C248.119 78.1231 247.869 78.3011 247.653 78.5284C247.438 78.7557 247.267 79.017 247.142 79.3125C247.021 79.6042 246.96 79.9129 246.96 80.2386C246.96 80.6742 247.061 81.0777 247.261 81.4489C247.466 81.8201 247.744 82.1193 248.097 82.3466C248.453 82.5701 248.854 82.6818 249.301 82.6818ZM259.467 84.1932C258.57 84.1894 257.803 83.9527 257.166 83.483C256.53 83.0133 256.043 82.3295 255.706 81.4318C255.369 80.5341 255.2 79.4527 255.2 78.1875C255.2 76.9261 255.369 75.8485 255.706 74.9545C256.047 74.0606 256.536 73.3788 257.172 72.9091C257.812 72.4394 258.577 72.2045 259.467 72.2045C260.357 72.2045 261.121 72.4413 261.757 72.9148C262.393 73.3845 262.88 74.0663 263.217 74.9602C263.558 75.8504 263.729 76.9261 263.729 78.1875C263.729 79.4564 263.56 80.5398 263.223 81.4375C262.886 82.3314 262.399 83.0152 261.763 83.4886C261.126 83.9583 260.361 84.1932 259.467 84.1932ZM259.467 82.6761C260.255 82.6761 260.871 82.2917 261.314 81.5227C261.761 80.7538 261.984 79.642 261.984 78.1875C261.984 77.2216 261.882 76.4053 261.678 75.7386C261.477 75.0682 261.187 74.5606 260.808 74.2159C260.433 73.8674 259.986 73.6932 259.467 73.6932C258.683 73.6932 258.068 74.0795 257.621 74.8523C257.174 75.625 256.948 76.7367 256.945 78.1875C256.945 79.1572 257.045 79.9773 257.246 80.6477C257.45 81.3144 257.74 81.8201 258.115 82.1648C258.49 82.5057 258.941 82.6761 259.467 82.6761ZM271.818 81.8182V81.2045C271.818 80.7652 271.909 80.3636 272.091 80C272.277 79.6326 272.545 79.339 272.898 79.1193C273.254 78.8958 273.684 78.7841 274.188 78.7841C274.703 78.7841 275.134 78.8939 275.483 79.1136C275.831 79.3333 276.095 79.6269 276.273 79.9943C276.455 80.3617 276.545 80.7652 276.545 81.2045V81.8182C276.545 82.2576 276.455 82.661 276.273 83.0284C276.091 83.392 275.824 83.6856 275.472 83.9091C275.123 84.1288 274.695 84.2386 274.188 84.2386C273.676 84.2386 273.244 84.1288 272.892 83.9091C272.54 83.6856 272.273 83.392 272.091 83.0284C271.909 82.661 271.818 82.2576 271.818 81.8182ZM273.142 81.2045V81.8182C273.142 82.1439 273.22 82.4394 273.375 82.7045C273.53 82.9697 273.801 83.1023 274.188 83.1023C274.57 83.1023 274.837 82.9697 274.989 82.7045C275.14 82.4394 275.216 82.1439 275.216 81.8182V81.2045C275.216 80.8788 275.142 80.5833 274.994 80.3182C274.85 80.053 274.581 79.9205 274.188 79.9205C273.809 79.9205 273.54 80.053 273.381 80.3182C273.222 80.5833 273.142 80.8788 273.142 81.2045ZM265.966 75.1591V74.5455C265.966 74.1061 266.057 73.7027 266.239 73.3352C266.424 72.9678 266.693 72.6742 267.045 72.4545C267.402 72.2348 267.831 72.125 268.335 72.125C268.85 72.125 269.282 72.2348 269.631 72.4545C269.979 72.6742 270.242 72.9678 270.42 73.3352C270.598 73.7027 270.688 74.1061 270.688 74.5455V75.1591C270.688 75.5985 270.597 76.0019 270.415 76.3693C270.237 76.733 269.972 77.0265 269.619 77.25C269.271 77.4697 268.843 77.5795 268.335 77.5795C267.82 77.5795 267.386 77.4697 267.034 77.25C266.686 77.0265 266.42 76.733 266.239 76.3693C266.057 76.0019 265.966 75.5985 265.966 75.1591ZM267.295 74.5455V75.1591C267.295 75.4848 267.371 75.7803 267.523 76.0455C267.678 76.3106 267.949 76.4432 268.335 76.4432C268.714 76.4432 268.979 76.3106 269.131 76.0455C269.286 75.7803 269.364 75.4848 269.364 75.1591V74.5455C269.364 74.2197 269.29 73.9242 269.142 73.6591C268.994 73.3939 268.725 73.2614 268.335 73.2614C267.956 73.2614 267.688 73.3939 267.528 73.6591C267.373 73.9242 267.295 74.2197 267.295 74.5455ZM266.506 84L274.506 72.3636H275.864L267.864 84H266.506Z" fill="white"/>
<circle cx="301" cy="129" r="40" fill="#B8FF90"/>
<path d="M279.119 130V128.727L283.057 124.648C283.477 124.205 283.824 123.816 284.097 123.483C284.373 123.146 284.58 122.826 284.716 122.523C284.852 122.22 284.92 121.898 284.92 121.557C284.92 121.17 284.83 120.837 284.648 120.557C284.466 120.273 284.218 120.055 283.903 119.903C283.589 119.748 283.235 119.67 282.841 119.67C282.424 119.67 282.061 119.756 281.75 119.926C281.439 120.097 281.201 120.337 281.034 120.648C280.867 120.958 280.784 121.322 280.784 121.739H279.108C279.108 121.03 279.271 120.411 279.597 119.881C279.922 119.35 280.369 118.939 280.938 118.648C281.506 118.352 282.152 118.205 282.875 118.205C283.606 118.205 284.25 118.35 284.807 118.642C285.367 118.93 285.805 119.324 286.119 119.824C286.434 120.32 286.591 120.881 286.591 121.506C286.591 121.938 286.509 122.36 286.347 122.773C286.188 123.186 285.909 123.646 285.511 124.153C285.114 124.657 284.561 125.269 283.852 125.989L281.54 128.409V128.494H286.778V130H279.119ZM292.983 130.193C292.085 130.189 291.318 129.953 290.682 129.483C290.045 129.013 289.559 128.33 289.222 127.432C288.884 126.534 288.716 125.453 288.716 124.188C288.716 122.926 288.884 121.848 289.222 120.955C289.563 120.061 290.051 119.379 290.688 118.909C291.328 118.439 292.093 118.205 292.983 118.205C293.873 118.205 294.636 118.441 295.273 118.915C295.909 119.384 296.396 120.066 296.733 120.96C297.074 121.85 297.244 122.926 297.244 124.188C297.244 125.456 297.076 126.54 296.739 127.438C296.402 128.331 295.915 129.015 295.278 129.489C294.642 129.958 293.877 130.193 292.983 130.193ZM292.983 128.676C293.771 128.676 294.386 128.292 294.83 127.523C295.277 126.754 295.5 125.642 295.5 124.188C295.5 123.222 295.398 122.405 295.193 121.739C294.992 121.068 294.703 120.561 294.324 120.216C293.949 119.867 293.502 119.693 292.983 119.693C292.199 119.693 291.583 120.08 291.136 120.852C290.689 121.625 290.464 122.737 290.46 124.188C290.46 125.157 290.561 125.977 290.761 126.648C290.966 127.314 291.256 127.82 291.631 128.165C292.006 128.506 292.456 128.676 292.983 128.676ZM305.334 127.818V127.205C305.334 126.765 305.425 126.364 305.607 126C305.792 125.633 306.061 125.339 306.413 125.119C306.769 124.896 307.199 124.784 307.703 124.784C308.218 124.784 308.65 124.894 308.999 125.114C309.347 125.333 309.61 125.627 309.788 125.994C309.97 126.362 310.061 126.765 310.061 127.205V127.818C310.061 128.258 309.97 128.661 309.788 129.028C309.607 129.392 309.339 129.686 308.987 129.909C308.639 130.129 308.211 130.239 307.703 130.239C307.192 130.239 306.76 130.129 306.408 129.909C306.055 129.686 305.788 129.392 305.607 129.028C305.425 128.661 305.334 128.258 305.334 127.818ZM306.658 127.205V127.818C306.658 128.144 306.735 128.439 306.891 128.705C307.046 128.97 307.317 129.102 307.703 129.102C308.086 129.102 308.353 128.97 308.504 128.705C308.656 128.439 308.732 128.144 308.732 127.818V127.205C308.732 126.879 308.658 126.583 308.51 126.318C308.366 126.053 308.097 125.92 307.703 125.92C307.324 125.92 307.055 126.053 306.896 126.318C306.737 126.583 306.658 126.879 306.658 127.205ZM299.482 121.159V120.545C299.482 120.106 299.572 119.703 299.754 119.335C299.94 118.968 300.209 118.674 300.561 118.455C300.917 118.235 301.347 118.125 301.851 118.125C302.366 118.125 302.798 118.235 303.146 118.455C303.495 118.674 303.758 118.968 303.936 119.335C304.114 119.703 304.203 120.106 304.203 120.545V121.159C304.203 121.598 304.112 122.002 303.93 122.369C303.752 122.733 303.487 123.027 303.135 123.25C302.786 123.47 302.358 123.58 301.851 123.58C301.336 123.58 300.902 123.47 300.55 123.25C300.201 123.027 299.936 122.733 299.754 122.369C299.572 122.002 299.482 121.598 299.482 121.159ZM300.811 120.545V121.159C300.811 121.485 300.887 121.78 301.038 122.045C301.194 122.311 301.464 122.443 301.851 122.443C302.23 122.443 302.495 122.311 302.646 122.045C302.802 121.78 302.879 121.485 302.879 121.159V120.545C302.879 120.22 302.805 119.924 302.658 119.659C302.51 119.394 302.241 119.261 301.851 119.261C301.472 119.261 301.203 119.394 301.044 119.659C300.889 119.924 300.811 120.22 300.811 120.545ZM300.021 130L308.021 118.364H309.379L301.379 130H300.021Z" fill="#061D19"/>
<circle cx="229" cy="128" r="25" fill="#F3F3E5"/>
<path d="M217.534 122.364V134H215.773V124.125H215.705L212.92 125.943V124.261L215.824 122.364H217.534ZM224.733 134.193C223.835 134.189 223.068 133.953 222.432 133.483C221.795 133.013 221.309 132.33 220.972 131.432C220.634 130.534 220.466 129.453 220.466 128.188C220.466 126.926 220.634 125.848 220.972 124.955C221.313 124.061 221.801 123.379 222.438 122.909C223.078 122.439 223.843 122.205 224.733 122.205C225.623 122.205 226.386 122.441 227.023 122.915C227.659 123.384 228.146 124.066 228.483 124.96C228.824 125.85 228.994 126.926 228.994 128.188C228.994 129.456 228.826 130.54 228.489 131.438C228.152 132.331 227.665 133.015 227.028 133.489C226.392 133.958 225.627 134.193 224.733 134.193ZM224.733 132.676C225.521 132.676 226.136 132.292 226.58 131.523C227.027 130.754 227.25 129.642 227.25 128.188C227.25 127.222 227.148 126.405 226.943 125.739C226.742 125.068 226.453 124.561 226.074 124.216C225.699 123.867 225.252 123.693 224.733 123.693C223.949 123.693 223.333 124.08 222.886 124.852C222.439 125.625 222.214 126.737 222.21 128.188C222.21 129.157 222.311 129.977 222.511 130.648C222.716 131.314 223.006 131.82 223.381 132.165C223.756 132.506 224.206 132.676 224.733 132.676ZM237.084 131.818V131.205C237.084 130.765 237.175 130.364 237.357 130C237.542 129.633 237.811 129.339 238.163 129.119C238.519 128.896 238.949 128.784 239.453 128.784C239.968 128.784 240.4 128.894 240.749 129.114C241.097 129.333 241.36 129.627 241.538 129.994C241.72 130.362 241.811 130.765 241.811 131.205V131.818C241.811 132.258 241.72 132.661 241.538 133.028C241.357 133.392 241.089 133.686 240.737 133.909C240.389 134.129 239.961 134.239 239.453 134.239C238.942 134.239 238.51 134.129 238.158 133.909C237.805 133.686 237.538 133.392 237.357 133.028C237.175 132.661 237.084 132.258 237.084 131.818ZM238.408 131.205V131.818C238.408 132.144 238.485 132.439 238.641 132.705C238.796 132.97 239.067 133.102 239.453 133.102C239.836 133.102 240.103 132.97 240.254 132.705C240.406 132.439 240.482 132.144 240.482 131.818V131.205C240.482 130.879 240.408 130.583 240.26 130.318C240.116 130.053 239.847 129.92 239.453 129.92C239.074 129.92 238.805 130.053 238.646 130.318C238.487 130.583 238.408 130.879 238.408 131.205ZM231.232 125.159V124.545C231.232 124.106 231.322 123.703 231.504 123.335C231.69 122.968 231.959 122.674 232.311 122.455C232.667 122.235 233.097 122.125 233.601 122.125C234.116 122.125 234.548 122.235 234.896 122.455C235.245 122.674 235.508 122.968 235.686 123.335C235.864 123.703 235.953 124.106 235.953 124.545V125.159C235.953 125.598 235.862 126.002 235.68 126.369C235.502 126.733 235.237 127.027 234.885 127.25C234.536 127.47 234.108 127.58 233.601 127.58C233.086 127.58 232.652 127.47 232.3 127.25C231.951 127.027 231.686 126.733 231.504 126.369C231.322 126.002 231.232 125.598 231.232 125.159ZM232.561 124.545V125.159C232.561 125.485 232.637 125.78 232.788 126.045C232.944 126.311 233.214 126.443 233.601 126.443C233.98 126.443 234.245 126.311 234.396 126.045C234.552 125.78 234.629 125.485 234.629 125.159V124.545C234.629 124.22 234.555 123.924 234.408 123.659C234.26 123.394 233.991 123.261 233.601 123.261C233.222 123.261 232.953 123.394 232.794 123.659C232.639 123.924 232.561 124.22 232.561 124.545ZM231.771 134L239.771 122.364H241.129L233.129 134H231.771Z" fill="#292D30"/>
</svg>
