<svg width="428" height="255" viewBox="0 0 428 255" fill="none" xmlns="http://www.w3.org/2000/svg">
<rect width="428" height="255" fill="white"/>
<rect x="42" y="116.485" width="36.8481" height="65.5896" rx="11.7914" fill="#F3F3E5"/>
<rect x="103.168" y="68.5828" width="37.585" height="113.492" rx="11.7914" fill="#F3F3E5"/>
<rect x="165.072" y="92.1655" width="36.8481" height="89.9093" rx="11.7914" fill="#F3F3E5"/>
<rect x="226.24" y="45" width="36.8481" height="137.075" rx="11.7914" fill="#B8FF90"/>
<rect x="287.408" y="79.6372" width="36.8481" height="102.438" rx="11.7914" fill="#F3F3E5"/>
<rect x="348.576" y="116.485" width="36.8481" height="65.5896" rx="11.7914" fill="#F3F3E5"/>
<path d="M54.1004 196.687V202.38C54.1004 203.014 53.9051 203.523 53.5145 203.906C53.124 204.282 52.6081 204.47 51.9669 204.47C51.3184 204.47 50.7988 204.278 50.4083 203.895C50.0177 203.504 49.8224 202.974 49.8224 202.303H50.8283C50.8357 202.679 50.9315 202.985 51.1157 203.221C51.3073 203.456 51.5911 203.574 51.9669 203.574C52.3428 203.574 52.6228 203.464 52.8071 203.243C52.9913 203.014 53.0834 202.727 53.0834 202.38V196.687H54.1004ZM60.6366 202.679H57.2761L56.657 204.392H55.5958L58.3815 196.732H59.5422L62.3169 204.392H61.2557L60.6366 202.679ZM60.3492 201.861L58.9563 197.97L57.5635 201.861H60.3492ZM69.5888 204.392H68.5828L64.5369 198.257V204.392H63.531V196.676H64.5369L68.5828 202.8V196.676H69.5888V204.392Z" fill="#292D30"/>
<path d="M117.955 196.687V197.505H114.605V200.103H117.325V200.921H114.605V204.392H113.599V196.687H117.955ZM120.176 197.505V200.081H122.983V200.91H120.176V203.563H123.315V204.392H119.17V196.676H123.315V197.505H120.176ZM128.695 200.424C128.975 200.468 129.229 200.582 129.458 200.766C129.694 200.951 129.878 201.179 130.011 201.452C130.151 201.725 130.221 202.016 130.221 202.325C130.221 202.716 130.121 203.069 129.922 203.386C129.723 203.696 129.432 203.943 129.049 204.127C128.673 204.304 128.227 204.392 127.711 204.392H124.837V196.687H127.601C128.124 196.687 128.57 196.776 128.938 196.953C129.307 197.122 129.583 197.354 129.767 197.649C129.952 197.944 130.044 198.276 130.044 198.644C130.044 199.101 129.919 199.48 129.668 199.783C129.425 200.077 129.101 200.291 128.695 200.424ZM125.843 200.015H127.534C128.006 200.015 128.371 199.904 128.629 199.683C128.887 199.462 129.016 199.156 129.016 198.766C129.016 198.375 128.887 198.069 128.629 197.848C128.371 197.627 127.999 197.516 127.512 197.516H125.843V200.015ZM127.623 203.563C128.124 203.563 128.515 203.445 128.795 203.21C129.075 202.974 129.215 202.646 129.215 202.226C129.215 201.798 129.067 201.463 128.773 201.22C128.478 200.969 128.083 200.844 127.59 200.844H125.843V203.563H127.623Z" fill="#292D30"/>
<path d="M180.372 196.743V204.392H179.366V198.688L176.823 204.392H176.116L173.562 198.677V204.392H172.556V196.743H173.64L176.47 203.066L179.299 196.743H180.372ZM186.632 202.679H183.272L182.653 204.392H181.591L184.377 196.732H185.538L188.312 204.392H187.251L186.632 202.679ZM186.345 201.861L184.952 197.97L183.559 201.861H186.345ZM193.584 204.392L191.748 201.242H190.532V204.392H189.527V196.687H192.014C192.596 196.687 193.086 196.787 193.484 196.986C193.889 197.185 194.191 197.454 194.39 197.793C194.589 198.132 194.689 198.519 194.689 198.954C194.689 199.484 194.534 199.952 194.225 200.357C193.923 200.763 193.466 201.032 192.854 201.164L194.788 204.392H193.584ZM190.532 200.435H192.014C192.559 200.435 192.968 200.302 193.241 200.037C193.513 199.764 193.65 199.403 193.65 198.954C193.65 198.497 193.513 198.143 193.241 197.892C192.976 197.642 192.566 197.516 192.014 197.516H190.532V200.435Z" fill="#292D30"/>
<path d="M239.753 202.679H236.393L235.774 204.392H234.712L237.498 196.732H238.659L241.434 204.392H240.372L239.753 202.679ZM239.466 201.861L238.073 197.97L236.68 201.861H239.466ZM247.799 198.943C247.799 199.584 247.578 200.118 247.136 200.545C246.701 200.965 246.034 201.175 245.135 201.175H243.654V204.392H242.648V196.687H245.135C246.004 196.687 246.664 196.897 247.114 197.318C247.571 197.738 247.799 198.279 247.799 198.943ZM245.135 200.346C245.695 200.346 246.108 200.225 246.373 199.982C246.638 199.738 246.771 199.392 246.771 198.943C246.771 197.992 246.226 197.516 245.135 197.516H243.654V200.346H245.135ZM253.106 204.392L251.271 201.242H250.055V204.392H249.049V196.687H251.537C252.119 196.687 252.609 196.787 253.007 196.986C253.412 197.185 253.714 197.454 253.913 197.793C254.112 198.132 254.212 198.519 254.212 198.954C254.212 199.484 254.057 199.952 253.747 200.357C253.445 200.763 252.988 201.032 252.377 201.164L254.311 204.392H253.106ZM250.055 200.435H251.537C252.082 200.435 252.491 200.302 252.764 200.037C253.036 199.764 253.173 199.403 253.173 198.954C253.173 198.497 253.036 198.143 252.764 197.892C252.498 197.642 252.089 197.516 251.537 197.516H250.055V200.435Z" fill="#292D30"/>
<path d="M302.708 196.743V204.392H301.702V198.688L299.159 204.392H298.452L295.898 198.677V204.392H294.892V196.743H295.976L298.805 203.066L301.635 196.743H302.708ZM308.968 202.679H305.608L304.989 204.392H303.927L306.713 196.732H307.874L310.648 204.392H309.587L308.968 202.679ZM308.681 201.861L307.288 197.97L305.895 201.861H308.681ZM317.257 196.687L314.748 201.485V204.392H313.742V201.485L311.221 196.687H312.338L314.239 200.59L316.141 196.687H317.257Z" fill="#292D30"/>
<path d="M361.415 196.687V202.38C361.415 203.014 361.22 203.523 360.829 203.906C360.438 204.282 359.923 204.47 359.281 204.47C358.633 204.47 358.113 204.278 357.723 203.895C357.332 203.504 357.137 202.974 357.137 202.303H358.143C358.15 202.679 358.246 202.985 358.43 203.221C358.622 203.456 358.906 203.574 359.281 203.574C359.657 203.574 359.937 203.464 360.122 203.243C360.306 203.014 360.398 202.727 360.398 202.38V196.687H361.415ZM364.38 196.687V201.562C364.38 202.248 364.546 202.756 364.878 203.088C365.217 203.42 365.685 203.585 366.282 203.585C366.871 203.585 367.332 203.42 367.664 203.088C368.003 202.756 368.172 202.248 368.172 201.562V196.687H369.178V201.551C369.178 202.193 369.049 202.734 368.791 203.176C368.533 203.611 368.183 203.935 367.741 204.149C367.306 204.363 366.816 204.47 366.271 204.47C365.725 204.47 365.232 204.363 364.79 204.149C364.355 203.935 364.008 203.611 363.75 203.176C363.5 202.734 363.375 202.193 363.375 201.551V196.687H364.38ZM376.914 204.392H375.908L371.862 198.257V204.392H370.856V196.676H371.862L375.908 202.8V196.676H376.914V204.392Z" fill="#292D30"/>
</svg>
