<svg width="325" height="121" viewBox="0 0 325 121" fill="none" xmlns="http://www.w3.org/2000/svg">
<rect x="10" width="306" height="111" rx="10" fill="white"/>
<path d="M37.7727 29.2727C37.7045 28.697 37.428 28.25 36.9432 27.9318C36.4583 27.6136 35.8636 27.4545 35.1591 27.4545C34.6439 27.4545 34.1932 27.5379 33.8068 27.7045C33.4242 27.8712 33.125 28.1004 32.9091 28.392C32.697 28.6837 32.5909 29.0152 32.5909 29.3864C32.5909 29.697 32.6648 29.964 32.8125 30.1875C32.964 30.4072 33.1572 30.5909 33.392 30.7386C33.6269 30.8826 33.8731 31.0019 34.1307 31.0966C34.3883 31.1875 34.625 31.2614 34.8409 31.3182L36.0227 31.6364C36.3258 31.7159 36.6629 31.8258 37.0341 31.9659C37.4091 32.1061 37.767 32.2973 38.108 32.5398C38.4527 32.7784 38.7367 33.0852 38.9602 33.4602C39.1837 33.8352 39.2955 34.2955 39.2955 34.8409C39.2955 35.4697 39.1307 36.0379 38.8011 36.5455C38.4754 37.053 37.9981 37.4564 37.3693 37.7557C36.7443 38.0549 35.9848 38.2045 35.0909 38.2045C34.2576 38.2045 33.536 38.0701 32.9261 37.8011C32.3201 37.5322 31.8428 37.1572 31.4943 36.6761C31.1496 36.1951 30.9545 35.6364 30.9091 35H32.3636C32.4015 35.4394 32.5492 35.803 32.8068 36.0909C33.0682 36.375 33.3977 36.5871 33.7955 36.7273C34.197 36.8636 34.6288 36.9318 35.0909 36.9318C35.6288 36.9318 36.1117 36.8447 36.5398 36.6705C36.9678 36.4924 37.3068 36.2462 37.5568 35.9318C37.8068 35.6136 37.9318 35.2424 37.9318 34.8182C37.9318 34.4318 37.8239 34.1174 37.608 33.875C37.392 33.6326 37.108 33.4356 36.7557 33.2841C36.4034 33.1326 36.0227 33 35.6136 32.8864L34.1818 32.4773C33.2727 32.2159 32.553 31.8428 32.0227 31.358C31.4924 30.8731 31.2273 30.2386 31.2273 29.4545C31.2273 28.803 31.4034 28.2348 31.7557 27.75C32.1117 27.2614 32.589 26.8826 33.1875 26.6136C33.7898 26.3409 34.4621 26.2045 35.2045 26.2045C35.9545 26.2045 36.6212 26.339 37.2045 26.608C37.7879 26.8731 38.25 27.2367 38.5909 27.6989C38.9356 28.161 39.1174 28.6856 39.1364 29.2727H37.7727ZM46.9304 34.4318V29.2727H48.2713V38H46.9304V36.5227H46.8395C46.6349 36.9659 46.3168 37.3428 45.8849 37.6534C45.4531 37.9602 44.9077 38.1136 44.2486 38.1136C43.7031 38.1136 43.2183 37.9943 42.794 37.7557C42.3698 37.5133 42.0365 37.1496 41.794 36.6648C41.5516 36.1761 41.4304 35.5606 41.4304 34.8182V29.2727H42.7713V34.7273C42.7713 35.3636 42.9493 35.8712 43.3054 36.25C43.6652 36.6288 44.1236 36.8182 44.6804 36.8182C45.0137 36.8182 45.3527 36.733 45.6974 36.5625C46.0459 36.392 46.3376 36.1307 46.5724 35.7784C46.8111 35.4261 46.9304 34.9773 46.9304 34.4318ZM50.7273 41.2727V29.2727H52.0227V30.6591H52.1818C52.2803 30.5076 52.4167 30.3144 52.5909 30.0795C52.7689 29.8409 53.0227 29.6288 53.3523 29.4432C53.6856 29.2538 54.1364 29.1591 54.7045 29.1591C55.4394 29.1591 56.0871 29.3428 56.6477 29.7102C57.2083 30.0777 57.6458 30.5985 57.9602 31.2727C58.2746 31.947 58.4318 32.7424 58.4318 33.6591C58.4318 34.5833 58.2746 35.3845 57.9602 36.0625C57.6458 36.7367 57.2102 37.2595 56.6534 37.6307C56.0966 37.9981 55.4545 38.1818 54.7273 38.1818C54.1667 38.1818 53.7178 38.089 53.3807 37.9034C53.0436 37.714 52.7841 37.5 52.6023 37.2614C52.4205 37.0189 52.2803 36.8182 52.1818 36.6591H52.0682V41.2727H50.7273ZM52.0455 33.6364C52.0455 34.2955 52.142 34.8769 52.3352 35.3807C52.5284 35.8807 52.8106 36.2727 53.1818 36.5568C53.553 36.8371 54.0076 36.9773 54.5455 36.9773C55.1061 36.9773 55.5739 36.8295 55.9489 36.5341C56.3277 36.2348 56.6117 35.8333 56.8011 35.3295C56.9943 34.822 57.0909 34.2576 57.0909 33.6364C57.0909 33.0227 56.9962 32.4697 56.8068 31.9773C56.6212 31.4811 56.339 31.089 55.9602 30.8011C55.5852 30.5095 55.1136 30.3636 54.5455 30.3636C54 30.3636 53.5417 30.5019 53.1705 30.7784C52.7992 31.0511 52.5189 31.4337 52.3295 31.9261C52.1402 32.4148 52.0455 32.9848 52.0455 33.6364ZM60.4773 41.2727V29.2727H61.7727V30.6591H61.9318C62.0303 30.5076 62.1667 30.3144 62.3409 30.0795C62.5189 29.8409 62.7727 29.6288 63.1023 29.4432C63.4356 29.2538 63.8864 29.1591 64.4545 29.1591C65.1894 29.1591 65.8371 29.3428 66.3977 29.7102C66.9583 30.0777 67.3958 30.5985 67.7102 31.2727C68.0246 31.947 68.1818 32.7424 68.1818 33.6591C68.1818 34.5833 68.0246 35.3845 67.7102 36.0625C67.3958 36.7367 66.9602 37.2595 66.4034 37.6307C65.8466 37.9981 65.2045 38.1818 64.4773 38.1818C63.9167 38.1818 63.4678 38.089 63.1307 37.9034C62.7936 37.714 62.5341 37.5 62.3523 37.2614C62.1705 37.0189 62.0303 36.8182 61.9318 36.6591H61.8182V41.2727H60.4773ZM61.7955 33.6364C61.7955 34.2955 61.892 34.8769 62.0852 35.3807C62.2784 35.8807 62.5606 36.2727 62.9318 36.5568C63.303 36.8371 63.7576 36.9773 64.2955 36.9773C64.8561 36.9773 65.3239 36.8295 65.6989 36.5341C66.0777 36.2348 66.3617 35.8333 66.5511 35.3295C66.7443 34.822 66.8409 34.2576 66.8409 33.6364C66.8409 33.0227 66.7462 32.4697 66.5568 31.9773C66.3712 31.4811 66.089 31.089 65.7102 30.8011C65.3352 30.5095 64.8636 30.3636 64.2955 30.3636C63.75 30.3636 63.2917 30.5019 62.9205 30.7784C62.5492 31.0511 62.2689 31.4337 62.0795 31.9261C61.8902 32.4148 61.7955 32.9848 61.7955 33.6364ZM73.7727 38.1818C72.9848 38.1818 72.2936 37.9943 71.6989 37.6193C71.108 37.2443 70.6458 36.7197 70.3125 36.0455C69.983 35.3712 69.8182 34.5833 69.8182 33.6818C69.8182 32.7727 69.983 31.9792 70.3125 31.3011C70.6458 30.6231 71.108 30.0966 71.6989 29.7216C72.2936 29.3466 72.9848 29.1591 73.7727 29.1591C74.5606 29.1591 75.25 29.3466 75.8409 29.7216C76.4356 30.0966 76.8977 30.6231 77.2273 31.3011C77.5606 31.9792 77.7273 32.7727 77.7273 33.6818C77.7273 34.5833 77.5606 35.3712 77.2273 36.0455C76.8977 36.7197 76.4356 37.2443 75.8409 37.6193C75.25 37.9943 74.5606 38.1818 73.7727 38.1818ZM73.7727 36.9773C74.3712 36.9773 74.8636 36.8239 75.25 36.517C75.6364 36.2102 75.9223 35.8068 76.108 35.3068C76.2936 34.8068 76.3864 34.2652 76.3864 33.6818C76.3864 33.0985 76.2936 32.5549 76.108 32.0511C75.9223 31.5473 75.6364 31.1402 75.25 30.8295C74.8636 30.5189 74.3712 30.3636 73.7727 30.3636C73.1742 30.3636 72.6818 30.5189 72.2955 30.8295C71.9091 31.1402 71.6231 31.5473 71.4375 32.0511C71.2519 32.5549 71.1591 33.0985 71.1591 33.6818C71.1591 34.2652 71.2519 34.8068 71.4375 35.3068C71.6231 35.8068 71.9091 36.2102 72.2955 36.517C72.6818 36.8239 73.1742 36.9773 73.7727 36.9773ZM79.7741 38V29.2727H81.0696V30.5909H81.1605C81.3196 30.1591 81.6075 29.8087 82.0241 29.5398C82.4408 29.2708 82.9105 29.1364 83.4332 29.1364C83.5317 29.1364 83.6548 29.1383 83.8026 29.142C83.9503 29.1458 84.062 29.1515 84.1378 29.1591V30.5227C84.0923 30.5114 83.9882 30.4943 83.8253 30.4716C83.6662 30.4451 83.4976 30.4318 83.3196 30.4318C82.8954 30.4318 82.5166 30.5208 82.1832 30.6989C81.8537 30.8731 81.5923 31.1155 81.3991 31.4261C81.2098 31.733 81.1151 32.0833 81.1151 32.4773V38H79.7741ZM90.0696 29.2727V30.4091H85.5469V29.2727H90.0696ZM86.8651 27.1818H88.206V35.5C88.206 35.8788 88.2609 36.1629 88.3707 36.3523C88.4844 36.5379 88.6283 36.6629 88.8026 36.7273C88.9806 36.7879 89.1681 36.8182 89.3651 36.8182C89.5128 36.8182 89.634 36.8106 89.7287 36.7955C89.8234 36.7765 89.8991 36.7614 89.956 36.75L90.2287 37.9545C90.1378 37.9886 90.0109 38.0227 89.848 38.0568C89.6851 38.0947 89.4787 38.1136 89.2287 38.1136C88.8499 38.1136 88.4787 38.0322 88.1151 37.8693C87.7552 37.7064 87.456 37.4583 87.2173 37.125C86.9825 36.7917 86.8651 36.3712 86.8651 35.8636V27.1818ZM95.652 38.1818C94.8111 38.1818 94.0857 37.9962 93.4759 37.625C92.8698 37.25 92.402 36.7273 92.0724 36.0568C91.7467 35.3826 91.5838 34.5985 91.5838 33.7045C91.5838 32.8106 91.7467 32.0227 92.0724 31.3409C92.402 30.6553 92.8603 30.1212 93.4474 29.7386C94.0384 29.3523 94.7277 29.1591 95.5156 29.1591C95.9702 29.1591 96.419 29.2348 96.8622 29.3864C97.3054 29.5379 97.7088 29.7841 98.0724 30.125C98.4361 30.4621 98.7259 30.9091 98.9418 31.4659C99.1577 32.0227 99.2656 32.7083 99.2656 33.5227V34.0909H92.5384V32.9318H97.902C97.902 32.4394 97.8035 32 97.6065 31.6136C97.4134 31.2273 97.1368 30.9223 96.777 30.6989C96.4209 30.4754 96.0005 30.3636 95.5156 30.3636C94.9815 30.3636 94.5194 30.4962 94.1293 30.7614C93.7429 31.0227 93.4455 31.3636 93.2372 31.7841C93.0289 32.2045 92.9247 32.6553 92.9247 33.1364V33.9091C92.9247 34.5682 93.0384 35.1269 93.2656 35.5852C93.4967 36.0398 93.8168 36.3864 94.2259 36.625C94.6349 36.8598 95.1103 36.9773 95.652 36.9773C96.0043 36.9773 96.3224 36.928 96.6065 36.8295C96.8944 36.7273 97.1425 36.5758 97.3509 36.375C97.5592 36.1705 97.7202 35.9167 97.8338 35.6136L99.1293 35.9773C98.9929 36.4167 98.7637 36.803 98.4418 37.1364C98.1198 37.4659 97.7221 37.7235 97.2486 37.9091C96.7751 38.0909 96.2429 38.1818 95.652 38.1818ZM104.601 38.1818C103.874 38.1818 103.232 37.9981 102.675 37.6307C102.118 37.2595 101.682 36.7367 101.368 36.0625C101.054 35.3845 100.896 34.5833 100.896 33.6591C100.896 32.7424 101.054 31.947 101.368 31.2727C101.682 30.5985 102.12 30.0777 102.68 29.7102C103.241 29.3428 103.889 29.1591 104.624 29.1591C105.192 29.1591 105.641 29.2538 105.97 29.4432C106.304 29.6288 106.557 29.8409 106.732 30.0795C106.91 30.3144 107.048 30.5076 107.146 30.6591H107.26V26.3636H108.601V38H107.305V36.6591H107.146C107.048 36.8182 106.908 37.0189 106.726 37.2614C106.544 37.5 106.285 37.714 105.947 37.9034C105.61 38.089 105.161 38.1818 104.601 38.1818ZM104.783 36.9773C105.321 36.9773 105.775 36.8371 106.146 36.5568C106.518 36.2727 106.8 35.8807 106.993 35.3807C107.186 34.8769 107.283 34.2955 107.283 33.6364C107.283 32.9848 107.188 32.4148 106.999 31.9261C106.809 31.4337 106.529 31.0511 106.158 30.7784C105.786 30.5019 105.328 30.3636 104.783 30.3636C104.214 30.3636 103.741 30.5095 103.362 30.8011C102.987 31.089 102.705 31.4811 102.516 31.9773C102.33 32.4697 102.237 33.0227 102.237 33.6364C102.237 34.2576 102.332 34.822 102.521 35.3295C102.714 35.8333 102.999 36.2348 103.374 36.5341C103.752 36.8295 104.222 36.9773 104.783 36.9773ZM115.925 38V26.3636H117.266V30.6591H117.379C117.478 30.5076 117.614 30.3144 117.788 30.0795C117.966 29.8409 118.22 29.6288 118.55 29.4432C118.883 29.2538 119.334 29.1591 119.902 29.1591C120.637 29.1591 121.285 29.3428 121.845 29.7102C122.406 30.0777 122.843 30.5985 123.158 31.2727C123.472 31.947 123.629 32.7424 123.629 33.6591C123.629 34.5833 123.472 35.3845 123.158 36.0625C122.843 36.7367 122.408 37.2595 121.851 37.6307C121.294 37.9981 120.652 38.1818 119.925 38.1818C119.364 38.1818 118.915 38.089 118.578 37.9034C118.241 37.714 117.982 37.5 117.8 37.2614C117.618 37.0189 117.478 36.8182 117.379 36.6591H117.22V38H115.925ZM117.243 33.6364C117.243 34.2955 117.339 34.8769 117.533 35.3807C117.726 35.8807 118.008 36.2727 118.379 36.5568C118.75 36.8371 119.205 36.9773 119.743 36.9773C120.304 36.9773 120.771 36.8295 121.146 36.5341C121.525 36.2348 121.809 35.8333 121.999 35.3295C122.192 34.822 122.288 34.2576 122.288 33.6364C122.288 33.0227 122.194 32.4697 122.004 31.9773C121.819 31.4811 121.536 31.089 121.158 30.8011C120.783 30.5095 120.311 30.3636 119.743 30.3636C119.197 30.3636 118.739 30.5019 118.368 30.7784C117.997 31.0511 117.716 31.4337 117.527 31.9261C117.338 32.4148 117.243 32.9848 117.243 33.6364ZM126.232 41.2727C126.004 41.2727 125.802 41.2538 125.624 41.2159C125.446 41.1818 125.322 41.1477 125.254 41.1136L125.595 39.9318C125.921 40.0152 126.209 40.0455 126.459 40.0227C126.709 40 126.93 39.8883 127.124 39.6875C127.321 39.4905 127.5 39.1705 127.663 38.7273L127.913 38.0455L124.686 29.2727H126.141L128.55 36.2273H128.641L131.05 29.2727H132.504L128.8 39.2727C128.633 39.7235 128.427 40.0966 128.18 40.392C127.934 40.6913 127.648 40.9129 127.322 41.0568C127 41.2008 126.637 41.2727 126.232 41.2727ZM142.57 29.2727V30.4091H138.047V29.2727H142.57ZM139.365 27.1818H140.706V35.5C140.706 35.8788 140.761 36.1629 140.871 36.3523C140.984 36.5379 141.128 36.6629 141.303 36.7273C141.481 36.7879 141.668 36.8182 141.865 36.8182C142.013 36.8182 142.134 36.8106 142.229 36.7955C142.323 36.7765 142.399 36.7614 142.456 36.75L142.729 37.9545C142.638 37.9886 142.511 38.0227 142.348 38.0568C142.185 38.0947 141.979 38.1136 141.729 38.1136C141.35 38.1136 140.979 38.0322 140.615 37.8693C140.255 37.7064 139.956 37.4583 139.717 37.125C139.482 36.7917 139.365 36.3712 139.365 35.8636V27.1818ZM146.115 32.75V38H144.774V26.3636H146.115V30.6364H146.229C146.433 30.1856 146.74 29.8277 147.149 29.5625C147.562 29.2936 148.111 29.1591 148.797 29.1591C149.392 29.1591 149.912 29.2784 150.359 29.517C150.806 29.7519 151.153 30.1136 151.399 30.6023C151.649 31.0871 151.774 31.7045 151.774 32.4545V38H150.433V32.5455C150.433 31.8523 150.253 31.3163 149.893 30.9375C149.537 30.5549 149.043 30.3636 148.411 30.3636C147.971 30.3636 147.577 30.4564 147.229 30.642C146.884 30.8277 146.611 31.0985 146.411 31.4545C146.214 31.8106 146.115 32.2424 146.115 32.75ZM157.886 38.1818C157.045 38.1818 156.32 37.9962 155.71 37.625C155.104 37.25 154.636 36.7273 154.307 36.0568C153.981 35.3826 153.818 34.5985 153.818 33.7045C153.818 32.8106 153.981 32.0227 154.307 31.3409C154.636 30.6553 155.095 30.1212 155.682 29.7386C156.273 29.3523 156.962 29.1591 157.75 29.1591C158.205 29.1591 158.653 29.2348 159.097 29.3864C159.54 29.5379 159.943 29.7841 160.307 30.125C160.67 30.4621 160.96 30.9091 161.176 31.4659C161.392 32.0227 161.5 32.7083 161.5 33.5227V34.0909H154.773V32.9318H160.136C160.136 32.4394 160.038 32 159.841 31.6136C159.648 31.2273 159.371 30.9223 159.011 30.6989C158.655 30.4754 158.235 30.3636 157.75 30.3636C157.216 30.3636 156.754 30.4962 156.364 30.7614C155.977 31.0227 155.68 31.3636 155.472 31.7841C155.263 32.2045 155.159 32.6553 155.159 33.1364V33.9091C155.159 34.5682 155.273 35.1269 155.5 35.5852C155.731 36.0398 156.051 36.3864 156.46 36.625C156.869 36.8598 157.345 36.9773 157.886 36.9773C158.239 36.9773 158.557 36.928 158.841 36.8295C159.129 36.7273 159.377 36.5758 159.585 36.375C159.794 36.1705 159.955 35.9167 160.068 35.6136L161.364 35.9773C161.227 36.4167 160.998 36.803 160.676 37.1364C160.354 37.4659 159.956 37.7235 159.483 37.9091C159.009 38.0909 158.477 38.1818 157.886 38.1818ZM174.222 31.2273L173.017 31.5682C172.941 31.3674 172.83 31.1723 172.682 30.983C172.538 30.7898 172.341 30.6307 172.091 30.5057C171.841 30.3807 171.521 30.3182 171.131 30.3182C170.597 30.3182 170.152 30.4413 169.795 30.6875C169.443 30.9299 169.267 31.2386 169.267 31.6136C169.267 31.947 169.388 32.2102 169.631 32.4034C169.873 32.5966 170.252 32.7576 170.767 32.8864L172.062 33.2045C172.843 33.3939 173.424 33.6837 173.807 34.0739C174.189 34.4602 174.381 34.9583 174.381 35.5682C174.381 36.0682 174.237 36.5152 173.949 36.9091C173.665 37.303 173.267 37.6136 172.756 37.8409C172.244 38.0682 171.65 38.1818 170.972 38.1818C170.081 38.1818 169.345 37.9886 168.761 37.6023C168.178 37.2159 167.809 36.6515 167.653 35.9091L168.926 35.5909C169.047 36.0606 169.277 36.4129 169.614 36.6477C169.955 36.8826 170.4 37 170.949 37C171.574 37 172.07 36.8674 172.438 36.6023C172.809 36.3333 172.994 36.0114 172.994 35.6364C172.994 35.3333 172.888 35.0795 172.676 34.875C172.464 34.6667 172.138 34.5114 171.699 34.4091L170.244 34.0682C169.445 33.8788 168.858 33.5852 168.483 33.1875C168.112 32.786 167.926 32.2841 167.926 31.6818C167.926 31.1894 168.064 30.7538 168.341 30.375C168.621 29.9962 169.002 29.6989 169.483 29.483C169.968 29.267 170.517 29.1591 171.131 29.1591C171.994 29.1591 172.672 29.3485 173.165 29.7273C173.661 30.1061 174.013 30.6061 174.222 31.2273ZM178.967 38.2045C178.414 38.2045 177.912 38.1004 177.462 37.892C177.011 37.6799 176.653 37.375 176.388 36.9773C176.123 36.5758 175.99 36.0909 175.99 35.5227C175.99 35.0227 176.089 34.6174 176.286 34.3068C176.482 33.9924 176.746 33.7462 177.075 33.5682C177.405 33.3902 177.768 33.2576 178.166 33.1705C178.568 33.0795 178.971 33.0076 179.376 32.9545C179.907 32.8864 180.337 32.8352 180.666 32.8011C181 32.7633 181.242 32.7008 181.393 32.6136C181.549 32.5265 181.626 32.375 181.626 32.1591V32.1136C181.626 31.553 181.473 31.1174 181.166 30.8068C180.863 30.4962 180.403 30.3409 179.786 30.3409C179.145 30.3409 178.643 30.4811 178.28 30.7614C177.916 31.0417 177.661 31.3409 177.513 31.6591L176.24 31.2045C176.467 30.6742 176.77 30.2614 177.149 29.9659C177.532 29.6667 177.948 29.4583 178.399 29.3409C178.854 29.2197 179.301 29.1591 179.74 29.1591C180.02 29.1591 180.342 29.1932 180.706 29.2614C181.073 29.3258 181.428 29.4602 181.768 29.6648C182.113 29.8693 182.399 30.178 182.626 30.5909C182.854 31.0038 182.967 31.5568 182.967 32.25V38H181.626V36.8182H181.558C181.467 37.0076 181.316 37.2102 181.104 37.4261C180.892 37.642 180.609 37.8258 180.257 37.9773C179.905 38.1288 179.475 38.2045 178.967 38.2045ZM179.172 37C179.702 37 180.149 36.8958 180.513 36.6875C180.88 36.4792 181.157 36.2102 181.342 35.8807C181.532 35.5511 181.626 35.2045 181.626 34.8409V33.6136C181.57 33.6818 181.445 33.7443 181.251 33.8011C181.062 33.8542 180.842 33.9015 180.592 33.9432C180.346 33.9811 180.106 34.0152 179.871 34.0455C179.64 34.072 179.452 34.0947 179.308 34.1136C178.96 34.1591 178.634 34.233 178.331 34.3352C178.032 34.4337 177.789 34.5833 177.604 34.7841C177.422 34.9811 177.331 35.25 177.331 35.5909C177.331 36.0568 177.503 36.4091 177.848 36.6477C178.196 36.8826 178.638 37 179.172 37ZM185.415 38V29.2727H186.71V30.6364H186.824C187.006 30.1705 187.299 29.8087 187.705 29.5511C188.11 29.2898 188.597 29.1591 189.165 29.1591C189.741 29.1591 190.22 29.2898 190.602 29.5511C190.989 29.8087 191.29 30.1705 191.506 30.6364H191.597C191.82 30.1856 192.155 29.8277 192.602 29.5625C193.049 29.2936 193.585 29.1591 194.21 29.1591C194.991 29.1591 195.629 29.4034 196.125 29.892C196.621 30.3769 196.869 31.1326 196.869 32.1591V38H195.528V32.1591C195.528 31.5152 195.352 31.0549 195 30.7784C194.648 30.5019 194.233 30.3636 193.756 30.3636C193.142 30.3636 192.667 30.5492 192.33 30.9205C191.992 31.2879 191.824 31.7538 191.824 32.3182V38H190.46V32.0227C190.46 31.5265 190.299 31.1269 189.977 30.8239C189.655 30.517 189.241 30.3636 188.733 30.3636C188.384 30.3636 188.059 30.4564 187.756 30.642C187.456 30.8277 187.214 31.0852 187.028 31.4148C186.847 31.7405 186.756 32.1174 186.756 32.5455V38H185.415ZM202.98 38.1818C202.139 38.1818 201.414 37.9962 200.804 37.625C200.198 37.25 199.73 36.7273 199.401 36.0568C199.075 35.3826 198.912 34.5985 198.912 33.7045C198.912 32.8106 199.075 32.0227 199.401 31.3409C199.73 30.6553 200.188 30.1212 200.776 29.7386C201.366 29.3523 202.056 29.1591 202.844 29.1591C203.298 29.1591 203.747 29.2348 204.19 29.3864C204.634 29.5379 205.037 29.7841 205.401 30.125C205.764 30.4621 206.054 30.9091 206.27 31.4659C206.486 32.0227 206.594 32.7083 206.594 33.5227V34.0909H199.866V32.9318H205.23C205.23 32.4394 205.132 32 204.935 31.6136C204.741 31.2273 204.465 30.9223 204.105 30.6989C203.749 30.4754 203.329 30.3636 202.844 30.3636C202.31 30.3636 201.848 30.4962 201.457 30.7614C201.071 31.0227 200.774 31.3636 200.565 31.7841C200.357 32.2045 200.253 32.6553 200.253 33.1364V33.9091C200.253 34.5682 200.366 35.1269 200.594 35.5852C200.825 36.0398 201.145 36.3864 201.554 36.625C201.963 36.8598 202.438 36.9773 202.98 36.9773C203.332 36.9773 203.651 36.928 203.935 36.8295C204.223 36.7273 204.471 36.5758 204.679 36.375C204.887 36.1705 205.048 35.9167 205.162 35.6136L206.457 35.9773C206.321 36.4167 206.092 36.803 205.77 37.1364C205.448 37.4659 205.05 37.7235 204.577 37.9091C204.103 38.0909 203.571 38.1818 202.98 38.1818ZM213.134 38V29.2727H214.474V38H213.134ZM213.815 27.8182C213.554 27.8182 213.329 27.7292 213.139 27.5511C212.954 27.3731 212.861 27.1591 212.861 26.9091C212.861 26.6591 212.954 26.4451 213.139 26.267C213.329 26.089 213.554 26 213.815 26C214.077 26 214.3 26.089 214.486 26.267C214.675 26.4451 214.77 26.6591 214.77 26.9091C214.77 27.1591 214.675 27.3731 214.486 27.5511C214.3 27.7292 214.077 27.8182 213.815 27.8182ZM218.271 32.75V38H216.93V29.2727H218.226V30.6364H218.339C218.544 30.1932 218.855 29.8371 219.271 29.5682C219.688 29.2955 220.226 29.1591 220.885 29.1591C221.476 29.1591 221.993 29.2803 222.436 29.5227C222.879 29.7614 223.224 30.125 223.47 30.6136C223.716 31.0985 223.839 31.7121 223.839 32.4545V38H222.499V32.5455C222.499 31.8598 222.321 31.3258 221.964 30.9432C221.608 30.5568 221.12 30.3636 220.499 30.3636C220.071 30.3636 219.688 30.4564 219.351 30.642C219.018 30.8277 218.754 31.0985 218.561 31.4545C218.368 31.8106 218.271 32.2424 218.271 32.75ZM233.114 29.2727L229.886 38H228.523L225.295 29.2727H226.75L229.159 36.2273H229.25L231.659 29.2727H233.114ZM238.23 38.1818C237.389 38.1818 236.664 37.9962 236.054 37.625C235.448 37.25 234.98 36.7273 234.651 36.0568C234.325 35.3826 234.162 34.5985 234.162 33.7045C234.162 32.8106 234.325 32.0227 234.651 31.3409C234.98 30.6553 235.438 30.1212 236.026 29.7386C236.616 29.3523 237.306 29.1591 238.094 29.1591C238.548 29.1591 238.997 29.2348 239.44 29.3864C239.884 29.5379 240.287 29.7841 240.651 30.125C241.014 30.4621 241.304 30.9091 241.52 31.4659C241.736 32.0227 241.844 32.7083 241.844 33.5227V34.0909H235.116V32.9318H240.48C240.48 32.4394 240.382 32 240.185 31.6136C239.991 31.2273 239.715 30.9223 239.355 30.6989C238.999 30.4754 238.579 30.3636 238.094 30.3636C237.56 30.3636 237.098 30.4962 236.707 30.7614C236.321 31.0227 236.024 31.3636 235.815 31.7841C235.607 32.2045 235.503 32.6553 235.503 33.1364V33.9091C235.503 34.5682 235.616 35.1269 235.844 35.5852C236.075 36.0398 236.395 36.3864 236.804 36.625C237.213 36.8598 237.688 36.9773 238.23 36.9773C238.582 36.9773 238.901 36.928 239.185 36.8295C239.473 36.7273 239.721 36.5758 239.929 36.375C240.137 36.1705 240.298 35.9167 240.412 35.6136L241.707 35.9773C241.571 36.4167 241.342 36.803 241.02 37.1364C240.698 37.4659 240.3 37.7235 239.827 37.9091C239.353 38.0909 238.821 38.1818 238.23 38.1818ZM250.065 31.2273L248.861 31.5682C248.785 31.3674 248.673 31.1723 248.526 30.983C248.382 30.7898 248.185 30.6307 247.935 30.5057C247.685 30.3807 247.365 30.3182 246.974 30.3182C246.44 30.3182 245.995 30.4413 245.639 30.6875C245.287 30.9299 245.111 31.2386 245.111 31.6136C245.111 31.947 245.232 32.2102 245.474 32.4034C245.717 32.5966 246.096 32.7576 246.611 32.8864L247.906 33.2045C248.687 33.3939 249.268 33.6837 249.651 34.0739C250.033 34.4602 250.224 34.9583 250.224 35.5682C250.224 36.0682 250.08 36.5152 249.793 36.9091C249.509 37.303 249.111 37.6136 248.599 37.8409C248.088 38.0682 247.493 38.1818 246.815 38.1818C245.925 38.1818 245.188 37.9886 244.605 37.6023C244.022 37.2159 243.652 36.6515 243.497 35.9091L244.77 35.5909C244.891 36.0606 245.12 36.4129 245.457 36.6477C245.798 36.8826 246.243 37 246.793 37C247.418 37 247.914 36.8674 248.281 36.6023C248.652 36.3333 248.838 36.0114 248.838 35.6364C248.838 35.3333 248.732 35.0795 248.52 34.875C248.308 34.6667 247.982 34.5114 247.543 34.4091L246.088 34.0682C245.289 33.8788 244.702 33.5852 244.327 33.1875C243.955 32.786 243.77 32.2841 243.77 31.6818C243.77 31.1894 243.908 30.7538 244.185 30.375C244.465 29.9962 244.846 29.6989 245.327 29.483C245.812 29.267 246.361 29.1591 246.974 29.1591C247.838 29.1591 248.516 29.3485 249.009 29.7273C249.505 30.1061 249.857 30.6061 250.065 31.2273ZM256.038 29.2727V30.4091H251.516V29.2727H256.038ZM252.834 27.1818H254.175V35.5C254.175 35.8788 254.23 36.1629 254.339 36.3523C254.453 36.5379 254.597 36.6629 254.771 36.7273C254.949 36.7879 255.137 36.8182 255.334 36.8182C255.482 36.8182 255.603 36.8106 255.697 36.7955C255.792 36.7765 255.868 36.7614 255.925 36.75L256.197 37.9545C256.107 37.9886 255.98 38.0227 255.817 38.0568C255.654 38.0947 255.447 38.1136 255.197 38.1136C254.819 38.1136 254.447 38.0322 254.084 37.8693C253.724 37.7064 253.425 37.4583 253.186 37.125C252.951 36.7917 252.834 36.3712 252.834 35.8636V27.1818ZM261.507 38.1818C260.719 38.1818 260.028 37.9943 259.433 37.6193C258.842 37.2443 258.38 36.7197 258.047 36.0455C257.717 35.3712 257.553 34.5833 257.553 33.6818C257.553 32.7727 257.717 31.9792 258.047 31.3011C258.38 30.6231 258.842 30.0966 259.433 29.7216C260.028 29.3466 260.719 29.1591 261.507 29.1591C262.295 29.1591 262.984 29.3466 263.575 29.7216C264.17 30.0966 264.632 30.6231 264.962 31.3011C265.295 31.9792 265.462 32.7727 265.462 33.6818C265.462 34.5833 265.295 35.3712 264.962 36.0455C264.632 36.7197 264.17 37.2443 263.575 37.6193C262.984 37.9943 262.295 38.1818 261.507 38.1818ZM261.507 36.9773C262.106 36.9773 262.598 36.8239 262.984 36.517C263.371 36.2102 263.657 35.8068 263.842 35.3068C264.028 34.8068 264.121 34.2652 264.121 33.6818C264.121 33.0985 264.028 32.5549 263.842 32.0511C263.657 31.5473 263.371 31.1402 262.984 30.8295C262.598 30.5189 262.106 30.3636 261.507 30.3636C260.909 30.3636 260.416 30.5189 260.03 30.8295C259.643 31.1402 259.357 31.5473 259.172 32.0511C258.986 32.5549 258.893 33.0985 258.893 33.6818C258.893 34.2652 258.986 34.8068 259.172 35.3068C259.357 35.8068 259.643 36.2102 260.03 36.517C260.416 36.8239 260.909 36.9773 261.507 36.9773ZM267.509 38V29.2727H268.804V30.5909H268.895C269.054 30.1591 269.342 29.8087 269.759 29.5398C270.175 29.2708 270.645 29.1364 271.168 29.1364C271.266 29.1364 271.389 29.1383 271.537 29.142C271.685 29.1458 271.796 29.1515 271.872 29.1591V30.5227C271.827 30.5114 271.723 30.4943 271.56 30.4716C271.401 30.4451 271.232 30.4318 271.054 30.4318C270.63 30.4318 270.251 30.5208 269.918 30.6989C269.588 30.8731 269.327 31.1155 269.134 31.4261C268.944 31.733 268.849 32.0833 268.849 32.4773V38H267.509ZM279.643 31.2273L278.439 31.5682C278.363 31.3674 278.251 31.1723 278.104 30.983C277.96 30.7898 277.763 30.6307 277.513 30.5057C277.263 30.3807 276.943 30.3182 276.553 30.3182C276.018 30.3182 275.573 30.4413 275.217 30.6875C274.865 30.9299 274.689 31.2386 274.689 31.6136C274.689 31.947 274.81 32.2102 275.053 32.4034C275.295 32.5966 275.674 32.7576 276.189 32.8864L277.484 33.2045C278.265 33.3939 278.846 33.6837 279.229 34.0739C279.611 34.4602 279.803 34.9583 279.803 35.5682C279.803 36.0682 279.659 36.5152 279.371 36.9091C279.087 37.303 278.689 37.6136 278.178 37.8409C277.666 38.0682 277.071 38.1818 276.393 38.1818C275.503 38.1818 274.767 37.9886 274.183 37.6023C273.6 37.2159 273.231 36.6515 273.075 35.9091L274.348 35.5909C274.469 36.0606 274.698 36.4129 275.036 36.6477C275.376 36.8826 275.821 37 276.371 37C276.996 37 277.492 36.8674 277.859 36.6023C278.231 36.3333 278.416 36.0114 278.416 35.6364C278.416 35.3333 278.31 35.0795 278.098 34.875C277.886 34.6667 277.56 34.5114 277.121 34.4091L275.666 34.0682C274.867 33.8788 274.28 33.5852 273.905 33.1875C273.534 32.786 273.348 32.2841 273.348 31.6818C273.348 31.1894 273.486 30.7538 273.763 30.375C274.043 29.9962 274.424 29.6989 274.905 29.483C275.39 29.267 275.939 29.1591 276.553 29.1591C277.416 29.1591 278.094 29.3485 278.587 29.7273C279.083 30.1061 279.435 30.6061 279.643 31.2273Z" fill="#161516"/>
<g filter="url(#filter0_d_364_3191)">
<rect x="30" y="57" width="37" height="34" rx="5" fill="white"/>
<path fill-rule="evenodd" clip-rule="evenodd" d="M44.9791 64.6406C39.9133 66.567 37.2987 72.4974 39.141 77.522L48.4819 68.1811L44.9791 64.6406Z" fill="#181717"/>
<path opacity="0.5" fill-rule="evenodd" clip-rule="evenodd" d="M44.9414 64.6397L54.3199 73.9806L57.8228 70.4401C55.853 65.3334 50.0533 62.7653 44.9414 64.6397Z" fill="#181717"/>
<path opacity="0.5" fill-rule="evenodd" clip-rule="evenodd" d="M42.6811 73.9805L39.1406 77.521C41.0851 82.6342 47.0118 85.1722 52.0596 83.3213L42.6811 73.9805Z" fill="#181717"/>
<path fill-rule="evenodd" clip-rule="evenodd" d="M57.8213 70.4785L48.4805 79.8194L52.021 83.3599C56.9963 81.3978 59.8455 75.539 57.8213 70.4785Z" fill="#181717"/>
</g>
<g filter="url(#filter1_d_364_3191)">
<rect x="87" y="57" width="37" height="34" rx="5" fill="white"/>
<path d="M98.9043 78.2569C98.9043 80.4508 95.5 80.4508 95.5 78.2569L95.5 65.8314C95.5 63.6375 98.9043 63.6375 98.9043 65.8314L98.9043 78.2569Z" fill="#181717"/>
<path d="M104.436 82.298C104.436 84.4918 101.031 84.4918 101.031 82.298L101.031 69.8724C101.031 67.6786 104.436 67.6786 104.436 69.8724L104.436 82.298Z" fill="#181717"/>
<path d="M109.967 78.2569C109.967 80.4508 106.563 80.4508 106.562 78.2569L106.562 65.8314C106.562 63.6375 109.967 63.6375 109.967 65.8314L109.967 78.2569Z" fill="#181717"/>
<path d="M115.498 82.298C115.498 84.4918 112.094 84.4918 112.094 82.298L112.094 70.2724C112.094 68.0786 115.498 68.0786 115.498 70.2724L115.498 82.298Z" fill="#181717"/>
</g>
<g filter="url(#filter2_d_364_3191)">
<rect x="144" y="57" width="37" height="34" rx="5" fill="white"/>
<path d="M165.837 69.6857C169.346 69.7099 172.235 72.6451 172.187 76.1378C172.141 79.617 169.262 82.4634 165.786 82.4714C162.296 82.4795 159.382 79.5416 159.406 76.0436C159.431 72.5105 162.312 69.6641 165.837 69.6857ZM170.657 76.0839C170.663 73.3695 168.465 71.1668 165.764 71.1775C163.114 71.1883 160.933 73.3776 160.906 76.0543C160.877 78.696 163.09 80.9338 165.735 80.9419C168.479 80.9527 170.652 78.8091 170.657 76.0839Z" fill="#181717"/>
<path d="M161.755 83.4991C158.119 82.7155 155.316 79.0262 155.203 75.135C155.084 71.1038 157.831 67.3795 161.733 66.2755C165.307 65.2656 169.664 66.7252 171.193 69.4988C167.117 65.7055 160.674 66.2462 157.664 71.0796C155.416 74.6907 155.984 80.6231 161.755 83.4991Z" fill="#181717"/>
<path d="M160.274 83.9551C156.13 83.0618 152.934 78.8561 152.805 74.4201C152.67 69.8246 155.801 65.5789 160.249 64.3203C164.323 63.1691 169.29 64.833 171.034 67.9949C166.387 63.6706 159.042 64.287 155.611 69.7969C153.048 73.9136 153.695 80.6765 160.274 83.9551Z" fill="#181717"/>
<path d="M171.047 70.9138C166.986 67.3108 162.066 68.8242 159.968 71.7459C158.606 73.6471 158.21 75.7395 158.799 77.9826C159.381 80.1881 160.825 81.723 163.046 82.8271C160.03 82.2993 157.601 79.3102 157.318 76.0384C157.03 72.675 159.217 69.3654 162.481 68.229C165.623 67.133 169.307 68.2721 171.047 70.9138Z" fill="#181717"/>
<path d="M165.796 78.5147C167.142 78.5147 168.233 77.4236 168.233 76.0777C168.233 74.7317 167.142 73.6406 165.796 73.6406C164.45 73.6406 163.359 74.7317 163.359 76.0777C163.359 77.4236 164.45 78.5147 165.796 78.5147Z" fill="#181717"/>
</g>
<g filter="url(#filter3_d_364_3191)">
<rect x="201" y="57" width="37" height="34" rx="5" fill="white"/>
<path fill-rule="evenodd" clip-rule="evenodd" d="M215.024 76.5V66.5L210.699 69V79L219.342 84L223.667 81.5L215.024 76.5Z" fill="#181717"/>
<path fill-rule="evenodd" clip-rule="evenodd" d="M219.344 74L227.987 79V74L223.669 71.5V66.5L219.344 64V74Z" fill="#181717"/>
</g>
<g filter="url(#filter4_d_364_3191)">
<rect x="258" y="57" width="37" height="34" rx="5" fill="white"/>
<path fill-rule="evenodd" clip-rule="evenodd" d="M276.695 83.4237C280.852 83.4237 284.539 80.6786 285.715 76.6786C282.443 77.2238 278.916 75.8686 276.695 73.4629C274.475 75.8686 270.947 77.2238 267.676 76.6786C268.931 80.757 272.539 83.4237 276.695 83.4237Z" fill="#181717"/>
<path opacity="0.5" fill-rule="evenodd" clip-rule="evenodd" d="M286.107 74.7177C286.107 70.3208 283.768 66.2883 279.362 64.9922C279.766 67.4205 279.069 70.0689 277.793 72.1294C279.902 74.3385 283.111 75.4665 286.107 74.7177Z" fill="#181717"/>
<path opacity="0.5" fill-rule="evenodd" clip-rule="evenodd" d="M275.52 72.051C274.213 70.0399 273.552 67.3882 273.952 64.9922C269.581 66.3035 267.285 70.358 267.285 74.7177C270.267 75.4631 273.51 74.3627 275.52 72.051Z" fill="#181717"/>
<path fill-rule="evenodd" clip-rule="evenodd" d="M276.695 70.4035C277.323 69.2271 277.636 67.8937 277.636 66.482C277.636 65.8545 277.558 65.2271 277.401 64.5996C277.166 64.5996 276.93 64.5996 276.695 64.5996C276.46 64.5996 276.224 64.5996 275.989 64.5996C275.832 65.2271 275.754 65.8545 275.754 66.482C275.754 67.8937 276.146 69.2271 276.695 70.4035Z" fill="#181717"/>
</g>
<defs>
<filter id="filter0_d_364_3191" x="0" y="27" width="97" height="94" filterUnits="userSpaceOnUse" color-interpolation-filters="sRGB">
<feFlood flood-opacity="0" result="BackgroundImageFix"/>
<feColorMatrix in="SourceAlpha" type="matrix" values="0 0 0 0 0 0 0 0 0 0 0 0 0 0 0 0 0 0 127 0" result="hardAlpha"/>
<feMorphology radius="5" operator="dilate" in="SourceAlpha" result="effect1_dropShadow_364_3191"/>
<feOffset/>
<feGaussianBlur stdDeviation="12.5"/>
<feComposite in2="hardAlpha" operator="out"/>
<feColorMatrix type="matrix" values="0 0 0 0 0 0 0 0 0 0 0 0 0 0 0 0 0 0 0.08 0"/>
<feBlend mode="normal" in2="BackgroundImageFix" result="effect1_dropShadow_364_3191"/>
<feBlend mode="normal" in="SourceGraphic" in2="effect1_dropShadow_364_3191" result="shape"/>
</filter>
<filter id="filter1_d_364_3191" x="57" y="27" width="97" height="94" filterUnits="userSpaceOnUse" color-interpolation-filters="sRGB">
<feFlood flood-opacity="0" result="BackgroundImageFix"/>
<feColorMatrix in="SourceAlpha" type="matrix" values="0 0 0 0 0 0 0 0 0 0 0 0 0 0 0 0 0 0 127 0" result="hardAlpha"/>
<feMorphology radius="5" operator="dilate" in="SourceAlpha" result="effect1_dropShadow_364_3191"/>
<feOffset/>
<feGaussianBlur stdDeviation="12.5"/>
<feComposite in2="hardAlpha" operator="out"/>
<feColorMatrix type="matrix" values="0 0 0 0 0 0 0 0 0 0 0 0 0 0 0 0 0 0 0.08 0"/>
<feBlend mode="normal" in2="BackgroundImageFix" result="effect1_dropShadow_364_3191"/>
<feBlend mode="normal" in="SourceGraphic" in2="effect1_dropShadow_364_3191" result="shape"/>
</filter>
<filter id="filter2_d_364_3191" x="114" y="27" width="97" height="94" filterUnits="userSpaceOnUse" color-interpolation-filters="sRGB">
<feFlood flood-opacity="0" result="BackgroundImageFix"/>
<feColorMatrix in="SourceAlpha" type="matrix" values="0 0 0 0 0 0 0 0 0 0 0 0 0 0 0 0 0 0 127 0" result="hardAlpha"/>
<feMorphology radius="5" operator="dilate" in="SourceAlpha" result="effect1_dropShadow_364_3191"/>
<feOffset/>
<feGaussianBlur stdDeviation="12.5"/>
<feComposite in2="hardAlpha" operator="out"/>
<feColorMatrix type="matrix" values="0 0 0 0 0 0 0 0 0 0 0 0 0 0 0 0 0 0 0.08 0"/>
<feBlend mode="normal" in2="BackgroundImageFix" result="effect1_dropShadow_364_3191"/>
<feBlend mode="normal" in="SourceGraphic" in2="effect1_dropShadow_364_3191" result="shape"/>
</filter>
<filter id="filter3_d_364_3191" x="171" y="27" width="97" height="94" filterUnits="userSpaceOnUse" color-interpolation-filters="sRGB">
<feFlood flood-opacity="0" result="BackgroundImageFix"/>
<feColorMatrix in="SourceAlpha" type="matrix" values="0 0 0 0 0 0 0 0 0 0 0 0 0 0 0 0 0 0 127 0" result="hardAlpha"/>
<feMorphology radius="5" operator="dilate" in="SourceAlpha" result="effect1_dropShadow_364_3191"/>
<feOffset/>
<feGaussianBlur stdDeviation="12.5"/>
<feComposite in2="hardAlpha" operator="out"/>
<feColorMatrix type="matrix" values="0 0 0 0 0 0 0 0 0 0 0 0 0 0 0 0 0 0 0.08 0"/>
<feBlend mode="normal" in2="BackgroundImageFix" result="effect1_dropShadow_364_3191"/>
<feBlend mode="normal" in="SourceGraphic" in2="effect1_dropShadow_364_3191" result="shape"/>
</filter>
<filter id="filter4_d_364_3191" x="228" y="27" width="97" height="94" filterUnits="userSpaceOnUse" color-interpolation-filters="sRGB">
<feFlood flood-opacity="0" result="BackgroundImageFix"/>
<feColorMatrix in="SourceAlpha" type="matrix" values="0 0 0 0 0 0 0 0 0 0 0 0 0 0 0 0 0 0 127 0" result="hardAlpha"/>
<feMorphology radius="5" operator="dilate" in="SourceAlpha" result="effect1_dropShadow_364_3191"/>
<feOffset/>
<feGaussianBlur stdDeviation="12.5"/>
<feComposite in2="hardAlpha" operator="out"/>
<feColorMatrix type="matrix" values="0 0 0 0 0 0 0 0 0 0 0 0 0 0 0 0 0 0 0.08 0"/>
<feBlend mode="normal" in2="BackgroundImageFix" result="effect1_dropShadow_364_3191"/>
<feBlend mode="normal" in="SourceGraphic" in2="effect1_dropShadow_364_3191" result="shape"/>
</filter>
</defs>
</svg>
