<svg width="109" height="30" viewBox="0 0 109 30" fill="none" xmlns="http://www.w3.org/2000/svg">
<path fill-rule="evenodd" clip-rule="evenodd" d="M1.00955 16.9565C0.898438 16.9565 0.898438 16.9565 0.898438 16.9565C3.25333 33.7024 28.3076 33.5377 30.8984 16.9565C30.7873 16.9565 30.7873 16.9565 30.7873 16.9565C29.6762 16.9565 28.6762 17.0677 27.5651 17.2899C24.8491 29.3883 6.80488 29.4888 4.34288 17.1788C3.23177 17.0677 2.12066 16.9565 1.00955 16.9565Z" fill="white"/>
<path fill-rule="evenodd" clip-rule="evenodd" d="M0.898438 12.6231H1.00955C2.12066 12.6231 3.12066 12.512 4.23177 12.2898C6.92463 0.294326 24.8426 0.0382214 27.3429 12.2898C28.3429 12.512 29.454 12.6231 30.5651 12.6231H30.6762C28.5701 -4.22601 3.24142 -4.03811 0.898438 12.6231Z" fill="white"/>
<path fill-rule="evenodd" clip-rule="evenodd" d="M28.2331 14.7344C23.3442 14.0678 18.8997 11.5122 15.8997 7.51221C12.8997 11.5122 8.4553 14.0678 3.56641 14.7344C8.4553 15.4011 13.0108 18.0678 15.8997 22.0678C18.8997 18.0678 23.3442 15.4011 28.2331 14.7344Z" fill="white"/>
<g clip-path="url(#clip0_169_1584)">
<path d="M43.0552 22.1001V9.5361H46.0252V22.1001H43.0552ZM40.1752 9.5361H48.9052V11.9661H40.1752V9.5361ZM40.1752 19.6701H48.9052V22.1001H40.1752V19.6701ZM56.4002 22.3161C55.3442 22.3161 54.4322 22.1061 53.6642 21.6861C52.9082 21.2661 52.3262 20.6661 51.9182 19.8861C51.5222 19.1061 51.3242 18.1761 51.3242 17.0961C51.3242 15.9921 51.5342 15.0501 51.9542 14.2701C52.3862 13.4901 52.9862 12.8961 53.7542 12.4881C54.5222 12.0801 55.4282 11.8761 56.4722 11.8761C57.3842 11.8761 58.1882 12.0381 58.8842 12.3621C59.5922 12.6861 60.1502 13.1421 60.5582 13.7301C60.9782 14.3061 61.2062 14.9961 61.2422 15.8001H58.4342C58.3382 15.2481 58.1222 14.8401 57.7862 14.5761C57.4622 14.3001 57.0242 14.1621 56.4722 14.1621C56.0162 14.1621 55.6082 14.2761 55.2482 14.5041C54.9002 14.7321 54.6242 15.0621 54.4202 15.4941C54.2282 15.9261 54.1322 16.4601 54.1322 17.0961C54.1322 18.0441 54.3482 18.7761 54.7802 19.2921C55.2242 19.8081 55.7642 20.0661 56.4002 20.0661C56.7722 20.0661 57.0962 20.0001 57.3722 19.8681C57.6602 19.7361 57.9002 19.5501 58.0922 19.3101C58.2842 19.0581 58.4162 18.7761 58.4882 18.4641H61.2962C61.2242 19.2441 60.9722 19.9221 60.5402 20.4981C60.1082 21.0741 59.5382 21.5241 58.8302 21.8481C58.1222 22.1601 57.3122 22.3161 56.4002 22.3161ZM67.9633 22.3161C66.8953 22.3161 65.9773 22.1061 65.2093 21.6861C64.4413 21.2661 63.8473 20.6661 63.4273 19.8861C63.0193 19.1061 62.8153 18.1761 62.8153 17.0961C62.8153 16.0041 63.0193 15.0741 63.4273 14.3061C63.8473 13.5261 64.4413 12.9261 65.2093 12.5061C65.9773 12.0861 66.8953 11.8761 67.9633 11.8761C69.5713 11.8761 70.8253 12.3381 71.7253 13.2621C72.6373 14.1861 73.0933 15.4641 73.0933 17.0961C73.0933 18.1761 72.8893 19.1061 72.4813 19.8861C72.0733 20.6661 71.4853 21.2661 70.7173 21.6861C69.9493 22.1061 69.0313 22.3161 67.9633 22.3161ZM67.9633 20.0481C68.6833 20.0481 69.2473 19.7841 69.6553 19.2561C70.0753 18.7281 70.2853 18.0081 70.2853 17.0961C70.2853 16.1721 70.0753 15.4521 69.6553 14.9361C69.2473 14.4081 68.6833 14.1441 67.9633 14.1441C67.2313 14.1441 66.6553 14.4081 66.2353 14.9361C65.8273 15.4521 65.6233 16.1721 65.6233 17.0961C65.6233 18.0081 65.8273 18.7281 66.2353 19.2561C66.6553 19.7841 67.2313 20.0481 67.9633 20.0481ZM81.6323 22.1001V15.9261C81.6323 15.4101 81.5003 14.9961 81.2363 14.6841C80.9723 14.3721 80.6243 14.2161 80.1923 14.2161C79.7003 14.2161 79.2443 14.3841 78.8243 14.7201C78.4163 15.0441 77.9843 15.6081 77.5283 16.4121L77.1323 14.0361C77.5883 13.2561 78.1403 12.7041 78.7883 12.3801C79.4363 12.0441 80.0963 11.8761 80.7683 11.8761C81.5363 11.8761 82.1903 12.0381 82.7303 12.3621C83.2823 12.6861 83.7023 13.1361 83.9903 13.7121C84.2903 14.2881 84.4403 14.9661 84.4403 15.7461V22.1001H81.6323ZM74.9543 22.1001V12.0921H77.6723L77.7623 13.8741V22.1001H74.9543ZM89.9733 22.1001V12.0921H92.7813V22.1001H89.9733ZM86.7333 22.1001V19.8321H96.0573V22.1001H86.7333ZM87.9933 14.3601V12.0921H91.3773V14.3601H87.9933ZM89.8653 10.7601V8.1321H92.8533V10.7601H89.8653ZM103.228 22.3161C102.172 22.3161 101.26 22.1061 100.492 21.6861C99.7364 21.2661 99.1544 20.6661 98.7464 19.8861C98.3504 19.1061 98.1524 18.1761 98.1524 17.0961C98.1524 15.9921 98.3624 15.0501 98.7824 14.2701C99.2144 13.4901 99.8144 12.8961 100.582 12.4881C101.35 12.0801 102.256 11.8761 103.3 11.8761C104.212 11.8761 105.016 12.0381 105.712 12.3621C106.42 12.6861 106.978 13.1421 107.386 13.7301C107.806 14.3061 108.034 14.9961 108.07 15.8001H105.262C105.166 15.2481 104.95 14.8401 104.614 14.5761C104.29 14.3001 103.852 14.1621 103.3 14.1621C102.844 14.1621 102.436 14.2761 102.076 14.5041C101.728 14.7321 101.452 15.0621 101.248 15.4941C101.056 15.9261 100.96 16.4601 100.96 17.0961C100.96 18.0441 101.176 18.7761 101.608 19.2921C102.052 19.8081 102.592 20.0661 103.228 20.0661C103.6 20.0661 103.924 20.0001 104.2 19.8681C104.488 19.7361 104.728 19.5501 104.92 19.3101C105.112 19.0581 105.244 18.7761 105.316 18.4641H108.124C108.052 19.2441 107.8 19.9221 107.368 20.4981C106.936 21.0741 106.366 21.5241 105.658 21.8481C104.95 22.1601 104.14 22.3161 103.228 22.3161Z" fill="white"/>
</g>
<defs>
<clipPath id="clip0_169_1584">
<rect width="68.4" height="30" fill="white" transform="translate(39.8984)"/>
</clipPath>
</defs>
</svg>
