<svg width="183" height="50" viewBox="0 0 183 50" fill="none" xmlns="http://www.w3.org/2000/svg">
<path opacity="0.5" fill-rule="evenodd" clip-rule="evenodd" d="M20.127 0C15.466 0 11.2287 1.69492 7.83887 4.23729L30.9321 31.9915L49.788 17.7966C48.9406 7.83898 40.466 0 30.0846 0" fill="#181717"></path>
<path fill-rule="evenodd" clip-rule="evenodd" d="M30.0847 50C41.1017 50 50 41.1017 50 30.0847V29.0254L32.839 41.7373C30.9322 43.2203 28.178 42.7966 26.6949 41.1017L2.11864 11.4407C0.847458 13.983 0 16.9491 0 19.9152V29.8729C0 40.8898 8.89831 49.7881 19.9153 49.7881" fill="#181717"></path>
<g clip-path="url(#clip0_67_2028)">
<path d="M74.439 14.924L74.873 15.296C75.059 17.404 75.121 19.605 75.121 21.713C75.121 25.991 74.563 30.362 74.16 33.245L74.935 33.276C77.973 30.238 80.794 25.371 80.794 21.806C80.794 18.954 79.616 17.063 78.469 15.854L78.531 15.451C80.422 15.079 82.499 14.955 84.018 14.924C84.669 15.42 85.072 16.102 85.072 17.373C85.072 18.241 84.855 19.295 84.421 20.69C83.15 24.813 75.586 34.702 71.928 36.996C70.347 36.872 68.828 36.376 67.681 35.725C68.022 31.788 68.27 27.696 68.27 23.883C68.27 21.682 68.146 19.667 67.991 17.993L65.201 15.792L65.263 15.389C67.433 15.172 72.269 14.924 74.439 14.924ZM90.7043 17.528C89.4953 17.528 88.5963 16.753 88.5963 15.668C88.5963 14.025 90.2083 13.033 91.5413 13.033C92.7503 13.033 93.6183 13.808 93.6183 14.862C93.6183 16.536 92.0373 17.528 90.7043 17.528ZM95.5403 32.997C94.0523 34.671 91.0143 36.996 88.4103 36.996C86.2093 36.996 84.5043 35.849 84.5043 33.524C84.5043 32.408 84.9383 30.92 85.4963 29.153C86.0543 27.417 86.6433 25.464 87.0463 23.201L85.8683 21.434L85.9613 20.969C88.7513 20.659 91.1073 20.535 93.4013 20.504L93.8353 20.814C93.8353 22.054 93.4633 24.689 92.7193 27.324C91.9133 30.176 90.5803 33.307 90.5803 34.888C90.5803 35.167 90.6113 35.508 90.7043 35.632C92.1303 35.012 94.3003 33.462 95.4473 32.191L95.5403 32.284V32.997ZM108.426 32.067C108.426 35.601 104.799 36.996 101.792 36.996C98.5057 36.996 95.0957 35.973 93.9487 34.392C94.5377 32.966 95.5297 31.695 96.5527 30.641H96.8627C97.5757 32.47 99.3427 36.252 101.358 36.252C102.288 36.252 103.125 35.694 103.125 34.547C103.125 32.935 101.978 32.408 100.49 31.478C98.0407 29.959 96.4597 28.874 96.4597 26.642C96.4597 22.147 101.854 20.504 105.419 20.504C108.736 20.504 110.937 21.713 110.937 23.666C110.937 24.875 110.224 25.619 109.201 26.146C107.651 26.332 106.132 26.363 104.582 26.363L104.489 26.053C105.233 25.216 105.977 24.41 105.977 23.604C105.977 22.705 105.047 21.496 103.807 21.496C102.846 21.496 101.885 22.147 101.885 23.759C101.885 25.371 102.908 26.301 104.396 27.231C106.845 28.75 108.426 29.835 108.426 32.067ZM133.524 32.997C132.036 34.671 128.378 36.996 125.774 36.996C123.573 36.996 122.364 35.849 122.364 33.834C122.364 32.16 123.263 29.37 124.565 26.797L124.069 26.642C123.976 26.828 123.48 27.944 123.356 28.192C121.372 32.501 119.295 36.996 114.986 36.996C112.537 36.996 111.266 35.539 111.266 33.524C111.266 32.439 112.041 30.424 112.785 28.347C113.56 26.27 114.335 24.162 114.335 22.86C114.335 22.395 114.149 22.271 113.87 22.271C113.374 22.271 112.63 22.55 112.01 22.922L111.917 22.86L112.041 22.054C113.436 21.31 115.358 20.504 117.063 20.504C119.419 20.504 120.473 21.713 120.473 23.728C120.473 24.844 119.822 26.952 119.171 28.936C118.52 30.951 117.869 32.842 117.869 33.555C117.869 34.113 118.179 34.299 118.52 34.299C119.202 34.299 120.194 32.997 121.341 30.765C122.612 28.316 124.131 24.751 125.774 20.504C127.975 20.659 130.486 21.744 131.385 22.612C131.385 24.782 127.975 32.036 127.975 35.167C127.975 35.353 128.006 35.539 128.068 35.632C130.641 34.578 132.346 33.276 133.431 32.129L133.524 32.222V32.997ZM154.101 32.687C152.613 34.361 148.645 36.996 146.041 36.996C143.84 36.996 142.631 35.849 142.631 33.834C142.631 32.687 143.065 31.633 144.646 28.843L143.592 28.936C142.352 31.912 140.182 36.996 136.741 36.996C134.261 36.996 132.494 34.516 132.494 31.044C132.494 24.813 135.904 20.504 140.833 20.504C142.476 20.504 143.747 21.186 144.553 22.581L144.243 23.356C143.561 22.457 142.786 21.496 141.794 21.496C140.399 21.496 139.19 25.774 139.19 30.61C139.19 32.563 139.5 33.648 140.089 33.648C140.585 33.648 141.143 32.625 142.29 29.897C143.158 27.882 144.336 24.968 145.762 20.845C148.025 21.155 150.505 22.395 151.559 23.573C151.559 24.658 150.722 27.107 149.885 29.494C149.079 31.881 148.242 34.237 148.242 35.167C148.242 35.353 148.273 35.539 148.335 35.632C150.908 34.578 152.923 32.966 154.008 31.819L154.101 31.912V32.687ZM156.584 36.996C154.166 36.996 152.678 35.663 152.678 33.524C152.678 32.315 152.957 31.044 153.608 29.06L156.305 20.845C157.018 18.675 157.328 17.404 157.483 16.195L156.367 14.18L156.46 13.715C158.909 13.436 161.327 13.281 163.9 13.25L164.303 13.529C164.303 14.676 163.714 18.427 162.071 23.604C161.172 26.425 158.785 32.625 158.785 34.888C158.785 35.167 158.847 35.508 158.878 35.632C160.521 34.95 163.125 33.245 164.179 32.067L164.272 32.16V32.873C162.319 35.074 158.692 36.996 156.584 36.996ZM178.551 36.128C176.567 40.964 171.948 44.25 166.988 44.25C164.105 44.25 160.943 43.32 160.602 40.53C161.532 38.701 163.764 36.655 165.593 35.849C164.105 35.384 163.361 34.144 163.361 32.594C163.361 31.478 164.167 29.68 165.004 27.851C165.81 25.991 166.616 24.1 166.616 22.829C166.616 22.364 166.43 22.24 166.151 22.24C165.841 22.24 165.159 22.426 164.88 22.612L164.787 22.55L164.911 21.837C165.872 21.186 167.639 20.504 169.344 20.504C171.7 20.504 172.754 21.682 172.754 23.697C172.754 24.813 172.041 26.704 171.359 28.502C170.646 30.269 169.964 31.912 169.964 32.625C169.964 33.183 170.274 33.369 170.615 33.369C171.111 33.369 171.855 32.563 172.785 31.013C174.025 28.874 175.575 25.402 177.125 20.814C179.016 21.124 181.837 22.178 182.922 23.573C182.55 24.503 179.853 32.997 178.551 36.128ZM165.965 37.833C165.965 40.406 167.391 43.103 169.778 43.103C170.615 43.103 171.545 40.623 172.506 37.585C173.436 34.578 174.397 31.044 175.327 28.812L174.707 28.936C174.273 29.804 173.808 30.641 173.312 31.447C171.731 33.989 169.747 36.066 167.081 36.066C166.771 36.066 166.492 36.035 166.213 36.004C166.058 36.593 165.965 37.213 165.965 37.833Z" fill="#1D1F17"></path>
</g>
<defs>
<clipPath id="clip0_67_2028">
<rect width="118" height="50" fill="white" transform="translate(65)"></rect>
</clipPath>
</defs>
</svg>