<svg width="113" height="30" viewBox="0 0 113 30" fill="none" xmlns="http://www.w3.org/2000/svg">
<path d="M15.5977 30C23.8819 30 30.5977 23.2843 30.5977 15C30.5977 11.2726 29.2381 7.86271 26.9878 5.23923L5.83688 26.3901C8.46036 28.6404 11.8702 30 15.5977 30Z" fill="white"/>
<path d="M25.3558 3.60763C22.7327 1.35867 19.3238 0 15.5977 0C7.31339 0 0.597656 6.71573 0.597656 15C0.597656 18.7262 1.95633 22.135 4.20528 24.7582L25.3558 3.60763Z" fill="white"/>
<g clip-path="url(#clip0_169_1556)">
<path d="M43.2186 21.6499H39.6858L45.0618 8.2099H48.1914L53.6634 21.6499H49.9194L49.1514 19.6723H43.9866L43.2186 21.6499ZM45.0234 16.8883H48.1338L46.5786 12.3763L45.0234 16.8883ZM57.9972 11.9539L58.2468 13.9507C59.0724 12.9715 60.2628 12.2611 61.3188 11.9539L61.6068 15.2179C60.3972 15.2371 59.3028 15.5251 58.4004 16.1587V21.6499H55.2708V15.7171L54.8676 12.2419L57.9972 11.9539ZM63.8628 18.0403V14.7379H62.5572V12.0499H63.9396L64.1508 9.7075L66.9924 9.4387V12.0499H69.7956L69.5076 14.7379H66.9924V17.7523C66.9924 18.5779 67.338 18.9619 67.9332 18.9619C68.2788 18.9619 68.778 18.8659 69.2964 18.5587L70.3716 21.0355C69.546 21.5731 68.5284 21.8419 67.434 21.8419C65.3028 21.8419 63.8628 20.6899 63.8628 18.0403ZM73.438 11.0707C72.4396 11.0707 71.6332 10.2451 71.6332 9.2467C71.6332 8.2483 72.4396 7.4419 73.438 7.4419C74.4556 7.4419 75.262 8.2483 75.262 9.2467C75.262 10.2451 74.4556 11.0707 73.438 11.0707ZM75.0124 11.9539V21.6499H71.8828V12.2419L75.0124 11.9539ZM80.9245 15.2563L82.2109 15.5635C84.0349 16.0051 84.9757 16.9459 84.9757 18.5971C84.9757 20.5363 83.5549 21.8419 80.9629 21.8419C79.4653 21.8419 78.0061 21.4771 76.7965 20.7667L77.8141 18.5011C78.8893 19.0387 79.9261 19.3459 80.8669 19.3459C81.5005 19.3459 81.8077 19.1923 81.8077 18.8467C81.8077 18.5395 81.6733 18.4435 81.1357 18.3091L79.8493 18.0019C78.0061 17.5603 77.0845 16.6387 77.0845 15.1027C77.0845 13.1635 78.4861 11.8579 81.0013 11.8579C82.4605 11.8579 83.7469 12.2611 84.8797 12.9331L83.8621 15.1987C82.8637 14.6227 81.9997 14.3539 81.0781 14.3539C80.5213 14.3539 80.2525 14.4883 80.2525 14.7571C80.2525 15.0259 80.4061 15.1411 80.9245 15.2563ZM87.0378 18.0403V14.7379H85.7322V12.0499H87.1146L87.3258 9.7075L90.1674 9.4387V12.0499H92.9706L92.6826 14.7379H90.1674V17.7523C90.1674 18.5779 90.513 18.9619 91.1082 18.9619C91.4538 18.9619 91.953 18.8659 92.4714 18.5587L93.5466 21.0355C92.721 21.5731 91.7034 21.8419 90.609 21.8419C88.4778 21.8419 87.0378 20.6899 87.0378 18.0403ZM97.8034 11.9539L98.053 13.9507C98.8786 12.9715 100.069 12.2611 101.125 11.9539L101.413 15.2179C100.203 15.2371 99.109 15.5251 98.2066 16.1587V21.6499H95.077V15.7171L94.6738 12.2419L97.8034 11.9539ZM102.545 23.1859C104.081 23.1859 104.868 22.8211 105.214 21.9763L105.291 21.7651L101.662 12.0499H105.022L106.808 17.7907L108.67 12.0499H111.915L109.4 18.7891L108.209 21.9763C107.23 24.6259 105.79 25.8355 103.313 26.0659L102.545 23.1859Z" fill="white"/>
</g>
<defs>
<clipPath id="clip0_169_1556">
<rect width="72.6" height="30" fill="white" transform="translate(39.5977)"/>
</clipPath>
</defs>
</svg>
