<svg width="142" height="30" viewBox="0 0 142 30" fill="none" xmlns="http://www.w3.org/2000/svg">
<path fill-rule="evenodd" clip-rule="evenodd" d="M11.2883 18.75V3.75L4.80078 7.5V22.5L17.7656 30L24.2532 26.25L11.2883 18.75Z" fill="#181717"/>
<path fill-rule="evenodd" clip-rule="evenodd" d="M17.7656 15L30.7305 22.5V15L24.2532 11.25V3.75L17.7656 0V15Z" fill="#181717"/>
<g clip-path="url(#clip0_242_1543)">
<path d="M42.474 19.59H55.884V21.48H40.278V9.20398H42.474V19.59ZM57.1621 16.962C57.1621 13.686 59.6101 12.228 64.8481 12.228C70.1041 12.228 72.5341 13.686 72.5341 16.962C72.5341 20.238 70.1041 21.696 64.8481 21.696C59.6101 21.696 57.1621 20.238 57.1621 16.962ZM59.2141 16.962C59.2141 19.086 60.6541 19.932 64.8481 19.932C69.0421 19.932 70.4821 19.086 70.4821 16.962C70.4821 14.856 69.0421 13.992 64.8481 13.992C60.6541 13.992 59.2141 14.856 59.2141 16.962ZM88.4471 12.912V20.076C88.4471 23.64 86.2331 24.954 81.0851 24.954C79.1591 24.954 76.6211 24.666 74.7671 24.126L75.2351 22.524C76.9991 22.992 79.0331 23.316 81.1931 23.316C85.2611 23.316 86.5391 22.38 86.4671 20.094L86.4311 19.662C84.5591 20.436 82.2911 21.03 79.9331 21.03C76.2611 21.03 74.3711 19.752 74.3711 16.71C74.3711 13.38 77.0711 12.282 81.2111 12.282C84.0011 12.282 86.5571 12.606 88.4471 12.912ZM76.4231 16.692C76.4231 18.618 77.5391 19.41 80.0951 19.41C82.1651 19.41 84.3071 18.978 86.3771 18.276V14.352C84.7751 14.136 82.7051 13.974 80.9411 13.974C78.1151 13.974 76.4231 14.676 76.4231 16.692ZM92.8847 8.73598V11.166H90.8327V8.73598H92.8847ZM90.8327 21.48V12.462H92.8847V21.48H90.8327ZM109.082 12.912V24.72H107.03V20.004C105.122 20.886 102.818 21.66 100.424 21.66C97.0042 21.66 95.0782 20.292 95.0782 17.052C95.0782 13.452 97.7602 12.282 101.792 12.282C104.582 12.282 107.192 12.588 109.082 12.912ZM97.1302 16.962C97.1302 19.086 98.2462 19.932 100.802 19.932C102.872 19.932 104.96 19.338 107.03 18.564V14.352C105.428 14.136 103.34 13.974 101.576 13.974C98.7502 13.974 97.1302 14.766 97.1302 16.962ZM111.307 17.376V12.462H113.359V17.106C113.359 18.924 114.475 19.95 117.211 19.95C118.723 19.95 120.793 19.518 123.007 18.78V12.462H125.059V21.48H123.277L123.097 20.184C121.171 20.994 118.849 21.696 116.563 21.696C113.251 21.696 111.307 20.472 111.307 17.376ZM134.682 20.04C137.31 20.04 139.524 19.644 140.442 19.446L140.874 20.994C139.344 21.39 136.824 21.696 134.52 21.696C129.588 21.696 127.176 20.454 127.176 16.962C127.176 13.542 129.786 12.246 134.232 12.246C138.318 12.246 141.198 13.29 141.198 16.494C141.198 16.8 141.162 17.304 141.126 17.502H129.192C129.444 19.554 131.118 20.04 134.682 20.04ZM134.16 13.704C130.956 13.704 129.408 14.352 129.192 16.332H139.182C139.02 14.55 137.85 13.704 134.16 13.704Z" fill="#181717"/>
</g>
<defs>
<clipPath id="clip0_242_1543">
<rect width="102.6" height="30" fill="white" transform="translate(39)"/>
</clipPath>
</defs>
</svg>
