<svg width="192" height="50" viewBox="0 0 192 50" fill="none" xmlns="http://www.w3.org/2000/svg">
<path fill-rule="evenodd" clip-rule="evenodd" d="M36.6795 50L50 0L0 13.3205L11.1973 24.5177V24.5175L39.3826 10.6179L25.2899 38.6102H25.2897L36.6795 50Z" fill="#181717"></path>
<path opacity="0.5" fill-rule="evenodd" clip-rule="evenodd" d="M39.3826 10.6179L25.2899 38.6102H11.1973V24.5175L39.3826 10.6179Z" fill="#181717"></path>
<g clip-path="url(#clip0_67_2044)">
<path d="M76.32 36.684C74.7627 36.684 73.312 36.4067 71.968 35.852C70.6453 35.276 69.4827 34.4867 68.48 33.484C67.4773 32.4814 66.688 31.308 66.112 29.964C65.5573 28.5987 65.28 27.1267 65.28 25.548C65.28 23.9907 65.5573 22.5507 66.112 21.228C66.688 19.884 67.4773 18.7107 68.48 17.708C69.4827 16.7054 70.6453 15.9267 71.968 15.372C73.312 14.796 74.7627 14.508 76.32 14.508C77.8773 14.508 79.3173 14.796 80.64 15.372C81.9627 15.9267 83.1253 16.7054 84.128 17.708C85.1307 18.7107 85.9093 19.884 86.464 21.228C87.0187 22.5507 87.296 23.9907 87.296 25.548C87.296 27.1267 87.0187 28.5987 86.464 29.964C85.9093 31.308 85.1307 32.4814 84.128 33.484C83.1253 34.4867 81.9627 35.276 80.64 35.852C79.3173 36.4067 77.8773 36.684 76.32 36.684ZM76.32 33.58C77.3653 33.58 78.3467 33.3774 79.264 32.972C80.2027 32.5454 81.024 31.9694 81.728 31.244C82.432 30.5187 82.976 29.676 83.36 28.716C83.744 27.7347 83.936 26.6787 83.936 25.548C83.936 24.4387 83.744 23.404 83.36 22.444C82.976 21.484 82.432 20.6414 81.728 19.916C81.024 19.1907 80.2133 18.6254 79.296 18.22C78.3787 17.8147 77.3867 17.612 76.32 17.612C75.2533 17.612 74.2507 17.8147 73.312 18.22C72.3733 18.6254 71.552 19.1907 70.848 19.916C70.1653 20.6414 69.6213 21.484 69.216 22.444C68.832 23.404 68.64 24.4387 68.64 25.548C68.64 26.6787 68.832 27.7347 69.216 28.716C69.6213 29.676 70.1653 30.5187 70.848 31.244C71.552 31.9694 72.3733 32.5454 73.312 32.972C74.2507 33.3774 75.2533 33.58 76.32 33.58ZM94.0338 43.5H90.8658V28.428C90.8658 26.8707 91.2284 25.4734 91.9538 24.236C92.7004 22.9987 93.7031 22.028 94.9618 21.324C96.2204 20.5987 97.6391 20.236 99.2178 20.236C100.796 20.236 102.215 20.6094 103.474 21.356C104.732 22.0814 105.724 23.0734 106.45 24.332C107.175 25.5694 107.538 26.9347 107.538 28.428C107.538 30.0067 107.186 31.4254 106.482 32.684C105.778 33.9214 104.807 34.9027 103.57 35.628C102.354 36.332 100.946 36.684 99.3458 36.684C98.0871 36.684 96.9244 36.3854 95.8578 35.788C94.8124 35.1907 93.9698 34.412 93.3298 33.452C92.7111 32.4707 92.4018 31.404 92.4018 30.252L94.0338 31.084V43.5ZM99.2178 33.708C100.199 33.708 101.074 33.4734 101.842 33.004C102.631 32.5134 103.25 31.8734 103.698 31.084C104.146 30.2734 104.37 29.3987 104.37 28.46C104.37 27.5 104.146 26.6254 103.698 25.836C103.25 25.0467 102.631 24.4174 101.842 23.948C101.074 23.4787 100.199 23.244 99.2178 23.244C98.2364 23.244 97.3511 23.4787 96.5618 23.948C95.7938 24.4174 95.1751 25.0467 94.7058 25.836C94.2578 26.6254 94.0338 27.5 94.0338 28.46C94.0338 29.3987 94.2578 30.2734 94.7058 31.084C95.1751 31.8734 95.7938 32.5134 96.5618 33.004C97.3511 33.4734 98.2364 33.708 99.2178 33.708ZM118.252 36.716C116.972 36.716 115.884 36.46 114.988 35.948C114.092 35.436 113.409 34.732 112.94 33.836C112.492 32.9187 112.268 31.8627 112.268 30.668V16.556H115.436V30.572C115.436 31.596 115.713 32.396 116.268 32.972C116.844 33.548 117.601 33.836 118.54 33.836C119.052 33.836 119.564 33.7507 120.076 33.58C120.609 33.4094 121.068 33.1854 121.452 32.908V35.82C121.046 36.076 120.556 36.2894 119.98 36.46C119.404 36.6307 118.828 36.716 118.252 36.716ZM121.452 23.372H109.164V20.62H121.452V23.372ZM126.162 20.62H129.33V36.3H126.162V20.62ZM127.73 17.516C127.367 17.516 127.026 17.4307 126.706 17.26C126.386 17.068 126.13 16.812 125.938 16.492C125.746 16.172 125.65 15.82 125.65 15.436C125.65 15.052 125.746 14.7 125.938 14.38C126.13 14.06 126.386 13.804 126.706 13.612C127.026 13.42 127.367 13.324 127.73 13.324C128.114 13.324 128.455 13.42 128.754 13.612C129.074 13.804 129.319 14.06 129.49 14.38C129.682 14.7 129.778 15.052 129.778 15.436C129.778 15.82 129.682 16.172 129.49 16.492C129.319 16.812 129.074 17.068 128.754 17.26C128.455 17.4307 128.114 17.516 127.73 17.516ZM153.947 20.172C155.525 20.172 156.848 20.524 157.915 21.228C159.003 21.932 159.824 22.8814 160.379 24.076C160.955 25.2707 161.243 26.5934 161.243 28.044V36.3H158.075V28.556C158.075 27.596 157.915 26.7107 157.595 25.9C157.296 25.0894 156.816 24.4387 156.155 23.948C155.515 23.4574 154.704 23.212 153.723 23.212C152.784 23.212 151.995 23.4574 151.355 23.948C150.715 24.4174 150.235 25.0574 149.915 25.868C149.595 26.6574 149.435 27.532 149.435 28.492V36.3H146.267V28.492C146.267 27.532 146.107 26.6574 145.787 25.868C145.488 25.0574 145.008 24.4174 144.347 23.948C143.707 23.4574 142.896 23.212 141.915 23.212C140.933 23.212 140.123 23.4574 139.483 23.948C138.864 24.4387 138.405 25.0894 138.107 25.9C137.808 26.7107 137.659 27.596 137.659 28.556V36.3H134.491V28.076C134.491 26.604 134.757 25.2707 135.291 24.076C135.845 22.8814 136.656 21.932 137.723 21.228C138.811 20.524 140.133 20.172 141.691 20.172C143.013 20.172 144.155 20.428 145.115 20.94C146.096 21.452 146.853 22.156 147.387 23.052C147.941 23.948 148.229 24.9827 148.251 26.156H147.547C147.589 24.9827 147.877 23.948 148.411 23.052C148.965 22.156 149.712 21.452 150.651 20.94C151.611 20.428 152.709 20.172 153.947 20.172ZM172.652 36.684C171.137 36.684 169.783 36.3107 168.588 35.564C167.415 34.8174 166.487 33.8254 165.804 32.588C165.121 31.3294 164.78 29.9427 164.78 28.428C164.78 26.9347 165.143 25.5694 165.868 24.332C166.615 23.0734 167.617 22.0814 168.876 21.356C170.135 20.6094 171.553 20.236 173.132 20.236C174.711 20.236 176.129 20.5987 177.388 21.324C178.647 22.028 179.639 22.9987 180.364 24.236C181.111 25.4734 181.484 26.8707 181.484 28.428V36.3H178.476V30.444L179.564 29.612C179.564 30.9347 179.265 32.1294 178.668 33.196C178.092 34.2627 177.281 35.116 176.236 35.756C175.212 36.3747 174.017 36.684 172.652 36.684ZM173.132 33.676C174.113 33.676 174.999 33.4414 175.788 32.972C176.577 32.5027 177.196 31.8734 177.644 31.084C178.092 30.2734 178.316 29.3987 178.316 28.46C178.316 27.5 178.092 26.6254 177.644 25.836C177.196 25.0467 176.577 24.4174 175.788 23.948C174.999 23.4574 174.113 23.212 173.132 23.212C172.151 23.212 171.265 23.4574 170.476 23.948C169.708 24.4174 169.089 25.0467 168.62 25.836C168.172 26.6254 167.948 27.5 167.948 28.46C167.948 29.3987 168.172 30.2734 168.62 31.084C169.089 31.8734 169.708 32.5027 170.476 32.972C171.265 33.4414 172.151 33.676 173.132 33.676ZM186.662 13.42H189.83V36.3H186.662V13.42Z" fill="#181717"></path>
</g>
<defs>
<clipPath id="clip0_67_2044">
<rect width="127" height="50" fill="white" transform="translate(65)"></rect>
</clipPath>
</defs>
</svg>