<svg width="97" height="30" viewBox="0 0 97 30" fill="none" xmlns="http://www.w3.org/2000/svg">
<path d="M20.8063 8.5943C26.0695 8.63065 30.4037 13.0335 30.331 18.2725C30.2623 23.4913 25.9443 27.7609 20.7295 27.773C15.4946 27.7851 11.124 23.3782 11.1604 18.1311C11.1967 12.8315 15.5188 8.56198 20.8063 8.5943ZM28.0366 18.1917C28.0447 14.1201 24.7486 10.8159 20.6972 10.8321C16.7225 10.8482 13.4507 14.1322 13.4103 18.1473C13.3658 22.1098 16.6862 25.4665 20.6528 25.4786C24.7688 25.4948 28.0286 22.2795 28.0366 18.1917Z" fill="#181717"/>
<path d="M14.6848 29.316C9.23168 28.1406 5.02675 22.6067 4.8571 16.7699C4.67937 10.7231 8.79947 5.13669 14.6524 3.48057C20.0126 1.96583 26.5482 4.15514 28.8426 8.31563C22.7287 2.62567 13.0638 3.43671 8.54903 10.6867C5.1762 16.1034 6.0285 25.002 14.6848 29.316Z" fill="#181717"/>
<path d="M12.4597 30C6.24328 28.66 1.44971 22.3515 1.25631 15.6976C1.0537 8.80421 5.75057 2.43581 12.4229 0.547848C18.5334 -1.17894 25.984 1.31685 28.5995 6.05977C21.6297 -0.426732 10.6119 0.497849 5.46508 8.76277C1.62009 14.9378 2.5917 25.0821 12.4597 30Z" fill="#181717"/>
<path d="M28.6189 10.4363C22.5276 5.0317 15.1478 7.30179 12.0011 11.6845C9.95724 14.5362 9.36346 17.6748 10.2481 21.0395C11.1206 24.3477 13.2856 26.6501 16.6181 28.3062C12.094 27.5145 8.45058 23.0309 8.02645 18.1231C7.59424 13.078 10.8742 8.11369 15.7698 6.4091C20.4837 4.7651 26.0095 6.47373 28.6189 10.4363Z" fill="#181717"/>
<path d="M20.7454 21.8392C22.7643 21.8392 24.401 20.2026 24.401 18.1837C24.401 16.1647 22.7643 14.5281 20.7454 14.5281C18.7265 14.5281 17.0898 16.1647 17.0898 18.1837C17.0898 20.2026 18.7265 21.8392 20.7454 21.8392Z" fill="#181717"/>
<g clip-path="url(#clip0_242_1572)">
<path d="M45.6317 21.844C41.6945 21.844 39.9809 20.0284 39.9809 17.3968V17.05H42.1433V17.2744C42.1433 18.9676 42.8573 19.8244 45.7133 19.8244C47.7329 19.8244 48.4673 19.2736 48.4673 18.0088C48.4673 16.7644 48.0593 16.3156 45.9581 15.8872L43.6325 15.418C41.2865 14.9692 40.0217 13.8268 40.0217 11.6644C40.0217 9.64481 41.5925 7.76801 45.1217 7.76801C48.8957 7.76801 50.4053 9.88961 50.4053 12.3172V12.562H48.2429V12.3376C48.2429 10.6648 47.5085 9.78761 45.0605 9.78761C43.0409 9.78761 42.2249 10.3588 42.2249 11.5624C42.2249 12.8068 42.7757 13.1536 44.6525 13.5616L46.9781 14.0512C49.5485 14.5816 50.6705 15.8668 50.6705 17.9272C50.6705 20.0692 49.1201 21.844 45.6317 21.844ZM54.4143 10.216H52.2315L52.2111 7.97201H54.4143V10.216ZM54.4347 21.64H52.2315V11.44H54.4347V21.64ZM60.2954 20.6812C57.5006 20.6812 55.9502 18.8452 55.9502 15.9892C55.9502 13.1332 57.521 11.2972 60.377 11.2972C62.009 11.2972 63.2738 11.9908 63.7634 13.174H63.845V11.5012H65.8646V20.9056C65.8646 23.9044 64.1102 25.312 61.1522 25.312C58.2758 25.312 56.4806 23.9452 56.4806 21.4972H58.6634C58.6634 22.8844 59.1734 23.3536 61.2134 23.3536C63.1922 23.3536 63.6818 22.7824 63.6818 20.9056V18.886H63.6002C63.131 19.8652 61.9478 20.6812 60.2954 20.6812ZM58.1534 15.9892C58.1534 18.07 59.0102 18.8044 60.9278 18.8044C62.5802 18.8044 63.6818 18.0088 63.6818 16.2952V15.6628C63.6818 13.9696 62.5802 13.174 60.887 13.174C58.9898 13.174 58.1534 13.9084 58.1534 15.9892ZM70.2356 21.64H68.0324V11.5012H70.052V13.3984H70.1336C70.6028 12.3172 71.684 11.2972 73.6628 11.2972C76.2944 11.2972 77.4776 12.97 77.4776 15.2752V21.64H75.2744V15.7648C75.2744 13.9492 74.7032 13.1944 72.8468 13.1944C71.0516 13.1944 70.2356 13.888 70.2356 15.7852V21.64ZM84.0556 21.844C80.71 21.844 79.1392 19.7224 79.1392 16.5604C79.1392 13.4188 81.016 11.2972 84.0352 11.2972C86.7688 11.2972 88.6864 12.9292 88.6864 15.7036C88.6864 16.234 88.6252 16.7848 88.564 17.0908H81.1996C81.2812 18.9472 81.9544 19.8856 84.076 19.8856C85.7692 19.8856 86.422 19.3144 86.422 18.3964V18.2332H88.6048V18.4168C88.6048 20.4976 86.7892 21.844 84.0556 21.844ZM83.9944 13.1536C82.0768 13.1536 81.3424 14.0512 81.22 15.622H86.5852C86.6668 13.888 85.7284 13.1536 83.9944 13.1536ZM94.5881 21.64C92.3237 21.64 91.1405 20.8036 91.1405 18.5188V13.3372H89.4473V11.5012H91.1813L91.6505 8.99201H93.3437V11.5012H96.4037V13.3372H93.3437V18.4168C93.3437 19.4776 93.7925 19.6612 95.1593 19.6612H96.4037V21.4564C95.9753 21.5584 95.2817 21.64 94.5881 21.64Z" fill="#181717"/>
</g>
<defs>
<clipPath id="clip0_242_1572">
<rect width="57" height="30" fill="white" transform="translate(39.8008)"/>
</clipPath>
</defs>
</svg>
