<svg width="118" height="30" viewBox="0 0 118 30" fill="none" xmlns="http://www.w3.org/2000/svg">
<path fill-rule="evenodd" clip-rule="evenodd" d="M16.0958 29.1353C22.3311 29.1353 27.8605 25.0176 29.6252 19.0176C24.7178 19.8355 19.4268 17.8026 16.0958 14.1941C12.7649 17.8026 7.47383 19.8355 2.56641 19.0176C4.44876 25.1353 9.86052 29.1353 16.0958 29.1353Z" fill="#181717"/>
<path opacity="0.5" fill-rule="evenodd" clip-rule="evenodd" d="M30.2128 16.0764C30.2128 9.48107 26.7053 3.43234 20.0951 1.48816C20.7022 5.13063 19.6556 9.10319 17.7422 12.194C20.9051 15.5076 25.7196 17.1997 30.2128 16.0764Z" fill="#181717"/>
<path opacity="0.5" fill-rule="evenodd" clip-rule="evenodd" d="M14.3295 12.0764C12.3687 9.05975 11.3776 5.08221 11.9766 1.48816C5.41984 3.45518 1.97656 9.53691 1.97656 16.0764C6.44911 17.1945 11.3143 15.5439 14.3295 12.0764Z" fill="#181717"/>
<path fill-rule="evenodd" clip-rule="evenodd" d="M16.0954 9.60591C17.0365 7.8412 17.5071 5.8412 17.5071 3.72355C17.5071 2.78238 17.3895 1.8412 17.1542 0.900024C16.8012 0.900024 16.4483 0.900024 16.0954 0.900024C15.7424 0.900024 15.3895 0.900024 15.0365 0.900024C14.8012 1.8412 14.6836 2.78238 14.6836 3.72355C14.6836 5.8412 15.2718 7.8412 16.0954 9.60591Z" fill="#181717"/>
<g clip-path="url(#clip0_242_1588)">
<path d="M47.925 17.8978C47.925 17.2246 47.133 17.0068 45.9648 16.7098L44.2818 16.294C41.985 15.7198 39.9258 14.8882 39.9258 12.1162C39.9258 9.32441 42.3612 7.78001 45.2916 7.78001C47.8854 7.78001 49.5288 8.51261 50.4198 9.02741V12.6112C49.0932 11.7796 46.9152 11.0074 45.1728 11.0074C44.1432 11.0074 43.5294 11.2648 43.5294 11.8588C43.5294 12.5518 44.3412 12.7696 45.6876 13.126L47.1528 13.522C49.212 14.0764 51.39 14.8288 51.39 17.68C51.39 20.3728 49.0338 21.838 45.8856 21.838C43.4106 21.838 41.4108 21.046 40.5 20.3926V16.9276C41.8464 17.9176 44.3016 18.7294 46.1034 18.7294C47.4894 18.7294 47.925 18.4324 47.925 17.8978ZM54.5741 10.1758C53.2673 10.1758 52.4753 9.58181 52.4753 8.57201C52.4753 7.56221 53.2673 6.98801 54.5741 6.98801C55.9007 6.98801 56.6531 7.56221 56.6531 8.57201C56.6531 9.58181 55.9007 10.1758 54.5741 10.1758ZM52.9703 11.146H56.1383V21.64H52.9703V11.146ZM68.0872 19.363C68.0872 23.5012 65.533 24.9664 62.5828 24.9664C60.9196 24.9664 59.494 24.4912 58.6228 23.9566V20.7688C59.593 21.5014 60.88 21.9964 62.2264 21.9964C64.3252 21.9964 64.9192 21.0856 64.9192 19.858V19.7392C64.246 20.1748 63.3748 20.5114 62.2264 20.5114C59.7514 20.5114 57.8506 18.8482 57.8506 16.195C57.8506 12.532 60.8008 10.948 63.652 10.948C65.632 10.948 67.0378 11.4628 68.0872 11.8786V19.363ZM61.1374 15.7594C61.1374 17.2048 62.1076 17.6602 63.157 17.6602C63.7708 17.6602 64.4044 17.5018 64.9192 17.3038V13.9576C64.543 13.8586 64.1074 13.7794 63.6322 13.7794C62.2858 13.7794 61.1374 14.3734 61.1374 15.7594ZM75.3484 14.017C74.5366 14.017 73.7644 14.1952 73.1902 14.4328V21.64H70.0222V11.146H72.9922V12.3934C73.8238 11.641 75.1702 10.948 76.7938 10.948C79.3876 10.948 80.3182 12.6112 80.3182 14.908V21.64H77.1502V15.7594C77.1502 14.7496 76.6948 14.017 75.3484 14.017ZM87.1529 18.769C87.9647 18.769 88.7369 18.5908 89.3111 18.3532V11.146H92.4791V21.64H89.5091V20.3926C88.6775 21.145 87.3311 21.838 85.7075 21.838C83.1137 21.838 82.1831 20.1748 82.1831 17.878V11.146H85.3511V17.0266C85.3511 18.0364 85.8065 18.769 87.1529 18.769ZM99.5911 14.017C98.8585 14.017 98.1655 14.215 97.6309 14.4328V21.64H94.4629V11.146H97.4329V12.3934C98.2447 11.641 99.4921 10.948 101.036 10.948C102.561 10.948 103.472 11.5816 103.947 12.6112C104.719 11.7796 106.085 10.948 107.768 10.948C110.224 10.948 111.095 12.6112 111.095 14.908V21.64H107.927V15.7594C107.927 14.7298 107.531 14.017 106.323 14.017C105.59 14.017 104.878 14.215 104.343 14.4328C104.363 14.5912 104.363 14.7496 104.363 14.908V21.64H101.195V15.7594C101.195 14.7298 100.799 14.017 99.5911 14.017ZM114.669 21.937C113.58 21.937 112.709 21.0658 112.709 19.9768C112.709 18.8878 113.58 17.9968 114.669 17.9968C115.758 17.9968 116.649 18.8878 116.649 19.9768C116.649 21.0658 115.758 21.937 114.669 21.937Z" fill="#181717"/>
</g>
<defs>
<clipPath id="clip0_242_1588">
<rect width="77.4" height="30" fill="white" transform="translate(39.8008)"/>
</clipPath>
</defs>
</svg>
