<svg width="204" height="51" viewBox="0 0 204 51" fill="none" xmlns="http://www.w3.org/2000/svg">
<path d="M14.6077 33.6425C9.19868 33.6425 0.750977 34.4193 0.750977 26.6177C0.750977 22.6494 3.6375 19.2073 7.77577 19.2073C21.2744 19.2073 32.211 30.1439 32.211 43.6425V43.7527C32.211 47.637 29.0705 50.7775 25.1862 50.7775C17.5035 50.7775 18.1614 42.5854 18.1614 37.2238C18.1614 35.2403 16.5636 33.6425 14.6077 33.6425Z" fill="#181717"></path>
<path d="M33.6442 14.6068C33.6442 9.19775 34.421 0.750049 26.6195 0.750049C25.9465 0.750049 19.209 0.0253229 19.209 7.77484C19.209 21.2735 30.1456 32.2101 43.6442 32.2101C47.5166 32.2101 50.7792 29.104 50.7792 25.1853C50.7792 17.5026 42.5871 18.1605 37.2255 18.1605C35.242 18.1605 33.6442 16.5627 33.6442 14.6068Z" fill="#181717"></path>
<g clip-path="url(#clip0_16_2632)">
<path d="M74.2092 29.746H70.7062V37H65.9942V14.742H74.2092C79.6342 14.742 83.0132 17.315 83.0132 22.151C83.0132 26.987 79.6342 29.746 74.2092 29.746ZM74.1782 18.71H70.7062V25.778H74.1782C76.8442 25.778 78.3322 24.383 78.3322 22.182C78.3322 19.981 76.8442 18.71 74.1782 18.71ZM90.9289 37H86.2169V14.742H94.9279C100.539 14.742 103.794 17.346 103.794 21.965C103.794 24.972 101.934 27.359 98.7719 28.413L104.507 37H98.8959L93.8739 29.126H90.9289V37ZM90.9289 18.648V25.251H94.7109C97.5629 25.251 99.0819 24.135 99.0819 21.965C99.0819 19.764 97.5629 18.648 94.7109 18.648H90.9289ZM122.412 32.908V37H107.439V14.742H122.195V18.834H112.151V23.515H121.265V27.576H112.151V32.908H122.412ZM140.441 37H126.057V14.742H130.769V32.753H140.441V37ZM161.178 14.742V28.537C161.178 33.807 157.83 37.465 152.033 37.465C146.143 37.465 142.857 33.807 142.857 28.537V14.742H147.569V28.63C147.569 31.389 148.902 33.249 152.033 33.249C155.133 33.249 156.466 31.389 156.466 28.63V14.742H161.178ZM173.59 37H165.685V14.742H173.59C180.658 14.742 184.936 19.268 184.936 25.747C184.936 32.226 180.503 37 173.59 37ZM170.397 18.803V32.939H173.342C177.775 32.939 180.1 30.366 180.1 25.747C180.1 21.314 177.775 18.803 173.342 18.803H170.397ZM203.181 32.908V37H188.208V14.742H202.964V18.834H192.92V23.515H202.034V27.576H192.92V32.908H203.181Z" fill="#212121"></path>
</g>
<defs>
<clipPath id="clip0_16_2632">
<rect width="138" height="50" fill="white" transform="translate(66 1)"></rect>
</clipPath>
</defs>
</svg>