<svg width="30" height="30" viewBox="0 0 30 30" fill="none" xmlns="http://www.w3.org/2000/svg">
<mask id="mask0_169_1457" style="mask-type:luminance" maskUnits="userSpaceOnUse" x="0" y="0" width="30" height="30">
<path d="M30 0H0V30H30V0Z" fill="white"/>
</mask>
<g mask="url(#mask0_169_1457)">
<path d="M23.937 0.00195312H6.05925C2.7109 0.00195312 0 2.71285 0 6.0612V23.9427C0 27.2873 2.7109 29.9982 6.05925 29.9982H23.9408C27.2854 29.9982 30 27.2873 30 23.9389V6.0612C29.9963 2.71285 27.2854 0.00195312 23.937 0.00195312Z" fill="url(#paint0_linear_169_1457)"/>
<path d="M14.8697 6.89355L15.4771 5.8437C15.8521 5.1875 16.6882 4.96631 17.3444 5.34125C18.0006 5.7162 18.2218 6.5523 17.8468 7.2085L11.9938 17.3398H16.227C17.5993 17.3398 18.368 18.9521 17.7718 20.0695H5.36093C4.60353 20.0695 3.99609 19.462 3.99609 18.7046C3.99609 17.9472 4.60353 17.3398 5.36093 17.3398H8.84048L13.295 9.61945L11.9039 7.20475C11.529 6.54855 11.7501 5.71995 12.4063 5.3375C13.0625 4.96256 13.8912 5.18375 14.2736 5.83995L14.8697 6.89355Z" fill="white"/>
<path d="M9.60642 21.4754L8.29412 23.7514C7.91917 24.4076 7.08307 24.6288 6.42687 24.2538C5.77067 23.8789 5.54947 23.0428 5.92442 22.3866L6.89932 20.6993C8.00162 20.3581 8.89777 20.6206 9.60642 21.4754Z" fill="white"/>
<path d="M20.9078 17.3472H24.4586C25.216 17.3472 25.8234 17.9546 25.8234 18.712C25.8234 19.4694 25.216 20.0768 24.4586 20.0768H22.4863L23.8174 22.3865C24.1924 23.0427 23.9712 23.8714 23.315 24.2538C22.6588 24.6288 21.8302 24.4076 21.4477 23.7514C19.2055 19.8631 17.5219 16.9535 16.4046 15.015C15.261 13.0427 16.0784 11.063 16.8846 10.3918C17.7807 11.9291 19.1193 14.2501 20.9078 17.3472Z" fill="white"/>
</g>
<defs>
<linearGradient id="paint0_linear_169_1457" x1="15" y1="0.00195312" x2="15" y2="29.9982" gradientUnits="userSpaceOnUse">
<stop stop-color="#00BFFC"/>
<stop offset="1" stop-color="#0073F6"/>
</linearGradient>
</defs>
</svg>
