<svg width="35" height="36" viewBox="0 0 35 36" fill="none" xmlns="http://www.w3.org/2000/svg">
<g clip-path="url(#clip0_297_2694)">
<path d="M8.78516 19.5381H13.9121V19.4941V9.21582C13.9121 7.23688 15.5221 5.62695 17.501 5.62695C18.7474 5.62695 19.8471 6.26605 20.4907 7.2334H25.9901C25.0927 3.37492 21.6326 0.5 17.501 0.5C12.6874 0.5 8.78516 4.40223 8.78516 9.21582V19.5381Z" fill="#061D19"/>
<path d="M19.0381 26.7167V21.5898H8.71582C6.73688 21.5898 5.12695 19.9799 5.12695 18.0009C5.12695 16.7545 5.76605 15.6548 6.7334 15.0112V9.51172C2.87492 10.4092 0 13.8693 0 18.0009C0 22.8145 3.90223 26.7167 8.71582 26.7167H19.0381Z" fill="#061D19"/>
<path d="M26.2128 16.4609H21.0859V26.7832C21.0859 28.7621 19.4759 30.3721 17.497 30.3721C16.2506 30.3721 15.1509 29.733 14.5073 28.7656H9.00781C9.9053 32.6241 13.3654 35.499 17.497 35.499C22.3106 35.499 26.2128 31.5968 26.2128 26.7832V16.4609Z" fill="#061D19"/>
<path d="M26.2832 9.2832H15.9609V14.4102H26.2832C28.2621 14.4102 29.8721 16.0202 29.8721 17.999C29.8721 19.2455 29.233 20.3451 28.2656 20.9887V26.4882C32.1241 25.5907 34.999 22.1307 34.999 17.999C34.999 13.1854 31.0969 9.2832 26.2832 9.2832Z" fill="#061D19"/>
</g>
<defs>
<clipPath id="clip0_297_2694">
<rect width="35" height="35" fill="white" transform="translate(0 0.5)"/>
</clipPath>
</defs>
</svg>
