<svg width="30" height="30" viewBox="0 0 30 30" fill="none" xmlns="http://www.w3.org/2000/svg">
<path d="M15.9375 13.5938L19.875 9.375L4.59375 1.125C4.5 1.03125 4.3125 1.03125 4.03125 0.9375L15.9375 13.5938Z" fill="#00F076"/>
<path d="M21.5625 19.6875L27.0938 16.6875C27.75 16.3125 28.125 15.75 28.125 15C28.125 14.25 27.75 13.5938 27.0938 13.3125L21.5625 10.3125L17.1562 15L21.5625 19.6875Z" fill="#FFC900"/>
<path d="M2.25 1.78125C1.96875 2.0625 1.875 2.4375 1.875 2.8125V27.1875C1.875 27.5625 1.96875 27.9375 2.25 28.3125L14.625 15L2.25 1.78125Z" fill="#00D6FF"/>
<path d="M15.9375 16.4062L4.03125 29.0625C4.21875 29.0625 4.40625 28.9688 4.59375 28.875L19.875 20.625L15.9375 16.4062Z" fill="#FF3A44"/>
</svg>
