<svg width="155" height="36" viewBox="0 0 155 36" fill="none" xmlns="http://www.w3.org/2000/svg">
<g clip-path="url(#clip0_297_2693)">
<path d="M8.78516 19.5381H13.9121V19.4941V9.21582C13.9121 7.23688 15.5221 5.62695 17.501 5.62695C18.7474 5.62695 19.8471 6.26605 20.4907 7.2334H25.9901C25.0927 3.37492 21.6326 0.5 17.501 0.5C12.6874 0.5 8.78516 4.40223 8.78516 9.21582V19.5381Z" fill="#061D19"/>
<path d="M19.0381 26.7167V21.5898H8.71582C6.73688 21.5898 5.12695 19.9799 5.12695 18.0009C5.12695 16.7545 5.76605 15.6548 6.7334 15.0112V9.51172C2.87492 10.4092 0 13.8693 0 18.0009C0 22.8145 3.90223 26.7167 8.71582 26.7167H19.0381Z" fill="#061D19"/>
<path d="M26.2128 16.4609H21.0859V26.7832C21.0859 28.7621 19.4759 30.3721 17.497 30.3721C16.2506 30.3721 15.1509 29.733 14.5073 28.7656H9.00781C9.9053 32.6241 13.3654 35.499 17.497 35.499C22.3106 35.499 26.2128 31.5968 26.2128 26.7832V16.4609Z" fill="#061D19"/>
<path d="M26.2832 9.2832H15.9609V14.4102H26.2832C28.2621 14.4102 29.8721 16.0202 29.8721 17.999C29.8721 19.2455 29.233 20.3451 28.2656 20.9887V26.4882C32.1241 25.5907 34.999 22.1307 34.999 17.999C34.999 13.1854 31.0969 9.2832 26.2832 9.2832Z" fill="#061D19"/>
</g>
<path d="M49.5922 25.5H46.7672V8.75H49.5922V25.5ZM58.1672 25.5H47.7172V23H58.1672V25.5ZM70.5496 25.5H68.7996C68.3829 25.5 67.9996 25.425 67.6496 25.275C67.2996 25.125 67.0163 24.8833 66.7996 24.55C66.5829 24.2 66.4746 23.7333 66.4746 23.15V18.5V18.125C66.4746 17.3583 66.3163 16.7417 65.9996 16.275C65.6996 15.7917 65.0746 15.55 64.1246 15.55C63.3079 15.55 62.5913 15.7583 61.9746 16.175C61.3579 16.5917 60.8746 17.125 60.5246 17.775L58.8496 15.775C59.1663 15.3417 59.5829 14.925 60.0996 14.525C60.6329 14.1083 61.2579 13.7667 61.9746 13.5C62.6913 13.2167 63.4996 13.075 64.3996 13.075C65.8996 13.075 67.0579 13.4917 67.8746 14.325C68.7079 15.1417 69.1246 16.3 69.1246 17.8V22.375C69.1246 22.6417 69.1746 22.8333 69.2746 22.95C69.3913 23.05 69.5579 23.1 69.7746 23.1H70.5496V25.5ZM62.3996 25.75C61.3996 25.75 60.6079 25.4917 60.0246 24.975C59.4579 24.4583 59.1746 23.7583 59.1746 22.875C59.1746 22.0083 59.4579 21.3 60.0246 20.75C60.5913 20.1833 61.3746 19.7083 62.3746 19.325L66.8246 17.45L67.1496 19.225L63.3746 20.925C62.8413 21.1583 62.4579 21.3917 62.2246 21.625C62.0079 21.8583 61.8996 22.1333 61.8996 22.45C61.8996 22.8 62.0163 23.075 62.2496 23.275C62.4996 23.475 62.8829 23.575 63.3996 23.575C63.8663 23.575 64.2829 23.5083 64.6496 23.375C65.0329 23.2417 65.3579 23.0583 65.6246 22.825C65.9079 22.575 66.1163 22.2833 66.2496 21.95C66.3996 21.6167 66.4746 21.2417 66.4746 20.825L66.5496 22C66.4496 22.55 66.2413 23.1167 65.9246 23.7C65.6079 24.2833 65.1579 24.775 64.5746 25.175C64.0079 25.5583 63.2829 25.75 62.3996 25.75ZM83.4408 25.5H80.6158V17.9C80.6158 17.15 80.4575 16.5417 80.1408 16.075C79.8242 15.6083 79.1908 15.375 78.2408 15.375C77.5575 15.375 77.0158 15.5167 76.6158 15.8C76.2158 16.0667 75.9242 16.45 75.7408 16.95C75.5742 17.4333 75.4908 18.0083 75.4908 18.675L75.3408 17.525C75.4242 16.775 75.6242 16.0583 75.9408 15.375C76.2575 14.6917 76.7158 14.1417 77.3158 13.725C77.9158 13.2917 78.6825 13.075 79.6158 13.075C80.7992 13.075 81.7325 13.4167 82.4158 14.1C83.0992 14.7833 83.4408 15.7583 83.4408 17.025V25.5ZM75.4908 25.5H72.6908V13.325H75.4908V25.5ZM90.49 25.775C89.49 25.775 88.6234 25.525 87.89 25.025C87.1567 24.5083 86.59 23.775 86.19 22.825C85.79 21.875 85.59 20.7417 85.59 19.425C85.59 18.1083 85.79 16.9833 86.19 16.05C86.59 15.1 87.1484 14.3667 87.865 13.85C88.5984 13.3333 89.4567 13.075 90.44 13.075C91.3734 13.075 92.1234 13.2917 92.69 13.725C93.2567 14.1417 93.6734 14.6917 93.94 15.375C94.2234 16.0583 94.4067 16.775 94.49 17.525L94.34 18.675C94.34 18.0083 94.24 17.4333 94.04 16.95C93.8567 16.45 93.5567 16.0667 93.14 15.8C92.7234 15.5167 92.19 15.375 91.54 15.375C90.6567 15.375 89.9234 15.7083 89.34 16.375C88.7567 17.0417 88.465 18.0583 88.465 19.425C88.465 20.7917 88.7567 21.8167 89.34 22.5C89.94 23.1667 90.6817 23.5 91.565 23.5C92.215 23.5 92.74 23.3667 93.14 23.1C93.5567 22.8167 93.8567 22.4333 94.04 21.95C94.24 21.45 94.34 20.8667 94.34 20.2L94.49 21.325C94.4067 22.075 94.2317 22.7917 93.965 23.475C93.6984 24.1417 93.29 24.6917 92.74 25.125C92.19 25.5583 91.44 25.775 90.49 25.775ZM97.14 25.5H94.34V8.75H97.14V25.5ZM102.883 11.6H100.083V8.75H102.883V11.6ZM102.883 25.5H100.083V13.325H102.883V25.5ZM116.595 25.5H113.77V17.9C113.77 17.15 113.612 16.5417 113.295 16.075C112.978 15.6083 112.345 15.375 111.395 15.375C110.712 15.375 110.17 15.5167 109.77 15.8C109.37 16.0667 109.078 16.45 108.895 16.95C108.728 17.4333 108.645 18.0083 108.645 18.675L108.495 17.525C108.578 16.775 108.778 16.0583 109.095 15.375C109.412 14.6917 109.87 14.1417 110.47 13.725C111.07 13.2917 111.837 13.075 112.77 13.075C113.953 13.075 114.887 13.4167 115.57 14.1C116.253 14.7833 116.595 15.7583 116.595 17.025V25.5ZM108.645 25.5H105.845V13.325H108.645V25.5ZM123.722 30.4C122.022 30.4 120.697 30.1583 119.747 29.675C118.814 29.1917 118.347 28.5667 118.347 27.8C118.347 27.4167 118.456 27.0833 118.672 26.8C118.889 26.5333 119.172 26.3083 119.522 26.125C119.872 25.9583 120.239 25.8333 120.622 25.75C120.189 25.6167 119.839 25.4083 119.572 25.125C119.306 24.8417 119.172 24.4667 119.172 24C119.172 23.6333 119.264 23.275 119.447 22.925C119.647 22.575 119.914 22.2333 120.247 21.9C120.581 21.5667 120.956 21.2583 121.372 20.975L121.872 21.175C121.739 21.3583 121.606 21.5833 121.472 21.85C121.339 22.1 121.272 22.35 121.272 22.6C121.272 22.9 121.372 23.1333 121.572 23.3C121.772 23.4667 122.156 23.55 122.722 23.55H126.647C127.847 23.55 128.772 23.7917 129.422 24.275C130.072 24.7417 130.397 25.4333 130.397 26.35C130.397 27.1167 130.147 27.8083 129.647 28.425C129.147 29.0417 128.406 29.525 127.422 29.875C126.439 30.225 125.206 30.4 123.722 30.4ZM123.847 28.3C125.164 28.3 126.164 28.1583 126.847 27.875C127.531 27.6083 127.872 27.2167 127.872 26.7C127.872 26.3667 127.739 26.125 127.472 25.975C127.206 25.8417 126.806 25.775 126.272 25.775H121.197C121.064 25.9083 120.931 26.0667 120.797 26.25C120.681 26.45 120.622 26.6583 120.622 26.875C120.622 27.3083 120.881 27.65 121.397 27.9C121.931 28.1667 122.747 28.3 123.847 28.3ZM124.322 21.875C123.322 21.875 122.439 21.6917 121.672 21.325C120.922 20.9417 120.331 20.4167 119.897 19.75C119.481 19.0833 119.272 18.325 119.272 17.475C119.272 16.6083 119.481 15.85 119.897 15.2C120.331 14.5333 120.922 14.0167 121.672 13.65C122.439 13.2667 123.322 13.075 124.322 13.075C125.322 13.075 126.197 13.2667 126.947 13.65C127.714 14.0167 128.306 14.5333 128.722 15.2C129.139 15.85 129.347 16.6083 129.347 17.475C129.347 18.325 129.139 19.0833 128.722 19.75C128.306 20.4167 127.714 20.9417 126.947 21.325C126.197 21.6917 125.322 21.875 124.322 21.875ZM124.322 19.85C124.989 19.85 125.547 19.65 125.997 19.25C126.447 18.8333 126.672 18.2417 126.672 17.475C126.672 16.7083 126.447 16.125 125.997 15.725C125.547 15.3083 124.989 15.1 124.322 15.1C123.656 15.1 123.089 15.3083 122.622 15.725C122.172 16.125 121.947 16.7083 121.947 17.475C121.947 18.2417 122.172 18.8333 122.622 19.25C123.089 19.65 123.656 19.85 124.322 19.85ZM129.722 11.425L127.222 14.15L126.372 13.6L127.022 10.5L129.722 11.425ZM137.319 25.75C136.119 25.75 135.061 25.4917 134.144 24.975C133.244 24.4417 132.544 23.7 132.044 22.75C131.561 21.7833 131.319 20.675 131.319 19.425C131.319 18.1417 131.561 17.025 132.044 16.075C132.544 15.125 133.228 14.3917 134.094 13.875C134.978 13.3417 135.986 13.075 137.119 13.075C138.336 13.075 139.369 13.325 140.219 13.825C141.069 14.325 141.711 15.0083 142.144 15.875C142.578 16.7417 142.794 17.7417 142.794 18.875C142.794 19.1083 142.786 19.3417 142.769 19.575C142.753 19.7917 142.728 19.9667 142.694 20.1H133.369V18.3H140.844L140.294 18.95C140.294 17.7667 140.019 16.8667 139.469 16.25C138.919 15.6333 138.136 15.325 137.119 15.325C136.153 15.325 135.386 15.6417 134.819 16.275C134.253 16.9083 133.969 17.85 133.969 19.1V19.65C133.969 20.4667 134.103 21.1583 134.369 21.725C134.653 22.2917 135.053 22.725 135.569 23.025C136.086 23.3083 136.678 23.45 137.344 23.45C138.061 23.45 138.644 23.3417 139.094 23.125C139.561 22.9083 139.936 22.6417 140.219 22.325C140.503 21.9917 140.719 21.6583 140.869 21.325L142.594 23.15C142.144 23.8333 141.486 24.4417 140.619 24.975C139.769 25.4917 138.669 25.75 137.319 25.75ZM148.049 25.5H145.249V13.325H148.049V25.5ZM148.049 18.8L147.899 17.675C147.966 17.1083 148.091 16.55 148.274 16C148.474 15.45 148.733 14.9583 149.049 14.525C149.383 14.075 149.783 13.725 150.249 13.475C150.733 13.2083 151.283 13.075 151.899 13.075C152.666 13.075 153.299 13.3167 153.799 13.8C154.299 14.2833 154.549 14.9833 154.549 15.9C154.549 16.4667 154.483 16.9667 154.349 17.4C154.233 17.8167 154.116 18.1167 153.999 18.3H151.124C151.324 18.1 151.499 17.825 151.649 17.475C151.816 17.1083 151.899 16.75 151.899 16.4C151.899 16.0667 151.808 15.7833 151.624 15.55C151.458 15.3 151.166 15.175 150.749 15.175C150.283 15.175 149.841 15.3417 149.424 15.675C149.024 15.9917 148.691 16.425 148.424 16.975C148.174 17.525 148.049 18.1333 148.049 18.8Z" fill="#161516"/>
<defs>
<clipPath id="clip0_297_2693">
<rect width="35" height="35" fill="white" transform="translate(0 0.5)"/>
</clipPath>
</defs>
</svg>
